<svg width="187" height="279" viewBox="0 0 187 279" fill="none" xmlns="http://www.w3.org/2000/svg">
<path d="M186 1H6C3.23857 1 1 3.23858 1 6V278" stroke="black" stroke-opacity="0.13"/>
<path d="M2 29H186V279H2V29Z" fill="#F7F7F7" fill-opacity="0.6"/>
<line x1="1" y1="28.5" x2="186" y2="28.5" stroke="#E2E2E2"/>
<path d="M23.8191 82.6611V80.8213C23.2957 80.8213 22.7527 80.7939 22.1902 80.7393C21.6277 80.6846 21.1003 80.6025 20.6082 80.4932C20.116 80.376 19.5496 80.1729 18.9089 79.8838V77.6338C19.4246 77.8994 19.9285 78.126 20.4207 78.3135C20.9207 78.501 21.4441 78.6494 21.991 78.7588C22.5457 78.8682 23.155 78.9463 23.8191 78.9932V72.4658L22.5652 71.7861C20.1902 70.5127 19.0027 68.9736 19.0027 67.1689C19.0027 66.208 19.3972 65.2744 20.1863 64.3682C20.9753 63.4541 22.1863 62.9268 23.8191 62.7861V60.8408H25.4597V62.7861C26.3816 62.7861 27.4714 62.9463 28.7292 63.2666V65.2939L28.3191 65.1768C27.1394 64.8486 26.1863 64.6494 25.4597 64.5791V70.9541L26.7722 71.7041C28.0066 72.415 28.8503 73.1143 29.3035 73.8018C29.7644 74.4893 29.9949 75.2197 29.9949 75.9932C29.9949 76.6885 29.8191 77.3643 29.4675 78.0205C29.1238 78.6689 28.6277 79.2275 27.9792 79.6963C27.3308 80.165 26.491 80.4893 25.4597 80.6689V82.6611H23.8191ZM23.8191 69.9697V64.5557C23.03 64.7354 22.4207 65.0322 21.991 65.4463C21.5691 65.8604 21.3582 66.3447 21.3582 66.8994C21.3582 67.4229 21.5378 67.9268 21.8972 68.4111C22.2644 68.8877 22.905 69.4072 23.8191 69.9697ZM25.4597 73.4385V78.8291C26.3113 78.5244 26.8855 78.1533 27.1824 77.7158C27.4871 77.2705 27.6394 76.7744 27.6394 76.2275C27.6394 75.6963 27.491 75.2432 27.1941 74.8682C26.8972 74.4854 26.3191 74.0088 25.4597 73.4385Z" fill="#E2E2E2"/>
<path opacity="0.6" d="M1.5 6.5C1.5 3.73858 3.73858 1.5 6.5 1.5H186V28H1.5V6.5Z" fill="#FCFCFC"/>
<path d="M37.8164 79V65.9102H39.9961V68.7695C40.6211 67.7617 41.375 66.9727 42.2578 66.4023C43.1406 65.832 44.0234 65.5469 44.9062 65.5469C45.6797 65.5469 46.3828 65.7539 47.0156 66.168C47.6484 66.5742 48.0898 67.1094 48.3398 67.7734C48.5977 68.4375 48.7266 69.7422 48.7266 71.6875V79H46.5469V71.418C46.5469 70.1602 46.4844 69.332 46.3594 68.9336C46.2422 68.5273 46.0195 68.1953 45.6914 67.9375C45.3711 67.6797 45.0195 67.5508 44.6367 67.5508C43.8711 67.5508 43.0469 67.9141 42.1641 68.6406C41.2891 69.3672 40.5664 70.2773 39.9961 71.3711V79H37.8164Z" fill="#E2E2E2"/>
<path d="M53.5261 68.8516C54.198 67.7578 54.9987 66.9336 55.9284 66.3789C56.8581 65.8242 57.7136 65.5469 58.4948 65.5469C59.5886 65.5469 60.573 66.0195 61.448 66.9648C62.323 67.9102 62.7605 69.3438 62.7605 71.2656C62.7605 72.7812 62.4675 74.1367 61.8816 75.332C61.3034 76.5195 60.53 77.4609 59.5612 78.1562C58.5925 78.8438 57.3933 79.1875 55.9636 79.1875C55.5573 79.1875 54.9323 79.1445 54.0886 79.0586C53.9636 79.043 53.7761 79.0234 53.5261 79V84.0859H51.3464V65.9102H53.5261V68.8516ZM53.5261 71.4414V77.0547C54.3152 77.2578 55.0417 77.3594 55.7058 77.3594C57.0261 77.3594 58.1355 76.8438 59.0339 75.8125C59.9402 74.7734 60.3933 73.3555 60.3933 71.5586C60.3933 70.2539 60.1472 69.2734 59.655 68.6172C59.1628 67.9609 58.6042 67.6328 57.9792 67.6328C57.2995 67.6328 56.5495 67.9766 55.7292 68.6641C54.9167 69.3516 54.1823 70.2773 53.5261 71.4414Z" fill="#E2E2E2"/>
<path d="M64.2202 79V65.9102H66.1303V68.9102C66.7319 67.6367 67.2905 66.7578 67.8061 66.2734C68.3295 65.7891 68.8569 65.5469 69.3881 65.5469C70.0209 65.5469 70.5287 65.7969 70.9116 66.2969C71.3022 66.7891 71.4975 67.4922 71.4975 68.4062V69.1094C71.7553 68.3125 72.0639 67.668 72.4233 67.1758C72.7905 66.6758 73.1694 66.2812 73.56 65.9922C73.9506 65.6953 74.3998 65.5469 74.9077 65.5469C75.4702 65.5469 75.9506 65.7852 76.3491 66.2617C76.7475 66.7383 76.9467 67.6875 76.9467 69.1094V79H75.0366V70.0586C75.0366 69.3242 75.0131 68.8242 74.9662 68.5586C74.9194 68.2852 74.8256 68.0781 74.685 67.9375C74.5444 67.7969 74.392 67.7266 74.228 67.7266C73.8217 67.7266 73.3842 68.0391 72.9155 68.6641C72.4545 69.2812 71.9819 70.3086 71.4975 71.7461V79H69.6694V70.0703C69.6694 68.9141 69.5561 68.2344 69.3295 68.0312C69.103 67.8281 68.8998 67.7266 68.7202 67.7266C68.3217 67.7266 67.892 68.0742 67.4311 68.7695C66.978 69.4648 66.5444 70.3555 66.1303 71.4414V79H64.2202Z" fill="#E2E2E2"/>
<path d="M96.2606 79V67.7266H92.6278V65.9102H98.4403V77.1836H102.085V79H96.2606ZM95.8973 61.1875C95.8973 60.6953 96.0653 60.3281 96.4012 60.0859C96.7372 59.8438 97.0536 59.7227 97.3505 59.7227C97.6552 59.7227 97.9755 59.8438 98.3114 60.0859C98.6473 60.3281 98.8153 60.6953 98.8153 61.1875C98.8153 61.6719 98.6473 62.0352 98.3114 62.2773C97.9755 62.5195 97.6552 62.6406 97.3505 62.6406C97.0536 62.6406 96.7372 62.5195 96.4012 62.2773C96.0653 62.0352 95.8973 61.6719 95.8973 61.1875Z" fill="#E2E2E2"/>
<path d="M106.287 79V65.9102H108.466V68.7695C109.091 67.7617 109.845 66.9727 110.728 66.4023C111.611 65.832 112.494 65.5469 113.377 65.5469C114.15 65.5469 114.853 65.7539 115.486 66.168C116.119 66.5742 116.56 67.1094 116.81 67.7734C117.068 68.4375 117.197 69.7422 117.197 71.6875V79H115.017V71.418C115.017 70.1602 114.955 69.332 114.83 68.9336C114.713 68.5273 114.49 68.1953 114.162 67.9375C113.841 67.6797 113.49 67.5508 113.107 67.5508C112.341 67.5508 111.517 67.9141 110.634 68.6406C109.759 69.3672 109.037 70.2773 108.466 71.3711V79H106.287Z" fill="#E2E2E2"/>
<path d="M120.133 78.3086V76C121.008 76.5703 121.934 76.9727 122.91 77.207C123.887 77.4336 124.715 77.5469 125.395 77.5469C126.496 77.5469 127.289 77.3711 127.774 77.0195C128.258 76.6602 128.5 76.2148 128.5 75.6836C128.5 75.332 128.387 75.0312 128.16 74.7812C127.934 74.5312 127.371 74.2227 126.473 73.8555L125.723 73.5508L124.211 72.9531C122.586 72.3203 121.563 71.7344 121.141 71.1953C120.711 70.6641 120.496 70.0156 120.496 69.25C120.496 68.1719 120.91 67.2852 121.739 66.5898C122.575 65.8945 123.926 65.5469 125.793 65.5469C127.192 65.5469 128.516 65.75 129.766 66.1562V68.1367C128.328 67.6211 126.977 67.3633 125.711 67.3633C124.789 67.3633 124.067 67.5273 123.543 67.8555C123.028 68.1758 122.77 68.5781 122.77 69.0625C122.77 69.5312 122.996 69.9062 123.45 70.1875C123.895 70.4688 124.621 70.793 125.629 71.1602L127.106 71.6992C128.457 72.1914 129.407 72.7266 129.953 73.3047C130.5 73.8828 130.774 74.6055 130.774 75.4727C130.774 76.6055 130.336 77.5391 129.461 78.2734C128.594 79 127.203 79.3633 125.289 79.3633C123.618 79.3633 121.899 79.0117 120.133 78.3086Z" fill="#E2E2E2"/>
<path d="M144.62 78.4727C143.597 78.9023 142.855 79.1562 142.394 79.2344C141.933 79.3203 141.487 79.3633 141.058 79.3633C140.144 79.3633 139.308 79.1875 138.55 78.8359C137.792 78.4844 137.218 77.9648 136.827 77.2773C136.444 76.5898 136.253 75.5273 136.253 74.0898V68.8164H132.983V67H136.253V61.7266H138.433V67H144.257V68.8164H138.433V74.0547C138.433 75.1094 138.558 75.8555 138.808 76.293C139.058 76.7227 139.39 77.0391 139.804 77.2422C140.226 77.4453 140.722 77.5469 141.292 77.5469C142.347 77.5469 143.456 77.2148 144.62 76.5508V78.4727Z" fill="#E2E2E2"/>
<path d="M155.97 76.0586C155.306 77.1523 154.506 77.9766 153.568 78.5312C152.638 79.0859 151.783 79.3633 151.002 79.3633C149.908 79.3633 148.924 78.8906 148.049 77.9453C147.181 77 146.748 75.5664 146.748 73.6445C146.748 72.1289 147.037 70.7773 147.615 69.5898C148.193 68.3945 148.967 67.4531 149.935 66.7656C150.904 66.0703 152.103 65.7227 153.533 65.7227C153.947 65.7227 154.572 65.7656 155.408 65.8516C155.533 65.8672 155.72 65.8867 155.97 65.9102H158.162V75.1562C158.162 76.7344 158.326 78.0156 158.654 79H156.381C156.209 78.2812 156.072 77.3008 155.97 76.0586ZM155.97 73.4688V67.8555C155.197 67.6523 154.478 67.5508 153.814 67.5508C152.47 67.5508 151.349 68.0703 150.451 69.1094C149.56 70.1484 149.115 71.5625 149.115 73.3516C149.115 74.6484 149.357 75.6289 149.842 76.293C150.334 76.9492 150.892 77.2773 151.517 77.2773C152.197 77.2773 152.947 76.9336 153.767 76.2461C154.588 75.5586 155.322 74.6328 155.97 73.4688Z" fill="#E2E2E2"/>
<path d="M164.579 79V61.9141H160.665V60.0859H166.758V77.1836H170.848V79H164.579Z" fill="#E2E2E2"/>
<path d="M178.273 79V61.9141H174.359V60.0859H180.452V77.1836H184.542V79H178.273Z" fill="#E2E2E2"/>
<path d="M49.5586 135.723V137.551H44.1094V143H42.2812V137.551H36.832V135.723H42.2812V130.273H44.1094V135.723H49.5586Z" fill="#E2E2E2"/>
<path d="M76.1498 142.473C75.1264 142.902 74.3842 143.156 73.9233 143.234C73.4623 143.32 73.017 143.363 72.5873 143.363C71.6733 143.363 70.8373 143.188 70.0795 142.836C69.3217 142.484 68.7475 141.965 68.3569 141.277C67.9741 140.59 67.7827 139.527 67.7827 138.09V132.816H64.5131V131H67.7827V125.727H69.9623V131H75.7866V132.816H69.9623V138.055C69.9623 139.109 70.0873 139.855 70.3373 140.293C70.5873 140.723 70.9194 141.039 71.3334 141.242C71.7553 141.445 72.2514 141.547 72.8217 141.547C73.8764 141.547 74.9858 141.215 76.1498 140.551V142.473Z" fill="#E2E2E2"/>
<path d="M83.715 142.473L77.6681 129.91H80.0705L84.8869 139.73L88.9181 129.91H91.1095L86.0353 142.074C84.965 144.645 83.9455 146.352 82.9767 147.195C82.0158 148.039 80.7697 148.461 79.2384 148.461C78.5744 148.461 77.9806 148.402 77.4572 148.285V146.363C78.0588 146.551 78.633 146.645 79.1798 146.645C79.883 146.645 80.508 146.508 81.0548 146.234C81.6017 145.961 82.1017 145.477 82.5548 144.781C83.008 144.086 83.3283 143.484 83.5158 142.977L83.715 142.473Z" fill="#E2E2E2"/>
<path d="M94.6083 132.852C95.2802 131.758 96.0809 130.934 97.0106 130.379C97.9403 129.824 98.7958 129.547 99.577 129.547C100.671 129.547 101.655 130.02 102.53 130.965C103.405 131.91 103.843 133.344 103.843 135.266C103.843 136.781 103.55 138.137 102.964 139.332C102.386 140.52 101.612 141.461 100.643 142.156C99.6747 142.844 98.4755 143.188 97.0458 143.188C96.6395 143.188 96.0145 143.145 95.1708 143.059C95.0458 143.043 94.8583 143.023 94.6083 143V148.086H92.4286V129.91H94.6083V132.852ZM94.6083 135.441V141.055C95.3973 141.258 96.1239 141.359 96.788 141.359C98.1083 141.359 99.2177 140.844 100.116 139.812C101.022 138.773 101.475 137.355 101.475 135.559C101.475 134.254 101.229 133.273 100.737 132.617C100.245 131.961 99.6864 131.633 99.0614 131.633C98.3817 131.633 97.6317 131.977 96.8114 132.664C95.9989 133.352 95.2645 134.277 94.6083 135.441Z" fill="#E2E2E2"/>
<path d="M117.173 142.133C115.431 142.961 113.783 143.375 112.228 143.375C111.048 143.375 109.994 143.082 109.064 142.496C108.134 141.91 107.388 141.074 106.826 139.988C106.271 138.895 105.994 137.727 105.994 136.484C105.994 135.289 106.259 134.141 106.791 133.039C107.322 131.938 108.064 131.082 109.017 130.473C109.97 129.855 111.033 129.547 112.205 129.547C113.759 129.547 115.005 130.102 115.943 131.211C116.888 132.32 117.361 134.031 117.361 136.344V136.812H108.338C108.338 137.719 108.525 138.547 108.9 139.297C109.283 140.047 109.783 140.609 110.4 140.984C111.017 141.359 111.72 141.547 112.509 141.547C113.916 141.547 115.47 141.078 117.173 140.141V142.133ZM108.466 135.184H114.994V134.867C114.994 133.797 114.732 132.945 114.209 132.312C113.685 131.68 112.986 131.363 112.111 131.363C111.228 131.363 110.463 131.688 109.814 132.336C109.173 132.977 108.724 133.926 108.466 135.184Z" fill="#E2E2E2"/>
<path d="M120.133 142.309V140C121.008 140.57 121.934 140.973 122.91 141.207C123.887 141.434 124.715 141.547 125.395 141.547C126.496 141.547 127.289 141.371 127.774 141.02C128.258 140.66 128.5 140.215 128.5 139.684C128.5 139.332 128.387 139.031 128.16 138.781C127.934 138.531 127.371 138.223 126.473 137.855L125.723 137.551L124.211 136.953C122.586 136.32 121.563 135.734 121.141 135.195C120.711 134.664 120.496 134.016 120.496 133.25C120.496 132.172 120.91 131.285 121.739 130.59C122.575 129.895 123.926 129.547 125.793 129.547C127.192 129.547 128.516 129.75 129.766 130.156V132.137C128.328 131.621 126.977 131.363 125.711 131.363C124.789 131.363 124.067 131.527 123.543 131.855C123.028 132.176 122.77 132.578 122.77 133.062C122.77 133.531 122.996 133.906 123.45 134.188C123.895 134.469 124.621 134.793 125.629 135.16L127.106 135.699C128.457 136.191 129.407 136.727 129.953 137.305C130.5 137.883 130.774 138.605 130.774 139.473C130.774 140.605 130.336 141.539 129.461 142.273C128.594 143 127.203 143.363 125.289 143.363C123.618 143.363 121.899 143.012 120.133 142.309Z" fill="#E2E2E2"/>
<path d="M144.69 142.625C143.23 143.117 141.839 143.363 140.519 143.363C139.206 143.363 138.038 143.062 137.015 142.461C135.999 141.852 135.206 141.031 134.636 140C134.065 138.961 133.78 137.781 133.78 136.461C133.78 134.477 134.425 132.828 135.714 131.516C137.011 130.203 138.573 129.547 140.401 129.547C141.753 129.547 143.183 129.801 144.69 130.309V132.406C143.167 131.711 141.804 131.363 140.601 131.363C139.804 131.363 139.054 131.562 138.351 131.961C137.647 132.352 137.105 132.965 136.722 133.801C136.339 134.637 136.147 135.496 136.147 136.379C136.147 137.559 136.515 138.684 137.249 139.754C137.991 140.824 139.151 141.359 140.73 141.359C141.206 141.359 141.675 141.328 142.136 141.266C142.597 141.195 143.448 140.949 144.69 140.527V142.625Z" fill="#E2E2E2"/>
<path d="M148.482 143V129.91H150.662V132.77C151.342 131.691 152.119 130.887 152.994 130.355C153.877 129.816 154.857 129.547 155.935 129.547C156.724 129.547 157.513 129.668 158.302 129.91V134.633H156.205V131.645C155.838 131.582 155.549 131.551 155.338 131.551C154.525 131.551 153.728 131.871 152.947 132.512C152.166 133.152 151.404 134.113 150.662 135.395V143H148.482Z" fill="#E2E2E2"/>
<path d="M164.731 143V131.727H161.098V129.91H166.911V141.184H170.555V143H164.731ZM164.368 125.188C164.368 124.695 164.536 124.328 164.872 124.086C165.207 123.844 165.524 123.723 165.821 123.723C166.125 123.723 166.446 123.844 166.782 124.086C167.118 124.328 167.286 124.695 167.286 125.188C167.286 125.672 167.118 126.035 166.782 126.277C166.446 126.52 166.125 126.641 165.821 126.641C165.524 126.641 165.207 126.52 164.872 126.277C164.536 126.035 164.368 125.672 164.368 125.188Z" fill="#E2E2E2"/>
<path d="M176.773 132.852C177.445 131.758 178.245 130.934 179.175 130.379C180.105 129.824 180.96 129.547 181.741 129.547C182.835 129.547 183.82 130.02 184.695 130.965C185.57 131.91 186.007 133.344 186.007 135.266C186.007 136.781 185.714 138.137 185.128 139.332C184.55 140.52 183.777 141.461 182.808 142.156C181.839 142.844 180.64 143.188 179.21 143.188C178.804 143.188 178.179 143.145 177.335 143.059C177.21 143.043 177.023 143.023 176.773 143V148.086H174.593V129.91H176.773V132.852ZM176.773 135.441V141.055C177.562 141.258 178.288 141.359 178.952 141.359C180.273 141.359 181.382 140.844 182.28 139.812C183.187 138.773 183.64 137.355 183.64 135.559C183.64 134.254 183.394 133.273 182.902 132.617C182.409 131.961 181.851 131.633 181.226 131.633C180.546 131.633 179.796 131.977 178.976 132.664C178.163 133.352 177.429 134.277 176.773 135.441Z" fill="#E2E2E2"/>
</svg>
