<svg width="226" height="216" viewBox="0 0 226 216" fill="none" xmlns="http://www.w3.org/2000/svg">
<path d="M224.938 215.5V9C224.938 4.58173 221.356 1 216.938 1H9C4.58172 1 0.999985 4.58172 0.999985 9V215.5" stroke="white" stroke-opacity="0.13"/>
<line x1="1" y1="25.5" x2="225" y2="25.5" stroke="#3393DD"/>
<path d="M17.4999 26L17.4999 215.5" stroke="#218ADA"/>
<path d="M18 26H224.5V215.5H18V26Z" fill="#5495DC" fill-opacity="0.2"/>
<path d="M36.4144 49.75C35.4405 50.0781 34.5134 50.2422 33.6332 50.2422C32.7582 50.2422 31.9795 50.0417 31.2972 49.6406C30.6202 49.2344 30.0915 48.6875 29.7113 48C29.3311 47.3073 29.141 46.5208 29.141 45.6406C29.141 44.3177 29.5707 43.2188 30.4301 42.3438C31.2946 41.4688 32.3363 41.0312 33.5551 41.0312C34.4561 41.0312 35.4092 41.2005 36.4144 41.5391V42.9375C35.3988 42.474 34.4899 42.2422 33.6879 42.2422C33.1566 42.2422 32.6566 42.375 32.1879 42.6406C31.7191 42.901 31.3571 43.3099 31.1019 43.8672C30.8467 44.4245 30.7191 44.9974 30.7191 45.5859C30.7191 46.3724 30.9639 47.1224 31.4535 47.8359C31.9483 48.5495 32.7217 48.9062 33.7738 48.9062C34.0915 48.9062 34.404 48.8854 34.7113 48.8438C35.0186 48.7969 35.5863 48.6328 36.4144 48.3516V49.75ZM41.7938 50.2422C40.5438 50.2422 39.5438 49.8073 38.7938 48.9375C38.0438 48.0625 37.6688 46.9609 37.6688 45.6328C37.6688 44.3047 38.0438 43.2057 38.7938 42.3359C39.5438 41.4661 40.5438 41.0312 41.7938 41.0312C43.0386 41.0312 44.036 41.4661 44.786 42.3359C45.536 43.2057 45.911 44.3047 45.911 45.6328C45.911 46.9609 45.536 48.0625 44.786 48.9375C44.036 49.8073 43.0386 50.2422 41.7938 50.2422ZM41.7938 49.0312C42.5698 49.0312 43.187 48.7292 43.6454 48.125C44.1037 47.5208 44.3329 46.6901 44.3329 45.6328C44.3329 44.5807 44.1037 43.7526 43.6454 43.1484C43.187 42.5443 42.5698 42.2422 41.7938 42.2422C41.0126 42.2422 40.3928 42.5443 39.9344 43.1484C39.4761 43.7526 39.2469 44.5807 39.2469 45.6328C39.2469 46.6901 39.4761 47.5208 39.9344 48.125C40.3928 48.7292 41.0126 49.0312 41.7938 49.0312ZM47.3294 50V41.2734H48.7826V43.1797C49.1992 42.5078 49.7018 41.9818 50.2904 41.6016C50.8789 41.2214 51.4675 41.0312 52.056 41.0312C52.5716 41.0312 53.0404 41.1693 53.4622 41.4453C53.8841 41.7161 54.1784 42.0729 54.3451 42.5156C54.5169 42.9583 54.6029 43.8281 54.6029 45.125V50H53.1497V44.9453C53.1497 44.1068 53.1081 43.5547 53.0247 43.2891C52.9466 43.0182 52.7982 42.7969 52.5794 42.625C52.3659 42.4531 52.1315 42.3672 51.8763 42.3672C51.3659 42.3672 50.8164 42.6094 50.2279 43.0938C49.6445 43.5781 49.1628 44.1849 48.7826 44.9141V50H47.3294ZM56.5604 49.5391V48C57.1437 48.3802 57.7609 48.6484 58.4119 48.8047C59.063 48.9557 59.6151 49.0312 60.0682 49.0312C60.8026 49.0312 61.3312 48.9141 61.6541 48.6797C61.977 48.4401 62.1385 48.1432 62.1385 47.7891C62.1385 47.5547 62.063 47.3542 61.9119 47.1875C61.7609 47.0208 61.3859 46.8151 60.7869 46.5703L60.2869 46.3672L59.2791 45.9688C58.1958 45.5469 57.5135 45.1562 57.2322 44.7969C56.9458 44.4427 56.8026 44.0104 56.8026 43.5C56.8026 42.7812 57.0786 42.1901 57.6307 41.7266C58.188 41.263 59.089 41.0312 60.3338 41.0312C61.2661 41.0312 62.1489 41.1667 62.9822 41.4375V42.7578C62.0239 42.4141 61.1229 42.2422 60.2791 42.2422C59.6645 42.2422 59.1828 42.3516 58.8338 42.5703C58.4901 42.7839 58.3182 43.0521 58.3182 43.375C58.3182 43.6875 58.4692 43.9375 58.7713 44.125C59.0682 44.3125 59.5526 44.5286 60.2244 44.7734L61.2088 45.1328C62.1098 45.4609 62.7427 45.8177 63.1072 46.2031C63.4718 46.5885 63.6541 47.0703 63.6541 47.6484C63.6541 48.4036 63.3624 49.026 62.7791 49.5156C62.201 50 61.2739 50.2422 59.9979 50.2422C58.8833 50.2422 57.7374 50.0078 56.5604 49.5391ZM72.8851 49.6484C72.2028 49.9349 71.708 50.1042 71.4007 50.1562C71.0934 50.2135 70.7965 50.2422 70.5101 50.2422C69.9007 50.2422 69.3434 50.125 68.8382 49.8906C68.333 49.6562 67.9502 49.3099 67.6897 48.8516C67.4345 48.3932 67.3069 47.6849 67.3069 46.7266V43.2109H65.1272V42H67.3069V38.4844H68.7601V42H72.6429V43.2109H68.7601V46.7031C68.7601 47.4062 68.8434 47.9036 69.0101 48.1953C69.1767 48.4818 69.3981 48.6927 69.6741 48.8281C69.9554 48.9635 70.2861 49.0312 70.6663 49.0312C71.3694 49.0312 72.109 48.8099 72.8851 48.3672V49.6484ZM83.8469 50V37.3906H85.3001V43.1797C85.7167 42.5078 86.2193 41.9818 86.8079 41.6016C87.3964 41.2214 87.9849 41.0312 88.5735 41.0312C89.0683 41.0312 89.5188 41.1589 89.9251 41.4141C90.3365 41.6641 90.623 41.9688 90.7844 42.3281C90.9146 42.6042 91.0032 42.8984 91.0501 43.2109C91.0969 43.5182 91.1204 44.1562 91.1204 45.125V50H89.6672V44.9453C89.6672 44.1068 89.6256 43.5547 89.5422 43.2891C89.4641 43.0182 89.3157 42.7969 89.0969 42.625C88.8834 42.4531 88.649 42.3672 88.3938 42.3672C87.8834 42.3672 87.3339 42.6094 86.7454 43.0938C86.162 43.5781 85.6803 44.1849 85.3001 44.9141V50H83.8469ZM100.234 49.4219C99.0727 49.974 97.9737 50.25 96.9372 50.25C96.1508 50.25 95.4477 50.0547 94.8279 49.6641C94.2081 49.2734 93.7107 48.7161 93.3357 47.9922C92.9659 47.263 92.781 46.4844 92.781 45.6562C92.781 44.8594 92.9581 44.0938 93.3122 43.3594C93.6664 42.625 94.1612 42.0547 94.7966 41.6484C95.432 41.237 96.1404 41.0312 96.9216 41.0312C97.9581 41.0312 98.7888 41.401 99.4138 42.1406C100.044 42.8802 100.359 44.0208 100.359 45.5625V45.875H94.3435C94.3435 46.4792 94.4685 47.0312 94.7185 47.5312C94.9737 48.0312 95.307 48.4062 95.7185 48.6562C96.1299 48.9062 96.5987 49.0312 97.1247 49.0312C98.0622 49.0312 99.0987 48.7188 100.234 48.0938V49.4219ZM94.4294 44.7891H98.781V44.5781C98.781 43.8646 98.6065 43.2969 98.2576 42.875C97.9086 42.4531 97.4424 42.2422 96.8591 42.2422C96.2706 42.2422 95.7602 42.4583 95.3279 42.8906C94.9008 43.3177 94.6013 43.9505 94.4294 44.7891ZM104.449 50V38.6094H101.84V37.3906H105.903V48.7891H108.629V50H104.449ZM113.579 50V38.6094H110.969V37.3906H115.032V48.7891H117.758V50H113.579ZM123.958 50.2422C122.708 50.2422 121.708 49.8073 120.958 48.9375C120.208 48.0625 119.833 46.9609 119.833 45.6328C119.833 44.3047 120.208 43.2057 120.958 42.3359C121.708 41.4661 122.708 41.0312 123.958 41.0312C125.203 41.0312 126.2 41.4661 126.95 42.3359C127.7 43.2057 128.075 44.3047 128.075 45.6328C128.075 46.9609 127.7 48.0625 126.95 48.9375C126.2 49.8073 125.203 50.2422 123.958 50.2422ZM123.958 49.0312C124.734 49.0312 125.351 48.7292 125.81 48.125C126.268 47.5208 126.497 46.6901 126.497 45.6328C126.497 44.5807 126.268 43.7526 125.81 43.1484C125.351 42.5443 124.734 42.2422 123.958 42.2422C123.177 42.2422 122.557 42.5443 122.099 43.1484C121.64 43.7526 121.411 44.5807 121.411 45.6328C121.411 46.6901 121.64 47.5208 122.099 48.125C122.557 48.7292 123.177 49.0312 123.958 49.0312ZM146.451 43.8203V45.0312H137.967V43.8203H146.451ZM146.451 46.5469V47.7578H137.967V46.5469H146.451ZM159.304 41.7578H158.304L157.804 37.3906H159.749L159.304 41.7578ZM162.671 41.7578H161.679L161.233 37.3906H163.14L162.671 41.7578ZM166.011 50V37.3906H167.464V43.1797C167.881 42.5078 168.384 41.9818 168.972 41.6016C169.561 41.2214 170.149 41.0312 170.738 41.0312C171.233 41.0312 171.683 41.1589 172.089 41.4141C172.501 41.6641 172.787 41.9688 172.949 42.3281C173.079 42.6042 173.168 42.8984 173.214 43.2109C173.261 43.5182 173.285 44.1562 173.285 45.125V50H171.832V44.9453C171.832 44.1068 171.79 43.5547 171.707 43.2891C171.628 43.0182 171.48 42.7969 171.261 42.625C171.048 42.4531 170.813 42.3672 170.558 42.3672C170.048 42.3672 169.498 42.6094 168.91 43.0938C168.326 43.5781 167.845 44.1849 167.464 44.9141V50H166.011ZM177.586 50V42.4844H175.164V41.2734H179.039V48.7891H181.469V50H177.586ZM177.344 38.125C177.344 37.7969 177.456 37.5521 177.68 37.3906C177.904 37.2292 178.115 37.1484 178.313 37.1484C178.516 37.1484 178.729 37.2292 178.953 37.3906C179.177 37.5521 179.289 37.7969 179.289 38.125C179.289 38.4479 179.177 38.6901 178.953 38.8516C178.729 39.013 178.516 39.0938 178.313 39.0938C178.115 39.0938 177.904 39.013 177.68 38.8516C177.456 38.6901 177.344 38.4479 177.344 38.125ZM186.692 41.7578H185.692L185.192 37.3906H187.137L186.692 41.7578ZM190.059 41.7578H189.067L188.622 37.3906H190.528L190.059 41.7578ZM29.0707 74V61.3906H30.5238V67.1797C30.9405 66.5078 31.4431 65.9818 32.0316 65.6016C32.6202 65.2214 33.2087 65.0312 33.7972 65.0312C34.292 65.0312 34.7426 65.1589 35.1488 65.4141C35.5603 65.6641 35.8467 65.9688 36.0082 66.3281C36.1384 66.6042 36.2269 66.8984 36.2738 67.2109C36.3207 67.5182 36.3441 68.1562 36.3441 69.125V74H34.891V68.9453C34.891 68.1068 34.8493 67.5547 34.766 67.2891C34.6879 67.0182 34.5394 66.7969 34.3207 66.625C34.1071 66.4531 33.8728 66.3672 33.6176 66.3672C33.1071 66.3672 32.5577 66.6094 31.9691 67.0938C31.3858 67.5781 30.904 68.1849 30.5238 68.9141V74H29.0707ZM45.4579 73.4219C44.2964 73.974 43.1975 74.25 42.161 74.25C41.3745 74.25 40.6714 74.0547 40.0516 73.6641C39.4318 73.2734 38.9344 72.7161 38.5594 71.9922C38.1896 71.263 38.0047 70.4844 38.0047 69.6562C38.0047 68.8594 38.1818 68.0938 38.536 67.3594C38.8902 66.625 39.385 66.0547 40.0204 65.6484C40.6558 65.237 41.3641 65.0312 42.1454 65.0312C43.1818 65.0312 44.0126 65.401 44.6376 66.1406C45.2678 66.8802 45.5829 68.0208 45.5829 69.5625V69.875H39.5672C39.5672 70.4792 39.6922 71.0312 39.9422 71.5312C40.1975 72.0312 40.5308 72.4062 40.9422 72.6562C41.3537 72.9062 41.8225 73.0312 42.3485 73.0312C43.286 73.0312 44.3225 72.7188 45.4579 72.0938V73.4219ZM39.6532 68.7891H44.0047V68.5781C44.0047 67.8646 43.8303 67.2969 43.4813 66.875C43.1323 66.4531 42.6662 66.2422 42.0829 66.2422C41.4943 66.2422 40.9839 66.4583 40.5516 66.8906C40.1245 67.3177 39.8251 67.9505 39.6532 68.7891ZM49.6732 74V62.6094H47.0638V61.3906H51.1263V72.7891H53.8529V74H49.6732ZM58.8026 74V62.6094H56.1932V61.3906H60.2557V72.7891H62.9822V74H58.8026ZM69.1819 74.2422C67.9319 74.2422 66.9319 73.8073 66.1819 72.9375C65.4319 72.0625 65.0569 70.9609 65.0569 69.6328C65.0569 68.3047 65.4319 67.2057 66.1819 66.3359C66.9319 65.4661 67.9319 65.0312 69.1819 65.0312C70.4267 65.0312 71.4241 65.4661 72.1741 66.3359C72.9241 67.2057 73.2991 68.3047 73.2991 69.6328C73.2991 70.9609 72.9241 72.0625 72.1741 72.9375C71.4241 73.8073 70.4267 74.2422 69.1819 74.2422ZM69.1819 73.0312C69.958 73.0312 70.5752 72.7292 71.0335 72.125C71.4918 71.5208 71.721 70.6901 71.721 69.6328C71.721 68.5807 71.4918 67.7526 71.0335 67.1484C70.5752 66.5443 69.958 66.2422 69.1819 66.2422C68.4007 66.2422 67.7809 66.5443 67.3226 67.1484C66.8642 67.7526 66.6351 68.5807 66.6351 69.6328C66.6351 70.6901 66.8642 71.5208 67.3226 72.125C67.7809 72.7292 68.4007 73.0312 69.1819 73.0312ZM91.6751 67.8203V69.0312H83.1907V67.8203H91.6751ZM91.6751 70.5469V71.7578H83.1907V70.5469H91.6751ZM105.332 72.7891V63.4297C104.895 63.7786 104.47 64.0755 104.059 64.3203C103.647 64.5651 103.082 64.8151 102.363 65.0703V63.7578C103.504 63.2734 104.494 62.6458 105.332 61.875H106.785V72.7891H109.699V74H102.363V72.7891H105.332ZM118.524 74H111.188V72.6641C111.188 72.3203 111.258 71.9531 111.399 71.5625C111.54 71.1667 111.808 70.724 112.204 70.2344C112.6 69.7448 113.019 69.2734 113.462 68.8203L114.29 67.9766C114.456 67.8047 114.821 67.4062 115.383 66.7812C115.946 66.1562 116.316 65.6771 116.493 65.3438C116.675 65.0104 116.766 64.6823 116.766 64.3594C116.766 63.8385 116.558 63.4375 116.141 63.1562C115.725 62.8698 115.256 62.7266 114.735 62.7266C114.438 62.7266 114.105 62.7604 113.735 62.8281C113.37 62.8958 113.05 62.9766 112.774 63.0703C112.498 63.1589 112.05 63.3438 111.43 63.625V62.3359C112.087 62.0234 112.743 61.8099 113.399 61.6953C114.061 61.5755 114.605 61.5156 115.032 61.5156C115.662 61.5156 116.24 61.6198 116.766 61.8281C117.298 62.0312 117.691 62.349 117.946 62.7812C118.206 63.2135 118.337 63.6745 118.337 64.1641C118.337 64.7109 118.17 65.2708 117.837 65.8438C117.508 66.4167 116.886 67.1536 115.969 68.0547L115.079 68.9375L114.329 69.6719C113.855 70.151 113.472 70.6146 113.18 71.0625C112.889 71.5104 112.727 72.0443 112.696 72.6641H118.524V74ZM120.286 73.7812V72.25C121.479 72.8542 122.513 73.1562 123.388 73.1562C124.19 73.1562 124.851 72.9141 125.372 72.4297C125.898 71.9401 126.161 71.3125 126.161 70.5469C126.161 69.776 125.872 69.1484 125.294 68.6641C124.721 68.1797 123.745 67.9375 122.364 67.9375H121.56V66.7266H122.677C123.693 66.7266 124.427 66.5 124.88 66.0469C125.333 65.5885 125.56 65.0807 125.56 64.5234C125.56 64.0182 125.375 63.5938 125.005 63.25C124.635 62.901 124.068 62.7266 123.302 62.7266C122.443 62.7266 121.518 62.9688 120.528 63.4531V62.0703C121.518 61.7005 122.424 61.5156 123.247 61.5156C124.721 61.5156 125.737 61.8073 126.294 62.3906C126.857 62.9688 127.138 63.6302 127.138 64.375C127.138 64.9271 126.989 65.4453 126.693 65.9297C126.396 66.4141 125.849 66.8464 125.052 67.2266C125.755 67.4349 126.286 67.6901 126.646 67.9922C127.005 68.2943 127.276 68.651 127.458 69.0625C127.646 69.474 127.739 69.9349 127.739 70.4453C127.739 71.5807 127.318 72.5182 126.474 73.2578C125.635 73.9974 124.549 74.3672 123.216 74.3672C122.831 74.3672 122.409 74.3385 121.95 74.2812C121.497 74.224 120.943 74.0573 120.286 73.7812Z" fill="#63B0EA"/>
<path d="M29.8597 80.9693L30.9793 79.8587C31.4271 79.4144 32.1694 79.4906 32.5175 80.0167L32.9958 80.7396C33.3912 81.3372 34.2683 81.3372 34.6637 80.7396L34.9808 80.2604C35.3762 79.6628 36.2534 79.6628 36.6488 80.2604L36.9658 80.7396C37.3612 81.3372 38.2384 81.3372 38.6338 80.7396L38.9509 80.2604C39.3463 79.6628 40.2234 79.6628 40.6188 80.2604L40.9359 80.7396C41.3313 81.3372 42.2084 81.3372 42.6038 80.7396L42.9209 80.2604C43.3163 79.6628 44.1934 79.6628 44.5888 80.2604L44.9059 80.7396C45.3013 81.3372 46.1784 81.3372 46.5738 80.7396L46.8909 80.2604C47.2863 79.6628 48.1635 79.6628 48.5589 80.2604L48.8759 80.7396C49.2713 81.3372 50.1485 81.3372 50.5439 80.7396L50.861 80.2604C51.2564 79.6628 52.1335 79.6628 52.5289 80.2604L52.846 80.7396C53.2414 81.3372 54.1185 81.3372 54.5139 80.7396L54.831 80.2604C55.2264 79.6628 56.1035 79.6628 56.4989 80.2604L56.816 80.7396C57.2114 81.3372 58.0885 81.3372 58.4839 80.7396L58.801 80.2604C59.1964 79.6628 60.0736 79.6628 60.469 80.2604L60.786 80.7396C61.1815 81.3372 62.0586 81.3372 62.454 80.7396L62.7711 80.2604C63.1665 79.6628 64.0436 79.6628 64.439 80.2604L64.7561 80.7396C65.1515 81.3372 66.0286 81.3372 66.424 80.7396L66.7411 80.2604C67.1365 79.6628 68.0136 79.6628 68.409 80.2604L68.7261 80.7396C69.1215 81.3372 69.9986 81.3372 70.3941 80.7396L70.7148 80.2548C71.1093 79.6587 71.9836 79.6569 72.3805 80.2514L72.8597 80.9693" stroke="#94CDF9"/>
</svg>
