<svg width="191" height="216" viewBox="0 0 191 216" fill="none" xmlns="http://www.w3.org/2000/svg">
<path d="M0 1L185.5 2V215.5L0 215V1Z" fill="#5495DC" fill-opacity="0.2"/>
<path d="M0 1.35547L186 1.35547V215.355" stroke="white" stroke-opacity="0.2"/>
<path d="M186.5 4.35547H188V215.355" stroke="white" stroke-opacity="0.17"/>
<path d="M188.5 8.35547H190V215.355" stroke="white" stroke-opacity="0.17"/>
<path d="M30.75 18.7969L27.5859 30H26.0469L23.7422 21.8125C23.6432 21.4635 23.5833 21.0833 23.5625 20.6719H23.5312C23.5 21.0573 23.4323 21.4323 23.3281 21.7969L21.0078 30H19.4844L16.2031 18.7969H17.6484L20.0312 27.3906C20.1302 27.75 20.1927 28.125 20.2188 28.5156H20.2578C20.2839 28.2396 20.3646 27.8646 20.5 27.3906L22.9766 18.7969H24.2344L26.6094 27.4531C26.6927 27.75 26.7552 28.099 26.7969 28.5H26.8281C26.849 28.2292 26.9193 27.8698 27.0391 27.4219L29.3281 18.7969H30.75ZM37.5747 26.3203H31.9263C31.9471 27.2109 32.1867 27.8984 32.645 28.3828C33.1033 28.8672 33.7335 29.1094 34.5356 29.1094C35.4367 29.1094 36.2648 28.8125 37.02 28.2188V29.4219C36.3169 29.9323 35.3872 30.1875 34.2309 30.1875C33.1007 30.1875 32.2127 29.8255 31.5669 29.1016C30.921 28.3724 30.5981 27.349 30.5981 26.0312C30.5981 24.7865 30.9497 23.7734 31.6528 22.9922C32.3611 22.2057 33.2388 21.8125 34.2856 21.8125C35.3325 21.8125 36.1424 22.151 36.7153 22.8281C37.2882 23.5052 37.5747 24.4453 37.5747 25.6484V26.3203ZM36.2622 25.2344C36.257 24.4948 36.0773 23.9193 35.7231 23.5078C35.3742 23.0964 34.8872 22.8906 34.2622 22.8906C33.658 22.8906 33.145 23.1068 32.7231 23.5391C32.3013 23.9714 32.0408 24.5365 31.9419 25.2344H36.2622ZM40.3213 30H39.04V18.1562H40.3213V30ZM47.8881 29.6328C47.2735 30.0026 46.5444 30.1875 45.7006 30.1875C44.56 30.1875 43.6381 29.8177 42.935 29.0781C42.2371 28.3333 41.8881 27.3698 41.8881 26.1875C41.8881 24.8698 42.2657 23.8125 43.0209 23.0156C43.7761 22.2135 44.784 21.8125 46.0444 21.8125C46.7475 21.8125 47.3673 21.9427 47.9037 22.2031V23.5156C47.31 23.099 46.6746 22.8906 45.9975 22.8906C45.1798 22.8906 44.5079 23.1849 43.9819 23.7734C43.461 24.3568 43.2006 25.125 43.2006 26.0781C43.2006 27.0156 43.4454 27.7552 43.935 28.2969C44.4298 28.8385 45.0912 29.1094 45.9194 29.1094C46.6173 29.1094 47.2735 28.8776 47.8881 28.4141V29.6328ZM52.6894 30.1875C51.5071 30.1875 50.5618 29.8151 49.8534 29.0703C49.1503 28.3203 48.7988 27.3281 48.7988 26.0938C48.7988 24.75 49.1659 23.7005 49.9003 22.9453C50.6347 22.1901 51.6269 21.8125 52.8769 21.8125C54.0696 21.8125 54.9993 22.1797 55.6659 22.9141C56.3378 23.6484 56.6738 24.6667 56.6738 25.9688C56.6738 27.2448 56.3118 28.2682 55.5878 29.0391C54.8691 29.8047 53.9029 30.1875 52.6894 30.1875ZM52.7831 22.8906C51.9602 22.8906 51.3092 23.1719 50.83 23.7344C50.3508 24.2917 50.1113 25.0625 50.1113 26.0469C50.1113 26.9948 50.3534 27.7422 50.8378 28.2891C51.3222 28.8359 51.9706 29.1094 52.7831 29.1094C53.6113 29.1094 54.2467 28.8411 54.6894 28.3047C55.1373 27.7682 55.3613 27.0052 55.3613 26.0156C55.3613 25.0156 55.1373 24.2448 54.6894 23.7031C54.2467 23.1615 53.6113 22.8906 52.7831 22.8906ZM69.6 30H68.3187V25.4062C68.3187 24.5208 68.1807 23.8802 67.9047 23.4844C67.6339 23.0885 67.1755 22.8906 66.5297 22.8906C65.9828 22.8906 65.5167 23.1406 65.1312 23.6406C64.751 24.1406 64.5609 24.7396 64.5609 25.4375V30H63.2797V25.25C63.2797 23.6771 62.6729 22.8906 61.4594 22.8906C60.8969 22.8906 60.4333 23.1276 60.0687 23.6016C59.7042 24.0703 59.5219 24.6823 59.5219 25.4375V30H58.2406V22H59.5219V23.2656H59.5531C60.1208 22.2969 60.949 21.8125 62.0375 21.8125C62.5844 21.8125 63.0609 21.9661 63.4672 22.2734C63.8734 22.5755 64.1521 22.974 64.3031 23.4688C64.8969 22.3646 65.7823 21.8125 66.9594 21.8125C68.7198 21.8125 69.6 22.8984 69.6 25.0703V30ZM77.9716 26.3203H72.3231C72.344 27.2109 72.5835 27.8984 73.0419 28.3828C73.5002 28.8672 74.1304 29.1094 74.9325 29.1094C75.8335 29.1094 76.6617 28.8125 77.4169 28.2188V29.4219C76.7137 29.9323 75.7841 30.1875 74.6278 30.1875C73.4976 30.1875 72.6096 29.8255 71.9637 29.1016C71.3179 28.3724 70.995 27.349 70.995 26.0312C70.995 24.7865 71.3466 23.7734 72.0497 22.9922C72.758 22.2057 73.6356 21.8125 74.6825 21.8125C75.7294 21.8125 76.5393 22.151 77.1122 22.8281C77.6851 23.5052 77.9716 24.4453 77.9716 25.6484V26.3203ZM76.6591 25.2344C76.6539 24.4948 76.4742 23.9193 76.12 23.5078C75.771 23.0964 75.2841 22.8906 74.6591 22.8906C74.0549 22.8906 73.5419 23.1068 73.12 23.5391C72.6981 23.9714 72.4377 24.5365 72.3387 25.2344H76.6591ZM87.0584 29.9219C86.7564 30.0885 86.3579 30.1719 85.8631 30.1719C84.4621 30.1719 83.7616 29.3906 83.7616 27.8281V23.0938H82.3866V22H83.7616V20.0469L85.0428 19.6328V22H87.0584V23.0938H85.0428V27.6016C85.0428 28.138 85.134 28.5208 85.3163 28.75C85.4985 28.9792 85.8006 29.0938 86.2225 29.0938C86.5454 29.0938 86.8241 29.0052 87.0584 28.8281V29.9219ZM91.6331 30.1875C90.4508 30.1875 89.5055 29.8151 88.7972 29.0703C88.0941 28.3203 87.7425 27.3281 87.7425 26.0938C87.7425 24.75 88.1097 23.7005 88.8441 22.9453C89.5784 22.1901 90.5706 21.8125 91.8206 21.8125C93.0133 21.8125 93.943 22.1797 94.6097 22.9141C95.2816 23.6484 95.6175 24.6667 95.6175 25.9688C95.6175 27.2448 95.2555 28.2682 94.5316 29.0391C93.8128 29.8047 92.8467 30.1875 91.6331 30.1875ZM91.7269 22.8906C90.904 22.8906 90.2529 23.1719 89.7738 23.7344C89.2946 24.2917 89.055 25.0625 89.055 26.0469C89.055 26.9948 89.2972 27.7422 89.7816 28.2891C90.2659 28.8359 90.9144 29.1094 91.7269 29.1094C92.555 29.1094 93.1904 28.8411 93.6331 28.3047C94.081 27.7682 94.305 27.0052 94.305 26.0156C94.305 25.0156 94.081 24.2448 93.6331 23.7031C93.1904 23.1615 92.555 22.8906 91.7269 22.8906ZM107.892 19.9844H104.658V30H103.345V19.9844H100.118V18.7969H107.892V19.9844ZM114.482 22L110.802 31.2812C110.146 32.9375 109.224 33.7656 108.037 33.7656C107.704 33.7656 107.425 33.7318 107.201 33.6641V32.5156C107.477 32.6094 107.73 32.6562 107.959 32.6562C108.605 32.6562 109.089 32.2708 109.412 31.5L110.052 29.9844L106.927 22H108.349L110.513 28.1562C110.539 28.2344 110.594 28.4375 110.677 28.7656H110.724C110.75 28.6406 110.802 28.4427 110.881 28.1719L113.154 22H114.482ZM116.698 28.8438H116.666V33.6797H115.385V22H116.666V23.4062H116.698C117.328 22.3438 118.25 21.8125 119.463 21.8125C120.494 21.8125 121.299 22.1719 121.877 22.8906C122.455 23.6042 122.744 24.5625 122.744 25.7656C122.744 27.1042 122.419 28.1771 121.768 28.9844C121.117 29.7865 120.226 30.1875 119.096 30.1875C118.059 30.1875 117.26 29.7396 116.698 28.8438ZM116.666 25.6172V26.7344C116.666 27.3958 116.88 27.9583 117.307 28.4219C117.739 28.8802 118.286 29.1094 118.948 29.1094C119.724 29.1094 120.33 28.8125 120.768 28.2188C121.211 27.625 121.432 26.7995 121.432 25.7422C121.432 24.8516 121.226 24.1536 120.815 23.6484C120.403 23.1432 119.846 22.8906 119.143 22.8906C118.398 22.8906 117.799 23.151 117.346 23.6719C116.893 24.1875 116.666 24.8359 116.666 25.6172ZM130.741 26.3203H125.092C125.113 27.2109 125.353 27.8984 125.811 28.3828C126.27 28.8672 126.9 29.1094 127.702 29.1094C128.603 29.1094 129.431 28.8125 130.186 28.2188V29.4219C129.483 29.9323 128.553 30.1875 127.397 30.1875C126.267 30.1875 125.379 29.8255 124.733 29.1016C124.087 28.3724 123.764 27.349 123.764 26.0312C123.764 24.7865 124.116 23.7734 124.819 22.9922C125.527 22.2057 126.405 21.8125 127.452 21.8125C128.499 21.8125 129.309 22.151 129.882 22.8281C130.454 23.5052 130.741 24.4453 130.741 25.6484V26.3203ZM129.428 25.2344C129.423 24.4948 129.244 23.9193 128.889 23.5078C128.54 23.0964 128.053 22.8906 127.428 22.8906C126.824 22.8906 126.311 23.1068 125.889 23.5391C125.467 23.9714 125.207 24.5365 125.108 25.2344H129.428ZM131.855 29.5469V28C132.032 28.1562 132.243 28.2969 132.488 28.4219C132.738 28.5469 132.998 28.6536 133.269 28.7422C133.545 28.8255 133.821 28.8906 134.097 28.9375C134.373 28.9844 134.628 29.0078 134.863 29.0078C135.67 29.0078 136.271 28.8594 136.667 28.5625C137.068 28.2604 137.269 27.8281 137.269 27.2656C137.269 26.9635 137.201 26.7005 137.066 26.4766C136.935 26.2526 136.753 26.0495 136.519 25.8672C136.284 25.6797 136.006 25.5026 135.683 25.3359C135.365 25.1641 135.021 24.9844 134.652 24.7969C134.261 24.599 133.896 24.3984 133.558 24.1953C133.219 23.9922 132.925 23.7682 132.675 23.5234C132.425 23.2786 132.227 23.0026 132.081 22.6953C131.941 22.3828 131.87 22.0182 131.87 21.6016C131.87 21.0911 131.982 20.6484 132.206 20.2734C132.43 19.8932 132.724 19.5807 133.089 19.3359C133.454 19.0911 133.868 18.9089 134.331 18.7891C134.8 18.6693 135.277 18.6094 135.761 18.6094C136.865 18.6094 137.67 18.7422 138.175 19.0078V20.4844C137.514 20.026 136.665 19.7969 135.628 19.7969C135.342 19.7969 135.055 19.8281 134.769 19.8906C134.482 19.9479 134.227 20.0443 134.003 20.1797C133.779 20.3151 133.597 20.4896 133.456 20.7031C133.316 20.9167 133.245 21.1771 133.245 21.4844C133.245 21.7708 133.297 22.0182 133.402 22.2266C133.511 22.4349 133.67 22.625 133.878 22.7969C134.086 22.9688 134.339 23.1354 134.636 23.2969C134.938 23.4583 135.284 23.6354 135.675 23.8281C136.076 24.026 136.456 24.2344 136.816 24.4531C137.175 24.6719 137.49 24.9141 137.761 25.1797C138.032 25.4453 138.245 25.7396 138.402 26.0625C138.563 26.3854 138.644 26.7552 138.644 27.1719C138.644 27.724 138.534 28.1927 138.316 28.5781C138.102 28.9583 137.81 29.2682 137.441 29.5078C137.076 29.7474 136.654 29.9193 136.175 30.0234C135.696 30.1328 135.191 30.1875 134.659 30.1875C134.482 30.1875 134.264 30.1719 134.003 30.1406C133.743 30.1146 133.477 30.0729 133.206 30.0156C132.935 29.9635 132.678 29.8984 132.433 29.8203C132.193 29.737 132.001 29.6458 131.855 29.5469ZM145.679 29.6328C145.065 30.0026 144.336 30.1875 143.492 30.1875C142.351 30.1875 141.429 29.8177 140.726 29.0781C140.028 28.3333 139.679 27.3698 139.679 26.1875C139.679 24.8698 140.057 23.8125 140.812 23.0156C141.567 22.2135 142.575 21.8125 143.836 21.8125C144.539 21.8125 145.159 21.9427 145.695 22.2031V23.5156C145.101 23.099 144.466 22.8906 143.789 22.8906C142.971 22.8906 142.299 23.1849 141.773 23.7734C141.252 24.3568 140.992 25.125 140.992 26.0781C140.992 27.0156 141.237 27.7552 141.726 28.2969C142.221 28.8385 142.882 29.1094 143.711 29.1094C144.409 29.1094 145.065 28.8776 145.679 28.4141V29.6328ZM151.309 23.2969C151.085 23.125 150.762 23.0391 150.34 23.0391C149.793 23.0391 149.335 23.2969 148.965 23.8125C148.6 24.3281 148.418 25.0312 148.418 25.9219V30H147.137V22H148.418V23.6484H148.449C148.632 23.0859 148.91 22.6484 149.285 22.3359C149.66 22.0182 150.08 21.8594 150.543 21.8594C150.876 21.8594 151.132 21.8958 151.309 21.9688V23.2969ZM152.876 19.9688C152.646 19.9688 152.451 19.8906 152.29 19.7344C152.128 19.5781 152.048 19.3802 152.048 19.1406C152.048 18.901 152.128 18.7031 152.29 18.5469C152.451 18.3854 152.646 18.3047 152.876 18.3047C153.11 18.3047 153.308 18.3854 153.469 18.5469C153.636 18.7031 153.719 18.901 153.719 19.1406C153.719 19.3698 153.636 19.5651 153.469 19.7266C153.308 19.888 153.11 19.9688 152.876 19.9688ZM153.501 30H152.219V22H153.501V30ZM156.927 28.8438H156.896V33.6797H155.614V22H156.896V23.4062H156.927C157.557 22.3438 158.479 21.8125 159.693 21.8125C160.724 21.8125 161.528 22.1719 162.107 22.8906C162.685 23.6042 162.974 24.5625 162.974 25.7656C162.974 27.1042 162.648 28.1771 161.997 28.9844C161.346 29.7865 160.456 30.1875 159.325 30.1875C158.289 30.1875 157.489 29.7396 156.927 28.8438ZM156.896 25.6172V26.7344C156.896 27.3958 157.109 27.9583 157.536 28.4219C157.969 28.8802 158.515 29.1094 159.177 29.1094C159.953 29.1094 160.56 28.8125 160.997 28.2188C161.44 27.625 161.661 26.7995 161.661 25.7422C161.661 24.8516 161.456 24.1536 161.044 23.6484C160.633 23.1432 160.075 22.8906 159.372 22.8906C158.627 22.8906 158.028 23.151 157.575 23.6719C157.122 24.1875 156.896 24.8359 156.896 25.6172ZM168.252 29.9219C167.949 30.0885 167.551 30.1719 167.056 30.1719C165.655 30.1719 164.955 29.3906 164.955 27.8281V23.0938H163.58V22H164.955V20.0469L166.236 19.6328V22H168.252V23.0938H166.236V27.6016C166.236 28.138 166.327 28.5208 166.509 28.75C166.692 28.9792 166.994 29.0938 167.416 29.0938C167.739 29.0938 168.017 29.0052 168.252 28.8281V29.9219Z" fill="#63B0EA"/>
</svg>
