<svg width="226" height="282" viewBox="0 0 226 282" fill="none" xmlns="http://www.w3.org/2000/svg">
<path d="M1.90186 28.3564H225.078V280.477H1.90186V28.3564Z" fill="#F7F7F7" fill-opacity="0.6"/>
<path d="M225.078 281.238V8.93555C225.078 4.51727 221.496 0.935547 217.078 0.935547H9.14026C4.72198 0.935547 1.14025 4.51727 1.14025 8.93555V280.477" stroke="black" stroke-opacity="0.13"/>
<path opacity="0.6" d="M2 10C2 5.58172 5.58172 2 10 2H216C220.418 2 224 5.58172 224 10V27H2V10Z" fill="#FCFCFC"/>
<line x1="1.14038" y1="27.8564" x2="225.078" y2="27.8565" stroke="#E2E2E2"/>
<path d="M20.5547 54.75C19.5807 55.0781 18.6536 55.2422 17.7734 55.2422C16.8984 55.2422 16.1198 55.0417 15.4375 54.6406C14.7604 54.2344 14.2318 53.6875 13.8516 53C13.4714 52.3073 13.2812 51.5208 13.2812 50.6406C13.2812 49.3177 13.7109 48.2188 14.5703 47.3438C15.4349 46.4688 16.4766 46.0312 17.6953 46.0312C18.5964 46.0312 19.5495 46.2005 20.5547 46.5391V47.9375C19.5391 47.474 18.6302 47.2422 17.8281 47.2422C17.2969 47.2422 16.7969 47.375 16.3281 47.6406C15.8594 47.901 15.4974 48.3099 15.2422 48.8672C14.987 49.4245 14.8594 49.9974 14.8594 50.5859C14.8594 51.3724 15.1042 52.1224 15.5938 52.8359C16.0885 53.5495 16.862 53.9062 17.9141 53.9062C18.2318 53.9062 18.5443 53.8854 18.8516 53.8438C19.1589 53.7969 19.7266 53.6328 20.5547 53.3516V54.75ZM25.9341 55.2422C24.6841 55.2422 23.6841 54.8073 22.9341 53.9375C22.1841 53.0625 21.8091 51.9609 21.8091 50.6328C21.8091 49.3047 22.1841 48.2057 22.9341 47.3359C23.6841 46.4661 24.6841 46.0312 25.9341 46.0312C27.1789 46.0312 28.1763 46.4661 28.9263 47.3359C29.6763 48.2057 30.0513 49.3047 30.0513 50.6328C30.0513 51.9609 29.6763 53.0625 28.9263 53.9375C28.1763 54.8073 27.1789 55.2422 25.9341 55.2422ZM25.9341 54.0312C26.7101 54.0312 27.3273 53.7292 27.7856 53.125C28.244 52.5208 28.4731 51.6901 28.4731 50.6328C28.4731 49.5807 28.244 48.7526 27.7856 48.1484C27.3273 47.5443 26.7101 47.2422 25.9341 47.2422C25.1528 47.2422 24.533 47.5443 24.0747 48.1484C23.6164 48.7526 23.3872 49.5807 23.3872 50.6328C23.3872 51.6901 23.6164 52.5208 24.0747 53.125C24.533 53.7292 25.1528 54.0312 25.9341 54.0312ZM31.4697 55V46.2734H32.9228V48.1797C33.3395 47.5078 33.8421 46.9818 34.4306 46.6016C35.0192 46.2214 35.6077 46.0312 36.1963 46.0312C36.7119 46.0312 37.1806 46.1693 37.6025 46.4453C38.0244 46.7161 38.3186 47.0729 38.4853 47.5156C38.6572 47.9583 38.7431 48.8281 38.7431 50.125V55H37.29V49.9453C37.29 49.1068 37.2483 48.5547 37.165 48.2891C37.0869 48.0182 36.9384 47.7969 36.7197 47.625C36.5061 47.4531 36.2718 47.3672 36.0166 47.3672C35.5061 47.3672 34.9567 47.6094 34.3681 48.0938C33.7848 48.5781 33.303 49.1849 32.9228 49.9141V55H31.4697ZM40.7006 54.5391V53C41.284 53.3802 41.9011 53.6484 42.5522 53.8047C43.2032 53.9557 43.7553 54.0312 44.2084 54.0312C44.9428 54.0312 45.4715 53.9141 45.7944 53.6797C46.1173 53.4401 46.2787 53.1432 46.2787 52.7891C46.2787 52.5547 46.2032 52.3542 46.0522 52.1875C45.9011 52.0208 45.5261 51.8151 44.9272 51.5703L44.4272 51.3672L43.4194 50.9688C42.336 50.5469 41.6537 50.1562 41.3725 49.7969C41.086 49.4427 40.9428 49.0104 40.9428 48.5C40.9428 47.7812 41.2189 47.1901 41.7709 46.7266C42.3282 46.263 43.2293 46.0312 44.4741 46.0312C45.4064 46.0312 46.2892 46.1667 47.1225 46.4375V47.7578C46.1642 47.4141 45.2631 47.2422 44.4194 47.2422C43.8048 47.2422 43.323 47.3516 42.9741 47.5703C42.6303 47.7839 42.4584 48.0521 42.4584 48.375C42.4584 48.6875 42.6095 48.9375 42.9116 49.125C43.2084 49.3125 43.6928 49.5286 44.3647 49.7734L45.3491 50.1328C46.2501 50.4609 46.8829 50.8177 47.2475 51.2031C47.6121 51.5885 47.7944 52.0703 47.7944 52.6484C47.7944 53.4036 47.5027 54.026 46.9194 54.5156C46.3412 55 45.4142 55.2422 44.1381 55.2422C43.0235 55.2422 41.8777 55.0078 40.7006 54.5391ZM57.0253 54.6484C56.343 54.9349 55.8482 55.1042 55.5409 55.1562C55.2336 55.2135 54.9368 55.2422 54.6503 55.2422C54.0409 55.2422 53.4836 55.125 52.9784 54.8906C52.4732 54.6562 52.0904 54.3099 51.83 53.8516C51.5748 53.3932 51.4472 52.6849 51.4472 51.7266V48.2109H49.2675V47H51.4472V43.4844H52.9003V47H56.7831V48.2109H52.9003V51.7031C52.9003 52.4062 52.9836 52.9036 53.1503 53.1953C53.317 53.4818 53.5383 53.6927 53.8144 53.8281C54.0956 53.9635 54.4264 54.0312 54.8066 54.0312C55.5097 54.0312 56.2493 53.8099 57.0253 53.3672V54.6484ZM67.9872 55V42.3906H69.4403V48.1797C69.857 47.5078 70.3596 46.9818 70.9481 46.6016C71.5367 46.2214 72.1252 46.0312 72.7137 46.0312C73.2085 46.0312 73.6591 46.1589 74.0653 46.4141C74.4768 46.6641 74.7632 46.9688 74.9247 47.3281C75.0549 47.6042 75.1434 47.8984 75.1903 48.2109C75.2372 48.5182 75.2606 49.1562 75.2606 50.125V55H73.8075V49.9453C73.8075 49.1068 73.7658 48.5547 73.6825 48.2891C73.6044 48.0182 73.4559 47.7969 73.2372 47.625C73.0236 47.4531 72.7893 47.3672 72.5341 47.3672C72.0236 47.3672 71.4742 47.6094 70.8856 48.0938C70.3023 48.5781 69.8205 49.1849 69.4403 49.9141V55H67.9872ZM84.3744 54.4219C83.2129 54.974 82.114 55.25 81.0775 55.25C80.291 55.25 79.5879 55.0547 78.9681 54.6641C78.3483 54.2734 77.8509 53.7161 77.4759 52.9922C77.1061 52.263 76.9212 51.4844 76.9212 50.6562C76.9212 49.8594 77.0983 49.0938 77.4525 48.3594C77.8067 47.625 78.3015 47.0547 78.9369 46.6484C79.5723 46.237 80.2806 46.0312 81.0619 46.0312C82.0983 46.0312 82.9291 46.401 83.5541 47.1406C84.1843 47.8802 84.4994 49.0208 84.4994 50.5625V50.875H78.4837C78.4837 51.4792 78.6087 52.0312 78.8587 52.5312C79.114 53.0312 79.4473 53.4062 79.8587 53.6562C80.2702 53.9062 80.739 54.0312 81.265 54.0312C82.2025 54.0312 83.239 53.7188 84.3744 53.0938V54.4219ZM78.5697 49.7891H82.9212V49.5781C82.9212 48.8646 82.7468 48.2969 82.3978 47.875C82.0489 47.4531 81.5827 47.2422 80.9994 47.2422C80.4108 47.2422 79.9004 47.4583 79.4681 47.8906C79.041 48.3177 78.7416 48.9505 78.5697 49.7891ZM88.5897 55V43.6094H85.9803V42.3906H90.0428V53.7891H92.7694V55H88.5897ZM97.7191 55V43.6094H95.1097V42.3906H99.1722V53.7891H101.899V55H97.7191ZM108.098 55.2422C106.848 55.2422 105.848 54.8073 105.098 53.9375C104.348 53.0625 103.973 51.9609 103.973 50.6328C103.973 49.3047 104.348 48.2057 105.098 47.3359C105.848 46.4661 106.848 46.0312 108.098 46.0312C109.343 46.0312 110.341 46.4661 111.091 47.3359C111.841 48.2057 112.216 49.3047 112.216 50.6328C112.216 51.9609 111.841 53.0625 111.091 53.9375C110.341 54.8073 109.343 55.2422 108.098 55.2422ZM108.098 54.0312C108.874 54.0312 109.492 53.7292 109.95 53.125C110.408 52.5208 110.637 51.6901 110.637 50.6328C110.637 49.5807 110.408 48.7526 109.95 48.1484C109.492 47.5443 108.874 47.2422 108.098 47.2422C107.317 47.2422 106.697 47.5443 106.239 48.1484C105.781 48.7526 105.552 49.5807 105.552 50.6328C105.552 51.6901 105.781 52.5208 106.239 53.125C106.697 53.7292 107.317 54.0312 108.098 54.0312ZM130.592 48.8203V50.0312H122.107V48.8203H130.592ZM130.592 51.5469V52.7578H122.107V51.5469H130.592ZM148.007 42.1484V43.125C147.632 43.224 147.345 43.3646 147.147 43.5469C146.954 43.7292 146.798 43.9635 146.678 44.25C146.564 44.5312 146.507 44.875 146.507 45.2812C146.986 45.2812 147.34 45.4193 147.569 45.6953C147.803 45.9661 147.921 46.2552 147.921 46.5625C147.921 46.9271 147.793 47.2344 147.538 47.4844C147.283 47.7292 146.986 47.8516 146.647 47.8516C146.204 47.8516 145.824 47.6641 145.507 47.2891C145.194 46.9089 145.038 46.3906 145.038 45.7344C145.038 45.1562 145.163 44.6146 145.413 44.1094C145.663 43.6042 146.001 43.1719 146.428 42.8125C146.861 42.4531 147.387 42.2318 148.007 42.1484ZM144.186 42.1484V43.125C143.811 43.224 143.525 43.3646 143.327 43.5469C143.134 43.7292 142.978 43.9635 142.858 44.25C142.744 44.5312 142.686 44.875 142.686 45.2812C143.171 45.2812 143.527 45.4193 143.757 45.6953C143.986 45.9661 144.1 46.2552 144.1 46.5625C144.1 46.9271 143.973 47.2344 143.717 47.4844C143.462 47.7292 143.165 47.8516 142.827 47.8516C142.389 47.8516 142.012 47.6641 141.694 47.2891C141.376 46.9089 141.217 46.3906 141.217 45.7344C141.217 45.1562 141.342 44.6146 141.592 44.1094C141.842 43.6042 142.181 43.1719 142.608 42.8125C143.04 42.4531 143.566 42.2318 144.186 42.1484ZM150.152 55V42.3906H151.605V48.1797C152.021 47.5078 152.524 46.9818 153.113 46.6016C153.701 46.2214 154.29 46.0312 154.878 46.0312C155.373 46.0312 155.823 46.1589 156.23 46.4141C156.641 46.6641 156.928 46.9688 157.089 47.3281C157.219 47.6042 157.308 47.8984 157.355 48.2109C157.402 48.5182 157.425 49.1562 157.425 50.125V55H155.972V49.9453C155.972 49.1068 155.93 48.5547 155.847 48.2891C155.769 48.0182 155.62 47.7969 155.402 47.625C155.188 47.4531 154.954 47.3672 154.698 47.3672C154.188 47.3672 153.639 47.6094 153.05 48.0938C152.467 48.5781 151.985 49.1849 151.605 49.9141V55H150.152ZM161.726 55V47.4844H159.304V46.2734H163.179V53.7891H165.609V55H161.726ZM161.484 43.125C161.484 42.7969 161.596 42.5521 161.82 42.3906C162.044 42.2292 162.255 42.1484 162.453 42.1484C162.656 42.1484 162.869 42.2292 163.093 42.3906C163.317 42.5521 163.429 42.7969 163.429 43.125C163.429 43.4479 163.317 43.6901 163.093 43.8516C162.869 44.013 162.656 44.0938 162.453 44.0938C162.255 44.0938 162.044 44.013 161.82 43.8516C161.596 43.6901 161.484 43.4479 161.484 43.125ZM168.606 47.8516V46.875C168.981 46.776 169.264 46.6354 169.457 46.4531C169.655 46.2708 169.811 46.0391 169.926 45.7578C170.046 45.4714 170.106 45.125 170.106 44.7188C169.621 44.7188 169.264 44.5833 169.035 44.3125C168.806 44.0365 168.692 43.7448 168.692 43.4375C168.692 43.0729 168.819 42.7682 169.074 42.5234C169.33 42.2734 169.626 42.1484 169.965 42.1484C170.402 42.1484 170.78 42.3385 171.098 42.7188C171.416 43.0938 171.574 43.6094 171.574 44.2656C171.574 44.8438 171.449 45.3854 171.199 45.8906C170.949 46.3958 170.608 46.8281 170.176 47.1875C169.749 47.5469 169.225 47.7682 168.606 47.8516ZM172.426 47.8516V46.875C172.796 46.776 173.08 46.6354 173.277 46.4531C173.475 46.2708 173.632 46.0391 173.746 45.7578C173.866 45.4714 173.926 45.125 173.926 44.7188C173.442 44.7188 173.085 44.5833 172.856 44.3125C172.626 44.0365 172.512 43.7448 172.512 43.4375C172.512 43.0729 172.637 42.7682 172.887 42.5234C173.142 42.2734 173.439 42.1484 173.777 42.1484C174.22 42.1484 174.6 42.3385 174.918 42.7188C175.236 43.0938 175.395 43.6094 175.395 44.2656C175.395 44.8438 175.27 45.3854 175.02 45.8906C174.77 46.3958 174.429 46.8281 173.996 47.1875C173.569 47.5469 173.046 47.7682 172.426 47.8516ZM13.2109 79V66.3906H14.6641V72.1797C15.0807 71.5078 15.5833 70.9818 16.1719 70.6016C16.7604 70.2214 17.349 70.0312 17.9375 70.0312C18.4323 70.0312 18.8828 70.1589 19.2891 70.4141C19.7005 70.6641 19.987 70.9688 20.1484 71.3281C20.2786 71.6042 20.3672 71.8984 20.4141 72.2109C20.4609 72.5182 20.4844 73.1562 20.4844 74.125V79H19.0312V73.9453C19.0312 73.1068 18.9896 72.5547 18.9062 72.2891C18.8281 72.0182 18.6797 71.7969 18.4609 71.625C18.2474 71.4531 18.013 71.3672 17.7578 71.3672C17.2474 71.3672 16.6979 71.6094 16.1094 72.0938C15.526 72.5781 15.0443 73.1849 14.6641 73.9141V79H13.2109ZM29.5981 78.4219C28.4367 78.974 27.3377 79.25 26.3013 79.25C25.5148 79.25 24.8117 79.0547 24.1919 78.6641C23.5721 78.2734 23.0747 77.7161 22.6997 76.9922C22.3299 76.263 22.145 75.4844 22.145 74.6562C22.145 73.8594 22.3221 73.0938 22.6763 72.3594C23.0304 71.625 23.5252 71.0547 24.1606 70.6484C24.796 70.237 25.5044 70.0312 26.2856 70.0312C27.3221 70.0312 28.1528 70.401 28.7778 71.1406C29.408 71.8802 29.7231 73.0208 29.7231 74.5625V74.875H23.7075C23.7075 75.4792 23.8325 76.0312 24.0825 76.5312C24.3377 77.0312 24.671 77.4062 25.0825 77.6562C25.494 77.9062 25.9627 78.0312 26.4888 78.0312C27.4263 78.0312 28.4627 77.7188 29.5981 77.0938V78.4219ZM23.7934 73.7891H28.145V73.5781C28.145 72.8646 27.9705 72.2969 27.6216 71.875C27.2726 71.4531 26.8065 71.2422 26.2231 71.2422C25.6346 71.2422 25.1242 71.4583 24.6919 71.8906C24.2648 72.3177 23.9653 72.9505 23.7934 73.7891ZM33.8134 79V67.6094H31.2041V66.3906H35.2666V77.7891H37.9931V79H33.8134ZM42.9428 79V67.6094H40.3334V66.3906H44.3959V77.7891H47.1225V79H42.9428ZM53.3222 79.2422C52.0722 79.2422 51.0722 78.8073 50.3222 77.9375C49.5722 77.0625 49.1972 75.9609 49.1972 74.6328C49.1972 73.3047 49.5722 72.2057 50.3222 71.3359C51.0722 70.4661 52.0722 70.0312 53.3222 70.0312C54.567 70.0312 55.5644 70.4661 56.3144 71.3359C57.0644 72.2057 57.4394 73.3047 57.4394 74.6328C57.4394 75.9609 57.0644 77.0625 56.3144 77.9375C55.5644 78.8073 54.567 79.2422 53.3222 79.2422ZM53.3222 78.0312C54.0982 78.0312 54.7154 77.7292 55.1738 77.125C55.6321 76.5208 55.8613 75.6901 55.8613 74.6328C55.8613 73.5807 55.6321 72.7526 55.1738 72.1484C54.7154 71.5443 54.0982 71.2422 53.3222 71.2422C52.5409 71.2422 51.9211 71.5443 51.4628 72.1484C51.0045 72.7526 50.7753 73.5807 50.7753 74.6328C50.7753 75.6901 51.0045 76.5208 51.4628 77.125C51.9211 77.7292 52.5409 78.0312 53.3222 78.0312ZM75.8153 72.8203V74.0312H67.3309V72.8203H75.8153ZM75.8153 75.5469V76.7578H67.3309V75.5469H75.8153ZM93.2303 66.1484V67.125C92.8553 67.224 92.5689 67.3646 92.3709 67.5469C92.1782 67.7292 92.022 67.9635 91.9022 68.25C91.7876 68.5312 91.7303 68.875 91.7303 69.2812C92.2095 69.2812 92.5636 69.4193 92.7928 69.6953C93.0272 69.9661 93.1444 70.2552 93.1444 70.5625C93.1444 70.9271 93.0168 71.2344 92.7616 71.4844C92.5064 71.7292 92.2095 71.8516 91.8709 71.8516C91.4282 71.8516 91.048 71.6641 90.7303 71.2891C90.4178 70.9089 90.2616 70.3906 90.2616 69.7344C90.2616 69.1562 90.3866 68.6146 90.6366 68.1094C90.8866 67.6042 91.2251 67.1719 91.6522 66.8125C92.0845 66.4531 92.6105 66.2318 93.2303 66.1484ZM89.41 66.1484V67.125C89.035 67.224 88.7485 67.3646 88.5506 67.5469C88.3579 67.7292 88.2017 67.9635 88.0819 68.25C87.9673 68.5312 87.91 68.875 87.91 69.2812C88.3944 69.2812 88.7511 69.4193 88.9803 69.6953C89.2095 69.9661 89.3241 70.2552 89.3241 70.5625C89.3241 70.9271 89.1965 71.2344 88.9413 71.4844C88.686 71.7292 88.3892 71.8516 88.0506 71.8516C87.6131 71.8516 87.2355 71.6641 86.9178 71.2891C86.6001 70.9089 86.4413 70.3906 86.4413 69.7344C86.4413 69.1562 86.5663 68.6146 86.8163 68.1094C87.0663 67.6042 87.4048 67.1719 87.8319 66.8125C88.2642 66.4531 88.7902 66.2318 89.41 66.1484ZM95.3753 79V66.3906H96.8284V72.1797C97.2451 71.5078 97.7477 70.9818 98.3363 70.6016C98.9248 70.2214 99.5133 70.0312 100.102 70.0312C100.597 70.0312 101.047 70.1589 101.453 70.4141C101.865 70.6641 102.151 70.9688 102.313 71.3281C102.443 71.6042 102.532 71.8984 102.578 72.2109C102.625 72.5182 102.649 73.1562 102.649 74.125V79H101.196V73.9453C101.196 73.1068 101.154 72.5547 101.071 72.2891C100.993 72.0182 100.844 71.7969 100.625 71.625C100.412 71.4531 100.177 71.3672 99.9222 71.3672C99.4118 71.3672 98.8623 71.6094 98.2738 72.0938C97.6904 72.5781 97.2086 73.1849 96.8284 73.9141V79H95.3753ZM111.762 78.4219C110.601 78.974 109.502 79.25 108.466 79.25C107.679 79.25 106.976 79.0547 106.356 78.6641C105.736 78.2734 105.239 77.7161 104.864 76.9922C104.494 76.263 104.309 75.4844 104.309 74.6562C104.309 73.8594 104.486 73.0938 104.841 72.3594C105.195 71.625 105.69 71.0547 106.325 70.6484C106.96 70.237 107.669 70.0312 108.45 70.0312C109.486 70.0312 110.317 70.401 110.942 71.1406C111.572 71.8802 111.887 73.0208 111.887 74.5625V74.875H105.872C105.872 75.4792 105.997 76.0312 106.247 76.5312C106.502 77.0312 106.835 77.4062 107.247 77.6562C107.658 77.9062 108.127 78.0312 108.653 78.0312C109.591 78.0312 110.627 77.7188 111.762 77.0938V78.4219ZM105.958 73.7891H110.309V73.5781C110.309 72.8646 110.135 72.2969 109.786 71.875C109.437 71.4531 108.971 71.2422 108.387 71.2422C107.799 71.2422 107.289 71.4583 106.856 71.8906C106.429 72.3177 106.13 72.9505 105.958 73.7891ZM115.978 79V67.6094H113.368V66.3906H117.431V77.7891H120.158V79H115.978ZM125.107 79V67.6094H122.498V66.3906H126.56V77.7891H129.287V79H125.107ZM135.487 79.2422C134.237 79.2422 133.237 78.8073 132.487 77.9375C131.737 77.0625 131.362 75.9609 131.362 74.6328C131.362 73.3047 131.737 72.2057 132.487 71.3359C133.237 70.4661 134.237 70.0312 135.487 70.0312C136.731 70.0312 137.729 70.4661 138.479 71.3359C139.229 72.2057 139.604 73.3047 139.604 74.6328C139.604 75.9609 139.229 77.0625 138.479 77.9375C137.729 78.8073 136.731 79.2422 135.487 79.2422ZM135.487 78.0312C136.263 78.0312 136.88 77.7292 137.338 77.125C137.796 76.5208 138.026 75.6901 138.026 74.6328C138.026 73.5807 137.796 72.7526 137.338 72.1484C136.88 71.5443 136.263 71.2422 135.487 71.2422C134.705 71.2422 134.086 71.5443 133.627 72.1484C133.169 72.7526 132.94 73.5807 132.94 74.6328C132.94 75.6901 133.169 76.5208 133.627 77.125C134.086 77.7292 134.705 78.0312 135.487 78.0312ZM141.217 71.8516V70.875C141.592 70.776 141.876 70.6354 142.069 70.4531C142.267 70.2708 142.423 70.0391 142.538 69.7578C142.658 69.4714 142.717 69.125 142.717 68.7188C142.233 68.7188 141.876 68.5833 141.647 68.3125C141.418 68.0365 141.303 67.7448 141.303 67.4375C141.303 67.0729 141.431 66.7682 141.686 66.5234C141.941 66.2734 142.238 66.1484 142.577 66.1484C143.014 66.1484 143.392 66.3385 143.71 66.7188C144.027 67.0938 144.186 67.6094 144.186 68.2656C144.186 68.8438 144.061 69.3854 143.811 69.8906C143.561 70.3958 143.22 70.8281 142.788 71.1875C142.361 71.5469 141.837 71.7682 141.217 71.8516ZM145.038 71.8516V70.875C145.408 70.776 145.691 70.6354 145.889 70.4531C146.087 70.2708 146.244 70.0391 146.358 69.7578C146.478 69.4714 146.538 69.125 146.538 68.7188C146.053 68.7188 145.697 68.5833 145.467 68.3125C145.238 68.0365 145.124 67.7448 145.124 67.4375C145.124 67.0729 145.249 66.7682 145.499 66.5234C145.754 66.2734 146.051 66.1484 146.389 66.1484C146.832 66.1484 147.212 66.3385 147.53 66.7188C147.848 67.0938 148.007 67.6094 148.007 68.2656C148.007 68.8438 147.882 69.3854 147.632 69.8906C147.382 70.3958 147.04 70.8281 146.608 71.1875C146.181 71.5469 145.658 71.7682 145.038 71.8516Z" fill="#C4C4C4"/>
<path d="M14 85.9693L15.1195 84.8587C15.5674 84.4144 16.3097 84.4906 16.6578 85.0167L17.1361 85.7396C17.5315 86.3372 18.4086 86.3372 18.804 85.7396L19.1211 85.2604C19.5165 84.6628 20.3936 84.6628 20.789 85.2604L21.1061 85.7396C21.5015 86.3372 22.3786 86.3372 22.774 85.7396L23.0911 85.2604C23.4865 84.6628 24.3636 84.6628 24.7591 85.2604L25.0761 85.7396C25.4715 86.3372 26.3487 86.3372 26.7441 85.7396L27.0612 85.2604C27.4566 84.6628 28.3337 84.6628 28.7291 85.2604L29.0462 85.7396C29.4416 86.3372 30.3187 86.3372 30.7141 85.7396L31.0312 85.2604C31.4266 84.6628 32.3037 84.6628 32.6991 85.2604L33.0162 85.7396C33.4116 86.3372 34.2887 86.3372 34.6841 85.7396L35.0012 85.2604C35.3966 84.6628 36.2738 84.6628 36.6692 85.2604L36.9862 85.7396C37.3816 86.3372 38.2588 86.3372 38.6542 85.7396L38.9713 85.2604C39.3667 84.6628 40.2438 84.6628 40.6392 85.2604L40.9563 85.7396C41.3517 86.3372 42.2288 86.3372 42.6242 85.7396L42.9413 85.2604C43.3367 84.6628 44.2138 84.6628 44.6092 85.2604L44.9263 85.7396C45.3217 86.3372 46.1988 86.3372 46.5942 85.7396L46.9113 85.2604C47.3067 84.6628 48.1839 84.6628 48.5793 85.2604L48.8963 85.7396C49.2917 86.3372 50.1689 86.3372 50.5643 85.7396L50.8814 85.2604C51.2768 84.6628 52.1539 84.6628 52.5493 85.2604L52.8664 85.7396C53.2618 86.3372 54.1389 86.3372 54.5343 85.7396L54.8551 85.2548C55.2495 84.6587 56.1239 84.6569 56.5208 85.2514L57 85.9693" stroke="#C4C4C4"/>
</svg>
