<svg width="186" height="279" viewBox="0 0 186 279" fill="none" xmlns="http://www.w3.org/2000/svg">
<path d="M2 29H186V279H2V29Z" fill="white" fill-opacity="0.24"/>
<path d="M39.2109 79V70.2734H40.6641V72.1797C41.0807 71.5078 41.5833 70.9818 42.1719 70.6016C42.7604 70.2214 43.349 70.0312 43.9375 70.0312C44.4531 70.0312 44.9219 70.1693 45.3438 70.4453C45.7656 70.7161 46.0599 71.0729 46.2266 71.5156C46.3984 71.9583 46.4844 72.8281 46.4844 74.125V79H45.0312V73.9453C45.0312 73.1068 44.9896 72.5547 44.9062 72.2891C44.8281 72.0182 44.6797 71.7969 44.4609 71.625C44.2474 71.4531 44.013 71.3672 43.7578 71.3672C43.2474 71.3672 42.6979 71.6094 42.1094 72.0938C41.526 72.5781 41.0443 73.1849 40.6641 73.9141V79H39.2109ZM49.6841 72.2344C50.132 71.5052 50.6658 70.9557 51.2856 70.5859C51.9054 70.2161 52.4757 70.0312 52.9966 70.0312C53.7257 70.0312 54.382 70.3464 54.9653 70.9766C55.5486 71.6068 55.8403 72.5625 55.8403 73.8438C55.8403 74.8542 55.645 75.7578 55.2544 76.5547C54.869 77.3464 54.3533 77.974 53.7075 78.4375C53.0617 78.8958 52.2622 79.125 51.3091 79.125C51.0382 79.125 50.6216 79.0964 50.0591 79.0391C49.9757 79.0286 49.8507 79.0156 49.6841 79V82.3906H48.2309V70.2734H49.6841V72.2344ZM49.6841 73.9609V77.7031C50.2101 77.8385 50.6945 77.9062 51.1372 77.9062C52.0174 77.9062 52.757 77.5625 53.3559 76.875C53.9601 76.1823 54.2622 75.237 54.2622 74.0391C54.2622 73.1693 54.0981 72.5156 53.77 72.0781C53.4419 71.6406 53.0695 71.4219 52.6528 71.4219C52.1997 71.4219 51.6997 71.651 51.1528 72.1094C50.6111 72.5677 50.1216 73.1849 49.6841 73.9609ZM56.8134 79V70.2734H58.0869V72.2734C58.4879 71.4245 58.8603 70.8385 59.2041 70.5156C59.553 70.1927 59.9046 70.0312 60.2588 70.0312C60.6806 70.0312 61.0192 70.1979 61.2744 70.5312C61.5348 70.8594 61.665 71.3281 61.665 71.9375V72.4062C61.8369 71.875 62.0426 71.4453 62.2822 71.1172C62.527 70.7839 62.7796 70.5208 63.04 70.3281C63.3004 70.1302 63.5999 70.0312 63.9384 70.0312C64.3134 70.0312 64.6338 70.1901 64.8994 70.5078C65.165 70.8255 65.2978 71.4583 65.2978 72.4062V79H64.0244V73.0391C64.0244 72.5495 64.0088 72.2161 63.9775 72.0391C63.9463 71.8568 63.8838 71.7188 63.79 71.625C63.6963 71.5312 63.5947 71.4844 63.4853 71.4844C63.2145 71.4844 62.9228 71.6927 62.6103 72.1094C62.303 72.5208 61.9879 73.2057 61.665 74.1641V79H60.4463V73.0469C60.4463 72.276 60.3707 71.8229 60.2197 71.6875C60.0686 71.5521 59.9332 71.4844 59.8134 71.4844C59.5478 71.4844 59.2614 71.7161 58.9541 72.1797C58.652 72.6432 58.3629 73.237 58.0869 73.9609V79H56.8134ZM78.1738 79V71.4844H75.7519V70.2734H79.6269V77.7891H82.0566V79H78.1738ZM77.9316 67.125C77.9316 66.7969 78.0435 66.5521 78.2675 66.3906C78.4915 66.2292 78.7024 66.1484 78.9003 66.1484C79.1034 66.1484 79.317 66.2292 79.5409 66.3906C79.7649 66.5521 79.8769 66.7969 79.8769 67.125C79.8769 67.4479 79.7649 67.6901 79.5409 67.8516C79.317 68.013 79.1034 68.0938 78.9003 68.0938C78.7024 68.0938 78.4915 68.013 78.2675 67.8516C78.0435 67.6901 77.9316 67.4479 77.9316 67.125ZM84.8578 79V70.2734H86.3109V72.1797C86.7276 71.5078 87.2302 70.9818 87.8187 70.6016C88.4073 70.2214 88.9958 70.0312 89.5844 70.0312C90.1 70.0312 90.5687 70.1693 90.9906 70.4453C91.4125 70.7161 91.7068 71.0729 91.8734 71.5156C92.0453 71.9583 92.1312 72.8281 92.1312 74.125V79H90.6781V73.9453C90.6781 73.1068 90.6365 72.5547 90.5531 72.2891C90.475 72.0182 90.3266 71.7969 90.1078 71.625C89.8943 71.4531 89.6599 71.3672 89.4047 71.3672C88.8943 71.3672 88.3448 71.6094 87.7562 72.0938C87.1729 72.5781 86.6911 73.1849 86.3109 73.9141V79H84.8578ZM94.0887 78.5391V77C94.6721 77.3802 95.2893 77.6484 95.9403 77.8047C96.5914 77.9557 97.1434 78.0312 97.5966 78.0312C98.3309 78.0312 98.8596 77.9141 99.1825 77.6797C99.5054 77.4401 99.6669 77.1432 99.6669 76.7891C99.6669 76.5547 99.5914 76.3542 99.4403 76.1875C99.2893 76.0208 98.9143 75.8151 98.3153 75.5703L97.8153 75.3672L96.8075 74.9688C95.7242 74.5469 95.0419 74.1562 94.7606 73.7969C94.4742 73.4427 94.3309 73.0104 94.3309 72.5C94.3309 71.7812 94.607 71.1901 95.1591 70.7266C95.7164 70.263 96.6174 70.0312 97.8622 70.0312C98.7945 70.0312 99.6773 70.1667 100.511 70.4375V71.7578C99.5523 71.4141 98.6512 71.2422 97.8075 71.2422C97.1929 71.2422 96.7111 71.3516 96.3622 71.5703C96.0184 71.7839 95.8466 72.0521 95.8466 72.375C95.8466 72.6875 95.9976 72.9375 96.2997 73.125C96.5966 73.3125 97.0809 73.5286 97.7528 73.7734L98.7372 74.1328C99.6382 74.4609 100.271 74.8177 100.636 75.2031C101 75.5885 101.182 76.0703 101.182 76.6484C101.182 77.4036 100.891 78.026 100.307 78.5156C99.7294 79 98.8023 79.2422 97.5262 79.2422C96.4117 79.2422 95.2658 79.0078 94.0887 78.5391ZM110.413 78.6484C109.731 78.9349 109.236 79.1042 108.929 79.1562C108.622 79.2135 108.325 79.2422 108.038 79.2422C107.429 79.2422 106.872 79.125 106.367 78.8906C105.861 78.6562 105.479 78.3099 105.218 77.8516C104.963 77.3932 104.835 76.6849 104.835 75.7266V72.2109H102.656V71H104.835V67.4844H106.288V71H110.171V72.2109H106.288V75.7031C106.288 76.4062 106.372 76.9036 106.538 77.1953C106.705 77.4818 106.926 77.6927 107.202 77.8281C107.484 77.9635 107.814 78.0312 108.195 78.0312C108.898 78.0312 109.637 77.8099 110.413 77.3672V78.6484ZM117.98 77.0391C117.538 77.7682 117.004 78.3177 116.379 78.6875C115.759 79.0573 115.189 79.2422 114.668 79.2422C113.939 79.2422 113.282 78.9271 112.699 78.2969C112.121 77.6667 111.832 76.7109 111.832 75.4297C111.832 74.4193 112.025 73.5182 112.41 72.7266C112.795 71.9297 113.311 71.3021 113.957 70.8438C114.603 70.3802 115.402 70.1484 116.355 70.1484C116.631 70.1484 117.048 70.1771 117.605 70.2344C117.689 70.2448 117.814 70.2578 117.98 70.2734H119.441V76.4375C119.441 77.4896 119.551 78.3438 119.769 79H118.254C118.139 78.5208 118.048 77.8672 117.98 77.0391ZM117.98 75.3125V71.5703C117.465 71.4349 116.986 71.3672 116.543 71.3672C115.647 71.3672 114.9 71.7135 114.301 72.4062C113.707 73.099 113.41 74.0417 113.41 75.2344C113.41 76.099 113.571 76.7526 113.894 77.1953C114.223 77.6328 114.595 77.8516 115.012 77.8516C115.465 77.8516 115.965 77.6224 116.512 77.1641C117.058 76.7057 117.548 76.0885 117.98 75.3125ZM123.719 79V67.6094H121.11V66.3906H125.172V77.7891H127.899V79H123.719ZM132.848 79V67.6094H130.239V66.3906H134.302V77.7891H137.028V79H132.848ZM65.2978 110.148V111.367H61.665V115H60.4463V111.367H56.8134V110.148H60.4463V106.516H61.665V110.148H65.2978ZM83.0253 114.648C82.343 114.935 81.8482 115.104 81.5409 115.156C81.2336 115.214 80.9368 115.242 80.6503 115.242C80.0409 115.242 79.4836 115.125 78.9784 114.891C78.4732 114.656 78.0904 114.31 77.83 113.852C77.5748 113.393 77.4472 112.685 77.4472 111.727V108.211H75.2675V107H77.4472V103.484H78.9003V107H82.7831V108.211H78.9003V111.703C78.9003 112.406 78.9836 112.904 79.1503 113.195C79.317 113.482 79.5383 113.693 79.8144 113.828C80.0956 113.964 80.4264 114.031 80.8066 114.031C81.5097 114.031 82.2493 113.81 83.0253 113.367V114.648ZM88.0687 114.648L84.0375 106.273H85.6391L88.85 112.82L91.5375 106.273H92.9984L89.6156 114.383C88.9021 116.096 88.2224 117.234 87.5766 117.797C86.9359 118.359 86.1052 118.641 85.0844 118.641C84.6417 118.641 84.2458 118.602 83.8969 118.523V117.242C84.2979 117.367 84.6807 117.43 85.0453 117.43C85.5141 117.43 85.9307 117.339 86.2953 117.156C86.6599 116.974 86.9932 116.651 87.2953 116.188C87.5974 115.724 87.8109 115.323 87.9359 114.984L88.0687 114.648ZM95.3309 108.234C95.7789 107.505 96.3127 106.956 96.9325 106.586C97.5523 106.216 98.1226 106.031 98.6434 106.031C99.3726 106.031 100.029 106.346 100.612 106.977C101.196 107.607 101.487 108.562 101.487 109.844C101.487 110.854 101.292 111.758 100.901 112.555C100.516 113.346 100 113.974 99.3544 114.438C98.7085 114.896 97.9091 115.125 96.9559 115.125C96.6851 115.125 96.2684 115.096 95.7059 115.039C95.6226 115.029 95.4976 115.016 95.3309 115V118.391H93.8778V106.273H95.3309V108.234ZM95.3309 109.961V113.703C95.857 113.839 96.3414 113.906 96.7841 113.906C97.6643 113.906 98.4039 113.562 99.0028 112.875C99.607 112.182 99.9091 111.237 99.9091 110.039C99.9091 109.169 99.745 108.516 99.4169 108.078C99.0887 107.641 98.7164 107.422 98.2997 107.422C97.8466 107.422 97.3466 107.651 96.7997 108.109C96.258 108.568 95.7684 109.185 95.3309 109.961ZM110.374 114.422C109.213 114.974 108.114 115.25 107.077 115.25C106.291 115.25 105.588 115.055 104.968 114.664C104.348 114.273 103.851 113.716 103.476 112.992C103.106 112.263 102.921 111.484 102.921 110.656C102.921 109.859 103.098 109.094 103.452 108.359C103.807 107.625 104.301 107.055 104.937 106.648C105.572 106.237 106.281 106.031 107.062 106.031C108.098 106.031 108.929 106.401 109.554 107.141C110.184 107.88 110.499 109.021 110.499 110.562V110.875H104.484C104.484 111.479 104.609 112.031 104.859 112.531C105.114 113.031 105.447 113.406 105.859 113.656C106.27 113.906 106.739 114.031 107.265 114.031C108.202 114.031 109.239 113.719 110.374 113.094V114.422ZM104.57 109.789H108.921V109.578C108.921 108.865 108.747 108.297 108.398 107.875C108.049 107.453 107.583 107.242 106.999 107.242C106.411 107.242 105.9 107.458 105.468 107.891C105.041 108.318 104.742 108.951 104.57 109.789ZM112.348 114.539V113C112.931 113.38 113.548 113.648 114.199 113.805C114.85 113.956 115.402 114.031 115.855 114.031C116.59 114.031 117.118 113.914 117.441 113.68C117.764 113.44 117.926 113.143 117.926 112.789C117.926 112.555 117.85 112.354 117.699 112.188C117.548 112.021 117.173 111.815 116.574 111.57L116.074 111.367L115.066 110.969C113.983 110.547 113.301 110.156 113.019 109.797C112.733 109.443 112.59 109.01 112.59 108.5C112.59 107.781 112.866 107.19 113.418 106.727C113.975 106.263 114.876 106.031 116.121 106.031C117.053 106.031 117.936 106.167 118.769 106.438V107.758C117.811 107.414 116.91 107.242 116.066 107.242C115.452 107.242 114.97 107.352 114.621 107.57C114.277 107.784 114.105 108.052 114.105 108.375C114.105 108.688 114.256 108.938 114.558 109.125C114.855 109.312 115.34 109.529 116.012 109.773L116.996 110.133C117.897 110.461 118.53 110.818 118.894 111.203C119.259 111.589 119.441 112.07 119.441 112.648C119.441 113.404 119.15 114.026 118.566 114.516C117.988 115 117.061 115.242 115.785 115.242C114.67 115.242 113.525 115.008 112.348 114.539ZM128.719 114.75C127.745 115.078 126.818 115.242 125.938 115.242C125.063 115.242 124.284 115.042 123.602 114.641C122.925 114.234 122.396 113.688 122.016 113C121.636 112.307 121.446 111.521 121.446 110.641C121.446 109.318 121.875 108.219 122.735 107.344C123.599 106.469 124.641 106.031 125.86 106.031C126.761 106.031 127.714 106.201 128.719 106.539V107.938C127.703 107.474 126.795 107.242 125.993 107.242C125.461 107.242 124.961 107.375 124.493 107.641C124.024 107.901 123.662 108.31 123.407 108.867C123.151 109.424 123.024 109.997 123.024 110.586C123.024 111.372 123.269 112.122 123.758 112.836C124.253 113.549 125.026 113.906 126.078 113.906C126.396 113.906 126.709 113.885 127.016 113.844C127.323 113.797 127.891 113.633 128.719 113.352V114.75ZM131.247 115V106.273H132.7V108.18C133.153 107.461 133.671 106.924 134.255 106.57C134.843 106.211 135.497 106.031 136.216 106.031C136.742 106.031 137.268 106.112 137.794 106.273V109.422H136.395V107.43C136.151 107.388 135.958 107.367 135.817 107.367C135.276 107.367 134.744 107.581 134.223 108.008C133.703 108.435 133.195 109.076 132.7 109.93V115H131.247ZM142.079 115V107.484H139.658V106.273H143.533V113.789H145.962V115H142.079ZM141.837 103.125C141.837 102.797 141.949 102.552 142.173 102.391C142.397 102.229 142.608 102.148 142.806 102.148C143.009 102.148 143.223 102.229 143.447 102.391C143.671 102.552 143.783 102.797 143.783 103.125C143.783 103.448 143.671 103.69 143.447 103.852C143.223 104.013 143.009 104.094 142.806 104.094C142.608 104.094 142.397 104.013 142.173 103.852C141.949 103.69 141.837 103.448 141.837 103.125ZM150.107 108.234C150.555 107.505 151.089 106.956 151.709 106.586C152.329 106.216 152.899 106.031 153.42 106.031C154.149 106.031 154.805 106.346 155.388 106.977C155.972 107.607 156.263 108.562 156.263 109.844C156.263 110.854 156.068 111.758 155.677 112.555C155.292 113.346 154.776 113.974 154.131 114.438C153.485 114.896 152.685 115.125 151.732 115.125C151.461 115.125 151.045 115.096 150.482 115.039C150.399 115.029 150.274 115.016 150.107 115V118.391H148.654V106.273H150.107V108.234ZM150.107 109.961V113.703C150.633 113.839 151.118 113.906 151.56 113.906C152.441 113.906 153.18 113.562 153.779 112.875C154.383 112.182 154.685 111.237 154.685 110.039C154.685 109.169 154.521 108.516 154.193 108.078C153.865 107.641 153.493 107.422 153.076 107.422C152.623 107.422 152.123 107.651 151.576 108.109C151.034 108.568 150.545 109.185 150.107 109.961ZM165.19 114.648C164.507 114.935 164.013 115.104 163.705 115.156C163.398 115.214 163.101 115.242 162.815 115.242C162.205 115.242 161.648 115.125 161.143 114.891C160.638 114.656 160.255 114.31 159.994 113.852C159.739 113.393 159.612 112.685 159.612 111.727V108.211H157.432V107H159.612V103.484H161.065V107H164.948V108.211H161.065V111.703C161.065 112.406 161.148 112.904 161.315 113.195C161.481 113.482 161.703 113.693 161.979 113.828C162.26 113.964 162.591 114.031 162.971 114.031C163.674 114.031 164.414 113.81 165.19 113.367V114.648Z" fill="#C4C4C4"/>
<path d="M186 1H6C3.23857 1 1 3.23858 1 6V278" stroke="black" stroke-opacity="0.13"/>
<line x1="1" y1="28.5" x2="186" y2="28.5" stroke="#E2E2E2"/>
<path opacity="0.6" d="M1.5 6.5C1.5 3.73858 3.73858 1.5 6.5 1.5H186V28H1.5V6.5Z" fill="#FCFCFC" fill-opacity="0.3"/>
<path d="M19.7969 83.8164V81.9766C19.2734 81.9766 18.7305 81.9492 18.168 81.8945C17.6055 81.8398 17.0781 81.7578 16.5859 81.6484C16.0938 81.5312 15.5273 81.3281 14.8867 81.0391V78.7891C15.4023 79.0547 15.9062 79.2812 16.3984 79.4688C16.8984 79.6562 17.4219 79.8047 17.9688 79.9141C18.5234 80.0234 19.1328 80.1016 19.7969 80.1484V73.6211L18.543 72.9414C16.168 71.668 14.9805 70.1289 14.9805 68.3242C14.9805 67.3633 15.375 66.4297 16.1641 65.5234C16.9531 64.6094 18.1641 64.082 19.7969 63.9414V61.9961H21.4375V63.9414C22.3594 63.9414 23.4492 64.1016 24.707 64.4219V66.4492L24.2969 66.332C23.1172 66.0039 22.1641 65.8047 21.4375 65.7344V72.1094L22.75 72.8594C23.9844 73.5703 24.8281 74.2695 25.2812 74.957C25.7422 75.6445 25.9727 76.375 25.9727 77.1484C25.9727 77.8438 25.7969 78.5195 25.4453 79.1758C25.1016 79.8242 24.6055 80.3828 23.957 80.8516C23.3086 81.3203 22.4688 81.6445 21.4375 81.8242V83.8164H19.7969ZM19.7969 71.125V65.7109C19.0078 65.8906 18.3984 66.1875 17.9688 66.6016C17.5469 67.0156 17.3359 67.5 17.3359 68.0547C17.3359 68.5781 17.5156 69.082 17.875 69.5664C18.2422 70.043 18.8828 70.5625 19.7969 71.125ZM21.4375 74.5938V79.9844C22.2891 79.6797 22.8633 79.3086 23.1602 78.8711C23.4648 78.4258 23.6172 77.9297 23.6172 77.3828C23.6172 76.8516 23.4688 76.3984 23.1719 76.0234C22.875 75.6406 22.2969 75.1641 21.4375 74.5938Z" fill="#E2E2E2"/>
</svg>
