<svg width="197" height="216" viewBox="0 0 197 216" fill="none" xmlns="http://www.w3.org/2000/svg">
<path d="M1 215V9C1 4.58172 4.58172 1 9 1H197" stroke="white" stroke-opacity="0.13"/>
<path d="M1 25.5L197 25.5" stroke="#3393DD"/>
<path d="M1 26H197V216H1V26Z" fill="#5495DC" fill-opacity="0.2"/>
<path d="M35.2109 50V41.2734H36.6641V43.1797C37.0807 42.5078 37.5833 41.9818 38.1719 41.6016C38.7604 41.2214 39.349 41.0312 39.9375 41.0312C40.4531 41.0312 40.9219 41.1693 41.3438 41.4453C41.7656 41.7161 42.0599 42.0729 42.2266 42.5156C42.3984 42.9583 42.4844 43.8281 42.4844 45.125V50H41.0312V44.9453C41.0312 44.1068 40.9896 43.5547 40.9062 43.2891C40.8281 43.0182 40.6797 42.7969 40.4609 42.625C40.2474 42.4531 40.013 42.3672 39.7578 42.3672C39.2474 42.3672 38.6979 42.6094 38.1094 43.0938C37.526 43.5781 37.0443 44.1849 36.6641 44.9141V50H35.2109ZM45.6841 43.2344C46.132 42.5052 46.6658 41.9557 47.2856 41.5859C47.9054 41.2161 48.4757 41.0312 48.9966 41.0312C49.7257 41.0312 50.382 41.3464 50.9653 41.9766C51.5486 42.6068 51.8403 43.5625 51.8403 44.8438C51.8403 45.8542 51.645 46.7578 51.2544 47.5547C50.869 48.3464 50.3533 48.974 49.7075 49.4375C49.0617 49.8958 48.2622 50.125 47.3091 50.125C47.0382 50.125 46.6216 50.0964 46.0591 50.0391C45.9757 50.0286 45.8507 50.0156 45.6841 50V53.3906H44.2309V41.2734H45.6841V43.2344ZM45.6841 44.9609V48.7031C46.2101 48.8385 46.6945 48.9062 47.1372 48.9062C48.0174 48.9062 48.757 48.5625 49.3559 47.875C49.9601 47.1823 50.2622 46.237 50.2622 45.0391C50.2622 44.1693 50.0981 43.5156 49.77 43.0781C49.4419 42.6406 49.0695 42.4219 48.6528 42.4219C48.1997 42.4219 47.6997 42.651 47.1528 43.1094C46.6111 43.5677 46.1216 44.1849 45.6841 44.9609ZM52.8134 50V41.2734H54.0869V43.2734C54.4879 42.4245 54.8603 41.8385 55.2041 41.5156C55.553 41.1927 55.9046 41.0312 56.2588 41.0312C56.6806 41.0312 57.0192 41.1979 57.2744 41.5312C57.5348 41.8594 57.665 42.3281 57.665 42.9375V43.4062C57.8369 42.875 58.0426 42.4453 58.2822 42.1172C58.527 41.7839 58.7796 41.5208 59.04 41.3281C59.3004 41.1302 59.5999 41.0312 59.9384 41.0312C60.3134 41.0312 60.6338 41.1901 60.8994 41.5078C61.165 41.8255 61.2978 42.4583 61.2978 43.4062V50H60.0244V44.0391C60.0244 43.5495 60.0088 43.2161 59.9775 43.0391C59.9463 42.8568 59.8838 42.7188 59.79 42.625C59.6963 42.5312 59.5947 42.4844 59.4853 42.4844C59.2145 42.4844 58.9228 42.6927 58.6103 43.1094C58.303 43.5208 57.9879 44.2057 57.665 45.1641V50H56.4463V44.0469C56.4463 43.276 56.3707 42.8229 56.2197 42.6875C56.0686 42.5521 55.9332 42.4844 55.8134 42.4844C55.5478 42.4844 55.2614 42.7161 54.9541 43.1797C54.652 43.6432 54.3629 44.237 54.0869 44.9609V50H52.8134ZM74.1738 50V42.4844H71.7519V41.2734H75.6269V48.7891H78.0566V50H74.1738ZM73.9316 38.125C73.9316 37.7969 74.0435 37.5521 74.2675 37.3906C74.4915 37.2292 74.7024 37.1484 74.9003 37.1484C75.1034 37.1484 75.317 37.2292 75.5409 37.3906C75.7649 37.5521 75.8769 37.7969 75.8769 38.125C75.8769 38.4479 75.7649 38.6901 75.5409 38.8516C75.317 39.013 75.1034 39.0938 74.9003 39.0938C74.7024 39.0938 74.4915 39.013 74.2675 38.8516C74.0435 38.6901 73.9316 38.4479 73.9316 38.125ZM80.8578 50V41.2734H82.3109V43.1797C82.7276 42.5078 83.2302 41.9818 83.8187 41.6016C84.4073 41.2214 84.9958 41.0312 85.5844 41.0312C86.1 41.0312 86.5687 41.1693 86.9906 41.4453C87.4125 41.7161 87.7068 42.0729 87.8734 42.5156C88.0453 42.9583 88.1312 43.8281 88.1312 45.125V50H86.6781V44.9453C86.6781 44.1068 86.6365 43.5547 86.5531 43.2891C86.475 43.0182 86.3266 42.7969 86.1078 42.625C85.8943 42.4531 85.6599 42.3672 85.4047 42.3672C84.8943 42.3672 84.3448 42.6094 83.7562 43.0938C83.1729 43.5781 82.6911 44.1849 82.3109 44.9141V50H80.8578ZM90.0887 49.5391V48C90.6721 48.3802 91.2893 48.6484 91.9403 48.8047C92.5914 48.9557 93.1434 49.0312 93.5966 49.0312C94.3309 49.0312 94.8596 48.9141 95.1825 48.6797C95.5054 48.4401 95.6669 48.1432 95.6669 47.7891C95.6669 47.5547 95.5914 47.3542 95.4403 47.1875C95.2893 47.0208 94.9143 46.8151 94.3153 46.5703L93.8153 46.3672L92.8075 45.9688C91.7242 45.5469 91.0419 45.1562 90.7606 44.7969C90.4742 44.4427 90.3309 44.0104 90.3309 43.5C90.3309 42.7812 90.607 42.1901 91.1591 41.7266C91.7164 41.263 92.6174 41.0312 93.8622 41.0312C94.7945 41.0312 95.6773 41.1667 96.5106 41.4375V42.7578C95.5523 42.4141 94.6512 42.2422 93.8075 42.2422C93.1929 42.2422 92.7111 42.3516 92.3622 42.5703C92.0184 42.7839 91.8466 43.0521 91.8466 43.375C91.8466 43.6875 91.9976 43.9375 92.2997 44.125C92.5966 44.3125 93.0809 44.5286 93.7528 44.7734L94.7372 45.1328C95.6382 45.4609 96.271 45.8177 96.6356 46.2031C97.0002 46.5885 97.1825 47.0703 97.1825 47.6484C97.1825 48.4036 96.8908 49.026 96.3075 49.5156C95.7294 50 94.8023 50.2422 93.5262 50.2422C92.4117 50.2422 91.2658 50.0078 90.0887 49.5391ZM106.413 49.6484C105.731 49.9349 105.236 50.1042 104.929 50.1562C104.622 50.2135 104.325 50.2422 104.038 50.2422C103.429 50.2422 102.872 50.125 102.367 49.8906C101.861 49.6562 101.479 49.3099 101.218 48.8516C100.963 48.3932 100.835 47.6849 100.835 46.7266V43.2109H98.6556V42H100.835V38.4844H102.288V42H106.171V43.2109H102.288V46.7031C102.288 47.4062 102.372 47.9036 102.538 48.1953C102.705 48.4818 102.926 48.6927 103.202 48.8281C103.484 48.9635 103.814 49.0312 104.195 49.0312C104.898 49.0312 105.637 48.8099 106.413 48.3672V49.6484ZM113.98 48.0391C113.538 48.7682 113.004 49.3177 112.379 49.6875C111.759 50.0573 111.189 50.2422 110.668 50.2422C109.939 50.2422 109.282 49.9271 108.699 49.2969C108.121 48.6667 107.832 47.7109 107.832 46.4297C107.832 45.4193 108.025 44.5182 108.41 43.7266C108.795 42.9297 109.311 42.3021 109.957 41.8438C110.603 41.3802 111.402 41.1484 112.355 41.1484C112.631 41.1484 113.048 41.1771 113.605 41.2344C113.689 41.2448 113.814 41.2578 113.98 41.2734H115.441V47.4375C115.441 48.4896 115.551 49.3438 115.769 50H114.254C114.139 49.5208 114.048 48.8672 113.98 48.0391ZM113.98 46.3125V42.5703C113.465 42.4349 112.986 42.3672 112.543 42.3672C111.647 42.3672 110.9 42.7135 110.301 43.4062C109.707 44.099 109.41 45.0417 109.41 46.2344C109.41 47.099 109.571 47.7526 109.894 48.1953C110.223 48.6328 110.595 48.8516 111.012 48.8516C111.465 48.8516 111.965 48.6224 112.512 48.1641C113.058 47.7057 113.548 47.0885 113.98 46.3125ZM119.719 50V38.6094H117.11V37.3906H121.172V48.7891H123.899V50H119.719ZM128.848 50V38.6094H126.239V37.3906H130.302V48.7891H133.028V50H128.848ZM61.2978 81.1484V82.3672H57.665V86H56.4463V82.3672H52.8134V81.1484H56.4463V77.5156H57.665V81.1484H61.2978ZM79.0253 85.6484C78.343 85.9349 77.8482 86.1042 77.5409 86.1562C77.2336 86.2135 76.9368 86.2422 76.6503 86.2422C76.0409 86.2422 75.4836 86.125 74.9784 85.8906C74.4732 85.6562 74.0904 85.3099 73.83 84.8516C73.5748 84.3932 73.4472 83.6849 73.4472 82.7266V79.2109H71.2675V78H73.4472V74.4844H74.9003V78H78.7831V79.2109H74.9003V82.7031C74.9003 83.4062 74.9836 83.9036 75.1503 84.1953C75.317 84.4818 75.5383 84.6927 75.8144 84.8281C76.0956 84.9635 76.4264 85.0312 76.8066 85.0312C77.5097 85.0312 78.2493 84.8099 79.0253 84.3672V85.6484ZM84.0687 85.6484L80.0375 77.2734H81.6391L84.85 83.8203L87.5375 77.2734H88.9984L85.6156 85.3828C84.9021 87.0964 84.2224 88.2344 83.5766 88.7969C82.9359 89.3594 82.1052 89.6406 81.0844 89.6406C80.6417 89.6406 80.2458 89.6016 79.8969 89.5234V88.2422C80.2979 88.3672 80.6807 88.4297 81.0453 88.4297C81.5141 88.4297 81.9307 88.3385 82.2953 88.1562C82.6599 87.974 82.9932 87.651 83.2953 87.1875C83.5974 86.724 83.8109 86.3229 83.9359 85.9844L84.0687 85.6484ZM91.3309 79.2344C91.7789 78.5052 92.3127 77.9557 92.9325 77.5859C93.5523 77.2161 94.1226 77.0312 94.6434 77.0312C95.3726 77.0312 96.0289 77.3464 96.6122 77.9766C97.1955 78.6068 97.4872 79.5625 97.4872 80.8438C97.4872 81.8542 97.2919 82.7578 96.9012 83.5547C96.5158 84.3464 96.0002 84.974 95.3544 85.4375C94.7085 85.8958 93.9091 86.125 92.9559 86.125C92.6851 86.125 92.2684 86.0964 91.7059 86.0391C91.6226 86.0286 91.4976 86.0156 91.3309 86V89.3906H89.8778V77.2734H91.3309V79.2344ZM91.3309 80.9609V84.7031C91.857 84.8385 92.3414 84.9062 92.7841 84.9062C93.6643 84.9062 94.4039 84.5625 95.0028 83.875C95.607 83.1823 95.9091 82.237 95.9091 81.0391C95.9091 80.1693 95.745 79.5156 95.4169 79.0781C95.0887 78.6406 94.7164 78.4219 94.2997 78.4219C93.8466 78.4219 93.3466 78.651 92.7997 79.1094C92.258 79.5677 91.7684 80.1849 91.3309 80.9609ZM106.374 85.4219C105.213 85.974 104.114 86.25 103.077 86.25C102.291 86.25 101.588 86.0547 100.968 85.6641C100.348 85.2734 99.8509 84.7161 99.4759 83.9922C99.1061 83.263 98.9212 82.4844 98.9212 81.6562C98.9212 80.8594 99.0983 80.0938 99.4525 79.3594C99.8067 78.625 100.301 78.0547 100.937 77.6484C101.572 77.237 102.281 77.0312 103.062 77.0312C104.098 77.0312 104.929 77.401 105.554 78.1406C106.184 78.8802 106.499 80.0208 106.499 81.5625V81.875H100.484C100.484 82.4792 100.609 83.0312 100.859 83.5312C101.114 84.0312 101.447 84.4062 101.859 84.6562C102.27 84.9062 102.739 85.0312 103.265 85.0312C104.202 85.0312 105.239 84.7188 106.374 84.0938V85.4219ZM100.57 80.7891H104.921V80.5781C104.921 79.8646 104.747 79.2969 104.398 78.875C104.049 78.4531 103.583 78.2422 102.999 78.2422C102.411 78.2422 101.9 78.4583 101.468 78.8906C101.041 79.3177 100.742 79.9505 100.57 80.7891ZM108.348 85.5391V84C108.931 84.3802 109.548 84.6484 110.199 84.8047C110.85 84.9557 111.402 85.0312 111.855 85.0312C112.59 85.0312 113.118 84.9141 113.441 84.6797C113.764 84.4401 113.926 84.1432 113.926 83.7891C113.926 83.5547 113.85 83.3542 113.699 83.1875C113.548 83.0208 113.173 82.8151 112.574 82.5703L112.074 82.3672L111.066 81.9688C109.983 81.5469 109.301 81.1562 109.019 80.7969C108.733 80.4427 108.59 80.0104 108.59 79.5C108.59 78.7812 108.866 78.1901 109.418 77.7266C109.975 77.263 110.876 77.0312 112.121 77.0312C113.053 77.0312 113.936 77.1667 114.769 77.4375V78.7578C113.811 78.4141 112.91 78.2422 112.066 78.2422C111.452 78.2422 110.97 78.3516 110.621 78.5703C110.277 78.7839 110.105 79.0521 110.105 79.375C110.105 79.6875 110.256 79.9375 110.558 80.125C110.855 80.3125 111.34 80.5286 112.012 80.7734L112.996 81.1328C113.897 81.4609 114.53 81.8177 114.894 82.2031C115.259 82.5885 115.441 83.0703 115.441 83.6484C115.441 84.4036 115.15 85.026 114.566 85.5156C113.988 86 113.061 86.2422 111.785 86.2422C110.67 86.2422 109.525 86.0078 108.348 85.5391ZM124.719 85.75C123.745 86.0781 122.818 86.2422 121.938 86.2422C121.063 86.2422 120.284 86.0417 119.602 85.6406C118.925 85.2344 118.396 84.6875 118.016 84C117.636 83.3073 117.446 82.5208 117.446 81.6406C117.446 80.3177 117.875 79.2188 118.735 78.3438C119.599 77.4688 120.641 77.0312 121.86 77.0312C122.761 77.0312 123.714 77.2005 124.719 77.5391V78.9375C123.703 78.474 122.795 78.2422 121.993 78.2422C121.461 78.2422 120.961 78.375 120.493 78.6406C120.024 78.901 119.662 79.3099 119.407 79.8672C119.151 80.4245 119.024 80.9974 119.024 81.5859C119.024 82.3724 119.269 83.1224 119.758 83.8359C120.253 84.5495 121.026 84.9062 122.078 84.9062C122.396 84.9062 122.709 84.8854 123.016 84.8438C123.323 84.7969 123.891 84.6328 124.719 84.3516V85.75ZM127.247 86V77.2734H128.7V79.1797C129.153 78.4609 129.671 77.9245 130.255 77.5703C130.843 77.2109 131.497 77.0312 132.216 77.0312C132.742 77.0312 133.268 77.112 133.794 77.2734V80.4219H132.395V78.4297C132.151 78.388 131.958 78.3672 131.817 78.3672C131.276 78.3672 130.744 78.5807 130.223 79.0078C129.703 79.4349 129.195 80.0755 128.7 80.9297V86H127.247ZM138.079 86V78.4844H135.658V77.2734H139.533V84.7891H141.962V86H138.079ZM137.837 74.125C137.837 73.7969 137.949 73.5521 138.173 73.3906C138.397 73.2292 138.608 73.1484 138.806 73.1484C139.009 73.1484 139.223 73.2292 139.447 73.3906C139.671 73.5521 139.783 73.7969 139.783 74.125C139.783 74.4479 139.671 74.6901 139.447 74.8516C139.223 75.013 139.009 75.0938 138.806 75.0938C138.608 75.0938 138.397 75.013 138.173 74.8516C137.949 74.6901 137.837 74.4479 137.837 74.125ZM146.107 79.2344C146.555 78.5052 147.089 77.9557 147.709 77.5859C148.329 77.2161 148.899 77.0312 149.42 77.0312C150.149 77.0312 150.805 77.3464 151.388 77.9766C151.972 78.6068 152.263 79.5625 152.263 80.8438C152.263 81.8542 152.068 82.7578 151.677 83.5547C151.292 84.3464 150.776 84.974 150.131 85.4375C149.485 85.8958 148.685 86.125 147.732 86.125C147.461 86.125 147.045 86.0964 146.482 86.0391C146.399 86.0286 146.274 86.0156 146.107 86V89.3906H144.654V77.2734H146.107V79.2344ZM146.107 80.9609V84.7031C146.633 84.8385 147.118 84.9062 147.56 84.9062C148.441 84.9062 149.18 84.5625 149.779 83.875C150.383 83.1823 150.685 82.237 150.685 81.0391C150.685 80.1693 150.521 79.5156 150.193 79.0781C149.865 78.6406 149.493 78.4219 149.076 78.4219C148.623 78.4219 148.123 78.651 147.576 79.1094C147.034 79.5677 146.545 80.1849 146.107 80.9609ZM161.19 85.6484C160.507 85.9349 160.013 86.1042 159.705 86.1562C159.398 86.2135 159.101 86.2422 158.815 86.2422C158.205 86.2422 157.648 86.125 157.143 85.8906C156.638 85.6562 156.255 85.3099 155.994 84.8516C155.739 84.3932 155.612 83.6849 155.612 82.7266V79.2109H153.432V78H155.612V74.4844H157.065V78H160.948V79.2109H157.065V82.7031C157.065 83.4062 157.148 83.9036 157.315 84.1953C157.481 84.4818 157.703 84.6927 157.979 84.8281C158.26 84.9635 158.591 85.0312 158.971 85.0312C159.674 85.0312 160.414 84.8099 161.19 84.3672V85.6484Z" fill="#63B0EA"/>
<path d="M16.7969 55.8164V53.9766C16.2734 53.9766 15.7305 53.9492 15.168 53.8945C14.6055 53.8398 14.0781 53.7578 13.5859 53.6484C13.0938 53.5312 12.5273 53.3281 11.8867 53.0391V50.7891C12.4023 51.0547 12.9062 51.2812 13.3984 51.4688C13.8984 51.6562 14.4219 51.8047 14.9688 51.9141C15.5234 52.0234 16.1328 52.1016 16.7969 52.1484V45.6211L15.543 44.9414C13.168 43.668 11.9805 42.1289 11.9805 40.3242C11.9805 39.3633 12.375 38.4297 13.1641 37.5234C13.9531 36.6094 15.1641 36.082 16.7969 35.9414V33.9961H18.4375V35.9414C19.3594 35.9414 20.4492 36.1016 21.707 36.4219V38.4492L21.2969 38.332C20.1172 38.0039 19.1641 37.8047 18.4375 37.7344V44.1094L19.75 44.8594C20.9844 45.5703 21.8281 46.2695 22.2812 46.957C22.7422 47.6445 22.9727 48.375 22.9727 49.1484C22.9727 49.8438 22.7969 50.5195 22.4453 51.1758C22.1016 51.8242 21.6055 52.3828 20.957 52.8516C20.3086 53.3203 19.4688 53.6445 18.4375 53.8242V55.8164H16.7969ZM16.7969 43.125V37.7109C16.0078 37.8906 15.3984 38.1875 14.9688 38.6016C14.5469 39.0156 14.3359 39.5 14.3359 40.0547C14.3359 40.5781 14.5156 41.082 14.875 41.5664C15.2422 42.043 15.8828 42.5625 16.7969 43.125ZM18.4375 46.5938V51.9844C19.2891 51.6797 19.8633 51.3086 20.1602 50.8711C20.4648 50.4258 20.6172 49.9297 20.6172 49.3828C20.6172 48.8516 20.4688 48.3984 20.1719 48.0234C19.875 47.6406 19.2969 47.1641 18.4375 46.5938Z" fill="#63B0EA"/>
</svg>
