<svg width="226" height="282" viewBox="0 0 226 282" fill="none" xmlns="http://www.w3.org/2000/svg">
<path d="M1.7616 28.4209H224.938V280.541H1.7616V28.4209Z" fill="white" fill-opacity="0.24"/>
<path d="M224.938 281.303V9C224.938 4.58172 221.356 1 216.938 1H9C4.58172 1 0.999992 4.58172 0.999992 9V280.541" stroke="black" stroke-opacity="0.13"/>
<path opacity="0.6" d="M1.85974 10.0645C1.85974 5.64618 5.44146 2.06445 9.85974 2.06445H215.86C220.278 2.06445 223.86 5.64618 223.86 10.0645V27.0645H1.85974V10.0645Z" fill="#FCFCFC" fill-opacity="0.3"/>
<line x1="1.00012" y1="27.9209" x2="224.938" y2="27.9209" stroke="#E2E2E2"/>
<path d="M36.4144 84.75C35.4405 85.0781 34.5134 85.2422 33.6332 85.2422C32.7582 85.2422 31.9795 85.0417 31.2972 84.6406C30.6202 84.2344 30.0915 83.6875 29.7113 83C29.3311 82.3073 29.141 81.5208 29.141 80.6406C29.141 79.3177 29.5707 78.2188 30.4301 77.3438C31.2946 76.4688 32.3363 76.0312 33.5551 76.0312C34.4561 76.0312 35.4092 76.2005 36.4144 76.5391V77.9375C35.3988 77.474 34.4899 77.2422 33.6879 77.2422C33.1566 77.2422 32.6566 77.375 32.1879 77.6406C31.7191 77.901 31.3571 78.3099 31.1019 78.8672C30.8467 79.4245 30.7191 79.9974 30.7191 80.5859C30.7191 81.3724 30.9639 82.1224 31.4535 82.8359C31.9483 83.5495 32.7217 83.9062 33.7738 83.9062C34.0915 83.9062 34.404 83.8854 34.7113 83.8438C35.0186 83.7969 35.5863 83.6328 36.4144 83.3516V84.75ZM41.7938 85.2422C40.5438 85.2422 39.5438 84.8073 38.7938 83.9375C38.0438 83.0625 37.6688 81.9609 37.6688 80.6328C37.6688 79.3047 38.0438 78.2057 38.7938 77.3359C39.5438 76.4661 40.5438 76.0312 41.7938 76.0312C43.0386 76.0312 44.036 76.4661 44.786 77.3359C45.536 78.2057 45.911 79.3047 45.911 80.6328C45.911 81.9609 45.536 83.0625 44.786 83.9375C44.036 84.8073 43.0386 85.2422 41.7938 85.2422ZM41.7938 84.0312C42.5698 84.0312 43.187 83.7292 43.6454 83.125C44.1037 82.5208 44.3329 81.6901 44.3329 80.6328C44.3329 79.5807 44.1037 78.7526 43.6454 78.1484C43.187 77.5443 42.5698 77.2422 41.7938 77.2422C41.0126 77.2422 40.3928 77.5443 39.9344 78.1484C39.4761 78.7526 39.2469 79.5807 39.2469 80.6328C39.2469 81.6901 39.4761 82.5208 39.9344 83.125C40.3928 83.7292 41.0126 84.0312 41.7938 84.0312ZM47.3294 85V76.2734H48.7826V78.1797C49.1992 77.5078 49.7018 76.9818 50.2904 76.6016C50.8789 76.2214 51.4675 76.0312 52.056 76.0312C52.5716 76.0312 53.0404 76.1693 53.4622 76.4453C53.8841 76.7161 54.1784 77.0729 54.3451 77.5156C54.5169 77.9583 54.6029 78.8281 54.6029 80.125V85H53.1497V79.9453C53.1497 79.1068 53.1081 78.5547 53.0247 78.2891C52.9466 78.0182 52.7982 77.7969 52.5794 77.625C52.3659 77.4531 52.1315 77.3672 51.8763 77.3672C51.3659 77.3672 50.8164 77.6094 50.2279 78.0938C49.6445 78.5781 49.1628 79.1849 48.7826 79.9141V85H47.3294ZM56.5604 84.5391V83C57.1437 83.3802 57.7609 83.6484 58.4119 83.8047C59.063 83.9557 59.6151 84.0312 60.0682 84.0312C60.8026 84.0312 61.3312 83.9141 61.6541 83.6797C61.977 83.4401 62.1385 83.1432 62.1385 82.7891C62.1385 82.5547 62.063 82.3542 61.9119 82.1875C61.7609 82.0208 61.3859 81.8151 60.7869 81.5703L60.2869 81.3672L59.2791 80.9688C58.1958 80.5469 57.5135 80.1562 57.2322 79.7969C56.9458 79.4427 56.8026 79.0104 56.8026 78.5C56.8026 77.7812 57.0786 77.1901 57.6307 76.7266C58.188 76.263 59.089 76.0312 60.3338 76.0312C61.2661 76.0312 62.1489 76.1667 62.9822 76.4375V77.7578C62.0239 77.4141 61.1229 77.2422 60.2791 77.2422C59.6645 77.2422 59.1828 77.3516 58.8338 77.5703C58.4901 77.7839 58.3182 78.0521 58.3182 78.375C58.3182 78.6875 58.4692 78.9375 58.7713 79.125C59.0682 79.3125 59.5526 79.5286 60.2244 79.7734L61.2088 80.1328C62.1098 80.4609 62.7427 80.8177 63.1072 81.2031C63.4718 81.5885 63.6541 82.0703 63.6541 82.6484C63.6541 83.4036 63.3624 84.026 62.7791 84.5156C62.201 85 61.2739 85.2422 59.9979 85.2422C58.8833 85.2422 57.7374 85.0078 56.5604 84.5391ZM72.8851 84.6484C72.2028 84.9349 71.708 85.1042 71.4007 85.1562C71.0934 85.2135 70.7965 85.2422 70.5101 85.2422C69.9007 85.2422 69.3434 85.125 68.8382 84.8906C68.333 84.6562 67.9502 84.3099 67.6897 83.8516C67.4345 83.3932 67.3069 82.6849 67.3069 81.7266V78.2109H65.1272V77H67.3069V73.4844H68.7601V77H72.6429V78.2109H68.7601V81.7031C68.7601 82.4062 68.8434 82.9036 69.0101 83.1953C69.1767 83.4818 69.3981 83.6927 69.6741 83.8281C69.9554 83.9635 70.2861 84.0312 70.6663 84.0312C71.3694 84.0312 72.109 83.8099 72.8851 83.3672V84.6484ZM83.8469 85V72.3906H85.3001V78.1797C85.7167 77.5078 86.2193 76.9818 86.8079 76.6016C87.3964 76.2214 87.9849 76.0312 88.5735 76.0312C89.0683 76.0312 89.5188 76.1589 89.9251 76.4141C90.3365 76.6641 90.623 76.9688 90.7844 77.3281C90.9146 77.6042 91.0032 77.8984 91.0501 78.2109C91.0969 78.5182 91.1204 79.1562 91.1204 80.125V85H89.6672V79.9453C89.6672 79.1068 89.6256 78.5547 89.5422 78.2891C89.4641 78.0182 89.3157 77.7969 89.0969 77.625C88.8834 77.4531 88.649 77.3672 88.3938 77.3672C87.8834 77.3672 87.3339 77.6094 86.7454 78.0938C86.162 78.5781 85.6803 79.1849 85.3001 79.9141V85H83.8469ZM100.234 84.4219C99.0727 84.974 97.9737 85.25 96.9372 85.25C96.1508 85.25 95.4477 85.0547 94.8279 84.6641C94.2081 84.2734 93.7107 83.7161 93.3357 82.9922C92.9659 82.263 92.781 81.4844 92.781 80.6562C92.781 79.8594 92.9581 79.0938 93.3122 78.3594C93.6664 77.625 94.1612 77.0547 94.7966 76.6484C95.432 76.237 96.1404 76.0312 96.9216 76.0312C97.9581 76.0312 98.7888 76.401 99.4138 77.1406C100.044 77.8802 100.359 79.0208 100.359 80.5625V80.875H94.3435C94.3435 81.4792 94.4685 82.0312 94.7185 82.5312C94.9737 83.0312 95.307 83.4062 95.7185 83.6562C96.1299 83.9062 96.5987 84.0312 97.1247 84.0312C98.0622 84.0312 99.0987 83.7188 100.234 83.0938V84.4219ZM94.4294 79.7891H98.781V79.5781C98.781 78.8646 98.6065 78.2969 98.2576 77.875C97.9086 77.4531 97.4424 77.2422 96.8591 77.2422C96.2706 77.2422 95.7602 77.4583 95.3279 77.8906C94.9008 78.3177 94.6013 78.9505 94.4294 79.7891ZM104.449 85V73.6094H101.84V72.3906H105.903V83.7891H108.629V85H104.449ZM113.579 85V73.6094H110.969V72.3906H115.032V83.7891H117.758V85H113.579ZM123.958 85.2422C122.708 85.2422 121.708 84.8073 120.958 83.9375C120.208 83.0625 119.833 81.9609 119.833 80.6328C119.833 79.3047 120.208 78.2057 120.958 77.3359C121.708 76.4661 122.708 76.0312 123.958 76.0312C125.203 76.0312 126.2 76.4661 126.95 77.3359C127.7 78.2057 128.075 79.3047 128.075 80.6328C128.075 81.9609 127.7 83.0625 126.95 83.9375C126.2 84.8073 125.203 85.2422 123.958 85.2422ZM123.958 84.0312C124.734 84.0312 125.351 83.7292 125.81 83.125C126.268 82.5208 126.497 81.6901 126.497 80.6328C126.497 79.5807 126.268 78.7526 125.81 78.1484C125.351 77.5443 124.734 77.2422 123.958 77.2422C123.177 77.2422 122.557 77.5443 122.099 78.1484C121.64 78.7526 121.411 79.5807 121.411 80.6328C121.411 81.6901 121.64 82.5208 122.099 83.125C122.557 83.7292 123.177 84.0312 123.958 84.0312ZM146.451 78.8203V80.0312H137.967V78.8203H146.451ZM146.451 81.5469V82.7578H137.967V81.5469H146.451ZM159.304 76.7578H158.304L157.804 72.3906H159.749L159.304 76.7578ZM162.671 76.7578H161.679L161.233 72.3906H163.14L162.671 76.7578ZM166.011 85V72.3906H167.464V78.1797C167.881 77.5078 168.384 76.9818 168.972 76.6016C169.561 76.2214 170.149 76.0312 170.738 76.0312C171.233 76.0312 171.683 76.1589 172.089 76.4141C172.501 76.6641 172.787 76.9688 172.949 77.3281C173.079 77.6042 173.168 77.8984 173.214 78.2109C173.261 78.5182 173.285 79.1562 173.285 80.125V85H171.832V79.9453C171.832 79.1068 171.79 78.5547 171.707 78.2891C171.628 78.0182 171.48 77.7969 171.261 77.625C171.048 77.4531 170.813 77.3672 170.558 77.3672C170.048 77.3672 169.498 77.6094 168.91 78.0938C168.326 78.5781 167.845 79.1849 167.464 79.9141V85H166.011ZM177.586 85V77.4844H175.164V76.2734H179.039V83.7891H181.469V85H177.586ZM177.344 73.125C177.344 72.7969 177.456 72.5521 177.68 72.3906C177.904 72.2292 178.115 72.1484 178.313 72.1484C178.516 72.1484 178.729 72.2292 178.953 72.3906C179.177 72.5521 179.289 72.7969 179.289 73.125C179.289 73.4479 179.177 73.6901 178.953 73.8516C178.729 74.013 178.516 74.0938 178.313 74.0938C178.115 74.0938 177.904 74.013 177.68 73.8516C177.456 73.6901 177.344 73.4479 177.344 73.125ZM186.692 76.7578H185.692L185.192 72.3906H187.137L186.692 76.7578ZM190.059 76.7578H189.067L188.622 72.3906H190.528L190.059 76.7578ZM29.0707 109V96.3906H30.5238V102.18C30.9405 101.508 31.4431 100.982 32.0316 100.602C32.6202 100.221 33.2087 100.031 33.7972 100.031C34.292 100.031 34.7426 100.159 35.1488 100.414C35.5603 100.664 35.8467 100.969 36.0082 101.328C36.1384 101.604 36.2269 101.898 36.2738 102.211C36.3207 102.518 36.3441 103.156 36.3441 104.125V109H34.891V103.945C34.891 103.107 34.8493 102.555 34.766 102.289C34.6879 102.018 34.5394 101.797 34.3207 101.625C34.1071 101.453 33.8728 101.367 33.6176 101.367C33.1071 101.367 32.5577 101.609 31.9691 102.094C31.3858 102.578 30.904 103.185 30.5238 103.914V109H29.0707ZM45.4579 108.422C44.2964 108.974 43.1975 109.25 42.161 109.25C41.3745 109.25 40.6714 109.055 40.0516 108.664C39.4318 108.273 38.9344 107.716 38.5594 106.992C38.1896 106.263 38.0047 105.484 38.0047 104.656C38.0047 103.859 38.1818 103.094 38.536 102.359C38.8902 101.625 39.385 101.055 40.0204 100.648C40.6558 100.237 41.3641 100.031 42.1454 100.031C43.1818 100.031 44.0126 100.401 44.6376 101.141C45.2678 101.88 45.5829 103.021 45.5829 104.562V104.875H39.5672C39.5672 105.479 39.6922 106.031 39.9422 106.531C40.1975 107.031 40.5308 107.406 40.9422 107.656C41.3537 107.906 41.8225 108.031 42.3485 108.031C43.286 108.031 44.3225 107.719 45.4579 107.094V108.422ZM39.6532 103.789H44.0047V103.578C44.0047 102.865 43.8303 102.297 43.4813 101.875C43.1323 101.453 42.6662 101.242 42.0829 101.242C41.4943 101.242 40.9839 101.458 40.5516 101.891C40.1245 102.318 39.8251 102.951 39.6532 103.789ZM49.6732 109V97.6094H47.0638V96.3906H51.1263V107.789H53.8529V109H49.6732ZM58.8026 109V97.6094H56.1932V96.3906H60.2557V107.789H62.9822V109H58.8026ZM69.1819 109.242C67.9319 109.242 66.9319 108.807 66.1819 107.938C65.4319 107.062 65.0569 105.961 65.0569 104.633C65.0569 103.305 65.4319 102.206 66.1819 101.336C66.9319 100.466 67.9319 100.031 69.1819 100.031C70.4267 100.031 71.4241 100.466 72.1741 101.336C72.9241 102.206 73.2991 103.305 73.2991 104.633C73.2991 105.961 72.9241 107.062 72.1741 107.938C71.4241 108.807 70.4267 109.242 69.1819 109.242ZM69.1819 108.031C69.958 108.031 70.5752 107.729 71.0335 107.125C71.4918 106.521 71.721 105.69 71.721 104.633C71.721 103.581 71.4918 102.753 71.0335 102.148C70.5752 101.544 69.958 101.242 69.1819 101.242C68.4007 101.242 67.7809 101.544 67.3226 102.148C66.8642 102.753 66.6351 103.581 66.6351 104.633C66.6351 105.69 66.8642 106.521 67.3226 107.125C67.7809 107.729 68.4007 108.031 69.1819 108.031ZM91.6751 102.82V104.031H83.1907V102.82H91.6751ZM91.6751 105.547V106.758H83.1907V105.547H91.6751ZM105.332 107.789V98.4297C104.895 98.7786 104.47 99.0755 104.059 99.3203C103.647 99.5651 103.082 99.8151 102.363 100.07V98.7578C103.504 98.2734 104.494 97.6458 105.332 96.875H106.785V107.789H109.699V109H102.363V107.789H105.332ZM118.524 109H111.188V107.664C111.188 107.32 111.258 106.953 111.399 106.562C111.54 106.167 111.808 105.724 112.204 105.234C112.6 104.745 113.019 104.273 113.462 103.82L114.29 102.977C114.456 102.805 114.821 102.406 115.383 101.781C115.946 101.156 116.316 100.677 116.493 100.344C116.675 100.01 116.766 99.6823 116.766 99.3594C116.766 98.8385 116.558 98.4375 116.141 98.1562C115.725 97.8698 115.256 97.7266 114.735 97.7266C114.438 97.7266 114.105 97.7604 113.735 97.8281C113.37 97.8958 113.05 97.9766 112.774 98.0703C112.498 98.1589 112.05 98.3438 111.43 98.625V97.3359C112.087 97.0234 112.743 96.8099 113.399 96.6953C114.061 96.5755 114.605 96.5156 115.032 96.5156C115.662 96.5156 116.24 96.6198 116.766 96.8281C117.298 97.0312 117.691 97.349 117.946 97.7812C118.206 98.2135 118.337 98.6745 118.337 99.1641C118.337 99.7109 118.17 100.271 117.837 100.844C117.508 101.417 116.886 102.154 115.969 103.055L115.079 103.938L114.329 104.672C113.855 105.151 113.472 105.615 113.18 106.062C112.889 106.51 112.727 107.044 112.696 107.664H118.524V109ZM120.286 108.781V107.25C121.479 107.854 122.513 108.156 123.388 108.156C124.19 108.156 124.851 107.914 125.372 107.43C125.898 106.94 126.161 106.312 126.161 105.547C126.161 104.776 125.872 104.148 125.294 103.664C124.721 103.18 123.745 102.938 122.364 102.938H121.56V101.727H122.677C123.693 101.727 124.427 101.5 124.88 101.047C125.333 100.589 125.56 100.081 125.56 99.5234C125.56 99.0182 125.375 98.5938 125.005 98.25C124.635 97.901 124.068 97.7266 123.302 97.7266C122.443 97.7266 121.518 97.9688 120.528 98.4531V97.0703C121.518 96.7005 122.424 96.5156 123.247 96.5156C124.721 96.5156 125.737 96.8073 126.294 97.3906C126.857 97.9688 127.138 98.6302 127.138 99.375C127.138 99.9271 126.989 100.445 126.693 100.93C126.396 101.414 125.849 101.846 125.052 102.227C125.755 102.435 126.286 102.69 126.646 102.992C127.005 103.294 127.276 103.651 127.458 104.062C127.646 104.474 127.739 104.935 127.739 105.445C127.739 106.581 127.318 107.518 126.474 108.258C125.635 108.997 124.549 109.367 123.216 109.367C122.831 109.367 122.409 109.339 121.95 109.281C121.497 109.224 120.943 109.057 120.286 108.781Z" fill="#C4C4C4"/>
<path d="M12.0352 45L9.19336 38.4551H10.3887L12.6328 43.6348L14.9238 38.4551H16.0137L13.1484 45H12.0352ZM19.1752 44.0918V37.0723C18.847 37.334 18.5287 37.5566 18.2201 37.7402C17.9115 37.9238 17.4877 38.1113 16.9486 38.3027V37.3184C17.8041 36.9551 18.5462 36.4844 19.1752 35.9062H20.265V44.0918H22.4505V45H16.9486V44.0918H19.1752ZM26.2917 45.2754C26.03 45.2754 25.8054 45.1816 25.6179 44.9941C25.4304 44.8066 25.3366 44.582 25.3366 44.3203C25.3366 44.0547 25.4304 43.8301 25.6179 43.6465C25.8093 43.459 26.0339 43.3652 26.2917 43.3652C26.5495 43.3652 26.7722 43.459 26.9597 43.6465C27.1511 43.8301 27.2468 44.0547 27.2468 44.3203C27.2468 44.582 27.153 44.8066 26.9655 44.9941C26.778 45.1816 26.5534 45.2754 26.2917 45.2754ZM35.9161 45H30.4141V43.998C30.4141 43.7402 30.4669 43.4648 30.5723 43.1719C30.6778 42.875 30.879 42.543 31.1759 42.1758C31.4727 41.8086 31.7872 41.4551 32.1192 41.1152L32.7403 40.4824C32.8653 40.3535 33.1388 40.0547 33.5606 39.5859C33.9825 39.1172 34.2598 38.7578 34.3927 38.5078C34.5294 38.2578 34.5977 38.0117 34.5977 37.7695C34.5977 37.3789 34.4415 37.0781 34.129 36.8672C33.8165 36.6523 33.4649 36.5449 33.0743 36.5449C32.8516 36.5449 32.6016 36.5703 32.3243 36.6211C32.0509 36.6719 31.8106 36.7324 31.6036 36.8027C31.3966 36.8691 31.0606 37.0078 30.5958 37.2188V36.252C31.088 36.0176 31.5802 35.8574 32.0723 35.7715C32.5684 35.6816 32.9766 35.6367 33.297 35.6367C33.7696 35.6367 34.2032 35.7148 34.5977 35.8711C34.9962 36.0234 35.2911 36.2617 35.4825 36.5859C35.6778 36.9102 35.7755 37.2559 35.7755 37.623C35.7755 38.0332 35.6505 38.4531 35.4005 38.8828C35.1544 39.3125 34.6876 39.8652 34.0001 40.541L33.3321 41.2031L32.7696 41.7539C32.4141 42.1133 32.127 42.4609 31.9083 42.7969C31.6895 43.1328 31.5684 43.5332 31.545 43.998H35.9161V45ZM39.9858 45.2754C39.7241 45.2754 39.4995 45.1816 39.312 44.9941C39.1245 44.8066 39.0307 44.582 39.0307 44.3203C39.0307 44.0547 39.1245 43.8301 39.312 43.6465C39.5034 43.459 39.728 43.3652 39.9858 43.3652C40.2436 43.3652 40.4662 43.459 40.6537 43.6465C40.8452 43.8301 40.9409 44.0547 40.9409 44.3203C40.9409 44.582 40.8471 44.8066 40.6596 44.9941C40.4721 45.1816 40.2475 45.2754 39.9858 45.2754ZM44.0848 44.8359V43.6875C44.9793 44.1406 45.7547 44.3672 46.4109 44.3672C47.0125 44.3672 47.5086 44.1855 47.8992 43.8223C48.2938 43.4551 48.491 42.9844 48.491 42.4102C48.491 41.832 48.2742 41.3613 47.8406 40.998C47.4109 40.6348 46.6785 40.4531 45.6434 40.4531H45.0398V39.5449H45.8777C46.6395 39.5449 47.1902 39.375 47.5301 39.0352C47.8699 38.6914 48.0398 38.3105 48.0398 37.8926C48.0398 37.5137 47.9012 37.1953 47.6238 36.9375C47.3465 36.6758 46.9207 36.5449 46.3465 36.5449C45.702 36.5449 45.0086 36.7266 44.2664 37.0898V36.0527C45.0086 35.7754 45.6883 35.6367 46.3055 35.6367C47.4109 35.6367 48.1727 35.8555 48.5906 36.293C49.0125 36.7266 49.2234 37.2227 49.2234 37.7812C49.2234 38.1953 49.1121 38.584 48.8895 38.9473C48.6668 39.3105 48.2566 39.6348 47.659 39.9199C48.1863 40.0762 48.5848 40.2676 48.8543 40.4941C49.1238 40.7207 49.327 40.9883 49.4637 41.2969C49.6043 41.6055 49.6746 41.9512 49.6746 42.334C49.6746 43.1855 49.3582 43.8887 48.7254 44.4434C48.0965 44.998 47.282 45.2754 46.282 45.2754C45.993 45.2754 45.6766 45.2539 45.3328 45.2109C44.993 45.168 44.577 45.043 44.0848 44.8359Z" fill="#E8E8E8"/>
<path d="M29.8597 116.969L30.9793 115.859C31.4271 115.414 32.1694 115.491 32.5175 116.017L32.9958 116.74C33.3912 117.337 34.2683 117.337 34.6637 116.74L34.9808 116.26C35.3762 115.663 36.2534 115.663 36.6488 116.26L36.9658 116.74C37.3612 117.337 38.2384 117.337 38.6338 116.74L38.9509 116.26C39.3463 115.663 40.2234 115.663 40.6188 116.26L40.9359 116.74C41.3313 117.337 42.2084 117.337 42.6038 116.74L42.9209 116.26C43.3163 115.663 44.1934 115.663 44.5888 116.26L44.9059 116.74C45.3013 117.337 46.1784 117.337 46.5738 116.74L46.8909 116.26C47.2863 115.663 48.1635 115.663 48.5589 116.26L48.8759 116.74C49.2713 117.337 50.1485 117.337 50.5439 116.74L50.861 116.26C51.2564 115.663 52.1335 115.663 52.5289 116.26L52.846 116.74C53.2414 117.337 54.1185 117.337 54.5139 116.74L54.831 116.26C55.2264 115.663 56.1035 115.663 56.4989 116.26L56.816 116.74C57.2114 117.337 58.0885 117.337 58.4839 116.74L58.801 116.26C59.1964 115.663 60.0736 115.663 60.469 116.26L60.786 116.74C61.1815 117.337 62.0586 117.337 62.454 116.74L62.7711 116.26C63.1665 115.663 64.0436 115.663 64.439 116.26L64.7561 116.74C65.1515 117.337 66.0286 117.337 66.424 116.74L66.7411 116.26C67.1365 115.663 68.0136 115.663 68.409 116.26L68.7261 116.74C69.1215 117.337 69.9986 117.337 70.3941 116.74L70.7148 116.255C71.1093 115.659 71.9836 115.657 72.3805 116.251L72.8597 116.969" stroke="#C4C4C4"/>
<line x1="1" y1="53.5" x2="225" y2="53.5" stroke="#E2E2E2"/>
<line x1="68.5" y1="28" x2="68.5" y2="54" stroke="#E2E2E2"/>
<path d="M58 43L55 40H61L58 43Z" fill="#E8E8E8"/>
<rect x="76" y="38" width="28" height="6" fill="#E8E8E8"/>
<rect x="111" y="38" width="16" height="6" fill="#E8E8E8"/>
<rect x="135" y="38" width="40" height="6" fill="#E8E8E8"/>
<line x1="17.5" y1="54" x2="17.5" y2="277" stroke="#E8E8E8"/>
</svg>
