<svg width="194" height="282" viewBox="0 0 194 282" fill="none" xmlns="http://www.w3.org/2000/svg">
<path d="M0 1H188V281" stroke="black" stroke-opacity="0.13"/>
<path d="M0 1H188V282H0V1Z" fill="white" fill-opacity="0.24"/>
<path d="M189 5H191V281" stroke="#DEDEDE"/>
<path d="M191 10H193V281" stroke="#DEDEDE"/>
<path d="M21.75 22.7969L18.5859 34H17.0469L14.7422 25.8125C14.6432 25.4635 14.5833 25.0833 14.5625 24.6719H14.5312C14.5 25.0573 14.4323 25.4323 14.3281 25.7969L12.0078 34H10.4844L7.20312 22.7969H8.64844L11.0312 31.3906C11.1302 31.75 11.1927 32.125 11.2188 32.5156H11.2578C11.2839 32.2396 11.3646 31.8646 11.5 31.3906L13.9766 22.7969H15.2344L17.6094 31.4531C17.6927 31.75 17.7552 32.099 17.7969 32.5H17.8281C17.849 32.2292 17.9193 31.8698 18.0391 31.4219L20.3281 22.7969H21.75ZM28.5747 30.3203H22.9263C22.9471 31.2109 23.1867 31.8984 23.645 32.3828C24.1033 32.8672 24.7335 33.1094 25.5356 33.1094C26.4367 33.1094 27.2648 32.8125 28.02 32.2188V33.4219C27.3169 33.9323 26.3872 34.1875 25.2309 34.1875C24.1007 34.1875 23.2127 33.8255 22.5669 33.1016C21.921 32.3724 21.5981 31.349 21.5981 30.0312C21.5981 28.7865 21.9497 27.7734 22.6528 26.9922C23.3611 26.2057 24.2388 25.8125 25.2856 25.8125C26.3325 25.8125 27.1424 26.151 27.7153 26.8281C28.2882 27.5052 28.5747 28.4453 28.5747 29.6484V30.3203ZM27.2622 29.2344C27.257 28.4948 27.0773 27.9193 26.7231 27.5078C26.3742 27.0964 25.8872 26.8906 25.2622 26.8906C24.658 26.8906 24.145 27.1068 23.7231 27.5391C23.3013 27.9714 23.0408 28.5365 22.9419 29.2344H27.2622ZM31.3213 34H30.04V22.1562H31.3213V34ZM38.8881 33.6328C38.2735 34.0026 37.5444 34.1875 36.7006 34.1875C35.56 34.1875 34.6381 33.8177 33.935 33.0781C33.2371 32.3333 32.8881 31.3698 32.8881 30.1875C32.8881 28.8698 33.2657 27.8125 34.0209 27.0156C34.7761 26.2135 35.784 25.8125 37.0444 25.8125C37.7475 25.8125 38.3673 25.9427 38.9037 26.2031V27.5156C38.31 27.099 37.6746 26.8906 36.9975 26.8906C36.1798 26.8906 35.5079 27.1849 34.9819 27.7734C34.461 28.3568 34.2006 29.125 34.2006 30.0781C34.2006 31.0156 34.4454 31.7552 34.935 32.2969C35.4298 32.8385 36.0912 33.1094 36.9194 33.1094C37.6173 33.1094 38.2735 32.8776 38.8881 32.4141V33.6328ZM43.6894 34.1875C42.5071 34.1875 41.5618 33.8151 40.8534 33.0703C40.1503 32.3203 39.7988 31.3281 39.7988 30.0938C39.7988 28.75 40.1659 27.7005 40.9003 26.9453C41.6347 26.1901 42.6269 25.8125 43.8769 25.8125C45.0696 25.8125 45.9993 26.1797 46.6659 26.9141C47.3378 27.6484 47.6738 28.6667 47.6738 29.9688C47.6738 31.2448 47.3118 32.2682 46.5878 33.0391C45.8691 33.8047 44.9029 34.1875 43.6894 34.1875ZM43.7831 26.8906C42.9602 26.8906 42.3092 27.1719 41.83 27.7344C41.3508 28.2917 41.1113 29.0625 41.1113 30.0469C41.1113 30.9948 41.3534 31.7422 41.8378 32.2891C42.3222 32.8359 42.9706 33.1094 43.7831 33.1094C44.6113 33.1094 45.2467 32.8411 45.6894 32.3047C46.1373 31.7682 46.3613 31.0052 46.3613 30.0156C46.3613 29.0156 46.1373 28.2448 45.6894 27.7031C45.2467 27.1615 44.6113 26.8906 43.7831 26.8906ZM60.6 34H59.3187V29.4062C59.3187 28.5208 59.1807 27.8802 58.9047 27.4844C58.6339 27.0885 58.1755 26.8906 57.5297 26.8906C56.9828 26.8906 56.5167 27.1406 56.1312 27.6406C55.751 28.1406 55.5609 28.7396 55.5609 29.4375V34H54.2797V29.25C54.2797 27.6771 53.6729 26.8906 52.4594 26.8906C51.8969 26.8906 51.4333 27.1276 51.0687 27.6016C50.7042 28.0703 50.5219 28.6823 50.5219 29.4375V34H49.2406V26H50.5219V27.2656H50.5531C51.1208 26.2969 51.949 25.8125 53.0375 25.8125C53.5844 25.8125 54.0609 25.9661 54.4672 26.2734C54.8734 26.5755 55.1521 26.974 55.3031 27.4688C55.8969 26.3646 56.7823 25.8125 57.9594 25.8125C59.7198 25.8125 60.6 26.8984 60.6 29.0703V34ZM68.9716 30.3203H63.3231C63.344 31.2109 63.5835 31.8984 64.0419 32.3828C64.5002 32.8672 65.1304 33.1094 65.9325 33.1094C66.8335 33.1094 67.6617 32.8125 68.4169 32.2188V33.4219C67.7137 33.9323 66.7841 34.1875 65.6278 34.1875C64.4976 34.1875 63.6096 33.8255 62.9637 33.1016C62.3179 32.3724 61.995 31.349 61.995 30.0312C61.995 28.7865 62.3466 27.7734 63.0497 26.9922C63.758 26.2057 64.6356 25.8125 65.6825 25.8125C66.7294 25.8125 67.5393 26.151 68.1122 26.8281C68.6851 27.5052 68.9716 28.4453 68.9716 29.6484V30.3203ZM67.6591 29.2344C67.6539 28.4948 67.4742 27.9193 67.12 27.5078C66.771 27.0964 66.2841 26.8906 65.6591 26.8906C65.0549 26.8906 64.5419 27.1068 64.12 27.5391C63.6981 27.9714 63.4377 28.5365 63.3387 29.2344H67.6591ZM78.0584 33.9219C77.7564 34.0885 77.3579 34.1719 76.8631 34.1719C75.4621 34.1719 74.7616 33.3906 74.7616 31.8281V27.0938H73.3866V26H74.7616V24.0469L76.0428 23.6328V26H78.0584V27.0938H76.0428V31.6016C76.0428 32.138 76.134 32.5208 76.3163 32.75C76.4985 32.9792 76.8006 33.0938 77.2225 33.0938C77.5454 33.0938 77.8241 33.0052 78.0584 32.8281V33.9219ZM82.6331 34.1875C81.4508 34.1875 80.5055 33.8151 79.7972 33.0703C79.0941 32.3203 78.7425 31.3281 78.7425 30.0938C78.7425 28.75 79.1097 27.7005 79.8441 26.9453C80.5784 26.1901 81.5706 25.8125 82.8206 25.8125C84.0133 25.8125 84.943 26.1797 85.6097 26.9141C86.2816 27.6484 86.6175 28.6667 86.6175 29.9688C86.6175 31.2448 86.2555 32.2682 85.5316 33.0391C84.8128 33.8047 83.8467 34.1875 82.6331 34.1875ZM82.7269 26.8906C81.904 26.8906 81.2529 27.1719 80.7738 27.7344C80.2946 28.2917 80.055 29.0625 80.055 30.0469C80.055 30.9948 80.2972 31.7422 80.7816 32.2891C81.2659 32.8359 81.9144 33.1094 82.7269 33.1094C83.555 33.1094 84.1904 32.8411 84.6331 32.3047C85.081 31.7682 85.305 31.0052 85.305 30.0156C85.305 29.0156 85.081 28.2448 84.6331 27.7031C84.1904 27.1615 83.555 26.8906 82.7269 26.8906ZM98.8919 23.9844H95.6575V34H94.345V23.9844H91.1184V22.7969H98.8919V23.9844ZM105.482 26L101.802 35.2812C101.146 36.9375 100.224 37.7656 99.0369 37.7656C98.7035 37.7656 98.4249 37.7318 98.2009 37.6641V36.5156C98.477 36.6094 98.7296 36.6562 98.9587 36.6562C99.6046 36.6562 100.089 36.2708 100.412 35.5L101.052 33.9844L97.9275 26H99.3494L101.513 32.1562C101.539 32.2344 101.594 32.4375 101.677 32.7656H101.724C101.75 32.6406 101.802 32.4427 101.881 32.1719L104.154 26H105.482ZM107.698 32.8438H107.666V37.6797H106.385V26H107.666V27.4062H107.698C108.328 26.3438 109.25 25.8125 110.463 25.8125C111.494 25.8125 112.299 26.1719 112.877 26.8906C113.455 27.6042 113.744 28.5625 113.744 29.7656C113.744 31.1042 113.419 32.1771 112.768 32.9844C112.117 33.7865 111.226 34.1875 110.096 34.1875C109.059 34.1875 108.26 33.7396 107.698 32.8438ZM107.666 29.6172V30.7344C107.666 31.3958 107.88 31.9583 108.307 32.4219C108.739 32.8802 109.286 33.1094 109.948 33.1094C110.724 33.1094 111.33 32.8125 111.768 32.2188C112.211 31.625 112.432 30.7995 112.432 29.7422C112.432 28.8516 112.226 28.1536 111.815 27.6484C111.403 27.1432 110.846 26.8906 110.143 26.8906C109.398 26.8906 108.799 27.151 108.346 27.6719C107.893 28.1875 107.666 28.8359 107.666 29.6172ZM121.741 30.3203H116.092C116.113 31.2109 116.353 31.8984 116.811 32.3828C117.27 32.8672 117.9 33.1094 118.702 33.1094C119.603 33.1094 120.431 32.8125 121.186 32.2188V33.4219C120.483 33.9323 119.553 34.1875 118.397 34.1875C117.267 34.1875 116.379 33.8255 115.733 33.1016C115.087 32.3724 114.764 31.349 114.764 30.0312C114.764 28.7865 115.116 27.7734 115.819 26.9922C116.527 26.2057 117.405 25.8125 118.452 25.8125C119.499 25.8125 120.309 26.151 120.882 26.8281C121.454 27.5052 121.741 28.4453 121.741 29.6484V30.3203ZM120.428 29.2344C120.423 28.4948 120.244 27.9193 119.889 27.5078C119.54 27.0964 119.053 26.8906 118.428 26.8906C117.824 26.8906 117.311 27.1068 116.889 27.5391C116.467 27.9714 116.207 28.5365 116.108 29.2344H120.428ZM122.855 33.5469V32C123.032 32.1562 123.243 32.2969 123.488 32.4219C123.738 32.5469 123.998 32.6536 124.269 32.7422C124.545 32.8255 124.821 32.8906 125.097 32.9375C125.373 32.9844 125.628 33.0078 125.863 33.0078C126.67 33.0078 127.271 32.8594 127.667 32.5625C128.068 32.2604 128.269 31.8281 128.269 31.2656C128.269 30.9635 128.201 30.7005 128.066 30.4766C127.935 30.2526 127.753 30.0495 127.519 29.8672C127.284 29.6797 127.006 29.5026 126.683 29.3359C126.365 29.1641 126.021 28.9844 125.652 28.7969C125.261 28.599 124.896 28.3984 124.558 28.1953C124.219 27.9922 123.925 27.7682 123.675 27.5234C123.425 27.2786 123.227 27.0026 123.081 26.6953C122.941 26.3828 122.87 26.0182 122.87 25.6016C122.87 25.0911 122.982 24.6484 123.206 24.2734C123.43 23.8932 123.724 23.5807 124.089 23.3359C124.454 23.0911 124.868 22.9089 125.331 22.7891C125.8 22.6693 126.277 22.6094 126.761 22.6094C127.865 22.6094 128.67 22.7422 129.175 23.0078V24.4844C128.514 24.026 127.665 23.7969 126.628 23.7969C126.342 23.7969 126.055 23.8281 125.769 23.8906C125.482 23.9479 125.227 24.0443 125.003 24.1797C124.779 24.3151 124.597 24.4896 124.456 24.7031C124.316 24.9167 124.245 25.1771 124.245 25.4844C124.245 25.7708 124.297 26.0182 124.402 26.2266C124.511 26.4349 124.67 26.625 124.878 26.7969C125.086 26.9688 125.339 27.1354 125.636 27.2969C125.938 27.4583 126.284 27.6354 126.675 27.8281C127.076 28.026 127.456 28.2344 127.816 28.4531C128.175 28.6719 128.49 28.9141 128.761 29.1797C129.032 29.4453 129.245 29.7396 129.402 30.0625C129.563 30.3854 129.644 30.7552 129.644 31.1719C129.644 31.724 129.534 32.1927 129.316 32.5781C129.102 32.9583 128.81 33.2682 128.441 33.5078C128.076 33.7474 127.654 33.9193 127.175 34.0234C126.696 34.1328 126.191 34.1875 125.659 34.1875C125.482 34.1875 125.264 34.1719 125.003 34.1406C124.743 34.1146 124.477 34.0729 124.206 34.0156C123.935 33.9635 123.678 33.8984 123.433 33.8203C123.193 33.737 123.001 33.6458 122.855 33.5469ZM136.679 33.6328C136.065 34.0026 135.336 34.1875 134.492 34.1875C133.351 34.1875 132.429 33.8177 131.726 33.0781C131.028 32.3333 130.679 31.3698 130.679 30.1875C130.679 28.8698 131.057 27.8125 131.812 27.0156C132.567 26.2135 133.575 25.8125 134.836 25.8125C135.539 25.8125 136.159 25.9427 136.695 26.2031V27.5156C136.101 27.099 135.466 26.8906 134.789 26.8906C133.971 26.8906 133.299 27.1849 132.773 27.7734C132.252 28.3568 131.992 29.125 131.992 30.0781C131.992 31.0156 132.237 31.7552 132.726 32.2969C133.221 32.8385 133.882 33.1094 134.711 33.1094C135.409 33.1094 136.065 32.8776 136.679 32.4141V33.6328ZM142.309 27.2969C142.085 27.125 141.762 27.0391 141.34 27.0391C140.793 27.0391 140.335 27.2969 139.965 27.8125C139.6 28.3281 139.418 29.0312 139.418 29.9219V34H138.137V26H139.418V27.6484H139.449C139.632 27.0859 139.91 26.6484 140.285 26.3359C140.66 26.0182 141.08 25.8594 141.543 25.8594C141.876 25.8594 142.132 25.8958 142.309 25.9688V27.2969ZM143.876 23.9688C143.646 23.9688 143.451 23.8906 143.29 23.7344C143.128 23.5781 143.048 23.3802 143.048 23.1406C143.048 22.901 143.128 22.7031 143.29 22.5469C143.451 22.3854 143.646 22.3047 143.876 22.3047C144.11 22.3047 144.308 22.3854 144.469 22.5469C144.636 22.7031 144.719 22.901 144.719 23.1406C144.719 23.3698 144.636 23.5651 144.469 23.7266C144.308 23.888 144.11 23.9688 143.876 23.9688ZM144.501 34H143.219V26H144.501V34ZM147.927 32.8438H147.896V37.6797H146.614V26H147.896V27.4062H147.927C148.557 26.3438 149.479 25.8125 150.693 25.8125C151.724 25.8125 152.528 26.1719 153.107 26.8906C153.685 27.6042 153.974 28.5625 153.974 29.7656C153.974 31.1042 153.648 32.1771 152.997 32.9844C152.346 33.7865 151.456 34.1875 150.325 34.1875C149.289 34.1875 148.489 33.7396 147.927 32.8438ZM147.896 29.6172V30.7344C147.896 31.3958 148.109 31.9583 148.536 32.4219C148.969 32.8802 149.515 33.1094 150.177 33.1094C150.953 33.1094 151.56 32.8125 151.997 32.2188C152.44 31.625 152.661 30.7995 152.661 29.7422C152.661 28.8516 152.456 28.1536 152.044 27.6484C151.633 27.1432 151.075 26.8906 150.372 26.8906C149.627 26.8906 149.028 27.151 148.575 27.6719C148.122 28.1875 147.896 28.8359 147.896 29.6172ZM159.252 33.9219C158.949 34.0885 158.551 34.1719 158.056 34.1719C156.655 34.1719 155.955 33.3906 155.955 31.8281V27.0938H154.58V26H155.955V24.0469L157.236 23.6328V26H159.252V27.0938H157.236V31.6016C157.236 32.138 157.327 32.5208 157.509 32.75C157.692 32.9792 157.994 33.0938 158.416 33.0938C158.739 33.0938 159.017 33.0052 159.252 32.8281V33.9219Z" fill="#C4C4C4"/>
</svg>
