<svg width="442" height="65" viewBox="0 0 442 65" fill="none" xmlns="http://www.w3.org/2000/svg">
<path d="M206.5 17H204.938L203.062 13.8594C202.891 13.5677 202.724 13.3203 202.562 13.1172C202.401 12.9089 202.234 12.7396 202.062 12.6094C201.896 12.4792 201.714 12.3854 201.516 12.3281C201.323 12.2656 201.104 12.2344 200.859 12.2344H199.781V17H198.469V5.79688H201.812C202.302 5.79688 202.753 5.85938 203.164 5.98438C203.581 6.10417 203.94 6.28906 204.242 6.53906C204.549 6.78906 204.789 7.10156 204.961 7.47656C205.133 7.84635 205.219 8.28125 205.219 8.78125C205.219 9.17188 205.159 9.53125 205.039 9.85938C204.924 10.1823 204.758 10.4714 204.539 10.7266C204.326 10.9818 204.065 11.2005 203.758 11.3828C203.456 11.5599 203.115 11.6979 202.734 11.7969V11.8281C202.922 11.9115 203.083 12.0078 203.219 12.1172C203.359 12.2214 203.492 12.3464 203.617 12.4922C203.742 12.638 203.865 12.8047 203.984 12.9922C204.109 13.1745 204.247 13.388 204.398 13.6328L206.5 17ZM199.781 6.98438V11.0469H201.562C201.891 11.0469 202.193 10.9974 202.469 10.8984C202.75 10.7995 202.992 10.6589 203.195 10.4766C203.398 10.2891 203.557 10.0625 203.672 9.79688C203.786 9.52604 203.844 9.22396 203.844 8.89062C203.844 8.29167 203.648 7.82552 203.258 7.49219C202.872 7.15365 202.312 6.98438 201.578 6.98438H199.781ZM213.864 17H212.583V15.7344H212.551C212.02 16.7031 211.197 17.1875 210.083 17.1875C208.176 17.1875 207.223 16.0521 207.223 13.7812V9H208.497V13.5781C208.497 15.2656 209.142 16.1094 210.434 16.1094C211.059 16.1094 211.572 15.8802 211.973 15.4219C212.379 14.9583 212.583 14.3542 212.583 13.6094V9H213.864V17ZM215.493 16.7109V15.3359C216.191 15.8516 216.959 16.1094 217.798 16.1094C218.923 16.1094 219.485 15.7344 219.485 14.9844C219.485 14.7708 219.436 14.5911 219.337 14.4453C219.243 14.2943 219.113 14.1615 218.946 14.0469C218.785 13.9323 218.592 13.8307 218.368 13.7422C218.149 13.6484 217.912 13.5521 217.657 13.4531C217.303 13.3125 216.991 13.1719 216.72 13.0312C216.454 12.8854 216.23 12.724 216.048 12.5469C215.871 12.3646 215.735 12.1589 215.642 11.9297C215.553 11.7005 215.509 11.4323 215.509 11.125C215.509 10.75 215.595 10.4193 215.767 10.1328C215.938 9.84115 216.168 9.59896 216.454 9.40625C216.741 9.20833 217.066 9.0599 217.431 8.96094C217.8 8.86198 218.181 8.8125 218.571 8.8125C219.264 8.8125 219.884 8.93229 220.431 9.17188V10.4688C219.842 10.0833 219.165 9.89062 218.399 9.89062C218.16 9.89062 217.944 9.91927 217.751 9.97656C217.558 10.0286 217.392 10.1042 217.251 10.2031C217.116 10.3021 217.009 10.4219 216.931 10.5625C216.858 10.6979 216.821 10.849 216.821 11.0156C216.821 11.224 216.858 11.3984 216.931 11.5391C217.009 11.6797 217.121 11.8047 217.267 11.9141C217.412 12.0234 217.589 12.1224 217.798 12.2109C218.006 12.2995 218.243 12.3958 218.509 12.5C218.863 12.6354 219.181 12.776 219.462 12.9219C219.743 13.0625 219.983 13.224 220.181 13.4062C220.379 13.5833 220.53 13.7891 220.634 14.0234C220.743 14.2578 220.798 14.5365 220.798 14.8594C220.798 15.2552 220.709 15.599 220.532 15.8906C220.36 16.1823 220.129 16.4245 219.837 16.6172C219.545 16.8099 219.209 16.9531 218.829 17.0469C218.449 17.1406 218.05 17.1875 217.634 17.1875C216.811 17.1875 216.097 17.0286 215.493 16.7109ZM226.005 16.9219C225.703 17.0885 225.305 17.1719 224.81 17.1719C223.409 17.1719 222.708 16.3906 222.708 14.8281V10.0938H221.333V9H222.708V7.04688L223.99 6.63281V9H226.005V10.0938H223.99V14.6016C223.99 15.138 224.081 15.5208 224.263 15.75C224.445 15.9792 224.747 16.0938 225.169 16.0938C225.492 16.0938 225.771 16.0052 226.005 15.8281V16.9219ZM206.148 28.8516H202.953V38H200.422V28.8516H197.242V26.7969H206.148V28.8516ZM213.833 30L210.583 38.6406C209.801 40.7188 208.624 41.7578 207.051 41.7578C206.452 41.7578 205.96 41.6901 205.575 41.5547V39.5859C205.903 39.7786 206.26 39.875 206.645 39.875C207.28 39.875 207.723 39.5755 207.973 38.9766L208.395 37.9844L205.145 30H207.879L209.372 34.8672C209.465 35.1693 209.538 35.526 209.59 35.9375H209.622C209.668 35.6354 209.754 35.2839 209.879 34.8828L211.387 30H213.833ZM216.845 37.0703H216.813V41.6797H214.345V30H216.813V31.2031H216.845C217.454 30.2708 218.311 29.8047 219.415 29.8047C220.451 29.8047 221.251 30.1615 221.813 30.875C222.381 31.5833 222.665 32.5495 222.665 33.7734C222.665 35.1068 222.334 36.1771 221.673 36.9844C221.017 37.7917 220.142 38.1953 219.048 38.1953C218.084 38.1953 217.35 37.8203 216.845 37.0703ZM216.774 33.7891V34.4297C216.774 34.9818 216.92 35.4323 217.212 35.7812C217.504 36.1302 217.886 36.3047 218.36 36.3047C218.923 36.3047 219.358 36.0885 219.665 35.6562C219.978 35.2188 220.134 34.6016 220.134 33.8047C220.134 32.3984 219.587 31.6953 218.493 31.6953C217.988 31.6953 217.574 31.888 217.251 32.2734C216.933 32.6536 216.774 33.1589 216.774 33.7891ZM230.974 34.7031H225.755C225.839 35.8646 226.57 36.4453 227.951 36.4453C228.831 36.4453 229.604 36.237 230.271 35.8203V37.6016C229.531 37.9974 228.57 38.1953 227.388 38.1953C226.096 38.1953 225.094 37.8385 224.38 37.125C223.667 36.4062 223.31 35.4062 223.31 34.125C223.31 32.7969 223.695 31.7448 224.466 30.9688C225.237 30.1927 226.185 29.8047 227.31 29.8047C228.477 29.8047 229.378 30.151 230.013 30.8438C230.654 31.5365 230.974 32.4766 230.974 33.6641V34.7031ZM228.685 33.1875C228.685 32.0417 228.221 31.4688 227.294 31.4688C226.899 31.4688 226.555 31.6328 226.263 31.9609C225.977 32.2891 225.802 32.6979 225.74 33.1875H228.685ZM231.689 37.5703V35.0703C232.143 35.4505 232.635 35.737 233.166 35.9297C233.697 36.1172 234.234 36.2109 234.775 36.2109C235.093 36.2109 235.369 36.1823 235.603 36.125C235.843 36.0677 236.041 35.9896 236.197 35.8906C236.359 35.7865 236.478 35.6667 236.557 35.5312C236.635 35.3906 236.674 35.2396 236.674 35.0781C236.674 34.8594 236.611 34.6641 236.486 34.4922C236.361 34.3203 236.189 34.1615 235.971 34.0156C235.757 33.8698 235.502 33.7292 235.205 33.5938C234.908 33.4583 234.588 33.3203 234.244 33.1797C233.369 32.8151 232.715 32.3698 232.283 31.8438C231.856 31.3177 231.643 30.6823 231.643 29.9375C231.643 29.3542 231.76 28.8542 231.994 28.4375C232.228 28.0156 232.546 27.6693 232.947 27.3984C233.353 27.1276 233.822 26.9297 234.353 26.8047C234.885 26.6745 235.447 26.6094 236.041 26.6094C236.624 26.6094 237.14 26.6458 237.588 26.7188C238.041 26.7865 238.458 26.8932 238.838 27.0391V29.375C238.65 29.2448 238.445 29.1302 238.221 29.0312C238.002 28.9323 237.775 28.8516 237.541 28.7891C237.307 28.7214 237.072 28.6719 236.838 28.6406C236.609 28.6094 236.39 28.5938 236.182 28.5938C235.895 28.5938 235.635 28.6224 235.4 28.6797C235.166 28.7318 234.968 28.8073 234.807 28.9062C234.645 29.0052 234.52 29.125 234.432 29.2656C234.343 29.401 234.299 29.5547 234.299 29.7266C234.299 29.9141 234.348 30.0833 234.447 30.2344C234.546 30.3802 234.687 30.5208 234.869 30.6562C235.051 30.7865 235.273 30.9167 235.533 31.0469C235.794 31.1719 236.088 31.3021 236.416 31.4375C236.864 31.625 237.265 31.8255 237.619 32.0391C237.978 32.2474 238.286 32.4844 238.541 32.75C238.796 33.0156 238.991 33.3203 239.127 33.6641C239.262 34.0026 239.33 34.3984 239.33 34.8516C239.33 35.4766 239.21 36.0026 238.971 36.4297C238.736 36.8516 238.416 37.1953 238.01 37.4609C237.603 37.7214 237.129 37.9089 236.588 38.0234C236.051 38.138 235.484 38.1953 234.885 38.1953C234.27 38.1953 233.684 38.1432 233.127 38.0391C232.575 37.9349 232.096 37.7786 231.689 37.5703ZM246.514 37.7109C245.957 38.0339 245.152 38.1953 244.1 38.1953C242.871 38.1953 241.876 37.8229 241.116 37.0781C240.355 36.3333 239.975 35.3724 239.975 34.1953C239.975 32.8359 240.381 31.7656 241.194 30.9844C242.011 30.1979 243.103 29.8047 244.467 29.8047C245.41 29.8047 246.092 29.9297 246.514 30.1797V32.2734C245.998 31.888 245.423 31.6953 244.787 31.6953C244.079 31.6953 243.517 31.9036 243.1 32.3203C242.689 32.7318 242.483 33.3021 242.483 34.0312C242.483 34.7396 242.681 35.2969 243.077 35.7031C243.472 36.1042 244.017 36.3047 244.709 36.3047C245.324 36.3047 245.926 36.112 246.514 35.7266V37.7109ZM252.878 32.2266C252.581 32.0651 252.235 31.9844 251.839 31.9844C251.302 31.9844 250.883 32.1823 250.581 32.5781C250.279 32.9688 250.128 33.5026 250.128 34.1797V38H247.659V30H250.128V31.4844H250.159C250.55 30.401 251.253 29.8594 252.268 29.8594C252.529 29.8594 252.732 29.8906 252.878 29.9531V32.2266ZM254.867 28.7344C254.45 28.7344 254.109 28.612 253.843 28.3672C253.577 28.1172 253.445 27.8125 253.445 27.4531C253.445 27.0833 253.577 26.7812 253.843 26.5469C254.109 26.3125 254.45 26.1953 254.867 26.1953C255.288 26.1953 255.63 26.3125 255.89 26.5469C256.156 26.7812 256.288 27.0833 256.288 27.4531C256.288 27.8281 256.156 28.1354 255.89 28.375C255.63 28.6146 255.288 28.7344 254.867 28.7344ZM256.085 38H253.617V30H256.085V38ZM260.183 37.0703H260.152V41.6797H257.683V30H260.152V31.2031H260.183C260.793 30.2708 261.65 29.8047 262.754 29.8047C263.79 29.8047 264.59 30.1615 265.152 30.875C265.72 31.5833 266.004 32.5495 266.004 33.7734C266.004 35.1068 265.673 36.1771 265.012 36.9844C264.355 37.7917 263.48 38.1953 262.387 38.1953C261.423 38.1953 260.689 37.8203 260.183 37.0703ZM260.113 33.7891V34.4297C260.113 34.9818 260.259 35.4323 260.551 35.7812C260.842 36.1302 261.225 36.3047 261.699 36.3047C262.262 36.3047 262.696 36.0885 263.004 35.6562C263.316 35.2188 263.472 34.6016 263.472 33.8047C263.472 32.3984 262.926 31.6953 261.832 31.6953C261.327 31.6953 260.913 31.888 260.59 32.2734C260.272 32.6536 260.113 33.1589 260.113 33.7891ZM271.961 37.9062C271.597 38.099 271.047 38.1953 270.313 38.1953C268.573 38.1953 267.703 37.2917 267.703 35.4844V31.8203H266.407V30H267.703V28.2734L270.164 27.5703V30H271.961V31.8203H270.164V35.0547C270.164 35.888 270.495 36.3047 271.157 36.3047C271.417 36.3047 271.685 36.2292 271.961 36.0781V37.9062ZM199.781 54.7656V59H198.469V47.7969H201.547C202.745 47.7969 203.672 48.0885 204.328 48.6719C204.99 49.2552 205.32 50.0781 205.32 51.1406C205.32 52.2031 204.953 53.0729 204.219 53.75C203.49 54.4271 202.503 54.7656 201.258 54.7656H199.781ZM199.781 48.9844V53.5781H201.156C202.062 53.5781 202.753 53.3724 203.227 52.9609C203.706 52.5443 203.945 51.9583 203.945 51.2031C203.945 49.724 203.07 48.9844 201.32 48.9844H199.781ZM213.153 51L209.473 60.2812C208.817 61.9375 207.895 62.7656 206.708 62.7656C206.374 62.7656 206.096 62.7318 205.872 62.6641V61.5156C206.148 61.6094 206.4 61.6562 206.629 61.6562C207.275 61.6562 207.76 61.2708 208.083 60.5L208.723 58.9844L205.598 51H207.02L209.184 57.1562C209.21 57.2344 209.265 57.4375 209.348 57.7656H209.395C209.421 57.6406 209.473 57.4427 209.551 57.1719L211.825 51H213.153ZM217.767 58.9219C217.464 59.0885 217.066 59.1719 216.571 59.1719C215.17 59.1719 214.47 58.3906 214.47 56.8281V52.0938H213.095V51H214.47V49.0469L215.751 48.6328V51H217.767V52.0938H215.751V56.6016C215.751 57.138 215.842 57.5208 216.024 57.75C216.207 57.9792 216.509 58.0938 216.931 58.0938C217.254 58.0938 217.532 58.0052 217.767 57.8281V58.9219ZM225.638 59H224.357V54.3906C224.357 52.724 223.737 51.8906 222.497 51.8906C221.872 51.8906 221.346 52.1328 220.919 52.6172C220.492 53.0964 220.279 53.7135 220.279 54.4688V59H218.997V47.1562H220.279V52.3281H220.31C220.925 51.3177 221.8 50.8125 222.935 50.8125C224.737 50.8125 225.638 51.8984 225.638 54.0703V59ZM230.924 59.1875C229.741 59.1875 228.796 58.8151 228.088 58.0703C227.385 57.3203 227.033 56.3281 227.033 55.0938C227.033 53.75 227.4 52.7005 228.135 51.9453C228.869 51.1901 229.861 50.8125 231.111 50.8125C232.304 50.8125 233.234 51.1797 233.9 51.9141C234.572 52.6484 234.908 53.6667 234.908 54.9688C234.908 56.2448 234.546 57.2682 233.822 58.0391C233.103 58.8047 232.137 59.1875 230.924 59.1875ZM231.017 51.8906C230.195 51.8906 229.544 52.1719 229.064 52.7344C228.585 53.2917 228.346 54.0625 228.346 55.0469C228.346 55.9948 228.588 56.7422 229.072 57.2891C229.557 57.8359 230.205 58.1094 231.017 58.1094C231.846 58.1094 232.481 57.8411 232.924 57.3047C233.372 56.7682 233.596 56.0052 233.596 55.0156C233.596 54.0156 233.372 53.2448 232.924 52.7031C232.481 52.1615 231.846 51.8906 231.017 51.8906ZM243.116 59H241.834V54.4375C241.834 52.7396 241.215 51.8906 239.975 51.8906C239.334 51.8906 238.803 52.1328 238.381 52.6172C237.965 53.0964 237.756 53.7031 237.756 54.4375V59H236.475V51H237.756V52.3281H237.787C238.392 51.3177 239.267 50.8125 240.412 50.8125C241.287 50.8125 241.957 51.0964 242.42 51.6641C242.884 52.2266 243.116 53.0417 243.116 54.1094V59Z" fill="black" fill-opacity="0.8"/>
<path d="M62.4165 39.4636C62.2639 39.3123 62.1621 39.1105 62.1621 38.8582V26.2467C62.1621 25.9944 62.2639 25.7927 62.4165 25.6413C62.5691 25.49 62.7725 25.3892 63.0269 25.3892H66.9947C68.0121 25.3892 68.9786 25.6413 69.8435 26.1458C70.708 26.6503 71.3692 27.3061 71.8778 28.1637C72.3871 29.0212 72.6413 29.9798 72.6413 30.9887V34.1163C72.6413 35.1252 72.3871 36.0837 71.8778 36.9413C71.3692 37.7989 70.708 38.4547 69.8435 38.9592C68.9786 39.4636 68.0629 39.7158 66.9947 39.7158H63.0269C62.8234 39.7158 62.62 39.6149 62.4165 39.4636ZM66.8929 37.3953C67.4525 37.3953 68.0121 37.244 68.5207 36.9413C69.0294 36.6386 69.3854 36.2855 69.6908 35.7811C69.9962 35.2766 70.1483 34.7721 70.1483 34.1668V30.9382C70.1483 30.3833 69.9962 29.8284 69.6908 29.3239C69.3854 28.8194 69.0294 28.4663 68.5207 28.1637C68.0121 27.861 67.5034 27.7097 66.8929 27.7097H64.6038V37.3449H66.8929V37.3953Z" fill="black"/>
<path d="M77.3207 39.0609C76.6083 38.6574 75.9982 38.052 75.5912 37.2953C75.1842 36.5386 74.9299 35.7819 74.9299 34.8738V32.7047C74.9299 31.8471 75.1338 31.04 75.5912 30.2832C75.9982 29.5266 76.6083 28.9717 77.3207 28.5176C78.0332 28.1141 78.8471 27.8618 79.7627 27.8618C80.6271 27.8618 81.4411 28.0636 82.204 28.5176C82.9164 28.9212 83.5265 29.5266 83.9335 30.2832C84.3405 31.04 84.5948 31.7967 84.5948 32.7047V34.0667C84.5948 34.3189 84.4932 34.5207 84.3405 34.672C84.1878 34.8234 83.9846 34.9243 83.7303 34.9243H77.4223V35.0252C77.4223 35.681 77.6766 36.2359 78.1347 36.6899C78.5929 37.1439 79.1519 37.3962 79.8131 37.3962H83.0179C83.1202 37.3962 83.2218 37.4467 83.3233 37.497C83.4249 37.598 83.4249 37.6988 83.4249 37.7998V39.2626C83.4249 39.3636 83.3745 39.4644 83.3233 39.5654C83.2218 39.6662 83.1202 39.6662 83.0179 39.6662H79.8131C78.8471 39.7167 78.0332 39.5149 77.3207 39.0609ZM82.1024 32.8056V32.6038C82.1024 31.948 81.8481 31.3931 81.3907 30.9391C80.9325 30.485 80.3728 30.2328 79.7116 30.2328C79.0503 30.2328 78.4906 30.485 78.0332 30.9391C77.575 31.3931 77.3207 31.948 77.3207 32.6038V32.8056H82.1024Z" fill="black"/>
<path d="M90.343 39.8176C90.0383 39.8176 89.8345 39.6663 89.7329 39.4141L85.9684 28.8708C85.918 28.7699 85.918 28.7194 85.918 28.669C85.918 28.5177 85.9684 28.4168 86.0707 28.3159C86.1722 28.215 86.2738 28.1646 86.4265 28.1646H87.8507C88.0034 28.1646 88.1049 28.215 88.2065 28.2655C88.3088 28.3663 88.4104 28.4673 88.4615 28.5681L91.2082 36.6395L93.9548 28.5681C94.006 28.4168 94.0571 28.3159 94.2091 28.2655C94.3114 28.1646 94.4634 28.1646 94.5657 28.1646H95.8882C96.0409 28.1646 96.1425 28.215 96.2441 28.3159C96.3457 28.4168 96.3968 28.5177 96.3968 28.669C96.3968 28.7194 96.3968 28.7699 96.3457 28.8708L92.5819 39.4141C92.5307 39.5654 92.4291 39.6663 92.3276 39.7167C92.2253 39.8176 92.0726 39.8176 91.971 39.8176H90.343Z" fill="black"/>
<path d="M100.161 39.0609C99.4489 38.6574 98.8388 38.052 98.4318 37.2953C98.0248 36.5386 97.7705 35.7819 97.7705 34.8738V32.7047C97.7705 31.8471 97.9737 31.04 98.4318 30.2832C98.8388 29.5266 99.4489 28.9717 100.161 28.5176C100.873 28.1141 101.687 27.8618 102.603 27.8618C103.468 27.8618 104.282 28.0636 105.045 28.5176C105.757 28.9212 106.367 29.5266 106.774 30.2832C107.181 31.04 107.435 31.7967 107.435 32.7047V34.0667C107.435 34.3189 107.334 34.5207 107.181 34.672C107.028 34.8234 106.825 34.9243 106.571 34.9243H100.212V35.0252C100.212 35.681 100.467 36.2359 100.924 36.6899C101.382 37.1439 101.941 37.3962 102.603 37.3962H105.807C105.91 37.3962 106.011 37.4467 106.113 37.497C106.214 37.5475 106.214 37.6988 106.214 37.7998V39.2626C106.214 39.3636 106.164 39.4644 106.113 39.5654C106.062 39.6662 105.91 39.6662 105.807 39.6662H102.603C101.738 39.7167 100.924 39.5149 100.161 39.0609ZM104.993 32.8056V32.6038C104.993 31.948 104.739 31.3931 104.282 30.9391C103.824 30.485 103.264 30.2328 102.603 30.2328C101.941 30.2328 101.382 30.485 100.924 30.9391C100.467 31.3931 100.212 31.948 100.212 32.6038V32.8056H104.993Z" fill="black"/>
<path d="M110.539 39.4641C110.386 39.3127 110.284 39.1109 110.284 38.8588V26.7012H108.453C108.352 26.7012 108.249 26.6508 108.148 26.6003C108.046 26.4994 108.046 26.3985 108.046 26.2976V24.8347C108.046 24.7338 108.097 24.6329 108.148 24.532C108.249 24.4312 108.352 24.4312 108.453 24.4312H111.861C112.115 24.4312 112.319 24.532 112.472 24.6834C112.625 24.8347 112.726 25.0365 112.726 25.2887V37.4463H114.557C114.659 37.4463 114.761 37.4967 114.863 37.5471C114.964 37.5976 114.964 37.7489 114.964 37.8498V39.3127C114.964 39.4137 114.913 39.5145 114.863 39.6154C114.812 39.7163 114.659 39.7163 114.557 39.7163H111.149C110.946 39.7163 110.742 39.6154 110.539 39.4641Z" fill="black"/>
<path d="M119.135 39.3634C118.423 38.9598 117.813 38.3545 117.406 37.6483C116.999 36.942 116.744 36.1348 116.744 35.2773V32.6541C116.744 31.7965 116.948 31.0398 117.406 30.2831C117.813 29.5769 118.423 28.9715 119.135 28.5679C119.848 28.1644 120.662 27.9121 121.577 27.9121C122.442 27.9121 123.256 28.1139 124.019 28.5679C124.731 28.9715 125.342 29.5769 125.749 30.2831C126.155 30.9894 126.41 31.7965 126.41 32.6541V35.2773C126.41 36.1348 126.206 36.8915 125.749 37.6483C125.342 38.3545 124.731 38.9598 124.019 39.3634C123.307 39.767 122.493 40.0192 121.577 40.0192C120.662 39.9688 119.848 39.767 119.135 39.3634ZM123.205 36.942C123.663 36.4879 123.917 35.9331 123.917 35.2773V32.6541C123.917 31.9983 123.663 31.4434 123.205 30.9894C122.747 30.5353 122.187 30.2831 121.526 30.2831C120.865 30.2831 120.305 30.5353 119.848 30.9894C119.389 31.4434 119.135 31.9983 119.135 32.6541V35.2773C119.135 35.9331 119.389 36.4879 119.848 36.942C120.305 37.396 120.865 37.6483 121.526 37.6483C122.187 37.6483 122.747 37.4465 123.205 36.942Z" fill="black"/>
<path d="M129.105 43.4497C129.004 43.3488 129.004 43.2479 129.004 43.147V28.6689C129.004 28.5681 129.055 28.4671 129.105 28.3663C129.208 28.2654 129.309 28.2654 129.411 28.2654H130.733C130.835 28.2654 130.937 28.3158 131.039 28.3663C131.14 28.4671 131.14 28.5681 131.14 28.6689V29.577C131.496 29.0725 131.903 28.6689 132.463 28.4168C132.972 28.1645 133.531 28.0132 134.141 28.0132C134.955 28.0132 135.668 28.215 136.38 28.6689C137.092 29.0725 137.652 29.6779 138.059 30.3841C138.466 31.0904 138.669 31.847 138.669 32.6542V35.4288C138.669 36.2359 138.466 36.9926 138.059 37.6988C137.652 38.4051 137.092 38.96 136.431 39.414C135.719 39.8176 135.007 40.0698 134.141 40.0698C133.633 40.0698 133.175 39.9689 132.717 39.7671C132.26 39.5653 131.853 39.2626 131.446 38.8591V43.2479C131.446 43.3488 131.395 43.4497 131.344 43.5506C131.242 43.6515 131.14 43.6515 131.039 43.6515H129.462C129.309 43.601 129.208 43.5506 129.105 43.4497ZM135.515 36.9926C135.973 36.5386 136.227 35.9837 136.227 35.3278V32.6542C136.227 31.9984 135.973 31.4435 135.515 30.9895C135.058 30.5355 134.498 30.2832 133.837 30.2832C133.175 30.2832 132.616 30.5355 132.158 30.9895C131.7 31.4435 131.446 31.9984 131.446 32.6542V35.3278C131.446 35.9837 131.7 36.5386 132.158 36.9926C132.616 37.4466 133.175 37.6988 133.837 37.6988C134.498 37.6988 135.058 37.4466 135.515 36.9926Z" fill="black"/>
<path d="M143.298 39.0609C142.585 38.6574 141.975 38.052 141.568 37.2953C141.161 36.5386 140.907 35.7819 140.907 34.8738V32.7047C140.907 31.8471 141.11 31.04 141.568 30.2832C141.975 29.5266 142.585 28.9717 143.298 28.5176C144.01 28.1141 144.823 27.8618 145.739 27.8618C146.604 27.8618 147.418 28.0636 148.181 28.5176C148.893 28.9212 149.503 29.5266 149.91 30.2832C150.317 31.04 150.572 31.7967 150.572 32.7047V34.0667C150.572 34.3189 150.47 34.5207 150.317 34.672C150.165 34.8234 149.961 34.9243 149.707 34.9243H143.399V35.0252C143.399 35.681 143.653 36.2359 144.112 36.6899C144.569 37.1439 145.129 37.3962 145.79 37.3962H148.995C149.096 37.3962 149.199 37.4467 149.3 37.497C149.402 37.5475 149.402 37.6988 149.402 37.7998V39.2626C149.402 39.3636 149.351 39.4644 149.3 39.5654C149.249 39.6662 149.096 39.6662 148.995 39.6662H145.79C144.823 39.7167 144.06 39.5149 143.298 39.0609ZM148.13 32.8056V32.6038C148.13 31.948 147.876 31.3931 147.418 30.9391C146.96 30.485 146.401 30.2328 145.739 30.2328C145.078 30.2328 144.519 30.485 144.06 30.9391C143.603 31.3931 143.349 31.948 143.349 32.6038V32.8056H148.13Z" fill="black"/>
<path d="M152.658 39.6155C152.555 39.5146 152.555 39.4137 152.555 39.3128V37.8499C152.555 37.749 152.607 37.6481 152.658 37.5472C152.708 37.4464 152.861 37.4464 152.962 37.4464H154.489V30.4848H152.759C152.658 30.4848 152.555 30.4343 152.454 30.3839C152.352 30.283 152.352 30.1821 152.352 30.0812V28.6687C152.352 28.5678 152.403 28.4669 152.454 28.366C152.555 28.2652 152.658 28.2652 152.759 28.2652H155.913C156.167 28.2652 156.371 28.366 156.524 28.5173C156.676 28.6687 156.778 28.8705 156.778 29.1227V29.829L157.846 28.9714C158.253 28.6687 158.609 28.4165 158.915 28.3156C159.219 28.1642 159.576 28.1138 159.983 28.1138H160.593C160.695 28.1138 160.797 28.1642 160.898 28.2147C161 28.3156 161 28.4165 161 28.5173V30.0812C161 30.1821 160.949 30.283 160.898 30.3839C160.797 30.4848 160.695 30.4848 160.593 30.4848H160.084C159.729 30.4848 159.423 30.5352 159.169 30.6866C158.915 30.8379 158.508 31.0902 157.999 31.4937L156.88 32.3513V37.3959H158.863C158.965 37.3959 159.067 37.4464 159.169 37.4968C159.27 37.5472 159.27 37.6986 159.27 37.7995V39.2624C159.27 39.3633 159.219 39.4642 159.169 39.5651C159.118 39.666 158.965 39.666 158.863 39.666H152.962C152.861 39.7164 152.759 39.666 152.658 39.6155Z" fill="black"/>
<path d="M63.9426 60.6516C63.2304 60.3993 62.5691 60.0967 61.9587 59.6931C61.9078 59.6426 61.857 59.5922 61.8061 59.4913C61.7552 59.3904 61.8061 59.2895 61.8061 59.2391L62.5183 57.9779C62.62 57.8266 62.7217 57.7256 62.9252 57.7256C63.027 57.7256 63.1287 57.7761 63.2304 57.8266C64.2478 58.4319 65.1634 58.785 66.079 58.785C66.7912 58.785 67.3508 58.6337 67.7577 58.2806C68.1647 57.9274 68.3682 57.4735 68.3682 56.969C68.3682 56.6159 68.2664 56.3131 68.0629 56.061C67.8594 55.8087 67.6051 55.6069 67.249 55.4051C66.893 55.2538 66.4351 55.0016 65.7738 54.7493L65.1634 54.4971C64.2478 54.0936 63.4847 53.6395 62.8235 53.0342C62.213 52.4288 61.9078 51.5712 61.9078 50.411C61.9078 49.6038 62.1113 48.8976 62.4674 48.2418C62.8235 47.6364 63.3322 47.1319 63.9934 46.7788C64.6547 46.4257 65.4178 46.2744 66.2825 46.2744C66.9947 46.2744 67.7069 46.3753 68.419 46.6275C69.1312 46.8798 69.7414 47.1824 70.3522 47.586C70.4026 47.6364 70.4538 47.6868 70.5049 47.7878C70.5553 47.8886 70.5049 47.9896 70.5049 48.04L69.8436 49.3011C69.7414 49.4525 69.6398 49.5534 69.4366 49.5534C69.3344 49.5534 69.2328 49.5029 69.1312 49.4525C68.6225 49.0993 68.1138 48.8976 67.6051 48.7462C67.1473 48.5949 66.6895 48.5444 66.3334 48.5444C65.723 48.5444 65.2651 48.6958 64.9091 49.0489C64.553 49.3516 64.4004 49.8056 64.4004 50.31C64.4004 50.8145 64.6039 51.2686 64.9599 51.6217C65.3669 51.9748 65.9773 52.3279 66.7912 52.6306C66.893 52.6811 67.3508 52.8324 68.1647 53.1855C68.9786 53.5386 69.5893 53.9926 70.0979 54.598C70.6065 55.2034 70.8096 55.96 70.8096 56.8176C70.8096 57.6248 70.6065 58.3815 70.1995 59.0373C69.7925 59.6931 69.2328 60.1975 68.5208 60.5506C67.8086 60.9037 66.9947 61.1055 66.0282 61.1055C65.3669 61.0047 64.6039 60.8533 63.9426 60.6516Z" fill="black"/>
<path d="M75.1338 60.45C74.523 60.0969 74.0144 59.5924 73.7097 58.9367C73.3531 58.2808 73.2004 57.5746 73.2004 56.7674V49.6545C73.2004 49.5536 73.2516 49.4528 73.3027 49.3518C73.4043 49.251 73.5059 49.251 73.6074 49.251H75.1843C75.2865 49.251 75.3881 49.3014 75.4897 49.3518C75.5913 49.4023 75.5913 49.5536 75.5913 49.6545V56.4648C75.5913 57.171 75.7951 57.726 76.151 58.0791C76.5075 58.4826 77.0161 58.634 77.6773 58.634C78.4913 58.634 79.1015 58.3817 79.5596 57.8773C80.017 57.3728 80.2713 56.6666 80.2713 55.7585V49.6545C80.2713 49.5536 80.3224 49.4528 80.3729 49.3518C80.424 49.251 80.5767 49.251 80.6783 49.251H82.2551C82.3574 49.251 82.459 49.3014 82.5605 49.3518C82.6621 49.4023 82.6621 49.5536 82.6621 49.6545V60.2987C82.6621 60.3996 82.6117 60.5005 82.5605 60.6013C82.459 60.7023 82.3574 60.7023 82.2551 60.7023H80.6783C80.5767 60.7023 80.4751 60.6518 80.3729 60.6013C80.2713 60.5005 80.2713 60.3996 80.2713 60.2987V59.3402C79.9154 59.8447 79.4573 60.2482 78.9488 60.5509C78.4402 60.8536 77.8805 61.0049 77.2192 61.0049C76.4052 61.0049 75.744 60.8031 75.1338 60.45Z" fill="black"/>
<path d="M85.3584 60.6009C85.2568 60.5 85.2568 60.3991 85.2568 60.2982V58.8353C85.2568 58.7344 85.3073 58.6335 85.3584 58.5326C85.46 58.4317 85.5615 58.4317 85.6638 58.4317H87.1895V51.5205H85.46C85.3584 51.5205 85.2568 51.4701 85.1546 51.4197C85.053 51.3188 85.053 51.2179 85.053 51.117V49.7045C85.053 49.6036 85.1041 49.5027 85.1546 49.4018C85.2568 49.3009 85.3584 49.3009 85.46 49.3009H88.6136C88.8679 49.3009 89.0718 49.4018 89.2245 49.5532C89.3772 49.7045 89.4788 49.9063 89.4788 50.1585V50.8647L90.547 49.9567C90.954 49.6541 91.3099 49.4018 91.6153 49.3009C91.92 49.1496 92.2766 49.0991 92.6836 49.0991H93.2937C93.3953 49.0991 93.4975 49.1496 93.5991 49.2C93.7007 49.3009 93.7007 49.4018 93.7007 49.5027V51.0665C93.7007 51.1674 93.6496 51.2683 93.5991 51.3692C93.4975 51.4701 93.3953 51.4701 93.2937 51.4701H92.7851C92.4293 51.4701 92.1239 51.5205 91.8696 51.6719C91.6153 51.7728 91.2083 52.0754 90.6997 52.479L89.5803 53.3366V58.3812H91.5642C91.6657 58.3812 91.768 58.4317 91.8696 58.4821C91.9711 58.583 91.9712 58.6839 91.9712 58.7848V60.2478C91.9712 60.3486 91.92 60.4496 91.8696 60.5504C91.768 60.6513 91.6657 60.6513 91.5642 60.6513H85.6638C85.5615 60.7522 85.46 60.7017 85.3584 60.6009Z" fill="black"/>
<path d="M99.7544 60.8532C99.449 60.8532 99.2458 60.7019 99.1435 60.4496L95.3797 49.9064C95.3286 49.8056 95.3286 49.7551 95.3286 49.7046C95.3286 49.5533 95.3797 49.4524 95.4813 49.3515C95.5829 49.2506 95.6845 49.2002 95.8372 49.2002H97.262C97.414 49.2002 97.5163 49.2506 97.6178 49.3011C97.7194 49.402 97.821 49.5028 97.8721 49.6038L100.619 57.6751L103.366 49.6038C103.417 49.4524 103.468 49.3515 103.62 49.3011C103.722 49.2002 103.875 49.2002 103.976 49.2002H105.299C105.452 49.2002 105.553 49.2506 105.655 49.3515C105.757 49.4524 105.807 49.5533 105.807 49.7046C105.807 49.7551 105.807 49.8056 105.757 49.9064L101.992 60.4496C101.941 60.601 101.84 60.7019 101.738 60.7523C101.637 60.8532 101.484 60.8532 101.382 60.8532H99.7544Z" fill="black"/>
<path d="M109.572 60.097C108.86 59.6934 108.249 59.0881 107.842 58.3314C107.435 57.5747 107.181 56.818 107.181 55.91V53.7408C107.181 52.8832 107.385 52.0761 107.842 51.3194C108.249 50.5627 108.86 50.0078 109.572 49.5538C110.284 49.1502 111.098 48.8979 112.014 48.8979C112.878 48.8979 113.692 49.0997 114.456 49.5538C115.168 49.9573 115.778 50.5627 116.185 51.3194C116.592 52.0761 116.847 52.8328 116.847 53.7408V55.1028C116.847 55.3551 116.744 55.5569 116.592 55.7082C116.44 55.8596 116.236 55.9604 115.982 55.9604H109.674V56.0613C109.674 56.7171 109.929 57.272 110.386 57.726C110.844 58.1801 111.404 58.4323 112.065 58.4323H115.269C115.371 58.4323 115.473 58.4827 115.575 58.5332C115.676 58.6341 115.676 58.735 115.676 58.8359V60.2988C115.676 60.3997 115.626 60.5006 115.575 60.6015C115.473 60.7024 115.371 60.7024 115.269 60.7024H112.065C111.149 60.7528 110.336 60.5006 109.572 60.097ZM114.405 53.8417V53.6399C114.405 52.9841 114.15 52.4292 113.692 51.9752C113.235 51.5212 112.675 51.2689 112.014 51.2689C111.353 51.2689 110.793 51.5212 110.335 51.9752C109.877 52.4292 109.623 52.9841 109.623 53.6399V53.8417H114.405Z" fill="black"/>
<path d="M121.17 64.4351C121.069 64.3342 121.069 64.1829 121.12 64.0315L122.188 61.0552L118.22 49.8562C118.169 49.7553 118.169 49.7048 118.169 49.6544C118.169 49.503 118.22 49.4022 118.322 49.3012C118.423 49.2004 118.525 49.1499 118.678 49.1499H120.102C120.255 49.1499 120.356 49.2004 120.458 49.2508C120.56 49.3517 120.662 49.4526 120.713 49.5535L123.459 57.5744L126.206 49.5535C126.257 49.4022 126.308 49.3012 126.461 49.2508C126.563 49.1499 126.715 49.1499 126.817 49.1499H128.139C128.292 49.1499 128.394 49.2004 128.495 49.3012C128.598 49.4022 128.648 49.503 128.648 49.6544C128.648 49.7048 128.648 49.7553 128.597 49.8562L123.511 64.1324C123.459 64.2838 123.358 64.3846 123.256 64.4351C123.154 64.536 123.002 64.536 122.849 64.536H121.527C121.374 64.6369 121.272 64.536 121.17 64.4351Z" fill="black"/>
<path d="M40.5425 55.5049V40.3711H45.6293V60.4991H0V40.3711H5.08688V55.5049H40.5425Z" fill="black"/>
<path d="M10.6314 39.0092L35.4553 44.2052L36.5236 39.2614L11.6996 34.0654L10.6314 39.0092ZM13.9379 27.2048L36.9305 37.7985L39.0671 33.2583L16.0743 22.6646L13.9379 27.2048ZM20.2965 16.0562L39.7792 32.1485L43.0349 28.2641L23.5521 12.1719L20.2965 16.0562ZM32.861 4.15088L28.7915 7.17765L43.9505 27.3561L48.02 24.3294L32.861 4.15088ZM10.1736 50.4604H35.5571V45.4159H10.1736V50.4604Z" fill="black"/>
<path d="M62.2636 18.4276C62.111 18.2763 62.0093 18.0745 62.0093 17.8222V16.208C62.0093 15.1486 62.1619 14.3415 62.4162 13.6857C62.7214 13.0803 63.1284 12.5758 63.7388 12.1219C64.3492 11.6678 65.3157 11.0625 66.7401 10.2553C67.2488 9.95265 67.6048 9.64997 67.8083 9.34729C68.0118 9.04462 68.1644 8.5906 68.1644 8.18703C68.1644 7.63213 67.9609 7.17811 67.6048 6.82499C67.2488 6.47187 66.7401 6.32052 66.0788 6.32052C65.2649 6.32052 64.451 6.57276 63.5353 7.07721C63.4336 7.12766 63.3828 7.12766 63.281 7.12766C63.1284 7.12766 62.9758 7.07721 62.9249 6.92588L62.2636 5.71517C62.2128 5.66472 62.2128 5.56383 62.2128 5.51338C62.2128 5.36205 62.2636 5.26115 62.4162 5.16026C62.9758 4.80714 63.5862 4.50446 64.2475 4.30268C64.9088 4.10089 65.6209 4 66.3331 4C67.7066 4 68.7239 4.35312 69.4871 5.05937C70.25 5.76562 70.6059 6.77454 70.6059 8.03569C70.6059 8.94372 70.3516 9.75086 69.8941 10.3562C69.436 11.012 68.6731 11.6678 67.6048 12.3236C67.2996 12.5254 66.9944 12.6767 66.7909 12.8281C66.2314 13.1812 65.7736 13.4839 65.4684 13.6857C65.1632 13.9379 64.9088 14.1901 64.7053 14.5433C64.5018 14.8964 64.4001 15.2495 64.4001 15.7035V16.3089H69.6903C69.7919 16.3089 69.8941 16.3593 69.9957 16.4097C70.0973 16.4602 70.0973 16.6115 70.0973 16.7124V18.1753C70.0973 18.2763 70.0468 18.3771 69.9957 18.4781C69.8941 18.5789 69.7919 18.5789 69.6903 18.5789H62.9249C62.6706 18.6798 62.4671 18.5789 62.2636 18.4276Z" fill="black"/>
<path d="M74.0656 17.0155C73.2005 15.7543 72.7935 13.8878 72.7935 11.4664C72.7935 9.04495 73.2516 7.17845 74.116 5.91729C74.9811 4.65614 76.2525 4.05078 77.9316 4.05078C79.61 4.05078 80.8815 4.65614 81.7466 5.91729C82.611 7.17845 83.018 9.04495 83.018 11.4664C83.018 13.9382 82.611 15.8048 81.7466 17.0155C80.8815 18.2766 79.61 18.8819 77.9316 18.8819C76.2021 18.9324 74.93 18.2766 74.0656 17.0155ZM79.3558 16.1074C79.7116 15.7543 80.017 15.1994 80.1697 14.4427C80.3224 13.686 80.424 12.6771 80.424 11.4664C80.424 10.2557 80.3224 9.24673 80.1697 8.49004C80.017 7.73335 79.7116 7.22889 79.3558 6.87577C78.9999 6.52264 78.4906 6.37131 77.8294 6.37131C77.2192 6.37131 76.7107 6.52264 76.3541 6.87577C75.9983 7.22889 75.6928 7.7838 75.5408 8.54049C75.3881 9.29718 75.2858 10.3061 75.2858 11.5673C75.2858 13.3833 75.4897 14.6949 75.8967 15.4516C76.3037 16.2083 76.9649 16.6119 77.8805 16.6119C78.4906 16.6119 78.9999 16.4605 79.3558 16.1074Z" fill="black"/>
<path d="M85.4088 18.4279C85.2561 18.2766 85.1545 18.0748 85.1545 17.8226V16.2083C85.1545 15.1489 85.3072 14.3418 85.5615 13.686C85.8669 13.0806 86.2739 12.5762 86.8841 12.1222C87.4949 11.6681 88.4609 11.0628 89.8857 10.2557C90.3943 9.95298 90.7502 9.6503 90.954 9.34763C91.1571 9.04495 91.3099 8.64139 91.3099 8.23782C91.3099 7.68291 91.106 7.22889 90.7502 6.87577C90.3943 6.52264 89.8857 6.37131 89.2238 6.37131C88.4105 6.37131 87.5965 6.62353 86.6809 7.128C86.5787 7.17845 86.5282 7.17845 86.4267 7.17845C86.2739 7.17845 86.1212 7.128 86.0701 6.97666L85.4088 5.76595C85.3584 5.71551 85.3584 5.61461 85.3584 5.56416C85.3584 5.41283 85.4088 5.31194 85.5615 5.21104C86.1212 4.85792 86.7314 4.55524 87.3926 4.35346C88.0539 4.15167 88.7663 4.05078 89.4787 4.05078C90.8517 4.05078 91.8696 4.4039 92.6324 5.11015C93.3953 5.8164 93.7511 6.82532 93.7511 8.08647C93.7511 8.99451 93.4968 9.80165 93.0394 10.407C92.5813 11.0628 91.8184 11.7186 90.7502 12.3744C90.4447 12.5762 90.14 12.7275 89.9362 12.8788C89.3765 13.232 88.919 13.5347 88.6136 13.7365C88.3082 13.9887 88.0539 14.2409 87.8508 14.5941C87.6469 14.9472 87.5454 15.3003 87.5454 15.7543V16.3597H92.7851C92.8867 16.3597 92.9883 16.4101 93.0898 16.4605C93.1921 16.511 93.1921 16.6623 93.1921 16.7632V18.2262C93.1921 18.327 93.141 18.428 93.0898 18.5288C92.9883 18.6297 92.8867 18.6297 92.7851 18.6297H86.0197C85.7654 18.6802 85.5615 18.5793 85.4088 18.4279Z" fill="black"/>
<path d="M97.1591 17.0155C96.2947 15.7543 95.8877 13.8878 95.8877 11.4664C95.8877 9.04495 96.3458 7.17845 97.2102 5.91729C98.0754 4.65614 99.3468 4.05078 101.025 4.05078C102.704 4.05078 103.976 4.65614 104.841 5.91729C105.705 7.17845 106.112 9.04495 106.112 11.4664C106.112 13.9382 105.705 15.8048 104.841 17.0155C103.976 18.2766 102.704 18.8819 101.025 18.8819C99.3468 18.8819 98.0242 18.2766 97.1591 17.0155ZM102.45 16.1074C102.806 15.7543 103.111 15.1994 103.264 14.4427C103.416 13.686 103.518 12.6771 103.518 11.4664C103.518 10.2557 103.416 9.24673 103.264 8.49004C103.111 7.73335 102.806 7.22889 102.45 6.87577C102.093 6.52264 101.585 6.37131 100.924 6.37131C100.313 6.37131 99.8049 6.52264 99.4484 6.87577C99.0925 7.22889 98.7871 7.7838 98.6344 8.54049C98.4824 9.29718 98.3801 10.3061 98.3801 11.5673C98.3801 13.3833 98.5839 14.6949 98.9909 15.4516C99.3979 16.2587 100.059 16.6119 100.975 16.6119C101.585 16.6119 102.093 16.4605 102.45 16.1074Z" fill="black"/>
<rect x="337" y="3" width="105" height="14" fill="#C4C4C4"/>
<rect x="337" y="26" width="83" height="14" fill="#187ABF"/>
<rect x="337" y="49" width="80" height="14" fill="#C4C4C4"/>
</svg>
 