<svg width="99" height="96" viewBox="0 0 99 96" fill="none" xmlns="http://www.w3.org/2000/svg">
<path d="M49.5 70.7344H72.2634V93.4689H49.5V70.7344Z" stroke="#5C6069" stroke-width="1.614"/>
<path d="M60.3929 84.238H57.4747L58.7456 83.2108C59.5902 82.5344 60.234 81.9079 60.234 80.9559C60.234 79.9537 59.5235 79.2271 58.2773 79.2271C57.0649 79.2271 56.4294 79.912 56.1785 80.6803L57.1319 81.0396C57.2741 80.555 57.5751 80.171 58.1855 80.171C58.7372 80.171 59.0719 80.4716 59.0719 81.0226V81.1062C59.0719 81.5989 58.7709 82.0082 58.1518 82.5428L56.2789 84.1377V85.1566H60.3929V84.238ZM63.3165 85.2569C64.8384 85.2569 65.5239 84.146 65.5239 82.2421C65.5239 80.3379 64.8384 79.2271 63.3165 79.2271C61.7944 79.2271 61.1089 80.3379 61.1089 82.2421C61.1089 84.146 61.7944 85.2569 63.3165 85.2569ZM63.3165 84.38C62.5136 84.38 62.2209 83.762 62.2209 82.7598V81.7242C62.2209 80.7219 62.5136 80.104 63.3165 80.104C64.1192 80.104 64.4119 80.7219 64.4119 81.7242V82.7598C64.4119 83.762 64.1192 84.38 63.3165 84.38ZM63.3165 82.7348C63.701 82.7348 63.8348 82.5595 63.8348 82.3338V82.1502C63.8348 81.9245 63.701 81.7492 63.3165 81.7492C62.9318 81.7492 62.7979 81.9245 62.7979 82.1502V82.3338C62.7979 82.5595 62.9318 82.7348 63.3165 82.7348Z" fill="black"/>
<path d="M51.8873 73.2275V74.7891H52.4099C52.477 74.6638 52.6148 74.4885 52.9242 74.4885C53.2923 74.4885 53.5389 74.7391 53.5389 75.1608C53.5389 75.6117 53.284 75.8957 52.8408 75.8957C52.3932 75.8957 52.1172 75.6327 52.1172 75.1817V75.1191H51.7788V75.1941C51.7788 75.8121 52.2093 76.2087 52.8408 76.2087C53.4719 76.2087 53.886 75.7621 53.886 75.1608C53.886 74.5678 53.4972 74.1835 52.9913 74.1835C52.5774 74.1835 52.3849 74.3715 52.2761 74.5718H52.226V73.5405H53.8066V73.2275H51.8873Z" fill="#E0E4E4"/>
<path d="M72.2629 48H95.0263V70.7345H72.2629V48Z" stroke="#5C6069" stroke-width="1.614"/>
<path d="M83.1285 61.5315H80.2103L81.4812 60.5042C82.3258 59.8279 82.9696 59.2013 82.9696 58.2494C82.9696 57.2471 82.2591 56.5205 81.0129 56.5205C79.8005 56.5205 79.165 57.2054 78.9141 57.9737L79.8675 58.333C80.0097 57.8484 80.3107 57.4644 80.9211 57.4644C81.4728 57.4644 81.8075 57.7651 81.8075 58.3161V58.3997C81.8075 58.8923 81.5065 59.3016 80.8874 59.8362L79.0145 61.4312V62.4501H83.1285V61.5315ZM86.0521 62.5504C87.574 62.5504 88.2595 61.4395 88.2595 59.5356C88.2595 57.6314 87.574 56.5205 86.0521 56.5205C84.53 56.5205 83.8445 57.6314 83.8445 59.5356C83.8445 61.4395 84.53 62.5504 86.0521 62.5504ZM86.0521 61.6735C85.2492 61.6735 84.9565 61.0555 84.9565 60.0533V59.0177C84.9565 58.0154 85.2492 57.3974 86.0521 57.3974C86.8548 57.3974 87.1475 58.0154 87.1475 59.0177V60.0533C87.1475 61.0555 86.8548 61.6735 86.0521 61.6735ZM86.0521 60.0282C86.4366 60.0282 86.5704 59.8529 86.5704 59.6273V59.4436C86.5704 59.218 86.4366 59.0427 86.0521 59.0427C85.6674 59.0427 85.5335 59.218 85.5335 59.4436V59.6273C85.5335 59.8529 85.6674 60.0282 86.0521 60.0282Z" fill="black"/>
<path d="M76.6451 52.4638C76.6451 51.8625 76.2142 51.4659 75.7083 51.4659C75.2821 51.4659 75.0772 51.6745 74.9724 51.8501H74.9224V51.4325C74.9224 51.0192 75.1857 50.7476 75.6289 50.7476C76.0637 50.7476 76.2686 50.9815 76.2686 51.3365H76.6114C76.6114 50.8102 76.2436 50.4346 75.6289 50.4346C75.0018 50.4346 74.5796 50.8479 74.5796 51.4492V52.4681C74.5796 53.0734 75.0268 53.4744 75.6082 53.4744C76.1976 53.4744 76.6451 53.0651 76.6451 52.4638ZM75.6082 51.7625C76.022 51.7625 76.302 52.0462 76.302 52.4638C76.302 52.8814 76.022 53.1611 75.6082 53.1611C75.2027 53.1611 74.9224 52.8814 74.9224 52.4638C74.9224 52.0462 75.2027 51.7625 75.6082 51.7625Z" fill="#E0E4E4"/>
<path d="M49.5 2.53125H72.2634V25.2657H49.5V2.53125Z" stroke="#5C6069" stroke-width="1.614"/>
<path d="M60.7108 16.9535L59.0635 11.1243H57.5414L55.9024 16.9533H57.0064L57.4075 15.4753H59.1386L59.5484 16.9535H60.7108ZM58.9547 14.5817H57.6001L58.2439 12.2015H58.3109L58.9547 14.5814V14.5817ZM65.2311 16.9535V16.11H63.4753V13.4878H65.2311V12.6442H63.4753V11.1243H62.4801V12.1682C62.4801 12.5275 62.3463 12.6442 62.0036 12.6442H61.1505V13.4878H62.405V15.7843C62.405 16.4692 62.7895 16.9535 63.6091 16.9535H65.2311ZM51.7953 5.95954V6.0679H52.1381V5.98023C52.1381 5.52926 52.4098 5.27891 52.853 5.27891C53.2294 5.27891 53.5054 5.50425 53.5054 5.89257C53.5054 6.31422 53.2044 6.49817 52.7068 6.64418C52.1508 6.80715 51.791 7.02847 51.791 7.60878V7.94708H53.8315V7.63379H52.1381V7.5671C52.1381 7.16615 52.389 7.06181 52.8573 6.91982C53.43 6.74449 53.8481 6.49386 53.8481 5.90521C53.8481 5.34128 53.4343 4.96533 52.853 4.96533C52.2342 4.96533 51.7953 5.3456 51.7953 5.95954Z" fill="black"/>
<path d="M72.2629 25.2656H95.0263V48.0001H72.2629V25.2656Z" stroke="#5C6069" stroke-width="1.614"/>
<path d="M85.3016 39.6881V38.7861H82.7095V37.1826H85.2098V36.2807H82.7095V34.7608H85.3016V33.8588H81.6141V39.6881H85.3016ZM74.5918 27.7588V28.0761H76.1096L75.1981 28.8777V29.1994H75.6163C75.9717 29.1994 76.2644 29.408 76.2644 29.7923C76.2644 30.1556 75.9967 30.427 75.5829 30.427C75.1354 30.427 74.8511 30.1806 74.8511 29.742V29.575H74.5083V29.7547C74.5083 30.3603 74.9515 30.7402 75.5869 30.7402C76.1556 30.7402 76.6072 30.356 76.6072 29.8007C76.6072 29.262 76.2267 28.9277 75.7418 28.9277H75.637V28.882L76.5778 28.0635V27.7588H74.5918Z" fill="black"/>
<path d="M26.7366 2.53125H49.5V25.2657H26.7366V2.53125Z" stroke="#5C6069" stroke-width="1.614"/>
<path d="M35.4726 17.054C36.8856 17.054 37.6466 16.2941 37.6466 15.2088C37.6466 14.3399 37.1533 13.7636 36.1498 13.5799L35.5394 13.4713C34.8956 13.3629 34.653 13.1456 34.653 12.703C34.653 12.1853 34.979 11.9183 35.6061 11.9183C36.1915 11.9183 36.6263 12.152 36.9357 12.5193L37.5798 11.8344C37.1783 11.3334 36.5095 11.0244 35.5978 11.0244C34.3269 11.0244 33.5493 11.6424 33.5493 12.7533C33.5493 13.5632 33.9674 14.2148 35.0461 14.3985L35.6648 14.4985C36.3003 14.5988 36.5429 14.8242 36.5429 15.2838C36.5429 15.8431 36.1748 16.1604 35.506 16.1604C34.929 16.1604 34.419 15.9267 33.9841 15.4258L33.3234 16.1104C33.7666 16.6784 34.4774 17.054 35.4726 17.054ZM42.4682 16.954V16.1104H40.7121V13.4882H42.4682V12.6446H40.7121V11.1247H39.7172V12.1687C39.7172 12.5279 39.5834 12.6446 39.2404 12.6446H38.3876V13.4882H39.6418V15.7848C39.6418 16.4697 40.0266 16.954 40.8459 16.954H42.4682ZM29.6886 5.02441L28.8525 6.28564H29.2413L29.8351 5.3584H29.8851V7.94753H30.2279L30.2322 5.02441H29.6886Z" fill="black"/>
<path d="M26.709 70.7064V25.2378H72.2355V70.7064H26.709Z" stroke="#5C6069" stroke-width="1.614"/>
<path d="M38.1326 62.2582L41.6522 60.131C42.3311 61.3333 42.949 62.3508 44.4306 62.3508C45.8505 62.3508 46.7461 61.7957 46.7461 59.6378V44.9613H51.0679V59.6987C51.0679 64.1696 48.4441 66.2046 44.6156 66.2046C41.1584 66.2046 39.1513 64.4162 38.1326 62.2579V62.2582ZM53.4157 61.7957L56.9348 59.7608C57.8612 61.2718 59.065 62.3818 61.1952 62.3818C62.9859 62.3818 64.1278 61.4876 64.1278 60.254C64.1278 58.774 62.9548 58.2501 60.9791 57.3869L59.8987 56.9242C56.7805 55.5986 54.7119 53.9335 54.7119 50.4186C54.7119 47.1813 57.1817 44.7144 61.041 44.7144C63.7885 44.7144 65.7642 45.6703 67.1842 48.1678L63.819 50.326C63.0783 49.0004 62.2756 48.4762 61.041 48.4762C59.775 48.4762 58.9723 49.2778 58.9723 50.326C58.9723 51.6212 59.775 52.1454 61.6272 52.9471L62.7076 53.4095C66.3815 54.982 68.4499 56.5853 68.4499 60.1925C68.4499 64.0776 65.3935 66.2048 61.2879 66.2048C57.2744 66.2048 54.6811 64.2935 53.4157 61.7957Z" fill="black"/>
<path d="M3.97363 25.2656H26.737V48.0001H3.97363V25.2656Z" stroke="#5C6069" stroke-width="1.614"/>
<path d="M12.7762 39.7885C14.2981 39.7885 14.9836 38.6776 14.9836 36.7737C14.9836 34.8695 14.2981 33.7589 12.7762 33.7589C11.2541 33.7589 10.5686 34.8695 10.5686 36.7737C10.5686 38.6776 11.2541 39.7885 12.776 39.7885H12.7762ZM12.7762 38.8949C11.9983 38.8949 11.731 38.277 11.731 37.2747V36.2725C11.731 35.2705 11.9986 34.6525 12.7762 34.6525C13.5539 34.6525 13.8215 35.2705 13.8215 36.2725V37.2664C13.8215 38.277 13.5539 38.8949 12.7762 38.8949ZM15.9086 39.6882H19.7051V38.8449H18.3007V36.2225H19.8976V35.3789H18.3004V34.3519H19.8976V33.5083H18.4426C17.6149 33.5083 17.2301 33.9926 17.2301 34.6775V35.3789H15.8254V36.2225H17.2301V38.8449H15.9091V39.6882H15.9086Z" fill="black"/>
<path d="M7.42689 27.7588L6.15601 29.8007V30.1013H7.6695V30.6816H8.01226V30.1013H8.51387V29.788H8.01226V27.7588H7.42689ZM7.61913 28.0425H7.6695V29.788H6.53646L7.61913 28.0425Z" fill="#E0E4E4"/>
</svg>
