<?xml version="1.0" encoding="utf-8"?>
<!-- Generator: Adobe Illustrator 19.1.1, SVG Export Plug-In . SVG Version: 6.00 Build 0)  -->
<svg version="1.1" xmlns="http://www.w3.org/2000/svg" xmlns:xlink="http://www.w3.org/1999/xlink" x="0px" y="0px"
	 viewBox="0 0 2342 510" style="enable-background:new 0 0 2342 510;" xml:space="preserve" preserveAspectRatio="none">
<style type="text/css">
	.st0{fill:#144372;}
	.st1{fill:#FFFFFF;}
	.st2{fill:#052738;}
	.st3{display:none;fill:none;}
	.st4{fill:none;}
	.st5{fill:none;stroke:#FFFFFF;stroke-miterlimit:10;}
	.st6{fill:#014467;}
	.st7{fill:none;stroke:#03324C;stroke-miterlimit:10;}
	.st8{fill:#03324C;}
	.st9{clip-path:url(#SVGID_2_);}
	.st10{fill:#044F81;stroke:#F6F6F6;stroke-miterlimit:10;}
	.st11{opacity:0.2;fill:#178FCF;}
	.st12{opacity:0.4;fill:url(#SVGID_3_);}
	.st13{opacity:0.18;fill:url(#SVGID_4_);}
	.st14{opacity:0.1;fill:#178FCF;}
	.st15{fill:url(#SVGID_5_);}
	.st16{fill:url(#SVGID_6_);}
	.st17{opacity:0.5;fill-rule:evenodd;clip-rule:evenodd;fill:#03324C;stroke:#FFFFFF;stroke-miterlimit:10;}
	.st18{opacity:0.4;fill-rule:evenodd;clip-rule:evenodd;fill:url(#SVGID_7_);}
	.st19{opacity:0.2;fill:#0B598A;stroke:#FFFFFF;stroke-miterlimit:10;}
	.st20{opacity:0.4;fill:url(#SVGID_8_);}
	.st21{opacity:0.5;fill:none;stroke:#FFFFFF;stroke-linecap:round;stroke-miterlimit:10;}
	.st22{opacity:0.4;fill:#55A4DB;stroke:#FFFFFF;stroke-miterlimit:10;}
	.st23{fill:#144372;stroke:#0B598A;stroke-miterlimit:10;}
	.st24{opacity:0.2;fill:#3A91CE;stroke:#0B598A;stroke-miterlimit:10;}
	.st25{opacity:0.33;fill:#55A4DB;}
	.st26{fill:none;stroke:#FFFFFF;stroke-width:1.2491;stroke-miterlimit:10;}
	.st27{opacity:0.3;}
	.st28{fill:#223C49;}
	.st29{opacity:0.2;}
	.st30{fill:url(#SVGID_9_);}
	.st31{opacity:0.4;fill:url(#SVGID_10_);}
	
		.st32{opacity:0.51;fill:#55A4DB;fill-opacity:0.33;stroke:#0B598A;stroke-width:1.2491;stroke-linecap:round;stroke-linejoin:round;stroke-miterlimit:10;}
	.st33{opacity:0.5;fill:#03324C;stroke:#FFFFFF;stroke-miterlimit:10;}
	.st34{opacity:0.4;fill:#126FA1;stroke:#FFFFFF;stroke-miterlimit:10;}
	.st35{opacity:0.4;fill:url(#SVGID_11_);}
	.st36{fill:#0B598A;}
	.st37{opacity:0.18;fill:url(#SVGID_12_);}
	.st38{opacity:0.5;fill:#1C272D;stroke:#F6F6F6;stroke-miterlimit:10;}
	.st39{display:none;}
	.st40{display:inline;}
	.st41{clip-path:url(#SVGID_14_);}
	.st42{opacity:0.5;fill:#044F81;stroke:#F6F6F6;stroke-miterlimit:10;}
	.st43{fill:#178FCF;}
	.st44{fill:url(#SVGID_15_);}
	.st45{opacity:0.4;fill:url(#SVGID_16_);}
	.st46{opacity:0.18;fill:url(#SVGID_17_);}
	.st47{fill:url(#SVGID_18_);}
	.st48{fill:url(#SVGID_19_);}
	.st49{fill-rule:evenodd;clip-rule:evenodd;fill:#03324C;stroke:#FFFFFF;stroke-miterlimit:10;}
	.st50{opacity:0.4;fill-rule:evenodd;clip-rule:evenodd;fill:url(#SVGID_20_);}
	.st51{fill:#03324C;stroke:#FFFFFF;stroke-miterlimit:10;}
	.st52{fill:#F4F0E2;}
	.st53{opacity:0.4;fill:url(#SVGID_21_);}
	.st54{fill:#11395E;}
	.st55{fill:#044F81;}
	.st56{fill:none;stroke:#4B94D0;stroke-width:0.5;stroke-miterlimit:10;}
	.st57{fill:#144372;stroke:#F4F0E2;stroke-width:0.5;stroke-miterlimit:10;}
	.st58{fill:#144372;stroke:#F4F0E2;stroke-miterlimit:10;}
	.st59{fill:#03324C;stroke:#FFFFFF;stroke-width:0.5;stroke-miterlimit:10;}
	.st60{fill:#03324C;stroke:#FFFFFF;stroke-width:2;stroke-miterlimit:10;}
	.st61{fill:#0B598A;stroke:#FFFFFF;stroke-miterlimit:10;}
	.st62{opacity:0.4;fill:url(#SVGID_22_);}
	.st63{fill:none;stroke:#FFFFFF;stroke-linecap:round;stroke-miterlimit:10;}
	.st64{fill:#55A4DB;stroke:#FFFFFF;stroke-miterlimit:10;}
	.st65{fill:#3A91CE;stroke:#0B598A;stroke-miterlimit:10;}
	.st66{opacity:0.51;fill:#55A4DB;stroke:#FFFFFF;stroke-miterlimit:10;}
	.st67{opacity:0.51;fill:#55A4DB;fill-opacity:0.33;stroke:#FFFFFF;stroke-width:1.2491;stroke-miterlimit:10;}
	.st68{fill:#55A4DB;fill-opacity:0.33;stroke:#FFFFFF;stroke-width:1.2491;stroke-miterlimit:10;}
	.st69{fill:#3A91CE;}
	.st70{opacity:0.4;}
	.st71{fill:url(#SVGID_23_);}
	.st72{opacity:0.4;fill:url(#SVGID_24_);}
	.st73{opacity:0.4;fill:url(#SVGID_25_);}
	.st74{fill-rule:evenodd;clip-rule:evenodd;fill:#03324C;}
	.st75{fill:none;stroke:#FFFFFF;stroke-width:0.6246;stroke-miterlimit:10;}
	.st76{fill:none;stroke:#FFFFFF;stroke-width:3.7474;stroke-miterlimit:10;}
	.st77{fill:none;stroke:#FFFFFF;stroke-width:2.4983;stroke-miterlimit:10;}
	.st78{opacity:0.35;fill:url(#SVGID_26_);}
	.st79{fill:none;stroke:#FFFFFF;stroke-linecap:round;stroke-linejoin:round;stroke-miterlimit:10;}
	.st80{opacity:0.43;fill:none;stroke:#FFFFFF;stroke-width:1.2491;stroke-miterlimit:10;}
	.st81{opacity:0.4;fill:url(#SVGID_27_);}
	.st82{fill:none;stroke:#0B598A;stroke-linecap:round;stroke-linejoin:round;stroke-miterlimit:10;}
	.st83{fill:#144372;stroke:#FFFFFF;stroke-miterlimit:10;}
	.st84{fill:#126FA1;stroke:#FFFFFF;stroke-miterlimit:10;}
	.st85{opacity:0.4;fill:url(#SVGID_28_);}
	.st86{fill-rule:evenodd;clip-rule:evenodd;fill:none;stroke:#FFFFFF;stroke-miterlimit:10;}
	.st87{opacity:0.5;fill:#14333F;stroke:#FFFFFF;stroke-linecap:round;stroke-linejoin:round;stroke-miterlimit:10;}
	.st88{opacity:0.5;fill:#162F38;stroke:#FFFFFF;stroke-linecap:round;stroke-linejoin:round;stroke-miterlimit:10;}
	.st89{fill:#3A91CE;stroke:#FFFFFF;stroke-miterlimit:10;}
	.st90{opacity:0.18;fill:url(#SVGID_29_);}
</style>
<symbol  id="New_Symbol" viewBox="-9 -6.1 16 14.1">
	<g>
		<path class="st0" d="M-1-5.8c-4,0-6.6,0.5-6.8,0.8c0,0.1-0.9,2.8-0.9,6s0.9,5.9,0.9,5.9C-7.6,7.3-5,7.8-1,7.8s6.6-0.5,6.8-0.8
			c0-0.1,0.7-2.7,0.7-6S5.8-4.9,5.8-5C5.6-5.3,3-5.8-1-5.8z"/>
		<path class="st1" d="M-1,7.5c3.9,0,6.1-0.5,6.5-0.7C5.6,6.5,6.2,4,6.2,1S5.6-4.6,5.5-4.9C5.1-5.1,2.9-5.6-1-5.6
			c-3.9,0-6.1,0.5-6.5,0.7C-7.6-4.7-8.4-2.1-8.4,1c0,3,0.8,5.7,0.9,5.8C-7.1,7-4.9,7.5-1,7.5 M-1,8c-3.9,0-7-0.5-7-1.1
			c0,0-0.9-2.7-0.9-6C-8.9-2.3-8-5-8-5c0-0.6,3.1-1.1,7-1.1S6-5.6,6-5c0,0,0.7,2.6,0.7,6S6,6.9,6,6.9C6,7.5,2.9,8-1,8L-1,8z"/>
	</g>
	<polygon class="st2" points="0,-5 -2,-5 -2,7 0,7 	"/>
	<polygon class="st3" points="-9,8 7,8 7,-6 -9,-6 	"/>
</symbol>
<pattern  width="72" height="72" patternUnits="userSpaceOnUse" id="Whitelines" viewBox="0 -72.5 72 72" style="overflow:visible;">
	<g>
		<polygon class="st4" points="0,-72.5 72,-72.5 72,-0.5 0,-0.5 		"/>
		<g>
			<line class="st5" x1="0" y1="-0.5" x2="72" y2="-0.5"/>
		</g>
		<g>
			<line class="st5" x1="0" y1="-72.5" x2="72" y2="-72.5"/>
			<line class="st5" x1="0" y1="-66.5" x2="72" y2="-66.5"/>
			<line class="st5" x1="0" y1="-60.5" x2="72" y2="-60.5"/>
			<line class="st5" x1="0" y1="-54.5" x2="72" y2="-54.5"/>
			<line class="st5" x1="0" y1="-48.5" x2="72" y2="-48.5"/>
			<line class="st5" x1="0" y1="-42.5" x2="72" y2="-42.5"/>
			<line class="st5" x1="0" y1="-36.5" x2="72" y2="-36.5"/>
			<line class="st5" x1="0" y1="-30.5" x2="72" y2="-30.5"/>
			<line class="st5" x1="0" y1="-24.5" x2="72" y2="-24.5"/>
			<line class="st5" x1="0" y1="-18.5" x2="72" y2="-18.5"/>
			<line class="st5" x1="0" y1="-12.5" x2="72" y2="-12.5"/>
			<line class="st5" x1="0" y1="-6.5" x2="72" y2="-6.5"/>
			<line class="st5" x1="0" y1="-0.5" x2="72" y2="-0.5"/>
		</g>
		<g>
			<line class="st5" x1="0" y1="-72.5" x2="72" y2="-72.5"/>
		</g>
	</g>
</pattern>
<pattern  width="20" height="20" patternUnits="userSpaceOnUse" id="blue_windows" viewBox="2.7 -20 20 20" style="overflow:visible;">
	<g>
		<polygon class="st4" points="2.7,-20 22.7,-20 22.7,0 2.7,0 		"/>
		<polygon class="st6" points="25.4,-4.1 20,-4.1 20,-15.9 25.4,-15.9 		"/>
		<polygon class="st6" points="15.4,-4.1 10,-4.1 10,-15.9 15.4,-15.9 		"/>
		<polygon class="st6" points="5.4,-4.1 0,-4.1 0,-15.9 5.4,-15.9 		"/>
	</g>
</pattern>
<pattern  width="72" height="72" patternUnits="userSpaceOnUse" id="dark_Blue_lines" viewBox="0 -72.5 72 72" style="overflow:visible;">
	<g>
		<polygon class="st4" points="0,-72.5 72,-72.5 72,-0.5 0,-0.5 		"/>
		<g>
			<line class="st7" x1="0" y1="-0.5" x2="72" y2="-0.5"/>
		</g>
		<g>
			<line class="st7" x1="0" y1="-72.5" x2="72" y2="-72.5"/>
			<line class="st7" x1="0" y1="-66.5" x2="72" y2="-66.5"/>
			<line class="st7" x1="0" y1="-60.5" x2="72" y2="-60.5"/>
			<line class="st7" x1="0" y1="-54.5" x2="72" y2="-54.5"/>
			<line class="st7" x1="0" y1="-48.5" x2="72" y2="-48.5"/>
			<line class="st7" x1="0" y1="-42.5" x2="72" y2="-42.5"/>
			<line class="st7" x1="0" y1="-36.5" x2="72" y2="-36.5"/>
			<line class="st7" x1="0" y1="-30.5" x2="72" y2="-30.5"/>
			<line class="st7" x1="0" y1="-24.5" x2="72" y2="-24.5"/>
			<line class="st7" x1="0" y1="-18.5" x2="72" y2="-18.5"/>
			<line class="st7" x1="0" y1="-12.5" x2="72" y2="-12.5"/>
			<line class="st7" x1="0" y1="-6.5" x2="72" y2="-6.5"/>
			<line class="st7" x1="0" y1="-0.5" x2="72" y2="-0.5"/>
		</g>
		<g>
			<line class="st7" x1="0" y1="-72.5" x2="72" y2="-72.5"/>
		</g>
	</g>
</pattern>
<g id="bg_blank">
	<rect class="st8" width="2342" height="510"/>
</g>
<g id="bg">
	<g>
		<defs>
			<rect id="SVGID_1_" x="-0.1" y="0" width="2342" height="510"/>
		</defs>
		<clipPath id="SVGID_2_">
			<use xlink:href="#SVGID_1_"  style="overflow:visible;"/>
		</clipPath>
		<g class="st9">
			<polygon class="st8" points="1328,374 1328,334 1435,334 1435,327 1444,327 1444,333 1448,333 1448,324.9 1458,325.4 1458,339 
				1483,339 1483,331 1510,331 1510,336 1546,336 1546,374 			"/>
			<path class="st10" d="M-1.5,470"/>
			<path class="st10" d="M-1.5,428"/>
			<polygon class="st11" points="2028,219.4 2028,468 2063,468 2063,228.9 			"/>
			<polygon class="st8" points="1894,106 1894,435.4 1876,417 1876,106 			"/>
			<rect x="436" y="297" class="st8" width="89" height="141"/>
			<pattern  id="SVGID_3_" xlink:href="#Whitelines" patternTransform="matrix(0.6889 -0.75 0.5511 0.6 1975.038 -8179.4897)">
			</pattern>
			<rect x="389" y="339" class="st12" width="45" height="58"/>
			
				<pattern  id="SVGID_4_" xlink:href="#Whitelines" patternTransform="matrix(0.8166 -0.7876 0.6533 0.6301 3591.8035 -8264.3857)">
			</pattern>
			<polygon class="st13" points="1894,436.4 1943,462.9 1943,65.4 1894,75.6 			"/>
			<polygon class="st8" points="1761,372.6 1717,365.5 1717,282 1761,282 			"/>
			<path class="st8" d="M1981.7,468c0.8-1-0.3-165.9-0.3-165.9l11.6-14.2V468H1981.7z"/>
			<rect x="2153" y="376" class="st14" width="106" height="91"/>
			
				<pattern  id="SVGID_5_" xlink:href="#dark_Blue_lines" patternTransform="matrix(0.7471 -0.7265 0.7471 0.7265 3680.9377 -7160.5576)">
			</pattern>
			<polygon class="st15" points="2152,379 2152,275 2089,275 2089,379.5 2089,400.1 2089,468 2270,468 2270,379 			"/>
			<rect x="144" y="411" class="st8" width="78" height="27"/>
			<polygon class="st6" points="367.7,146.3 370,445.4 389,422.4 389,206.6 			"/>
			<polygon class="st6" points="318,393 267,393 267,326.8 318,360.3 			"/>
			<pattern  id="SVGID_6_" xlink:href="#blue_windows" patternTransform="matrix(0.5 0 0 0.5 -3492.4397 -3729.4275)">
			</pattern>
			<rect x="90" y="336" class="st16" width="48" height="90"/>
			<polygon class="st8" points="1095,338.4 1095,273 1080,273 1080.5,181 1123,181 1123,121 1143,121 1143,108 1168,108 1168,97 
				1212,97 1212,111 1219,111 1219,93 1262,93 1262,108 1298,108 1298,127.5 1317.1,113 1354.5,113 1354,155 1373,155 1373,172 
				1396,172 1396,193 1405.5,193 1405,202 1432,202 1432,225.8 1432,245 1389,245 1389,270 1349,270 1349,339 1326,339 1326,375 
				1095,375 			"/>
			<polyline class="st17" points="892,269.5 1023.5,269.5 1023.5,178.5 1017.5,178.5 1017.5,160 1017.5,151 1010.5,158.2 
				1010.5,136 1010.5,120.5 1047.5,120.5 1047.5,139.5 1057.5,139.5 1057.5,148.5 1075.5,148.5 1075.5,165.5 1087.5,165.5 
				1087.5,321 1087.5,390 1040.7,363.9 			"/>
			<polyline class="st17" points="786.2,89.6 835.5,98.2 834.7,346.5 			"/>
			<pattern  id="SVGID_7_" xlink:href="#Whitelines" patternTransform="matrix(0.6889 -0.75 0.5511 0.6 1975.038 -8179.4897)">
			</pattern>
			<polygon class="st18" points="786.1,88.7 834.2,98.7 835.7,373 786,373 			"/>
			<polygon class="st8" points="1430,222 1611,222 1611,151.4 1662,141.6 1662,268 1559,268 1559,275 1520,275 1518,275 1518,262 
				1494,262 1494,248 1430,248 			"/>
			<polygon class="st8" points="1589,93.4 1589,226 1662,226 1662,142.4 1651,143.8 1651,102.4 			"/>
			<polyline class="st19" points="647,437.5 554.5,437.5 554.5,299.5 633.5,299.5 633.5,285.5 647.5,285.5 647.5,367 			"/>
			<polyline class="st5" points="1650.5,144 1650.5,102.1 1588.9,93.8 1508.5,102.1 1508.5,222 			"/>
			
				<pattern  id="SVGID_8_" xlink:href="#Whitelines" patternTransform="matrix(0.7071 -0.7071 0.5657 0.5657 2189.8215 -8109.0962)">
			</pattern>
			<polygon class="st20" points="1588,222 1588,93.4 1509,102.1 1509,222 			"/>
			<polyline class="st21" points="1031,269.5 1031,269.5 1031,269.5 			"/>
			<polyline class="st21" points="1722.5,280 1722.5,150.6 1661.5,141.9 1610.5,151.6 1610.5,221.5 1503.4,221.5 1431.5,221.5 
				1431.5,198.5 1404.5,198.5 1404.5,188.5 1394.5,188.5 1394.5,169.5 1372.5,169.5 1372.5,152.5 1353.5,152.5 1353.5,111.5 
				1316.1,111.5 1296.5,126.6 1296.5,107.5 1261.5,107.5 1261.5,93.5 1218.5,93.5 1218.5,110.5 1211.5,110.5 1211.5,97.5 
				1167.5,97.5 1167.5,107.5 1142.5,107.5 1142.5,120.5 1122.5,120.5 1122.5,178.5 1078.5,178.5 1078.5,269.5 1031,269.5 
				1031,269.5 			"/>
			<polyline class="st21" points="834.6,377.6 834.8,263.2 840.5,244.5 			"/>
			<g>
				<polygon class="st5" points="745.5,377.5 686.5,377.5 686.5,235.1 720.6,226.5 745.5,226.5 				"/>
				<polygon class="st22" points="720.5,227.1 686.5,235.1 686.5,378.3 720.5,377.9 				"/>
			</g>
			<line class="st5" x1="786.5" y1="90" x2="786.5" y2="356"/>
			<path class="st23" d="M554.8,299.2l-17.3,3.8v134.5H555C555,436.5,554.8,299.2,554.8,299.2z"/>
			<path class="st24" d="M554.8,299.2l-17.3,3.8v134.5H555C555,436.5,554.8,299.2,554.8,299.2z"/>
			<g>
				<path class="st25" d="M934.2,329.6"/>
				<path class="st26" d="M934.2,329.6"/>
			</g>
			<g class="st27">
				<polyline class="st28" points="934,371 934,227 942,227 942,183 950,183 950,171 957,171 957,162 962.3,162 961.9,142.8 
					1009,135.7 1009,155 1023,155 1023,177.8 1030,177.2 1030,363 				"/>
				<polyline class="st25" points="934,371 934,227 942,227 942,183 950,183 950,171 957,171 957,162 962.3,162 961.9,142.8 
					1009,135.7 1009,155 1023,155 1023,177.8 1030,177.2 1030,363 				"/>
				<polyline class="st5" points="934.5,371 934.5,227.5 941.5,227.5 941.5,183.5 950.5,183.5 950.5,170.5 956.5,170.5 956.5,162.5 
					962.3,162.5 962.2,143.1 1009.5,135.7 1009.5,154.5 1022.5,154.5 1022.5,177.8 1030.5,177.2 1030.5,363 				"/>
			</g>
			<g class="st29">
				
					<pattern  id="SVGID_9_" xlink:href="#Whitelines" patternTransform="matrix(0.7071 -0.7071 0.5657 0.5657 2189.8215 -8109.0962)"  class="st29">
				</pattern>
				<polyline class="st30" points="934,371 934,227 942,227 942,183 950,183 950,171 957,171 957,162 962.3,162 961.9,142.8 
					1009,135.7 1009,155 1023,155 1023,177.8 1030,177.2 1030,363 				"/>
				<polyline class="st25" points="934,371 934,227 942,227 942,183 950,183 950,171 957,171 957,162 962.3,162 961.9,142.8 
					1009,135.7 1009,155 1023,155 1023,177.8 1030,177.2 1030,363 				"/>
			</g>
			<polyline class="st8" points="1541,376 1541,336 1505,336 1505,330 1485.7,330 1478,330 1478,339 1453,339 1453,324 1443,324 
				1443,332 1439,332 1439,326 1430,326 1430,333 1323,333 1323,373 			"/>
			
				<pattern  id="SVGID_10_" xlink:href="#Whitelines" patternTransform="matrix(0.7071 -0.7071 0.5657 0.5657 2189.8215 -8109.0962)">
			</pattern>
			<polyline class="st31" points="1612,151 1612,267 1662,267 1662,141 			"/>
			<line class="st32" x1="1221" y1="422.5" x2="1222.3" y2="427.7"/>
			<polygon class="st33" points="745.5,99.1 786.5,89.1 786.5,380.4 745.5,380.5 			"/>
			<polygon class="st34" points="1009.5,120.7 994.5,123.8 994.5,137.4 1009.6,134.9 			"/>
			
				<pattern  id="SVGID_11_" xlink:href="#Whitelines" patternTransform="matrix(0.3382 -0.3382 0.2706 0.2706 -2535.6899 -7737.249)">
			</pattern>
			<polyline class="st35" points="1009,120.6 994,123.8 994,137 			"/>
			<polygon class="st36" points="559.3,381.6 552,381.8 552,377.6 557.4,376.6 			"/>
			
				<pattern  id="SVGID_12_" xlink:href="#Whitelines" patternTransform="matrix(0.8166 -0.7876 0.6533 0.6301 3591.8035 -8264.3857)">
			</pattern>
			<rect x="318" y="145" class="st37" width="45" height="300"/>
			<rect x="-2" y="432" class="st8" width="506" height="13"/>
			<polyline class="st38" points="-2,469.5 1718.4,469.5 2343.5,469.5 2343.5,427.5 2306.5,427.5 2306.5,336.5 2258.5,336.5 
				2258.5,375.5 2153.5,375.5 2153.5,273.5 2087.5,273.5 2087.5,313.5 2063.5,313.5 2063.5,227.9 2029.1,218.4 1993.5,227.9 
				1993.5,287.9 1982.5,298.8 1982.5,77.5 1964.5,77.5 1964.5,60.5 1942.9,60.5 1894.5,70.8 1894.5,105.5 1874.5,105.5 
				1874.5,252.5 1802.5,252.5 1802.5,312.5 1762.5,312.5 1762.5,281.5 1715.5,281.5 1715.5,318.5 1540.5,318.5 1540.5,275.4 
				1517.7,274.9 1518.1,262.4 1494.5,262.9 1494.5,248.5 1430.5,248.5 1430.5,239.5 1388.8,239.5 1389.3,263.2 1350.8,263.6 
				1348.8,369.5 1298.5,369.5 1298.5,266.5 1191.5,266.5 1191.5,339.5 1066.5,339.5 1066.5,359.9 891.5,371.2 891.5,244.5 
				840.5,244.5 840.5,346.5 698.5,346.5 698.5,266.5 651.5,266.5 651.5,358.5 526.5,358.5 526.5,295.5 434.5,295.5 434.5,337.5 
				390.5,337.5 390.5,204.8 367.7,145.5 318.5,145.5 318.5,327.5 267.5,327.5 267.5,273.5 221.5,273.5 221.5,409.5 144.5,409.5 
				144.5,327.5 83.5,327.5 83.5,427.5 -2,427.5 			"/>
		</g>
	</g>
</g>
<g id="front" class="st39">
	<g class="st40">
		<defs>
			<rect id="SVGID_13_" x="-0.1" y="0" width="2342" height="510"/>
		</defs>
		<clipPath id="SVGID_14_">
			<use xlink:href="#SVGID_13_"  style="overflow:visible;"/>
		</clipPath>
		<g class="st41">
			<polygon class="st8" points="1328,373 1328,333 1435,333 1435,326 1444,326 1444,332 1448,332 1448,323.9 1458,324.4 1458,338 
				1483,338 1483,330 1510,330 1510,335 1546,335 1546,373 			"/>
			<polygon class="st42" points="2306.5,427.5 2306.5,335.5 2258.5,335.5 2258.5,374.5 2153.5,374.5 2153.5,272.5 2087.5,272.5 
				2087.5,312.5 2063.5,312.5 2063.5,226.9 2029.1,217.4 1993.5,226.9 1993.5,286.9 1982.5,297.8 1982.5,76.5 1964.5,76.5 
				1964.5,59.5 1942.5,59.5 1894.5,69.8 1894.5,104.5 1874.5,104.5 1874.5,251.5 1802.5,251.5 1802.5,311.5 1762.5,311.5 
				1762.5,280.5 1715.5,280.5 1715.5,317.5 1540.5,317.5 1540.5,274.4 1517.5,273.9 1518,261.4 1494.5,261.9 1494.5,247.5 
				1430.5,247.5 1430.5,238.5 1388.5,238.5 1389,262.2 1350.5,262.6 1348.5,368.5 1298.5,368.5 1298.5,265.5 1191.5,265.5 
				1191.5,338.5 1066.5,338.5 1066.5,358.9 891.5,370.2 891.5,243.5 840.5,243.5 840.5,345.5 698.5,345.5 698.5,265.5 651.5,265.5 
				651.5,357.5 526.5,357.5 526.5,294.5 434.5,294.5 434.5,336.5 390.5,336.5 390.5,203.8 367.6,144.5 318.5,144.5 318.5,326.5 
				267.5,326.5 267.5,272.5 221.5,272.5 221.5,408.5 144.5,408.5 144.5,326.5 83.5,326.5 83.5,426.5 -1.5,426.5 -1.5,468.5 
				1718,468.5 2343.5,468.5 2343.5,427.5 			"/>
			<polygon class="st43" points="2028,218.4 2028,467 2063,467 2063,227.9 			"/>
			<polygon class="st8" points="1894,105 1894,434.4 1876,416 1876,105 			"/>
			<rect x="436" y="296" class="st8" width="89" height="141"/>
			<polygon class="st0" points="1560,266.4 1560,375 1610,375 1643.5,357.9 1663,359.9 1662,267.3 			"/>
			
				<pattern  id="SVGID_15_" xlink:href="#dark_Blue_lines" patternTransform="matrix(0.7071 -0.7071 0.7071 0.7071 3139.5552 -7203.1753)">
			</pattern>
			<polygon class="st44" points="1560,266.4 1560,375 1610,375 1643.5,357.9 1663,359.9 1662,267.3 			"/>
			<pattern  id="SVGID_16_" xlink:href="#Whitelines" patternTransform="matrix(0.6889 -0.75 0.5511 0.6 1895.6816 -8266.8916)">
			</pattern>
			<rect x="389" y="338" class="st45" width="45" height="58"/>
			<polygon class="st8" points="796,447.4 796,407.4 1045,382.2 1045,412.4 			"/>
			<rect x="1805" y="254" class="st0" width="71" height="212"/>
			
				<pattern  id="SVGID_17_" xlink:href="#Whitelines" patternTransform="matrix(0.8166 -0.7876 0.6533 0.6301 3497.7354 -8356.1221)">
			</pattern>
			<polygon class="st46" points="1894,435.4 1943,461.9 1943,64.4 1894,74.6 			"/>
			<polygon class="st8" points="1761,371.6 1717,364.5 1717,281 1761,281 			"/>
			<path class="st8" d="M1981.7,467c0.8-1-0.3-165.9-0.3-165.9l11.6-14.2V467H1981.7z"/>
			<rect x="2153" y="375" class="st43" width="109" height="90"/>
			
				<pattern  id="SVGID_18_" xlink:href="#dark_Blue_lines" patternTransform="matrix(0.7071 -0.7071 0.7071 0.7071 3139.5552 -7203.1753)">
			</pattern>
			<polygon class="st47" points="2151,378 2151,277 2091,277 2091,378.7 2091,398.7 2091,465 2262,465 2262,378 			"/>
			<rect x="144" y="410" class="st8" width="78" height="27"/>
			<polygon class="st6" points="367.7,145.3 370,444.4 389,421.4 389,205.6 			"/>
			<polygon class="st6" points="318,392 267,392 267,325.8 318,359.3 			"/>
			<pattern  id="SVGID_19_" xlink:href="#blue_windows" patternTransform="matrix(0.5 0 0 0.5 -3532.4397 -3800.4275)">
			</pattern>
			<rect x="90" y="335" class="st48" width="48" height="90"/>
			<polygon class="st8" points="1095,327.4 1095,265 1080,265 1080.5,176 1123,176 1123,119 1143,119 1143,106 1168,106 1168,96 
				1212,96 1212,109 1219,109 1219,92 1262,92 1262,106 1298,106 1298,125.1 1317.1,111 1354.5,111 1354,151 1373,151 1373,168 
				1396,168 1396,188 1405.5,188 1405,197 1432,197 1432,219.4 1432,238 1389,238 1389,262 1349,262 1349,328 1326,328 1326,362 
				1095,362 			"/>
			<path class="st49" d="M720.5,325v-96.5h22v147v-39h44l-0.2-248.9l49.3,9.6v241.3h57v-70h131v-91h-6V159v-9l-7,7.2V135v-15.5h37
				v19h10v9h18v17h12V320v69l-46.5-26.1l-282.7,15.8c0,0-24.7-3.2-37.7-1.8L720.5,325z"/>
			<pattern  id="SVGID_20_" xlink:href="#Whitelines" patternTransform="matrix(0.6889 -0.75 0.5511 0.6 1895.6816 -8266.8916)">
			</pattern>
			<polygon class="st50" points="786.1,87.7 834.2,97.7 835.7,372 786,372 			"/>
			<polygon class="st8" points="1430,221 1611,221 1611,150.4 1662,140.6 1662,267 1559,267 1559,274 1520,274 1518,274 1518,261 
				1494,261 1494,247 1430,247 			"/>
			<polygon class="st8" points="1589,92.4 1589,225 1662,225 1662,141.4 1651,142.8 1651,101.4 			"/>
			<path class="st51" d="M627,43.5h-6.5c0,0,0-0.9,0-1.8c0-0.9-0.4-1.2-0.4-1.2h-1.5l-1.5-27.2l-1.5,27.2h-1.5c0,0-1.7,0.3-1.7,1.2
				c0,0.9,0,1.8,0,1.8h-5.3c0,0-1.7,0.9-1.7,2.1s0,1.9,0,1.9s11-0.6,22,0c0,0,0-0.7,0-1.9S627,43.5,627,43.5z"/>
			<path class="st52" d="M618.5,60c20.1,0,35.5,2.9,35.5,2.9s-16.8-5.5-20.3-7c-4.6-1.9-5.6-4.3-5.6-4.3l4.6-3.9
				c-0.9-1.7-15.1-1.7-15.1-1.7h-1.5c0,0-14.2,0-15.1,1.7l4.6,3.8c0,0-0.8,2.4-5.6,4.3c-3.6,1.4-20.3,7-20.3,7S595,60,615,60H618.5z
				"/>
			<g>
				<path class="st8" d="M653.9,63.1c-0.2,0-15.6-3.1-35.4-3.1H615c-19.8,0-35.2,3.1-35.4,3.1l-0.2-0.8c0.2-0.1,16.8-5.5,20.3-6.9
					c3.6-1.4,4.8-3,5.2-3.7l-4.6-3.8l0.2-0.2c0.8-1.6,8.7-1.7,15.2-1.7h2c6.5,0,14.4,0.2,15.2,1.7l0.2,0.3l-4.6,3.7
					c0.4,0.7,1.8,2.3,5.2,3.7c3.5,1.4,20.1,6.8,20.3,6.8L653.9,63.1z"/>
				<path class="st1" d="M617.8,46c2,0,14,0.2,14.8,1.7l-4.6,3.8c0,0,1,2.4,5.6,4.3c3.6,1.5,20.3,7,20.3,7S638.6,60,618.5,60H615
					c-20.1,0-35.5,2.9-35.5,2.9s16.7-5.6,20.3-7c4.8-1.9,5.6-4.3,5.6-4.3l-4.6-3.9c0.8-1.6,12.8-1.7,14.8-1.7c0.2,0,0.3,0,0.3,0h1.5
					h0.5 M617.8,45h-0.3h-1.4h-0.3c-14.5,0-15.4,1.7-15.7,2.3l-0.4,0.8l0.6,0.5l3.9,3.2c-0.5,0.7-1.8,2-4.7,3.1
					c-3.5,1.4-20.1,6.9-20.3,7l0.5,1.9c0.2,0,15.5-2.8,35.3-2.8h3.5c19.7,0,35.1,2.8,35.3,2.8l0.5-1.9c-0.2-0.1-16.8-5.5-20.3-7
					c-2.7-1.1-4.1-2.4-4.7-3.2l3.9-3.2l0.6-0.5l-0.4-0.8C633.2,46.7,632.4,45,617.8,45L617.8,45z"/>
			</g>
			
				<pattern  id="SVGID_21_" xlink:href="#Whitelines" patternTransform="matrix(0.3044 -0.3044 0.2435 0.2435 -3105.0679 -7691.144)">
			</pattern>
			<path class="st53" d="M620.1,58.9c8.1,0.1,15.3,0.7,20.9,1.3c-4-1.4-8-2.7-9.5-3.4c-4.9-2-6.1-4.6-6.2-4.9l-0.3-0.7l3.9-3.2
				c-2.2-0.5-7.1-0.8-12.7-0.8L620.1,58.9z"/>
			<path class="st54" d="M571.6,70.1c11.8-1.4,25.7-2.2,40.7-2.2c19.1,0,36.7,1.3,50.2,3.5c0,0-2.9-1.5-4-2.1c-1.1-0.6-5.1-2-5.1-2
				l0.7-4c-10.8-1.8-23.5-2.9-37-2.9c-13.7,0-26.5,1.1-37.3,2.9l0.6,3.5C580.3,66.9,574.7,68.3,571.6,70.1z"/>
			<path class="st55" d="M648.6,80.8c-18.6-2-19.5-3.2-31.8-3.2c-12.7-0.1-13.3,1.1-31.2,2l-2.3-7c4.6-0.3,18.9-1.3,33.5-1.1
				c13.3,0.1,26.8,1.1,33.5,1.6L648.6,80.8z"/>
			<path class="st56" d="M636.4,85.2c-5.6-0.9-12.6-1.5-20.3-1.5c-6,0-11.7,0.3-16.6,0.9"/>
			<path class="st57" d="M597.4,61.2l0.5,4.4c1.6-0.1,3.2-0.1,4.9-0.2l-0.3-4.5C600.8,61,599.1,61.1,597.4,61.2z"/>
			<path class="st57" d="M607.5,60.6l0.2,4.6c1.6,0,3.2-0.1,4.9-0.1l-0.1-4.6C610.9,60.6,609.2,60.6,607.5,60.6z"/>
			<path class="st57" d="M602.4,60.9l0.3,4.5c1.6-0.1,3.2-0.1,4.9-0.2l-0.2-4.6C605.8,60.7,604.1,60.8,602.4,60.9z"/>
			<path class="st57" d="M587.3,62.2l0.7,3.9c1.5-0.1,3.1-0.2,4.9-0.3l-0.6-4.2C590.7,61.8,589,62,587.3,62.2z"/>
			<path class="st57" d="M592.3,61.6l0.6,4.2c1.5-0.1,3.2-0.2,4.9-0.2l-0.5-4.4C595.7,61.3,594,61.5,592.3,61.6z"/>
			<path class="st57" d="M579.7,63.2l0.6,3.5c0,0,1-0.1,2.8-0.2l-0.8-3.6C581.4,63,580.5,63.1,579.7,63.2z"/>
			<path class="st57" d="M582.3,62.8l0.8,3.6c1.3-0.1,2.9-0.2,4.9-0.4l-0.7-3.9C585.6,62.4,584,62.6,582.3,62.8z"/>
			<path class="st58" d="M612.5,60.5l0.1,4.6c1.6,0,2.9,0,4.9,0v-4.6C615.5,60.5,614.2,60.5,612.5,60.5z"/>
			<path class="st58" d="M617.5,60.5v4.6c2,0,4.1,0,6.2,0l0.1-4.5C621.8,60.6,619.5,60.5,617.5,60.5z"/>
			<path class="st57" d="M654,63.2c0,0-1.8-0.3-5.1-0.7l-0.7,4c1.7,0.2,3.5,0.4,5.1,0.7L654,63.2z"/>
			<path class="st57" d="M638.9,61.4l-0.5,4.2c1.6,0.1,3.3,0.2,4.9,0.4l0.6-4.1C642.4,61.7,640.7,61.6,638.9,61.4z"/>
			<path class="st57" d="M643.9,61.9l-0.6,4.1c1.6,0.1,3.3,0.3,4.9,0.5l0.7-4C647.5,62.3,645.8,62.1,643.9,61.9z"/>
			<path class="st57" d="M633.8,61.1l-0.3,4.3c1.6,0.1,3.3,0.2,4.9,0.3l0.5-4.2C637.3,61.3,635.6,61.2,633.8,61.1z"/>
			<path class="st57" d="M623.8,60.6l-0.1,4.5c1.6,0,3.3,0.1,4.9,0.1l0.2-4.4C627.2,60.7,625.5,60.7,623.8,60.6z"/>
			<path class="st57" d="M628.8,60.8l-0.2,4.4c1.6,0,3.3,0.1,4.9,0.2l0.3-4.3C632.2,61,630.6,60.9,628.8,60.8z"/>
			<path class="st59" d="M612.5,83.6c-1-2-1.8-4.7-2.1-6c-1.4,0-2.8,0.1-4.2,0.1c0.6,1.3,1.9,4,3.6,5.9
				C610.7,83.7,611.6,83.6,612.5,83.6z"/>
			<path class="st59" d="M606.9,83.8c0.9-0.1,1.9-0.1,2.9-0.1c-1.6-1.9-3-4.6-3.6-5.9c-1.6,0.1-3.1,0.1-4.6,0.2
				C602.1,78.8,604.2,81.8,606.9,83.8z"/>
			<path class="st59" d="M615.4,83.6c-0.3-2-0.6-4.7-0.7-5.9c-0.1,0-0.3,0-0.4,0c-1.3,0-2.6,0-3.9,0c0.3,1.2,1.1,4,2.1,6
				C613.5,83.6,614.4,83.6,615.4,83.6z"/>
			<path class="st59" d="M604.3,84c-3.3-1.9-5.9-4.7-6.9-5.8c-1.3,0.1-2.7,0.2-3.9,0.3c1.4,1.3,4.6,3.9,8.5,5.7
				C602.8,84.1,603.5,84.1,604.3,84z"/>
			<path class="st59" d="M602,84.2c-3.9-1.7-7.1-4.4-8.5-5.7c-1.6,0.1-3.1,0.3-4.6,0.5c1.5,1,5.6,3.8,10.8,5.4
				C600.4,84.4,601.2,84.3,602,84.2z"/>
			<path class="st59" d="M604.3,84c0.8-0.1,1.7-0.1,2.5-0.2c-2.7-2.1-4.8-5.1-5.3-5.9c-1.4,0.1-2.8,0.2-4.1,0.3
				C598.4,79.3,601.1,82.1,604.3,84z"/>
			<path class="st59" d="M615.6,83.6c0.9,0,1.8,0,2.6,0c0.3-2,0.6-4.7,0.7-5.9c-1.4,0-2.8,0-4.3,0c0.1,1.2,0.4,3.9,0.7,5.9
				C615.5,83.6,615.5,83.6,615.6,83.6z"/>
			<path class="st59" d="M633.4,84.7c5.2-1.5,9.5-4,11.2-5c-1.4-0.2-2.8-0.4-4.2-0.6c-1.3,1.1-4.8,3.7-9,5.3
				C632.1,84.5,632.8,84.6,633.4,84.7z"/>
			<path class="st59" d="M628.9,84.2c0.8,0.1,1.7,0.2,2.5,0.3c4.2-1.7,7.6-4.3,9-5.3c-1.5-0.2-3-0.3-4.6-0.5
				C634.5,79.9,632,82.5,628.9,84.2z"/>
			<path class="st59" d="M621.1,83.7c1-1.9,1.8-4.6,2.1-5.9c-1.4-0.1-2.8-0.1-4.2-0.1c-0.1,1.2-0.4,3.9-0.7,5.9
				C619.2,83.6,620.1,83.6,621.1,83.7z"/>
			<path class="st59" d="M635.2,85c7.5-1.5,13.6-4.1,14.4-4.5c-1.6-0.3-3.3-0.6-5-0.8c-1.7,1-6,3.5-11.2,5
				C634,84.8,634.6,84.9,635.2,85z"/>
			<path class="st59" d="M580.2,80.3c0,0,3.9,2.7,16.8,4.3c-5.6-1.6-10.1-4-12-5C583.4,79.7,581.8,80,580.2,80.3z"/>
			<path class="st59" d="M598.6,84.6c0.3,0,0.7-0.1,1-0.1c-5.1-1.7-9.3-4.4-10.8-5.4c-1.3,0.1-2.5,0.3-3.8,0.5c1.8,1,6.3,3.5,12,5
				c1.3,0.2,2.7,0.3,4.2,0.4c-0.6-0.2-1.1-0.3-1.6-0.5C599.3,84.5,598.9,84.6,598.6,84.6z"/>
			<path class="st59" d="M623.8,83.8c1.6-1.9,2.9-4.4,3.6-5.8c-1.4-0.1-2.8-0.1-4.2-0.2c-0.4,1.3-1.2,4-2.1,5.9
				C622,83.7,622.9,83.8,623.8,83.8z"/>
			<path class="st59" d="M626.5,84c0.8,0.1,1.6,0.1,2.4,0.2c3.1-1.7,5.6-4.2,6.8-5.6c-1.3-0.1-2.6-0.2-4-0.3
				C631,79.4,629,82.1,626.5,84z"/>
			<path class="st59" d="M626.5,84c2.5-1.9,4.5-4.6,5.3-5.7c-1.5-0.1-2.9-0.2-4.5-0.3c-0.6,1.4-2,4-3.6,5.8
				C624.7,83.9,625.6,83.9,626.5,84z"/>
			<path class="st59" d="M604.3,84c1,0.6,2,1.1,3.1,1.4c0.8,0,1.6,0.1,2.4,0.1c-1-0.4-2-1-2.9-1.7C606,83.9,605.2,83.9,604.3,84z"/>
			<path class="st59" d="M631.4,84.5c-1.1,0.4-2.3,0.8-3.6,1.1c0.9,0,1.8-0.1,2.6-0.1c1-0.2,2-0.4,2.9-0.7
				C632.8,84.6,632.1,84.5,631.4,84.5z"/>
			<path class="st59" d="M628.9,84.2c-1.1,0.6-2.3,1.1-3.4,1.4c0.8,0,1.6,0,2.3-0.1c1.2-0.3,2.4-0.6,3.6-1.1
				C630.6,84.4,629.8,84.3,628.9,84.2z"/>
			<path class="st59" d="M626.5,84c-1,0.7-2,1.3-3.1,1.7c0.7,0,1.4,0,2.1,0c1.2-0.3,2.4-0.8,3.4-1.4C628.2,84.1,627.4,84,626.5,84z"
				/>
			<path class="st59" d="M623.8,83.8c-0.7,0.8-1.5,1.5-2.3,1.9c0.7,0,1.3,0,2,0c1.1-0.3,2.1-0.9,3.1-1.7
				C625.6,83.9,624.7,83.9,623.8,83.8z"/>
			<path class="st59" d="M652.8,81.1c-1-0.2-2.1-0.4-3.2-0.6c-0.9,0.4-6.9,3-14.4,4.5c0.2,0,0.4,0.1,0.6,0.1
				C650.5,83.8,652.8,81.1,652.8,81.1z"/>
			<path class="st59" d="M633.9,85.2c0.6,0,1.3-0.1,1.9-0.1c-0.2,0-0.4-0.1-0.6-0.1C634.8,85.1,634.3,85.1,633.9,85.2z"/>
			<path class="st59" d="M599.6,84.5c0.5,0.2,1.1,0.3,1.6,0.5c1.1,0.1,2.3,0.2,3.5,0.3c-0.9-0.3-1.9-0.6-2.7-1
				C601.2,84.3,600.4,84.4,599.6,84.5z"/>
			<path class="st59" d="M633.4,84.7c-0.9,0.3-1.9,0.5-2.9,0.7c1.2-0.1,2.3-0.1,3.4-0.2c0.4-0.1,0.9-0.2,1.3-0.2
				C634.6,84.9,634,84.8,633.4,84.7z"/>
			<path class="st59" d="M623.8,83.8c-0.9,0-1.8-0.1-2.7-0.1c-0.5,0.9-0.9,1.6-1.5,2c0.6,0,1.3,0,1.9,0
				C622.3,85.3,623.1,84.6,623.8,83.8z"/>
			<path class="st59" d="M609.7,83.7c-1,0-1.9,0.1-2.9,0.1c0.9,0.7,1.9,1.3,2.9,1.7c0.7,0,1.4,0.1,2.2,0.1
				C611.2,85.2,610.4,84.5,609.7,83.7z"/>
			<path class="st59" d="M602,84.2c0.9,0.4,1.8,0.8,2.7,1c0.9,0.1,1.7,0.1,2.7,0.2c-1.1-0.3-2.1-0.8-3.1-1.4
				C603.5,84.1,602.8,84.1,602,84.2z"/>
			<path class="st59" d="M612.5,83.6c-0.9,0-1.9,0-2.8,0.1c0.7,0.8,1.4,1.5,2.2,1.9c0.7,0,1.3,0,2,0C613.5,85.2,613,84.5,612.5,83.6
				z"/>
			<path class="st59" d="M621.1,83.7c-0.9,0-1.9-0.1-2.8-0.1c-0.2,0.9-0.3,1.7-0.5,2.1c0.4,0,0.8,0,1.2,0c0.2,0,0.4,0,0.7,0
				C620.1,85.3,620.6,84.6,621.1,83.7z"/>
			<path class="st59" d="M612.5,83.6c0.4,0.9,0.9,1.6,1.4,2c0.6,0,1.3,0,1.9,0c-0.2-0.4-0.3-1.2-0.5-2.1
				C614.4,83.6,613.5,83.6,612.5,83.6z"/>
			<path class="st59" d="M615.6,83.6c-0.1,0-0.1,0-0.2,0c0.2,0.9,0.3,1.7,0.5,2.1c0.6,0,1.2,0,1.9,0c0.2-0.4,0.3-1.2,0.5-2.1
				C617.4,83.6,616.5,83.6,615.6,83.6z"/>
			<path class="st59" d="M601.7,68.2l1.9,3.1c1.6,0,3.2-0.1,4.9-0.1l-1.2-3.1C605.3,68.1,603.5,68.1,601.7,68.2z"/>
			<path class="st59" d="M607.2,68.1l1.2,3.1c1.6,0,3.2,0,4.8,0l-0.6-3.1C610.8,68,608.9,68,607.2,68.1z"/>
			<path class="st59" d="M596.2,68.4l2.5,3c1.6-0.1,3.2-0.1,4.9-0.2l-1.9-3.1C599.8,68.2,598,68.3,596.2,68.4z"/>
			<path class="st59" d="M580,69.5l3.9,2.7c1.3-0.1,2.9-0.2,4.9-0.3l-3.5-2.9C583.5,69.2,581.8,69.3,580,69.5z"/>
			<path class="st59" d="M572.4,70.2c0,0,6.4,2.2,10.3,2c0.4,0,0.8,0,1.2-0.1l-3.9-2.7C577.5,69.7,574.9,70,572.4,70.2z"/>
			<path class="st59" d="M590.7,68.7l3,3c1.5-0.1,3.2-0.1,4.9-0.2l-2.5-3C594.3,68.5,592.5,68.6,590.7,68.7z"/>
			<path class="st51" d="M618.5,68.1v3V68.1c-2,0-3.4,0-5.1,0c-0.3,0-0.5,0-0.8,0l0.6,3.1c1,0,2,0,3.1,0c2.4,0,4.8,0.1,7.1,0.1
				l0.6-3.1C622.2,68.1,620.5,68.1,618.5,68.1z"/>
			<path class="st59" d="M585.3,69l3.5,2.9c1.5-0.1,3.1-0.2,4.9-0.3l-3-3C588.9,68.8,587.1,68.9,585.3,69z"/>
			<path class="st59" d="M651.7,69.9l-3.3,2.7c1.4,0.1,2.6,0.2,3.5,0.3c0,0,0.7,0,1.7,0l3.4-2.4C655.3,70.3,653.5,70.1,651.7,69.9z"
				/>
			<path class="st59" d="M646.2,69.4l-2.9,2.9c1.9,0.1,3.6,0.3,5.1,0.4l3.3-2.7C649.9,69.7,648.1,69.5,646.2,69.4z"/>
			<path class="st59" d="M663.7,71.4c-2.2-0.3-4.4-0.6-6.7-0.9l-3.4,2.4c1.9,0,5.3-0.2,8.9-0.9L663.7,71.4z"/>
			<path class="st59" d="M640.7,68.9l-2.3,3c1.8,0.1,3.5,0.2,5.1,0.3l2.9-2.9C644.4,69.2,642.5,69.1,640.7,68.9z"/>
			<path class="st59" d="M629.5,68.3l-1.2,3.1c1.7,0.1,3.4,0.1,5,0.2l1.8-3C633.2,68.5,631.4,68.4,629.5,68.3z"/>
			<path class="st59" d="M635.1,68.6l-1.8,3c1.7,0.1,3.4,0.2,5,0.3l2.3-3C638.8,68.8,637,68.7,635.1,68.6z"/>
			<path class="st59" d="M624,68.2l-0.6,3.1c1.7,0,3.3,0.1,4.9,0.2l1.2-3.1C627.7,68.3,625.8,68.2,624,68.2z"/>
			<path class="st60" d="M630.3,249.1l-5.4-66.6c0,0-1.7-20.3-1.7-30.5s1.2-25.2,2-31c0.8-5.8,5.5-35.2,5.5-35.2l-1.9,0.3l-7.2,44.7
				c0-2.6,0.1-4.1,0.2-5.1c0.6-4.8,5.1-38.8,5.1-38.8h-1.6l-4.6,32.5c0,0-0.9,4.7-3,4.7c-2.1,0-2.6-9.2-2.6-9.2l-1.9-28.8l-2-0.1
				l2.3,36.3c0,0,0.2,22.8,0,31.4c-0.1,3.9,0.3,35.3,0.8,68.3h-9.8c1.4-12,5.8-50.5,5.8-56.7c0-7.4-0.8-43.7-1.6-51.9
				s-2.5-27.2-2.5-27.2l-5.5-0.4c0,0,7.3,45.5,7.3,50.7s1.1,19.4-1.1,42.3c-0.7,7.7-16.2,125.1-16.2,125.1h4.5l8.9-78c0,0,0,0,0,0
				h10.3c0.5,39,1.2,79,1.2,79h2.2l-0.1-16h5.4l0.6,16h2.6l-0.5-16h4.3v-1.1l2,13.1h2.5L630.3,249.1z M621.8,173.1 M616.7,191.4
				c0-3.8,0-13,1.4-15.4c0,0,1.5,3.5,1.6,9c0.1,5.4,1,36.1,1,36.1l0,0.9h-3.7C616.9,209,616.7,193.5,616.7,191.4z M617.1,226h3.7
				l0.5,13h-4C617.3,237,617.2,232,617.1,226z M617.4,242h4.1l0.5,13h-4.5L617.4,242z M616,286v-0.7l1.5-28.3h4.5l1,29H616z
				 M623.5,222c-0.4-10-1.5-38.9-1.7-48.6l2.9,36.1l1,12.5H623.5z M623.6,226h2.3l1.1,13h-3L623.6,226z M625.6,286l-0.9-29h2.3v-2
				h-2.4l-0.4-13h3.1l1.1,13l2.5,31H625.6z"/>
			<path class="st8" d="M629.8,249.9l-5.4-66.8c0,0-1.7-20.4-1.7-30.5s1.2-25.2,2-31c0.8-5.8,5.5-35.3,5.5-35.3l-1.9,0.3l-7.2,44.7
				c0-2.6,0.1-3.9,0.2-4.8c0.6-4.8,5.1-38.5,5.1-38.5h-1.6l-4.6,32.3c0,0-0.9,4.5-3,4.5c-2.1,0-2.6-9.3-2.6-9.3l-1.9-28.8l-2-0.2
				l2.3,36.3c0,0,0.2,23,0,31.7c-0.1,3.9,0.3,35.5,0.8,68.5h-9.8c1.4-12,5.8-50.8,5.8-57c0-7.4-0.8-43.8-1.6-52s-2.5-27.2-2.5-27.2
				l-5.5-0.4c0,0,7.3,45.5,7.3,50.7s1.1,19.6-1.1,42.6c-0.7,7.7-16.2,125.4-16.2,125.4h4.5l8.9-78c0,0,0,0,0,0h10.3
				c0.5,39,1.2,79,1.2,79h2.2l-0.1-16h5.4l0.6,16h2.6l-0.5-15.8l4.6-0.1l1.8,11.9h2.5L629.8,249.9z M621.3,173.6 M616.2,192.1
				c0-3.8,0-13.1,1.4-15.5c0,0,1.5,3.5,1.6,8.9c0.1,5.4,1,36.3,1,36.3l0,1.2h-3.7C616.4,210,616.2,194.2,616.2,192.1z M616.6,227
				h3.7l0.5,13h-4C616.8,238,616.7,233,616.6,227z M616.9,243h4.1l0.5,13h-4.5L616.9,243z M617.2,258.4l4.2-0.1l1,29l-5.6-0.3
				L617.2,258.4z M623,223c-0.4-10-1.5-39.1-1.7-48.8l2.9,36.2l1,12.6H623z M623.1,227h2.3l1.1,13h-3L623.1,227z M625.1,287l-0.9-29
				h4.8v-2h-4.9l-0.4-13h3.1l1.1,13l2.5,31H625.1z"/>
			<polyline class="st61" points="647,436.5 554.5,436.5 554.5,298.5 633.5,298.5 633.5,284.5 647.5,284.5 647.5,366 			"/>
			<polyline class="st5" points="1650.5,143 1650.5,101.1 1588.9,92.8 1508.5,101.1 1508.5,221 			"/>
			
				<pattern  id="SVGID_22_" xlink:href="#Whitelines" patternTransform="matrix(0.7071 -0.7071 0.5657 0.5657 2108.3628 -8191.5547)">
			</pattern>
			<polygon class="st62" points="1588,221 1588,92.4 1509,101.1 1509,221 			"/>
			<polyline class="st63" points="835.7,376.6 835.9,262.2 842.3,242.5 893.2,242.5 893.5,267.5 893.5,267.5 939.8,267.5 
				982.3,267.5 1079.5,267.5 1079.5,177.5 1123.5,177.5 1123.5,119.5 1143.5,119.5 1143.5,106.5 1168.5,106.5 1168.5,96.5 
				1212.5,96.5 1212.5,109.5 1219.5,109.5 1219.5,92.5 1262.5,92.5 1262.5,106.5 1297.5,106.5 1297.5,125.6 1317.1,110.5 
				1354.5,110.5 1354.5,151.5 1373.5,151.5 1373.5,168.5 1395.5,168.5 1395.5,187.5 1405.5,187.5 1405.5,197.5 1432.5,197.5 
				1432.5,220.5 1504.4,220.5 1611.5,220.5 1611.5,150.6 1662.5,140.9 1723.5,149.6 1723.5,279 			"/>
			<polygon class="st5" points="745.5,376.5 686.5,376.5 686.5,234.1 720.6,225.5 745.5,225.5 			"/>
			<polygon class="st64" points="720.5,226.1 686.5,234.1 686.5,377.3 720.5,376.9 			"/>
			<line class="st5" x1="786.5" y1="89" x2="786.5" y2="355"/>
			<path class="st23" d="M554.8,298.2l-17.3,3.8v134.5H555C555,435.5,554.8,298.2,554.8,298.2z"/>
			<path class="st65" d="M554.8,298.2l-17.3,3.8v134.5H555C555,435.5,554.8,298.2,554.8,298.2z"/>
			<polygon class="st5" points="562.5,436.5 525.5,436.5 525.5,386 546.7,381.5 562.5,381.5 			"/>
			<polygon class="st64" points="546.5,381.4 525.5,386 525.5,436.5 546.5,436.5 			"/>
			<polygon class="st66" points="521.5,392.2 504.5,395.8 504.5,436.5 521.5,436.5 			"/>
			<polyline class="st5" points="647,436.5 551.5,436.5 551.5,376.2 576.1,370.5 646.5,370.5 646.5,376 			"/>
			<polygon class="st5" points="667.5,376.5 667.5,376.6 668.1,376.5 666.5,376.5 666.5,376.7 625.5,380 625.5,380.6 625.5,389.5 
				603.5,391.1 603.5,391.7 603.5,400.6 590.5,401.7 590.5,402.3 590.5,435.9 647,437.9 715.3,429 715.5,428.4 715.5,376.5 			"/>
			<polyline class="st5" points="667,376.5 715.5,376.5 715.5,427.9 647.1,437.9 620.5,437.1 620.5,401 			"/>
			<polyline class="st67" points="647.5,379 668.1,377.3 668.1,387 626.9,390 626.9,380.6 647.5,379 			"/>
			<polygon class="st68" points="646.9,388.6 646.9,397.7 603.7,401.3 603.5,391.1 			"/>
			<polygon class="st68" points="620.7,399.9 620.7,437.2 591.9,437.2 591.9,402.3 			"/>
			<g>
				<polygon class="st51" points="1050.5,379.5 1050.5,415.8 790.5,451 790.5,403.5 				"/>
				<polygon class="st51" points="1050.5,372.8 1050.5,379.5 792.6,404.5 782.5,404.5 782.5,394.8 				"/>
				<path class="st51" d="M1042.8,365.9l10,7.3l-268.5,22.3h-13.1c0-7-8.8-14.1-15.6-14.1L1042.8,365.9z"/>
			</g>
			<g>
				<g>
					<rect x="688" y="404" class="st8" width="104" height="47"/>
					<rect x="688" y="404" class="st25" width="104" height="47"/>
					<rect x="688.5" y="403.5" class="st5" width="103" height="47"/>
				</g>
				<g>
					<rect x="696" y="395" class="st8" width="88" height="9"/>
					<rect x="696" y="395" class="st25" width="88" height="9"/>
					<rect x="695.5" y="394.5" class="st5" width="89" height="9"/>
				</g>
				<g>
					<path class="st8" d="M771.2,395h-53.7c0-9,12-15.3,26.9-15.3S771.2,386,771.2,395z"/>
					<path class="st25" d="M771.2,395h-53.7c0-9,12-15.3,26.9-15.3S771.2,386,771.2,395z"/>
					<path class="st5" d="M771.2,394.5h-53.7c0-8,12-15.3,26.9-15.3S771.2,386.5,771.2,394.5z"/>
				</g>
				<ellipse class="st51" cx="744.3" cy="387.4" rx="3.2" ry="4.3"/>
			</g>
			<g>
				<path class="st25" d="M934.2,328.6"/>
				<path class="st26" d="M934.2,328.6"/>
			</g>
			<g>
				<polyline class="st69" points="934,370 934,226 942,226 942,182 950,182 950,170 957,170 957,161 962.3,161 961.9,141.8 
					1009,134.7 1009,154 1023,154 1023,176.8 1030,176.2 1030,362 				"/>
				<polyline class="st25" points="934,370 934,226 942,226 942,182 950,182 950,170 957,170 957,161 962.3,161 961.9,141.8 
					1009,134.7 1009,154 1023,154 1023,176.8 1030,176.2 1030,362 				"/>
				<polyline class="st5" points="934.5,370 934.5,226.5 941.5,226.5 941.5,182.5 950.5,182.5 950.5,169.5 956.5,169.5 956.5,161.5 
					962.3,161.5 962.2,142.1 1009.5,134.7 1009.5,153.5 1022.5,153.5 1022.5,176.8 1030.5,176.2 1030.5,362 				"/>
			</g>
			<g class="st70">
				
					<pattern  id="SVGID_23_" xlink:href="#Whitelines" patternTransform="matrix(0.7071 -0.7071 0.5657 0.5657 2108.3628 -8191.5547)"  class="st70">
				</pattern>
				<polyline class="st71" points="934,370 934,226 942,226 942,182 950,182 950,170 957,170 957,161 962.3,161 961.9,141.8 
					1009,134.7 1009,154 1023,154 1023,176.8 1030,176.2 1030,362 				"/>
				<polyline class="st25" points="934,370 934,226 942,226 942,182 950,182 950,170 957,170 957,161 962.3,161 961.9,141.8 
					1009,134.7 1009,154 1023,154 1023,176.8 1030,176.2 1030,362 				"/>
			</g>
			<polyline class="st8" points="1546,374 1546,335 1510,335 1510,330 1490.7,330 1483,330 1483,338 1458,338 1458,324 1448,324 
				1448,332 1444,332 1444,326 1435,326 1435,333 1328,333 1328,371 			"/>
			
				<pattern  id="SVGID_24_" xlink:href="#Whitelines" patternTransform="matrix(0.7071 -0.7071 0.5657 0.5657 2108.3628 -8191.5547)">
			</pattern>
			<polyline class="st72" points="1546,374 1546,335 1510,335 1510,330 1490.7,330 1483,330 1483,338 1458,338 1458,324 1448,324 
				1448,332 1444,332 1444,326 1435,326 1435,333 1328,333 1328,371 			"/>
			<polyline class="st5" points="1546.5,390 1546.5,334.5 1510.5,334.5 1510.5,329.5 1490.7,329.5 1483.5,329.5 1483.5,337.5 
				1458.5,337.5 1458.5,323.5 1448.5,323.5 1448.5,331.5 1444.5,331.5 1444.5,325.5 1435.5,325.5 1435.5,332.5 1328.5,332.5 
				1328.5,371 			"/>
			<polygon class="st5" points="1652.5,373.5 1315.5,373.5 1306.5,390.5 1652.5,390.5 			"/>
			<rect x="1306.5" y="390.5" class="st5" width="346" height="34"/>
			<rect x="1339.5" y="424.5" class="st5" width="282" height="41"/>
			<polyline class="st8" points="1677.7,371.4 1836.4,389.4 1836.4,399.4 1678.1,386.7 1678.1,374.1 			"/>
			<polygon class="st1" points="1836.4,389.4 1677.4,372.4 1644.8,357.4 1823.5,377.9 1646.3,358.1 1677.7,371.4 			"/>
			<polygon class="st1" points="1836.5,399.4 1677,386.6 1677,371 1678,371 1678,385.5 			"/>
			
				<pattern  id="SVGID_25_" xlink:href="#Whitelines" patternTransform="matrix(0.7071 -0.7071 0.5657 0.5657 2108.3628 -8191.5547)">
			</pattern>
			<polygon class="st73" points="1847,465 1723,465 1723,409.9 1847,412 			"/>
			<polygon class="st74" points="1678.5,386.7 1837.4,399.4 1851.4,412 1729,410.4 			"/>
			<polygon class="st1" points="1826.5,412.2 1728,410.2 1729.3,409 1847,412 			"/>
			<polygon class="st5" points="1619.5,398.5 1345.1,398.5 1337.6,424.5 1619.5,424.5 			"/>
			<polyline class="st5" points="1662,266.5 1596.9,266.5 1559.5,266.5 1559.5,273.5 1551.9,273.5 1517.5,273.5 1517.5,261.5 
				1494.5,261.5 1494.5,247.5 1430.5,247.5 1430.5,238.5 1388.5,238.5 1388.5,262.5 1350.5,262.5 1350.5,333 			"/>
			<line class="st5" x1="1662.5" y1="359" x2="1662.5" y2="267"/>
			
				<use xlink:href="#New_Symbol"  width="16" height="14.1" id="XMLID_1_" x="-9" y="-6.1" transform="matrix(0.7785 0 0 -0.7785 1293.3346 111.8511)" style="overflow:visible;"/>
			
				<use xlink:href="#New_Symbol"  width="16" height="14.1" id="XMLID_9_" x="-9" y="-6.1" transform="matrix(0.7785 0 0 -0.7785 1250.8643 86.8685)" style="overflow:visible;"/>
			
				<use xlink:href="#New_Symbol"  width="16" height="14.1" id="XMLID_10_" x="-9" y="-6.1" transform="matrix(0.7785 0 0 -0.7785 1200.899 70.6298)" style="overflow:visible;"/>
			
				<use xlink:href="#New_Symbol"  width="16" height="14.1" id="XMLID_2_" x="-9" y="-6.1" transform="matrix(0.7785 0 0 -0.7785 1328.3102 150.574)" style="overflow:visible;"/>
			
				<use xlink:href="#New_Symbol"  width="16" height="14.1" id="XMLID_3_" x="-9" y="-6.1" transform="matrix(0.7785 0 0 -0.7785 1350.7946 200.5392)" style="overflow:visible;"/>
			
				<use xlink:href="#New_Symbol"  width="16" height="14.1" id="XMLID_4_" x="-9" y="-6.1" transform="matrix(0.7785 0 0 -0.7785 1357.0402 250.5043)" style="overflow:visible;"/>
			
				<use xlink:href="#New_Symbol"  width="16" height="14.1" id="XMLID_5_" x="-9" y="-6.1" transform="matrix(0.7785 0 0 -0.7785 1349.5454 302.9677)" style="overflow:visible;"/>
			
				<use xlink:href="#New_Symbol"  width="16" height="14.1" id="XMLID_6_" x="-9" y="-6.1" transform="matrix(0.7785 0 0 -0.7785 1332.0576 345.4381)" style="overflow:visible;"/>
			
				<use xlink:href="#New_Symbol"  width="16" height="14.1" id="XMLID_7_" x="-9" y="-6.1" transform="matrix(0.7785 0 0 -0.7785 1299.5802 384.1611)" style="overflow:visible;"/>
			
				<use xlink:href="#New_Symbol"  width="16" height="14.1" id="XMLID_20_" x="-9" y="-6.1" transform="matrix(-0.7785 0 0 -0.7785 1061.4673 110.6019)" style="overflow:visible;"/>
			
				<use xlink:href="#New_Symbol"  width="16" height="14.1" id="XMLID_19_" x="-9" y="-6.1" transform="matrix(-0.7785 0 0 -0.7785 1105.1868 86.8685)" style="overflow:visible;"/>
			
				<use xlink:href="#New_Symbol"  width="16" height="14.1" id="XMLID_18_" x="-9" y="-6.1" transform="matrix(-0.7785 0 0 -0.7785 1153.9028 71.8789)" style="overflow:visible;"/>
			
				<use xlink:href="#New_Symbol"  width="16" height="14.1" id="XMLID_17_" x="-9" y="-6.1" transform="matrix(-0.7785 0 0 -0.7785 1023.9935 154.3214)" style="overflow:visible;"/>
			
				<use xlink:href="#New_Symbol"  width="16" height="14.1" id="XMLID_16_" x="-9" y="-6.1" transform="matrix(-0.7785 0 0 -0.7785 1004.0074 199.2901)" style="overflow:visible;"/>
			
				<use xlink:href="#New_Symbol"  width="16" height="14.1" id="XMLID_15_" x="-9" y="-6.1" transform="matrix(-0.7785 0 0 -0.7785 995.2635 251.7534)" style="overflow:visible;"/>
			
				<use xlink:href="#New_Symbol"  width="16" height="14.1" id="XMLID_14_" x="-9" y="-6.1" transform="matrix(-0.7785 0 0 -0.7785 1004.0074 302.9677)" style="overflow:visible;"/>
			
				<use xlink:href="#New_Symbol"  width="16" height="14.1" id="XMLID_13_" x="-9" y="-6.1" transform="matrix(-0.7785 0 0 -0.7785 1023.9935 349.1855)" style="overflow:visible;"/>
			
				<use xlink:href="#New_Symbol"  width="16" height="14.1" id="XMLID_12_" x="-9" y="-6.1" transform="matrix(-0.7785 0 0 -0.7785 1061.4673 390.4067)" style="overflow:visible;"/>
			<circle class="st75" cx="1176.5" cy="247.1" r="41"/>
			<circle class="st75" cx="1176.5" cy="247.1" r="82.4"/>
			<circle class="st75" cx="1176.5" cy="247.1" r="87.8"/>
			<circle class="st75" cx="1176.5" cy="247.1" r="46.8"/>
			<circle class="st75" cx="1176.5" cy="247.1" r="128.4"/>
			<circle class="st75" cx="1176.5" cy="247.1" r="135.1"/>
			<path class="st76" d="M1257.3,412.5c61.2-29.9,103.3-92.8,103.3-165.4c0-101.7-82.4-184.1-184.1-184.1
				c-101.7,0-184.1,82.4-184.1,184.1c0,72,41.4,134.4,101.7,164.6"/>
			<path class="st76" d="M1131.9,425.7c14.3,3.6,29.2,5.4,44.6,5.4c16.7,0,32.9-2.2,48.3-6.4"/>
			<g>
				<line class="st5" x1="1173.5" y1="248" x2="1173.5" y2="63"/>
				<line class="st5" x1="1178.5" y1="248" x2="1178.5" y2="63"/>
			</g>
			<g>
				<g>
					<line class="st75" x1="1173.5" y1="216.7" x2="1178.6" y2="222.3"/>
					<line class="st75" x1="1178.6" y1="223.6" x2="1173.5" y2="228.8"/>
				</g>
				<g>
					<line class="st75" x1="1173.5" y1="203.4" x2="1178.7" y2="209.3"/>
					<line class="st75" x1="1178.5" y1="210.3" x2="1173.5" y2="215.5"/>
				</g>
				<g>
					<line class="st75" x1="1173.5" y1="190.1" x2="1178.6" y2="196"/>
					<line class="st75" x1="1178.7" y1="197" x2="1173.5" y2="202.2"/>
				</g>
				<g>
					<line class="st75" x1="1173.5" y1="176.9" x2="1178.6" y2="182.6"/>
					<line class="st75" x1="1178.5" y1="183.7" x2="1173.5" y2="188.9"/>
				</g>
				<g>
					<line class="st75" x1="1173.5" y1="163.6" x2="1178.5" y2="169.1"/>
					<line class="st75" x1="1178.6" y1="170.6" x2="1173.5" y2="175.7"/>
				</g>
				<g>
					<line class="st75" x1="1173.5" y1="150.3" x2="1178.7" y2="155.7"/>
					<line class="st75" x1="1178.7" y1="157.3" x2="1173.5" y2="162.4"/>
				</g>
				<g>
					<line class="st75" x1="1173.5" y1="137.1" x2="1178.6" y2="142.7"/>
					<line class="st75" x1="1178.6" y1="144.1" x2="1173.5" y2="149.1"/>
				</g>
				<g>
					<line class="st75" x1="1173.5" y1="123.8" x2="1178.6" y2="128.9"/>
					<line class="st75" x1="1178.6" y1="130.8" x2="1173.5" y2="135.9"/>
				</g>
				<g>
					<line class="st75" x1="1173.5" y1="110.5" x2="1178.6" y2="115.7"/>
					<line class="st75" x1="1178.6" y1="116.4" x2="1173.5" y2="122.6"/>
				</g>
				<g>
					<line class="st75" x1="1173.5" y1="97.2" x2="1178.5" y2="103.4"/>
					<line class="st75" x1="1178.5" y1="104.3" x2="1173.5" y2="109.3"/>
				</g>
				<g>
					<line class="st75" x1="1173.5" y1="84" x2="1178.5" y2="88.9"/>
					<line class="st75" x1="1178.5" y1="89.9" x2="1173.5" y2="96"/>
				</g>
				<g>
					<line class="st75" x1="1173.5" y1="70.7" x2="1178.5" y2="76.9"/>
					<line class="st75" x1="1178.5" y1="77.8" x2="1173.5" y2="82.8"/>
				</g>
			</g>
			<circle class="st26" cx="1176.5" cy="247.1" r="15.8"/>
			<circle class="st77" cx="1176.5" cy="247.1" r="10"/>
			<path class="st69" d="M1258.4,412.4l18.8,38.6h-49.1l-5.9-24.3c0,0-8.3-14.5-45.7-14.5c-37.4,0-43.9,10.6-43.9,10.6l-6.9,28.2
				h-49.1l99.9-203.1l-40.7,161.7c11.8-1.9,25.6-3.5,40.7-3.5c16.3,0,30.3,1.6,41.6,3.8l-40.9-162.3L1258.4,412.4"/>
			
				<pattern  id="SVGID_26_" xlink:href="#dark_Blue_lines" patternTransform="matrix(0.7886 -0.7071 0.7886 0.7071 4268.04 -7254.0869)">
			</pattern>
			<path class="st78" d="M1258.4,412.4l18.8,38.6h-49.1l-5.9-24.3c0,0-8.3-14.5-45.7-14.5c-37.4,0-43.9,10.6-43.9,10.6l-6.9,28.2
				h-49.1l99.9-203.1l-40.7,161.7c11.8-1.9,25.6-3.5,40.7-3.5c16.3,0,30.3,1.6,41.6,3.8l-40.9-162.3L1258.4,412.4"/>
			<path class="st79" d="M1258.4,412.1l18.8,38.4h-49.1l-5.9-24c0,0-8.3-14.4-45.7-14.4c-37.4,0-43.9,10.4-43.9,10.4l-6.9,28h-49.1
				l99.9-202.9l-40.7,161.8c11.8-1.9,25.6-3.4,40.7-3.4c16.3,0,30.3,1.7,41.6,3.8l-40.9-162.4L1258.4,412.1"/>
			<path class="st80" d="M1256.1,408.6c59.5-29.4,100.4-90.7,100.4-161.5c0-99.4-80.6-180-180-180c-99.4,0-180,80.6-180,180
				c0,70.8,40.9,132.1,100.4,161.5"/>
			<path class="st26" d="M1132.7,421.7c14,3.5,28.7,5.4,43.8,5.4c15.6,0,30.7-2,45.1-5.7"/>
			
				<pattern  id="SVGID_27_" xlink:href="#Whitelines" patternTransform="matrix(0.7071 -0.7071 0.5657 0.5657 2108.3628 -8191.5547)">
			</pattern>
			<polyline class="st81" points="1612,150 1612,266 1662,266 1662,140 			"/>
			<line class="st82" x1="1331.5" y1="472" x2="1331.5" y2="492"/>
			<line class="st32" x1="1221" y1="421.5" x2="1222.3" y2="426.7"/>
			<path class="st76" d="M1360.6,247.1c0-101.7-82.4-184.1-184.1-184.1"/>
			<polygon class="st51" points="745.5,98.1 786.5,88.1 786.5,379.4 745.5,379.5 			"/>
			<polygon class="st83" points="1730.4,409.5 1693.6,392.8 1677.5,385.4 1677.5,371.7 1645,357.7 1608.1,375.5 1613.5,375.5 
				1613.5,385.2 1551.9,413.5 1560.5,413.5 1560.5,465.5 1723.5,465.5 1723.5,409.5 			"/>
			<polygon class="st84" points="1009.5,119.7 994.5,122.8 994.5,136.4 1009.6,133.9 			"/>
			
				<pattern  id="SVGID_28_" xlink:href="#Whitelines" patternTransform="matrix(0.3382 -0.3382 0.2706 0.2706 -2569.7813 -7821.0425)">
			</pattern>
			<polyline class="st85" points="1009,119.6 994,122.8 994,136 			"/>
			<polyline class="st86" points="1822.6,377.6 1836.5,389.4 1836.5,399.4 1852.2,412.5 1846.5,412.5 1846.5,466 			"/>
			<rect x="546.5" y="381.5" class="st61" width="16" height="55"/>
			<polygon class="st36" points="559.3,380.6 552,380.8 552,376.6 557.4,375.6 			"/>
			<polygon class="st87" points="604.5,454.5 604.5,466.5 1042.8,466.5 1039.8,488.5 1331.5,488.5 1331.5,494.5 1723.5,494.5 
				1723.5,471.5 1331.5,471.5 1331.5,466.5 1042.3,466.5 1053,454.5 606.3,454.5 620.9,448.5 493.5,448.5 493.5,454.5 			"/>
			<rect x="-1.5" y="448.5" class="st87" width="622" height="19"/>
			<rect x="1722.5" y="471.5" class="st88" width="621" height="19"/>
			<polygon class="st89" points="688.3,403.7 792.5,403.9 792.5,451.4 687.8,451 			"/>
			
				<pattern  id="SVGID_29_" xlink:href="#Whitelines" patternTransform="matrix(0.8166 -0.7876 0.6533 0.6301 3497.7354 -8356.1221)">
			</pattern>
			<rect x="318" y="144" class="st90" width="45" height="300"/>
			<rect x="-2" y="431" class="st8" width="506" height="13"/>
		</g>
	</g>
</g>
</svg>
