<svg width="2342" height="510" viewBox="0 0 2342 510" fill="none" xmlns="http://www.w3.org/2000/svg">
<g clip-path="url(#clip0)">
<path d="M2342 0H0V510H2342V0Z" fill="black"/>
<path d="M1328 374V334H1435V327H1444V333H1448V324.9L1458 325.4V339H1483V331H1510V336H1546V374H1328Z" fill="#000D14"/>
<path opacity="0.2" d="M2028 219.4V468H2063V228.9L2028 219.4Z" fill="#178FCF"/>
<path d="M1894 106V435.4L1876 417V106H1894Z" fill="#000D14"/>
<path d="M525 297H436V438H525V297Z" fill="#141414"/>
<path d="M1761 372.6L1717 365.5V282H1761V372.6Z" fill="#000D14"/>
<path d="M1981.7 468C1982.5 467 1981.4 302.1 1981.4 302.1L1993 287.9V468H1981.7Z" fill="#000D14"/>
<path opacity="0.1" d="M2259 376H2153V467H2259V376Z" fill="#178FCF"/>
<path d="M222 411H144V438H222V411Z" fill="#000D14"/>
<path d="M367.7 146.3L370 445.4L389 422.4V206.6L367.7 146.3Z" fill="#1E1E1E"/>
<path d="M318 393H267V326.8L318 360.3V393Z" fill="#131313"/>
<path d="M1095 338.4V273H1080L1080.5 181H1123V121H1143V108H1168V97H1212V111H1219V93H1262V108H1298V127.5L1317.1 113H1354.5L1354 155H1373V172H1396V193H1405.5L1405 202H1432V225.8V245H1389V270H1349V339H1326V375H1095V338.4Z" fill="#000D14"/>
<g opacity="0.5">
<path fill-rule="evenodd" clip-rule="evenodd" d="M892 269.5H1023.5V178.5H1017.5V160V151L1010.5 158.2V136V120.5H1047.5V139.5H1057.5V148.5H1075.5V165.5H1087.5V321V390L1040.7 363.9" fill="#000D14"/>
<path d="M892 269.5H1023.5V178.5H1017.5V160V151L1010.5 158.2V136V120.5H1047.5V139.5H1057.5V148.5H1075.5V165.5H1087.5V321V390L1040.7 363.9" stroke="white" stroke-miterlimit="10"/>
</g>
<g opacity="0.5">
<path fill-rule="evenodd" clip-rule="evenodd" d="M786.2 89.6L835.5 98.2L834.7 346.5" fill="#000D14"/>
<path d="M786.2 89.6L835.5 98.2L834.7 346.5" stroke="white" stroke-miterlimit="10"/>
</g>
<path d="M1430 222H1611V151.4L1662 141.6V268H1559V275H1520H1518V262H1494V248H1430V222Z" fill="#000D14"/>
<path d="M1589 93.4V226H1662V142.4L1651 143.8V102.4L1589 93.4Z" fill="#000D14"/>
<g opacity="0.2">
<path d="M647 437.5H554.5V299.5H633.5V285.5H647.5V367" fill="#00121E"/>
<path d="M647 437.5H554.5V299.5H633.5V285.5H647.5V367" stroke="white" stroke-miterlimit="10"/>
</g>
<path d="M1650.5 144V102.1L1588.9 93.8L1508.5 102.1V222" stroke="white" stroke-miterlimit="10"/>
<path opacity="0.5" d="M1722.5 280V150.6L1661.5 141.9L1610.5 151.6V221.5H1503.4H1431.5V198.5H1404.5V188.5H1394.5V169.5H1372.5V152.5H1353.5V111.5H1316.1L1296.5 126.6V107.5H1261.5V93.5H1218.5V110.5H1211.5V97.5H1167.5V107.5H1142.5V120.5H1122.5V178.5H1078.5V269.5H1031" stroke="white" stroke-miterlimit="10" stroke-linecap="round"/>
<path opacity="0.5" d="M834.6 377.6L834.8 263.2L840.5 244.5" stroke="white" stroke-miterlimit="10" stroke-linecap="round"/>
<path d="M745.5 377.5H686.5V235.1L720.6 226.5H745.5V377.5Z" stroke="white" stroke-miterlimit="10"/>
<path opacity="0.4" d="M720.5 227.1L686.5 235.1V378.3L720.5 377.9V227.1Z" fill="#474747" stroke="white" stroke-miterlimit="10"/>
<path d="M786.5 90V356" stroke="white" stroke-miterlimit="10"/>
<path d="M554.8 299.2L537.5 303V437.5H555C555 436.5 554.8 299.2 554.8 299.2Z" fill="#1C1C1C" stroke="#00121E" stroke-miterlimit="10"/>
<g opacity="0.3">
<path opacity="0.3" d="M934 371V227H942V183H950V171H957V162H962.3L961.9 142.8L1009 135.7V155H1023V177.8L1030 177.2V363" fill="#223C49"/>
<path opacity="0.33" d="M934 371V227H942V183H950V171H957V162H962.3L961.9 142.8L1009 135.7V155H1023V177.8L1030 177.2V363" fill="#55A4DB"/>
<path opacity="0.3" d="M934.5 371V227.5H941.5V183.5H950.5V170.5H956.5V162.5H962.3L962.2 143.1L1009.5 135.7V154.5H1022.5V177.8L1030.5 177.2V363" stroke="white" stroke-miterlimit="10"/>
</g>
<g opacity="0.2">
<path opacity="0.33" d="M934 371V227H942V183H950V171H957V162H962.3L961.9 142.8L1009 135.7V155H1023V177.8L1030 177.2V363" fill="#949494"/>
</g>
<path d="M1541 376V336H1505V330H1485.7H1478V339H1453V324H1443V332H1439V326H1430V333H1323V373" fill="#000D14"/>
<path opacity="0.51" d="M1221 422.5L1222.3 427.7" stroke="#00121E" stroke-width="1.2491" stroke-miterlimit="10" stroke-linecap="round" stroke-linejoin="round"/>
<path opacity="0.5" d="M745.5 99.1L786.5 89.1V380.4L745.5 380.5V99.1Z" fill="#000D14" stroke="white" stroke-miterlimit="10"/>
<path opacity="0.4" d="M1009.5 120.7L994.5 123.8V137.4L1009.6 134.9L1009.5 120.7Z" fill="#126FA1" stroke="white" stroke-miterlimit="10"/>
<path d="M559.3 381.6L552 381.8V377.6L557.4 376.6L559.3 381.6Z" fill="#00121E"/>
<path d="M504 432H-2V445H504V432Z" fill="#000D14"/>
<g opacity="0.5">
<path d="M-2 475H1718.4H2343.5V433H2306.5V342H2258.5V381H2153.5V279H2087.5V319H2063.5V233.4L2029.1 223.9L1993.5 233.4V293.4L1982.5 304.3V83H1964.5V66H1942.9L1894.5 76.3V111H1874.5V258H1802.5V318H1762.5V287H1715.5V324H1540.5V280.9L1517.7 280.4L1518.1 267.9L1494.5 268.4V254H1430.5V245H1388.8L1389.3 268.7L1350.8 269.1L1348.8 375H1298.5V272H1191.5V345H1066.5V365.4L891.5 376.7V250H840.5V352H698.5V272H651.5V364H526.5V301H434.5V343H390.5V210.3L367.7 151H318.5V333H267.5V279H221.5V415H144.5V333H83.5V433H-2" fill="#1C272D"/>
<path d="M-2 475H1718.4H2343.5V433H2306.5V342H2258.5V381H2153.5V279H2087.5V319H2063.5V233.4L2029.1 223.9L1993.5 233.4V293.4L1982.5 304.3V83H1964.5V66H1942.9L1894.5 76.3V111H1874.5V258H1802.5V318H1762.5V287H1715.5V324H1540.5V280.9L1517.7 280.4L1518.1 267.9L1494.5 268.4V254H1430.5V245H1388.8L1389.3 268.7L1350.8 269.1L1348.8 375H1298.5V272H1191.5V345H1066.5V365.4L891.5 376.7V250H840.5V352H698.5V272H651.5V364H526.5V301H434.5V343H390.5V210.3L367.7 151H318.5V333H267.5V279H221.5V415H144.5V333H83.5V433H-2" stroke="#F6F6F6" stroke-miterlimit="10"/>
</g>
</g>
<defs>
<clipPath id="clip0">
<rect width="2342" height="510" fill="white"/>
</clipPath>
</defs>
</svg>
