<?xml version="1.0" encoding="utf-8"?>
<!-- Generator: Adobe Illustrator 18.1.1, SVG Export Plug-In . SVG Version: 6.00 Build 0)  -->
<svg version="1.1" id="Layer_1" xmlns="http://www.w3.org/2000/svg" xmlns:xlink="http://www.w3.org/1999/xlink" x="0px" y="0px"
	 viewBox="0 0 136.7 145.1" enable-background="new 0 0 136.7 145.1" xml:space="preserve">
<g>
	<g>
		<g>
			<path fill="#FFFFFF" d="M33.7,114.7C20.6,114.5,14,108.9,14,97.8V81.5c0-7.3-2.9-11.2-8.7-11.5v-8.1C11.1,61.4,14,57.5,14,50
				V34.1c0-11.2,6.6-16.9,19.8-17.1v8.6c-5.9,0.1-8.8,3.7-8.8,10.6v15.6c0,7.5-3.7,12.1-11,13.8v0.2c7.4,1.6,11,6.2,11,13.7V95
				c0,4,0.7,6.8,2,8.5c1.3,1.7,3.6,2.6,6.9,2.6V114.7z"/>
		</g>
		<g>
			<path fill="#FFFFFF" d="M131.4,69.9c-5.7,0.4-8.6,4.2-8.6,11.5v16.4c0,11.1-6.5,16.7-19.6,16.9v-8.5c3.2-0.1,5.5-1,6.9-2.7
				c1.3-1.7,2-4.5,2-8.4V79.6c0-7.5,3.6-12.1,10.9-13.7v-0.2C115.6,64,112,59.4,112,51.9V36.2c0-6.9-3-10.4-8.9-10.6V17
				c13.1,0.1,19.6,5.8,19.6,17.1V50c0,7.5,2.9,11.4,8.6,11.8V69.9z"/>
		</g>
	</g>
	<g>
		<path fill="#FFFFFF" d="M49.1,37.9h7.1v36.8c0,14.6-7.2,19.1-16.7,19.1c-2.6,0-5.8-0.6-7.6-1.3l1.1-5.8c1.5,0.6,3.6,1.1,6,1.1
			c6.4,0,10.1-2.9,10.1-13.6V37.9z"/>
		<path fill="#FFFFFF" d="M67,84.3c3.2,2,7.8,3.6,12.7,3.6c7.3,0,11.5-3.8,11.5-9.4c0-5.1-2.9-8.1-10.4-10.9
			c-9-3.2-14.5-7.8-14.5-15.6c0-8.6,7.1-14.9,17.8-14.9c5.6,0,9.7,1.3,12.2,2.7l-2,5.8c-1.8-1-5.5-2.6-10.5-2.6
			c-7.5,0-10.4,4.5-10.4,8.2c0,5.1,3.3,7.7,10.9,10.6c9.3,3.6,14,8.1,14,16.2c0,8.5-6.3,15.8-19.3,15.8c-5.3,0-11.1-1.6-14-3.5
			L67,84.3z"/>
	</g>
</g>
<g>
</g>
<g>
</g>
<g>
</g>
<g>
</g>
<g>
</g>
<g>
</g>
<g>
</g>
<g>
</g>
<g>
</g>
<g>
</g>
<g>
</g>
<g>
</g>
<g>
</g>
<g>
</g>
<g>
</g>
</svg>
