<?xml version="1.0" encoding="utf-8"?>
<!-- Generator: Adobe Illustrator 19.1.0, SVG Export Plug-In . SVG Version: 6.00 Build 0)  -->
<svg version="1.1" id="Layer_1" xmlns="http://www.w3.org/2000/svg" xmlns:xlink="http://www.w3.org/1999/xlink" x="0px" y="0px"
	 viewBox="-240 331.7 130.3 130.3" style="enable-background:new -240 331.7 130.3 130.3;" xml:space="preserve">
<style type="text/css">
	.st0{fill:#2E7AB1;}
	.st1{enable-background:new;}
	.st2{fill:#FFFFFF;}
</style>
<g>
	<polygon class="st0" points="-109.7,462 -240,331.7 -195.3,331.7 -109.7,417.2 	"/>
	<g class="st1">
		<path class="st2" d="M-192.1,351.7l-2.1-2.1l-1.3,1.6l1.9,2l-1,1.2l-1.9-2l-2,2.5l-1.3-1.4l5.2-6.6l3.4,3.5L-192.1,351.7z"/>
		<path class="st2" d="M-193.6,360.1c-0.7-0.7-1.1-1.5-1.1-2.4c0-0.8,0.2-1.6,0.8-2.4c0.6-0.8,1.3-1.2,2.1-1.2
			c0.8,0,1.5,0.3,2.2,1.1c0.7,0.7,1.1,1.5,1.1,2.3c0,0.8-0.2,1.6-0.8,2.3c-0.6,0.8-1.3,1.2-2.1,1.2
			C-192.2,361.2-192.9,360.9-193.6,360.1z M-190.6,356.4c-0.3-0.3-0.6-0.4-1-0.4c-0.4,0.1-0.7,0.3-1.1,0.7c-0.7,0.9-0.8,1.7-0.1,2.4
			c0.6,0.6,1.3,0.5,2-0.4C-190,357.8-189.9,357-190.6,356.4z"/>
		<path class="st2" d="M-185,362.7c-0.1-0.3-0.2-0.5-0.4-0.7c-0.3-0.3-0.6-0.4-0.9-0.3c-0.3,0.1-0.7,0.3-1,0.7l-1.8,2.2l-1.3-1.3
			l3.7-4.7l1.3,1.3l-0.7,0.9l0,0c0.7-0.4,1.3-0.4,1.9,0.2c0.1,0.1,0.2,0.3,0.3,0.4L-185,362.7z"/>
		<path class="st2" d="M-182.9,371l-1.5-1.6l0.5-3.7l0,0l-1.9,2.3l-1.3-1.3l5.5-6.9l1.3,1.3l-3.5,4.4l0,0l3-0.9l1.5,1.6l-3.3,0.7
			L-182.9,371z"/>
		<path class="st2" d="M-173.5,380.7l-1.3-1.3l2.1-2.7c0.5-0.7,0.6-1.3,0.1-1.7c-0.2-0.2-0.5-0.3-0.8-0.2c-0.3,0.1-0.6,0.3-0.8,0.6
			l-2.1,2.6l-1.3-1.3l2.2-2.7c0.5-0.7,0.6-1.2,0.1-1.7c-0.2-0.2-0.5-0.3-0.8-0.3s-0.6,0.3-0.8,0.6l-2.1,2.6l-1.3-1.3l3.7-4.7
			l1.3,1.3l-0.6,0.7l0,0c0.3-0.1,0.7-0.1,1,0c0.4,0.1,0.7,0.3,1,0.6c0.6,0.6,0.8,1.3,0.5,2.1c0.8-0.3,1.5-0.1,2.1,0.6
			c0.9,0.9,0.9,2-0.1,3.3L-173.5,380.7z"/>
		<path class="st2" d="M-167.2,383.7l-2.7-2.8c-0.5,0.7-0.4,1.5,0.3,2.2c0.5,0.5,1,0.8,1.5,0.9l-0.8,1c-0.6-0.2-1.2-0.6-1.8-1.2
			c-0.7-0.7-1-1.4-1.1-2.3c0-0.8,0.2-1.6,0.8-2.3c0.6-0.8,1.3-1.2,2.1-1.2c0.8,0,1.4,0.2,2,0.9c0.6,0.6,0.9,1.3,0.9,2.1
			c0,0.8-0.3,1.5-0.8,2.2L-167.2,383.7z M-167.7,381.6c0.5-0.7,0.6-1.3,0.1-1.8c-0.2-0.2-0.5-0.3-0.8-0.3c-0.3,0-0.6,0.2-0.8,0.4
			L-167.7,381.6z"/>
		<path class="st2" d="M-163.8,391c-0.7-0.7-1.1-1.5-1.1-2.4s0.2-1.6,0.8-2.4c0.6-0.8,1.3-1.2,2.1-1.2s1.5,0.3,2.2,1.1
			c0.7,0.7,1.1,1.5,1.1,2.3c0,0.8-0.2,1.6-0.8,2.3c-0.6,0.8-1.3,1.2-2.1,1.2C-162.4,392.1-163.1,391.7-163.8,391z M-160.7,387.2
			c-0.3-0.3-0.6-0.4-1-0.4c-0.4,0.1-0.7,0.3-1,0.7c-0.7,0.9-0.8,1.7-0.1,2.4c0.6,0.6,1.3,0.5,2-0.4
			C-160.1,388.6-160.1,387.8-160.7,387.2z"/>
		<path class="st2" d="M-156.6,398.2l-1.3-1.3l2.1-2.6c0.6-0.7,0.6-1.3,0.2-1.8c-0.2-0.2-0.5-0.3-0.8-0.3c-0.3,0-0.6,0.2-0.8,0.5
			l-2.1,2.7l-1.3-1.3l3.7-4.7l1.3,1.3l-0.6,0.7l0,0c0.8-0.3,1.4-0.1,2,0.5c0.9,1,0.9,2.1-0.2,3.4L-156.6,398.2z"/>
		<path class="st2" d="M-148,406.3c-0.9-0.2-1.7-0.8-2.6-1.6c-0.9-1-1.4-2-1.5-3.2c-0.1-1.1,0.3-2.2,1.1-3.3c0.8-1,1.8-1.6,2.9-1.6
			c1.1,0,2.2,0.5,3.1,1.5c0.6,0.6,1.1,1.3,1.4,2l-1.1,1.4c-0.2-0.8-0.7-1.5-1.3-2.1c-0.5-0.6-1.1-0.8-1.8-0.8s-1.3,0.4-1.8,1.1
			c-0.5,0.7-0.8,1.4-0.8,2c0,0.7,0.3,1.3,0.8,1.8c0.3,0.3,0.6,0.5,0.9,0.6l1-1.3l-1.2-1.2l0.9-1.2l2.5,2.6L-148,406.3z"/>
		<path class="st2" d="M-146,409.1l-1.3-1.3l3.7-4.7l1.3,1.3L-146,409.1z M-142.3,403.1c-0.2-0.2-0.3-0.5-0.4-0.8
			c0-0.3,0.1-0.5,0.2-0.7c0.2-0.2,0.4-0.3,0.6-0.3c0.2,0,0.5,0.1,0.7,0.3c0.2,0.2,0.3,0.5,0.4,0.8s0,0.5-0.2,0.7
			c-0.2,0.2-0.4,0.3-0.6,0.3C-141.9,403.4-142.1,403.3-142.3,403.1z"/>
		<path class="st2" d="M-142.4,412.8c-0.3-0.1-0.6-0.3-1-0.7c-0.9-0.9-0.9-1.9-0.1-3l1.7-2.1l-0.7-0.7l0.9-1.1l0.7,0.7l0.8-1
			l1.6,0.9l-1.1,1.4l0.9,1l-0.9,1.1l-0.9-1l-1.5,1.9c-0.4,0.5-0.4,0.9-0.1,1.3c0.1,0.1,0.3,0.2,0.5,0.3L-142.4,412.8z"/>
		<path class="st2" d="M-136.5,419l-1.3-1.4l2.1-2.7l-2.4-2.5l-2.1,2.7l-1.3-1.4l5.2-6.6l1.3,1.4l-2.1,2.6l2.4,2.5l2.1-2.6l1.3,1.4
			L-136.5,419z"/>
		<path class="st2" d="M-131.3,424.3l-1.3-1.3l0.6-0.7l0,0c-0.8,0.2-1.4,0.1-1.9-0.5c-1-1-0.9-2.2,0.1-3.5l2.3-2.8l1.3,1.3l-2.2,2.7
			c-0.5,0.7-0.6,1.2-0.1,1.7c0.2,0.2,0.5,0.3,0.8,0.3c0.3,0,0.6-0.2,0.8-0.5l2.1-2.7l1.3,1.3L-131.3,424.3z"/>
		<path class="st2" d="M-128.5,426.2L-128.5,426.2l-0.5,0.5l-1.3-1.3l5.5-6.9l1.3,1.3l-2.4,3l0,0c0.8-0.2,1.4,0,2,0.6
			c0.5,0.6,0.8,1.2,0.7,1.9c0,0.7-0.3,1.4-0.9,2.2c-0.6,0.8-1.3,1.2-2,1.4c-0.7,0.1-1.4-0.1-1.9-0.7
			C-128.4,427.6-128.6,427-128.5,426.2z M-127,424.2l-0.4,0.5c-0.2,0.3-0.4,0.6-0.4,1s0.1,0.7,0.4,0.9c0.3,0.3,0.6,0.4,1,0.3
			s0.7-0.4,1.1-0.8c0.3-0.4,0.5-0.8,0.5-1.1s-0.1-0.7-0.4-1c-0.3-0.3-0.6-0.4-0.9-0.3S-126.7,423.9-127,424.2z"/>
	</g>
</g>
</svg>
