<?xml version="1.0" encoding="utf-8"?>
<!-- Generator: Adobe Illustrator 19.1.0, SVG Export Plug-In . SVG Version: 6.00 Build 0)  -->
<svg version="1.1" id="Layer_1" xmlns="http://www.w3.org/2000/svg" xmlns:xlink="http://www.w3.org/1999/xlink" x="0px" y="0px"
	 viewBox="36 653.3 316.1 76.9" style="enable-background:new 36 653.3 316.1 76.9;" xml:space="preserve">
<style type="text/css">
	.st0{fill:#FFFFFF;}
</style>
<g>
	<g>
		<path class="st0" d="M75.4,660.3H59v50.8h-6.7v-50.8H36v-6h39.4V660.3z"/>
		<path class="st0" d="M106.3,670.5l-18.7,47.1c-3.3,8.4-8,12.6-14,12.6c-1.7,0-3.1-0.2-4.2-0.5v-5.8c1.4,0.5,2.7,0.7,3.8,0.7
			c3.3,0,5.7-2,7.4-5.9l3.2-7.7L68,670.5h7.2l11,31.2c0.1,0.4,0.4,1.4,0.8,3.1h0.2c0.1-0.6,0.4-1.6,0.8-3l11.5-31.3
			C99.5,670.5,106.3,670.5,106.3,670.5z"/>
		<path class="st0" d="M116.9,705.2h-0.2v24.5h-6.5v-59.2h6.5v7.1h0.2c3.2-5.4,7.9-8.1,14-8.1c5.2,0,9.3,1.8,12.2,5.4
			c2.9,3.6,4.4,8.5,4.4,14.6c0,6.8-1.7,12.2-5,16.3s-7.8,6.1-13.5,6.1C123.9,712.1,119.8,709.8,116.9,705.2z M116.8,688.9v5.7
			c0,3.4,1.1,6.2,3.3,8.5c2.2,2.3,4.9,3.5,8.3,3.5c3.9,0,7-1.5,9.3-4.5c2.2-3,3.3-7.2,3.3-12.6c0-4.5-1-8.1-3.1-10.6
			c-2.1-2.6-4.9-3.8-8.5-3.8c-3.8,0-6.8,1.3-9.1,3.9C117.9,681.6,116.8,684.9,116.8,688.9z"/>
		<path class="st0" d="M187.3,692.4h-28.6c0.1,4.5,1.3,8,3.6,10.5c2.3,2.5,5.5,3.7,9.6,3.7c4.6,0,8.8-1.5,12.6-4.5v6.1
			c-3.6,2.6-8.3,3.9-14.1,3.9c-5.7,0-10.2-1.8-13.5-5.5s-4.9-8.9-4.9-15.5c0-6.3,1.8-11.5,5.4-15.4c3.6-4,8-6,13.3-6
			s9.4,1.7,12.3,5.2c2.9,3.4,4.4,8.2,4.4,14.3L187.3,692.4L187.3,692.4z M180.6,686.9c0-3.8-0.9-6.7-2.7-8.8
			c-1.8-2.1-4.3-3.1-7.4-3.1s-5.7,1.1-7.8,3.3c-2.1,2.2-3.5,5.1-4,8.6H180.6z"/>
		<path class="st0" d="M190.5,709.1v-4.5c4.1,2.6,8.2,3.9,12.4,3.9c4.4,0,7.8-0.9,10.1-2.8c2.3-1.9,3.4-4.4,3.4-7.7
			c0-2.9-0.8-5.2-2.3-7c-1.5-1.7-4.9-4.1-10-7.1c-5.8-3.4-9.4-6.2-10.9-8.4c-1.5-2.3-2.3-4.9-2.3-7.8c0-4,1.6-7.4,4.7-10.2
			c3.1-2.8,7.3-4.2,12.5-4.2c3.4,0,6.8,0.6,10.1,1.7v4.1c-3.3-1.5-6.9-2.3-10.7-2.3c-3.9,0-6.9,1-9.2,2.9c-2.3,2-3.4,4.4-3.4,7.4
			c0,2.9,0.8,5.2,2.3,6.9c1.5,1.7,4.9,4.1,10,7c5.3,3,8.8,5.7,10.6,8c1.8,2.3,2.6,5,2.6,8.1c0,4.4-1.5,7.9-4.5,10.7
			c-3,2.8-7.3,4.1-12.8,4.1c-2,0-4.2-0.3-6.8-0.9C193.7,710.4,191.8,709.9,190.5,709.1z"/>
		<path class="st0" d="M254.2,709.3c-3,1.8-6.6,2.8-10.8,2.8c-5.5,0-10-1.9-13.4-5.7c-3.4-3.8-5.1-8.7-5.1-14.9
			c0-6.4,1.9-11.7,5.7-15.8c3.8-4.1,8.7-6.2,14.7-6.2c3.1,0,6.1,0.6,9,1.9v4.1c-2.9-1.8-6.1-2.7-9.5-2.7c-4.8,0-8.6,1.7-11.6,5.1
			c-3,3.4-4.4,7.9-4.4,13.3c0,5.3,1.4,9.5,4.1,12.7c2.7,3.2,6.3,4.8,10.7,4.8c4.1,0,7.6-1.1,10.6-3.2L254.2,709.3L254.2,709.3z"/>
		<path class="st0" d="M278.4,674.3c-1.2-0.9-2.6-1.3-4.3-1.3c-3.2,0-5.9,1.7-8,5c-2.2,3.3-3.2,8-3.2,14.1v19.1h-3.6v-40.7h3.6v9
			h0.2c0.9-3.1,2.4-5.5,4.4-7.2s4.3-2.6,7-2.6c1.5,0,2.9,0.2,4,0.7v3.9L278.4,674.3L278.4,674.3z"/>
		<path class="st0" d="M284.2,660.3c-0.8,0-1.5-0.3-2.1-0.9s-0.9-1.3-0.9-2.2c0-0.9,0.3-1.6,0.9-2.1s1.3-0.8,2.1-0.8
			c0.8,0,1.5,0.3,2.2,0.8c0.6,0.5,0.9,1.2,0.9,2.1c0,0.8-0.3,1.6-0.9,2.2C285.7,660,285,660.3,284.2,660.3z M282.4,711.1v-40.6h3.6
			v40.6H282.4z"/>
		<path class="st0" d="M298.5,703.9h-0.2v25.9h-3.6v-59.3h3.6v8.4h0.2c1.5-3,3.5-5.3,6.2-6.9c2.7-1.6,5.7-2.4,8.9-2.4
			c5.2,0,9.2,1.8,12.1,5.3c2.9,3.6,4.3,8.4,4.3,14.5c0,6.8-1.7,12.3-5,16.5s-7.7,6.3-13.1,6.3C305.9,712.1,301.4,709.4,298.5,703.9z
			 M298.3,688.8v5.1c0,4.1,1.3,7.6,3.8,10.5c2.6,2.9,5.9,4.4,10.1,4.4c4.1,0,7.5-1.8,10.1-5.3c2.6-3.6,3.9-8.2,3.9-14
			c0-5.1-1.2-9.1-3.6-12.1s-5.5-4.5-9.5-4.5c-4.7,0-8.4,1.6-11,4.8C299.5,680.9,298.3,684.5,298.3,688.8z"/>
		<path class="st0" d="M352.1,710.5c-1.9,0.9-3.7,1.3-5.3,1.3c-6,0-9-3.6-9-10.8v-27.1h-7.3v-3.3h7.3V660c0.6-0.2,1.2-0.4,1.8-0.6
			c0.6-0.2,1.2-0.4,1.8-0.6v11.8h10.7v3.3h-10.7v26.8c0,2.8,0.4,4.8,1.3,6.1c0.9,1.3,2.4,1.9,4.5,1.9c1.5,0,3.1-0.5,4.9-1.5
			L352.1,710.5L352.1,710.5z"/>
	</g>
</g>
</svg>
