<?xml version="1.0" encoding="utf-8"?>
<!-- Generator: Adobe Illustrator 19.1.1, SVG Export Plug-In . SVG Version: 6.00 Build 0)  -->
<svg version="1.1" id="Layer_1" xmlns="http://www.w3.org/2000/svg" xmlns:xlink="http://www.w3.org/1999/xlink" x="0px" y="0px"
	 viewBox="-64.9 417 216.5 51.9" style="enable-background:new -64.9 417 216.5 51.9;" xml:space="preserve">
<style type="text/css">
	.st0{fill:#fff;}
</style>
<g>
	<g>
		<path class="st0" d="M-38.2,421.7h-11.1V456h-4.5v-34.3h-11.1v-4.1h26.6v4.1H-38.2z"/>
		<path class="st0" d="M-16.9,428.6l-12.6,31.8c-2.3,5.7-5.4,8.5-9.5,8.5c-1.1,0-2.1-0.1-2.9-0.3v-3.9c0.9,0.3,1.8,0.5,2.6,0.5
			c2.2,0,3.9-1.3,5-4l2.2-5.2l-10.7-27.4h4.9l7.4,21.1c0.1,0.3,0.3,1,0.6,2.1h0.2c0.1-0.4,0.3-1.1,0.5-2l7.8-21.2H-16.9z"/>
		<path class="st0" d="M-9.5,452.1h-0.1v16.6H-14v-40h4.4v4.8h0.1c2.2-3.6,5.3-5.5,9.5-5.5c3.5,0,6.3,1.2,8.3,3.7s3,5.7,3,9.9
			c0,4.6-1.1,8.3-3.3,11s-5.3,4.1-9.2,4.1C-4.8,456.7-7.5,455.2-9.5,452.1z M-9.6,441v3.8c0,2.3,0.7,4.2,2.2,5.8s3.3,2.4,5.6,2.4
			c2.7,0,4.7-1,6.3-3.1c1.6-2.1,2.3-4.9,2.3-8.5c0-3.1-0.7-5.4-2.1-7.2c-1.4-1.7-3.3-2.6-5.7-2.6c-2.6,0-4.6,0.9-6.2,2.7
			C-8.8,436.1-9.6,438.3-9.6,441z"/>
		<path class="st0" d="M38.4,443.4H19c0.1,3.1,0.9,5.4,2.5,7.1s3.7,2.5,6.5,2.5c3.1,0,5.9-1,8.5-3.1v4.1c-2.4,1.8-5.6,2.6-9.6,2.6
			c-3.9,0-6.9-1.2-9.1-3.7c-2.2-2.5-3.3-6-3.3-10.5c0-4.3,1.2-7.7,3.6-10.4c2.4-2.7,5.4-4,9-4s6.4,1.2,8.3,3.5
			c2,2.3,2.9,5.5,2.9,9.7v2.2H38.4z M33.9,439.7c0-2.5-0.6-4.5-1.8-5.9c-1.2-1.4-2.9-2.1-5-2.1s-3.8,0.7-5.3,2.2
			c-1.4,1.5-2.3,3.4-2.7,5.8H33.9z"/>
		<path class="st0" d="M40.8,454.7v-3c2.8,1.8,5.5,2.6,8.4,2.6c3,0,5.3-0.6,6.8-1.9c1.6-1.2,2.3-3,2.3-5.2c0-2-0.5-3.5-1.6-4.7
			c-1-1.2-3.3-2.8-6.8-4.8c-3.9-2.3-6.4-4.2-7.4-5.7s-1.6-3.3-1.6-5.3c0-2.7,1.1-5,3.2-6.9c2.1-1.9,4.9-2.8,8.4-2.8
			c2.3,0,4.6,0.4,6.9,1.2v2.8c-2.3-1-4.7-1.5-7.2-1.5c-2.6,0-4.7,0.7-6.2,2s-2.3,3-2.3,5s0.5,3.5,1.6,4.7c1,1.2,3.3,2.7,6.8,4.7
			c3.6,2,6,3.8,7.2,5.4c1.2,1.6,1.8,3.4,1.8,5.5c0,2.9-1,5.3-3.1,7.2c-2,1.9-4.9,2.8-8.7,2.8c-1.3,0-2.8-0.2-4.6-0.6
			C43.1,455.7,41.8,455.2,40.8,454.7z"/>
		<path class="st0" d="M84.3,454.8c-2,1.2-4.5,1.9-7.3,1.9c-3.7,0-6.7-1.3-9-3.8c-2.3-2.6-3.4-5.9-3.4-10.1c0-4.4,1.3-7.9,3.9-10.7
			c2.6-2.8,5.9-4.2,9.9-4.2c2.1,0,4.1,0.4,6.1,1.3v2.8c-2-1.2-4.1-1.8-6.5-1.8c-3.2,0-5.8,1.2-7.8,3.5c-2,2.3-3,5.3-3,9
			c0,3.6,0.9,6.4,2.7,8.6c1.8,2.2,4.2,3.2,7.2,3.2c2.7,0,5.1-0.7,7.2-2.2L84.3,454.8L84.3,454.8z"/>
		<path class="st0" d="M100.9,431.2c-0.8-0.6-1.8-0.9-2.9-0.9c-2.2,0-4,1.1-5.4,3.3c-1.5,2.2-2.2,5.4-2.2,9.5V456H88v-27.4h2.4v6.1
			h0.1c0.6-2.1,1.6-3.7,3-4.9c1.4-1.2,2.9-1.7,4.7-1.7c1,0,1.9,0.2,2.7,0.5V431.2z"/>
		<path class="st0" d="M105.1,421.7c-0.5,0-1-0.2-1.4-0.6s-0.6-0.9-0.6-1.5s0.2-1.1,0.6-1.4c0.4-0.4,0.9-0.5,1.4-0.5
			c0.6,0,1,0.2,1.5,0.5c0.4,0.4,0.6,0.8,0.6,1.4s-0.2,1.1-0.6,1.5C106.1,421.5,105.7,421.7,105.1,421.7z M103.9,456.1v-27.4h2.5
			v27.4H103.9z"/>
		<path class="st0" d="M115,451.2h-0.1v17.5h-2.5v-40h2.5v5.7h0.1c1-2,2.4-3.6,4.2-4.7c1.8-1.1,3.8-1.6,6-1.6c3.5,0,6.2,1.2,8.2,3.6
			c2,2.4,2.9,5.7,2.9,9.8c0,4.6-1.1,8.3-3.4,11.1c-2.2,2.8-5.2,4.2-8.9,4.2C120,456.7,117,454.9,115,451.2z M114.9,441v3.5
			c0,2.8,0.9,5.1,2.6,7.1s4,3,6.8,3s5.1-1.2,6.8-3.6c1.7-2.4,2.6-5.6,2.6-9.5c0-3.4-0.8-6.2-2.4-8.2s-3.8-3-6.4-3
			c-3.2,0-5.7,1.1-7.4,3.2C115.8,435.6,114.9,438.1,114.9,441z"/>
		<path class="st0" d="M151.6,455.7c-1.3,0.6-2.5,0.9-3.6,0.9c-4.1,0-6.1-2.4-6.1-7.3v-18.4H137v-2.3h4.9v-7.1
			c0.4-0.1,0.8-0.3,1.2-0.4c0.4-0.1,0.8-0.3,1.2-0.4v8h7.2v2.3h-7.2v18.1c0,1.9,0.3,3.3,0.9,4.1c0.6,0.8,1.6,1.3,3,1.3
			c1,0,2.1-0.3,3.3-1v2.2H151.6z"/>
	</g>
</g>
</svg>
