<svg id="MS-symbol" xmlns="http://www.w3.org/2000/svg" viewBox="-64 289 482 216"><style>.st0{fill:#a4b3cd;}.st1{fill:#a4b3cd;}.st2{fill:#a4b3cd;}.st3{fill:#a4b3cd;}.st4{fill:#a4b3cd;}</style><path class="st0" d="M148.3 375.4v43.2h-7.5v-33.9h-.1l-13.4 33.9h-5l-13.7-33.9h-.1v33.9h-6.9v-43.2h10.8l12.4 32h.2l13.1-32h10.2zm6.3 3.3c0-1.2.4-2.2 1.3-3 .9-.8 1.9-1.2 3.1-1.2 1.3 0 2.4.4 3.2 1.3.8.8 1.3 1.8 1.3 3s-.4 2.2-1.3 3c-.9.8-1.9 1.2-3.2 1.2s-2.3-.4-3.1-1.2c-.9-1-1.3-2-1.3-3.1zm8.1 8.9v31h-7.3v-31h7.3zm22.1 25.7c1.1 0 2.3-.3 3.6-.8s2.5-1.2 3.6-2v6.8c-1.2.7-2.5 1.2-4 1.5-1.5.3-3.1.5-4.9.5-4.6 0-8.3-1.4-11.1-4.3-2.9-2.9-4.3-6.6-4.3-11 0-5 1.5-9.1 4.4-12.3 2.9-3.2 7-4.8 12.4-4.8 1.4 0 2.7.2 4.1.5 1.4.4 2.5.8 3.3 1.2v7c-1.1-.8-2.3-1.5-3.4-1.9-1.2-.5-2.4-.7-3.6-.7-2.9 0-5.2.9-7 2.8-1.8 1.9-2.7 4.4-2.7 7.6 0 3.1.8 5.6 2.5 7.3 1.9 1.7 4.2 2.6 7.1 2.6zm27.9-26.2c.6 0 1.1 0 1.6.1s.9.2 1.2.3v7.4c-.4-.3-.9-.5-1.7-.8-.7-.3-1.6-.4-2.7-.4-1.8 0-3.3.8-4.5 2.3s-1.9 3.8-1.9 7v15.6h-7.3v-31h7.3v4.9h.1c.7-1.7 1.7-3 3-4 1.4-.9 3-1.4 4.9-1.4zm3.2 16.5c0-5.1 1.4-9.2 4.3-12.2s6.9-4.5 12.1-4.5c4.8 0 8.6 1.4 11.3 4.3 2.7 2.9 4.1 6.8 4.1 11.7 0 5-1.4 9-4.3 12s-6.8 4.5-11.8 4.5c-4.8 0-8.6-1.4-11.4-4.2-2.9-2.9-4.3-6.8-4.3-11.6zm7.6-.3c0 3.2.7 5.7 2.2 7.4 1.5 1.7 3.6 2.6 6.3 2.6 2.7 0 4.7-.9 6.1-2.6 1.4-1.7 2.1-4.2 2.1-7.6 0-3.3-.7-5.8-2.2-7.5-1.4-1.7-3.4-2.5-6-2.5-2.7 0-4.7.9-6.2 2.7-1.6 1.7-2.3 4.2-2.3 7.5zm35-7.5c0 1 .3 1.9 1 2.5.7.6 2.1 1.3 4.4 2.2 2.9 1.2 5 2.5 6.1 3.9 1.2 1.5 1.8 3.2 1.8 5.3 0 2.9-1.1 5.3-3.4 7-2.2 1.8-5.3 2.7-9.1 2.7-1.3 0-2.7-.2-4.3-.5-1.6-.3-2.9-.7-4-1.2v-7.2c1.3.9 2.8 1.7 4.3 2.2s2.9.8 4.2.8c1.6 0 2.9-.2 3.6-.7.8-.5 1.2-1.2 1.2-2.3 0-1-.4-1.9-1.2-2.5-.8-.7-2.4-1.5-4.6-2.4-2.7-1.1-4.6-2.4-5.7-3.8s-1.7-3.2-1.7-5.4c0-2.8 1.1-5.1 3.3-6.9 2.2-1.8 5.1-2.7 8.6-2.7 1.1 0 2.3.1 3.6.4 1.3.2 2.5.6 3.4.9v6.9c-1-.6-2.1-1.2-3.4-1.7s-2.6-.7-3.8-.7c-1.4 0-2.5.3-3.2.8-.7.7-1.1 1.4-1.1 2.4zm16.4 7.8c0-5.1 1.4-9.2 4.3-12.2s6.9-4.5 12.1-4.5c4.8 0 8.6 1.4 11.3 4.3 2.7 2.9 4.1 6.8 4.1 11.7 0 5-1.4 9-4.3 12s-6.8 4.5-11.8 4.5c-4.8 0-8.6-1.4-11.4-4.2-2.8-2.9-4.3-6.8-4.3-11.6zm7.6-.3c0 3.2.7 5.7 2.2 7.4 1.5 1.7 3.6 2.6 6.3 2.6 2.7 0 4.7-.9 6.1-2.6 1.4-1.7 2.1-4.2 2.1-7.6 0-3.3-.7-5.8-2.2-7.5-1.4-1.7-3.4-2.5-6-2.5-2.7 0-4.7.9-6.2 2.7-1.5 1.7-2.3 4.2-2.3 7.5zm48.4-9.7H320v25h-7.4v-25h-5.2v-6h5.2v-4.3c0-3.3 1.1-5.9 3.2-8 2.1-2.1 4.8-3.1 8.1-3.1.9 0 1.7 0 2.4.1s1.3.2 1.8.4v6.3c-.2-.1-.7-.3-1.3-.5-.6-.2-1.3-.3-2.1-.3-1.5 0-2.7.5-3.5 1.4-.8 1-1.2 2.4-1.2 4.2v3.7h10.9v-7l7.3-2.2v9.2h7.4v6h-7.4V408c0 1.9.3 3.3 1 4 .7.8 1.8 1.2 3.3 1.2.4 0 .9-.1 1.5-.3.6-.2 1.1-.4 1.6-.7v6c-.5.3-1.2.5-2.3.7-1.1.2-2.1.3-3.2.3-3.1 0-5.4-.8-6.9-2.5-1.5-1.6-2.3-4.1-2.3-7.4v-15.7z"/><path class="st1" d="M8 361h34.2v34.2H8z"/><path class="st2" d="M45.8 361H80v34.2H45.8z"/><path class="st3" d="M8 398.8h34.2V433H8z"/><path class="st4" d="M45.8 398.8H80V433H45.8z"/></svg>