<svg id="bg_blank" data-name="bg blank" xmlns="http://www.w3.org/2000/svg" xmlns:xlink="http://www.w3.org/1999/xlink" viewBox="0 0 2323.5 510"><defs><style>.cls-1,.cls-19,.cls-2,.cls-34,.cls-4,.cls-48,.cls-55,.cls-65,.cls-66,.cls-67,.cls-68,.cls-69,.cls-70,.cls-71,.cls-73,.cls-74,.cls-75,.cls-79{fill:none;}.cls-15,.cls-17,.cls-19,.cls-2,.cls-20,.cls-29,.cls-30,.cls-41,.cls-43,.cls-51,.cls-52,.cls-53,.cls-55,.cls-56,.cls-58,.cls-59,.cls-60,.cls-65,.cls-70,.cls-73,.cls-76,.cls-77,.cls-79,.cls-80,.cls-81,.cls-82{stroke:#fff;}.cls-15,.cls-17,.cls-19,.cls-2,.cls-20,.cls-21,.cls-22,.cls-29,.cls-30,.cls-34,.cls-4,.cls-41,.cls-43,.cls-48,.cls-49,.cls-50,.cls-51,.cls-52,.cls-53,.cls-55,.cls-56,.cls-57,.cls-58,.cls-59,.cls-60,.cls-65,.cls-66,.cls-67,.cls-68,.cls-69,.cls-70,.cls-71,.cls-74,.cls-76,.cls-77,.cls-79,.cls-82{stroke-miterlimit:10;}.cls-3{fill:#014467;}.cls-4{stroke:#03324c;}.cls-21,.cls-49,.cls-5,.cls-50,.cls-76{fill:#144372;}.cls-6{fill:#fff;}.cls-7{fill:#052738;}.cls-15,.cls-29,.cls-41,.cls-43,.cls-51,.cls-52,.cls-64,.cls-8{fill:#03324c;}.cls-12,.cls-36,.cls-9{fill:#178fcf;}.cls-17,.cls-22,.cls-26,.cls-9{opacity:0.2;}.cls-10,.cls-16,.cls-18,.cls-20,.cls-30,.cls-31,.cls-38,.cls-42,.cls-45,.cls-54,.cls-62,.cls-78{opacity:0.4;}.cls-10,.cls-16{fill:url(#Whitelines);}.cls-11,.cls-39{opacity:0.18;}.cls-11{fill:url(#Whitelines-3);}.cls-12{opacity:0.1;}.cls-13{fill:url(#dark_Blue_lines);}.cls-14{fill:url(#blue_windows);}.cls-15,.cls-16,.cls-41,.cls-42,.cls-64,.cls-79{fill-rule:evenodd;}.cls-15,.cls-19,.cls-29,.cls-33,.cls-34,.cls-35,.cls-80,.cls-81{opacity:0.5;}.cls-17,.cls-32,.cls-53{fill:#0b598a;}.cls-18,.cls-27{fill:url(#Whitelines-7);}.cls-19,.cls-28,.cls-55,.cls-73,.cls-75,.cls-80,.cls-81{stroke-linecap:round;}.cls-20,.cls-25,.cls-28,.cls-56,.cls-58,.cls-59,.cls-60{fill:#55a4db;}.cls-21,.cls-22,.cls-28,.cls-57,.cls-75{stroke:#0b598a;}.cls-22,.cls-57,.cls-61,.cls-82{fill:#3a91ce;}.cls-23{opacity:0.3;}.cls-24{fill:#223c49;}.cls-25{opacity:0.33;}.cls-28,.cls-59,.cls-60{fill-opacity:0.33;}.cls-28,.cls-73,.cls-75,.cls-80,.cls-81{stroke-linejoin:round;}.cls-28,.cls-59,.cls-60,.cls-70,.cls-74{stroke-width:1.25px;}.cls-28,.cls-58,.cls-59{opacity:0.51;}.cls-30,.cls-77{fill:#126fa1;}.cls-31{fill:url(#Whitelines-13);}.cls-33{fill:#1c272d;}.cls-34{stroke:#f6f6f6;}.cls-35,.cls-47{fill:#044f81;}.cls-37{fill:url(#dark_Blue_lines-3);}.cls-38,.cls-42{fill:url(#Whitelines-17);}.cls-39{fill:url(#Whitelines-19);}.cls-40{fill:url(#blue_windows-3);}.cls-44{fill:#f4f0e2;}.cls-45{fill:url(#Whitelines-23);}.cls-46{fill:#11395e;}.cls-48{stroke:#4b94d0;}.cls-48,.cls-49,.cls-51{stroke-width:0.5px;}.cls-49,.cls-50{stroke:#f4f0e2;}.cls-52{stroke-width:2px;}.cls-54,.cls-63{fill:url(#Whitelines-25);}.cls-65,.cls-69{stroke-width:0.62px;}.cls-66{stroke:#1d5777;}.cls-66,.cls-67{stroke-width:3.75px;}.cls-67,.cls-71{stroke:#0a3e5f;}.cls-68{stroke:#215b7c;}.cls-69{stroke:#1b5677;}.cls-71{stroke-width:2.5px;}.cls-72{opacity:0.35;fill:url(#dark_Blue_lines-7);}.cls-74{stroke:#fafcfd;opacity:0.43;}.cls-78{fill:url(#Whitelines-35);}.cls-80{fill:#14333f;}.cls-81{fill:#162f38;}</style><pattern id="Whitelines" data-name="Whitelines" width="72" height="72" patternTransform="matrix(0.69, -0.75, 0.55, 0.6, -2.12, 807.78)" patternUnits="userSpaceOnUse" viewBox="0 0 72 72"><rect class="cls-1" width="72" height="72"/><line class="cls-2" y1="72" x2="72" y2="72"/><line class="cls-2" x2="72"/><line class="cls-2" y1="6" x2="72" y2="6"/><line class="cls-2" y1="12" x2="72" y2="12"/><line class="cls-2" y1="18" x2="72" y2="18"/><line class="cls-2" y1="24" x2="72" y2="24"/><line class="cls-2" y1="30" x2="72" y2="30"/><line class="cls-2" y1="36" x2="72" y2="36"/><line class="cls-2" y1="42" x2="72" y2="42"/><line class="cls-2" y1="48" x2="72" y2="48"/><line class="cls-2" y1="54" x2="72" y2="54"/><line class="cls-2" y1="60" x2="72" y2="60"/><line class="cls-2" y1="66" x2="72" y2="66"/><line class="cls-2" y1="72" x2="72" y2="72"/><line class="cls-2" x2="72"/></pattern><pattern id="Whitelines-3" data-name="Whitelines" width="72" height="72" patternTransform="matrix(0.82, -0.79, 0.65, 0.63, -41.56, 695.5)" patternUnits="userSpaceOnUse" viewBox="0 0 72 72"><rect class="cls-1" width="72" height="72"/><line class="cls-2" y1="72" x2="72" y2="72"/><line class="cls-2" x2="72"/><line class="cls-2" y1="6" x2="72" y2="6"/><line class="cls-2" y1="12" x2="72" y2="12"/><line class="cls-2" y1="18" x2="72" y2="18"/><line class="cls-2" y1="24" x2="72" y2="24"/><line class="cls-2" y1="30" x2="72" y2="30"/><line class="cls-2" y1="36" x2="72" y2="36"/><line class="cls-2" y1="42" x2="72" y2="42"/><line class="cls-2" y1="48" x2="72" y2="48"/><line class="cls-2" y1="54" x2="72" y2="54"/><line class="cls-2" y1="60" x2="72" y2="60"/><line class="cls-2" y1="66" x2="72" y2="66"/><line class="cls-2" y1="72" x2="72" y2="72"/><line class="cls-2" x2="72"/></pattern><pattern id="dark_Blue_lines" data-name="dark Blue lines" width="72" height="72" patternTransform="matrix(0.75, -0.73, 0.75, 0.73, -144.79, 721.88)" patternUnits="userSpaceOnUse" viewBox="0 0 72 72"><rect class="cls-1" width="72" height="72"/><line class="cls-4" y1="72" x2="72" y2="72"/><line class="cls-4" x2="72"/><line class="cls-4" y1="6" x2="72" y2="6"/><line class="cls-4" y1="12" x2="72" y2="12"/><line class="cls-4" y1="18" x2="72" y2="18"/><line class="cls-4" y1="24" x2="72" y2="24"/><line class="cls-4" y1="30" x2="72" y2="30"/><line class="cls-4" y1="36" x2="72" y2="36"/><line class="cls-4" y1="42" x2="72" y2="42"/><line class="cls-4" y1="48" x2="72" y2="48"/><line class="cls-4" y1="54" x2="72" y2="54"/><line class="cls-4" y1="60" x2="72" y2="60"/><line class="cls-4" y1="66" x2="72" y2="66"/><line class="cls-4" y1="72" x2="72" y2="72"/><line class="cls-4" x2="72"/></pattern><pattern id="blue_windows" data-name="blue windows" width="20" height="20" patternTransform="translate(16.7 63.57) scale(0.5)" patternUnits="userSpaceOnUse" viewBox="0 0 20 20"><rect class="cls-1" width="20" height="20"/><rect class="cls-3" x="17.28" y="4.11" width="5.44" height="11.79"/><rect class="cls-3" x="7.28" y="4.11" width="5.44" height="11.79"/><rect class="cls-3" x="-2.72" y="4.11" width="5.44" height="11.79"/></pattern><pattern id="Whitelines-7" data-name="Whitelines" width="72" height="72" patternTransform="matrix(0.71, -0.71, 0.57, 0.57, -15.52, 701.37)" patternUnits="userSpaceOnUse" viewBox="0 0 72 72"><rect class="cls-1" width="72" height="72"/><line class="cls-2" y1="72" x2="72" y2="72"/><line class="cls-2" x2="72"/><line class="cls-2" y1="6" x2="72" y2="6"/><line class="cls-2" y1="12" x2="72" y2="12"/><line class="cls-2" y1="18" x2="72" y2="18"/><line class="cls-2" y1="24" x2="72" y2="24"/><line class="cls-2" y1="30" x2="72" y2="30"/><line class="cls-2" y1="36" x2="72" y2="36"/><line class="cls-2" y1="42" x2="72" y2="42"/><line class="cls-2" y1="48" x2="72" y2="48"/><line class="cls-2" y1="54" x2="72" y2="54"/><line class="cls-2" y1="60" x2="72" y2="60"/><line class="cls-2" y1="66" x2="72" y2="66"/><line class="cls-2" y1="72" x2="72" y2="72"/><line class="cls-2" x2="72"/></pattern><pattern id="Whitelines-13" data-name="Whitelines" width="72" height="72" patternTransform="matrix(0.34, -0.34, 0.27, 0.27, 62.12, 671.23)" patternUnits="userSpaceOnUse" viewBox="0 0 72 72"><rect class="cls-1" width="72" height="72"/><line class="cls-2" y1="72" x2="72" y2="72"/><line class="cls-2" x2="72"/><line class="cls-2" y1="6" x2="72" y2="6"/><line class="cls-2" y1="12" x2="72" y2="12"/><line class="cls-2" y1="18" x2="72" y2="18"/><line class="cls-2" y1="24" x2="72" y2="24"/><line class="cls-2" y1="30" x2="72" y2="30"/><line class="cls-2" y1="36" x2="72" y2="36"/><line class="cls-2" y1="42" x2="72" y2="42"/><line class="cls-2" y1="48" x2="72" y2="48"/><line class="cls-2" y1="54" x2="72" y2="54"/><line class="cls-2" y1="60" x2="72" y2="60"/><line class="cls-2" y1="66" x2="72" y2="66"/><line class="cls-2" y1="72" x2="72" y2="72"/><line class="cls-2" x2="72"/></pattern><pattern id="dark_Blue_lines-3" data-name="dark Blue lines" width="72" height="72" patternTransform="translate(-105.87 567.2) rotate(-45)" patternUnits="userSpaceOnUse" viewBox="0 0 72 72"><rect class="cls-1" width="72" height="72"/><line class="cls-4" y1="72" x2="72" y2="72"/><line class="cls-4" x2="72"/><line class="cls-4" y1="6" x2="72" y2="6"/><line class="cls-4" y1="12" x2="72" y2="12"/><line class="cls-4" y1="18" x2="72" y2="18"/><line class="cls-4" y1="24" x2="72" y2="24"/><line class="cls-4" y1="30" x2="72" y2="30"/><line class="cls-4" y1="36" x2="72" y2="36"/><line class="cls-4" y1="42" x2="72" y2="42"/><line class="cls-4" y1="48" x2="72" y2="48"/><line class="cls-4" y1="54" x2="72" y2="54"/><line class="cls-4" y1="60" x2="72" y2="60"/><line class="cls-4" y1="66" x2="72" y2="66"/><line class="cls-4" y1="72" x2="72" y2="72"/><line class="cls-4" x2="72"/></pattern><pattern id="Whitelines-17" data-name="Whitelines" width="72" height="72" patternTransform="matrix(0.69, -0.75, 0.55, 0.6, -81.48, 720.38)" patternUnits="userSpaceOnUse" viewBox="0 0 72 72"><rect class="cls-1" width="72" height="72"/><line class="cls-2" y1="72" x2="72" y2="72"/><line class="cls-2" x2="72"/><line class="cls-2" y1="6" x2="72" y2="6"/><line class="cls-2" y1="12" x2="72" y2="12"/><line class="cls-2" y1="18" x2="72" y2="18"/><line class="cls-2" y1="24" x2="72" y2="24"/><line class="cls-2" y1="30" x2="72" y2="30"/><line class="cls-2" y1="36" x2="72" y2="36"/><line class="cls-2" y1="42" x2="72" y2="42"/><line class="cls-2" y1="48" x2="72" y2="48"/><line class="cls-2" y1="54" x2="72" y2="54"/><line class="cls-2" y1="60" x2="72" y2="60"/><line class="cls-2" y1="66" x2="72" y2="66"/><line class="cls-2" y1="72" x2="72" y2="72"/><line class="cls-2" x2="72"/></pattern><pattern id="Whitelines-19" data-name="Whitelines" width="72" height="72" patternTransform="matrix(0.82, -0.79, 0.65, 0.63, -135.63, 603.77)" patternUnits="userSpaceOnUse" viewBox="0 0 72 72"><rect class="cls-1" width="72" height="72"/><line class="cls-2" y1="72" x2="72" y2="72"/><line class="cls-2" x2="72"/><line class="cls-2" y1="6" x2="72" y2="6"/><line class="cls-2" y1="12" x2="72" y2="12"/><line class="cls-2" y1="18" x2="72" y2="18"/><line class="cls-2" y1="24" x2="72" y2="24"/><line class="cls-2" y1="30" x2="72" y2="30"/><line class="cls-2" y1="36" x2="72" y2="36"/><line class="cls-2" y1="42" x2="72" y2="42"/><line class="cls-2" y1="48" x2="72" y2="48"/><line class="cls-2" y1="54" x2="72" y2="54"/><line class="cls-2" y1="60" x2="72" y2="60"/><line class="cls-2" y1="66" x2="72" y2="66"/><line class="cls-2" y1="72" x2="72" y2="72"/><line class="cls-2" x2="72"/></pattern><pattern id="blue_windows-3" data-name="blue windows" width="20" height="20" patternTransform="translate(-23.3 -7.43) scale(0.5)" patternUnits="userSpaceOnUse" viewBox="0 0 20 20"><rect class="cls-1" width="20" height="20"/><rect class="cls-3" x="17.28" y="4.11" width="5.44" height="11.79"/><rect class="cls-3" x="7.28" y="4.11" width="5.44" height="11.79"/><rect class="cls-3" x="-2.72" y="4.11" width="5.44" height="11.79"/></pattern><pattern id="Whitelines-23" data-name="Whitelines" width="72" height="72" patternTransform="matrix(0.3, -0.3, 0.24, 0.24, -51.89, 683.32)" patternUnits="userSpaceOnUse" viewBox="0 0 72 72"><rect class="cls-1" width="72" height="72"/><line class="cls-2" y1="72" x2="72" y2="72"/><line class="cls-2" x2="72"/><line class="cls-2" y1="6" x2="72" y2="6"/><line class="cls-2" y1="12" x2="72" y2="12"/><line class="cls-2" y1="18" x2="72" y2="18"/><line class="cls-2" y1="24" x2="72" y2="24"/><line class="cls-2" y1="30" x2="72" y2="30"/><line class="cls-2" y1="36" x2="72" y2="36"/><line class="cls-2" y1="42" x2="72" y2="42"/><line class="cls-2" y1="48" x2="72" y2="48"/><line class="cls-2" y1="54" x2="72" y2="54"/><line class="cls-2" y1="60" x2="72" y2="60"/><line class="cls-2" y1="66" x2="72" y2="66"/><line class="cls-2" y1="72" x2="72" y2="72"/><line class="cls-2" x2="72"/></pattern><pattern id="Whitelines-25" data-name="Whitelines" width="72" height="72" patternTransform="matrix(0.71, -0.71, 0.57, 0.57, -96.98, 618.91)" patternUnits="userSpaceOnUse" viewBox="0 0 72 72"><rect class="cls-1" width="72" height="72"/><line class="cls-2" y1="72" x2="72" y2="72"/><line class="cls-2" x2="72"/><line class="cls-2" y1="6" x2="72" y2="6"/><line class="cls-2" y1="12" x2="72" y2="12"/><line class="cls-2" y1="18" x2="72" y2="18"/><line class="cls-2" y1="24" x2="72" y2="24"/><line class="cls-2" y1="30" x2="72" y2="30"/><line class="cls-2" y1="36" x2="72" y2="36"/><line class="cls-2" y1="42" x2="72" y2="42"/><line class="cls-2" y1="48" x2="72" y2="48"/><line class="cls-2" y1="54" x2="72" y2="54"/><line class="cls-2" y1="60" x2="72" y2="60"/><line class="cls-2" y1="66" x2="72" y2="66"/><line class="cls-2" y1="72" x2="72" y2="72"/><line class="cls-2" x2="72"/></pattern><pattern id="dark_Blue_lines-7" data-name="dark Blue lines" width="72" height="72" patternTransform="matrix(0.79, -0.71, 0.79, 0.71, -160.64, 516.29)" patternUnits="userSpaceOnUse" viewBox="0 0 72 72"><rect class="cls-1" width="72" height="72"/><line class="cls-4" y1="72" x2="72" y2="72"/><line class="cls-4" x2="72"/><line class="cls-4" y1="6" x2="72" y2="6"/><line class="cls-4" y1="12" x2="72" y2="12"/><line class="cls-4" y1="18" x2="72" y2="18"/><line class="cls-4" y1="24" x2="72" y2="24"/><line class="cls-4" y1="30" x2="72" y2="30"/><line class="cls-4" y1="36" x2="72" y2="36"/><line class="cls-4" y1="42" x2="72" y2="42"/><line class="cls-4" y1="48" x2="72" y2="48"/><line class="cls-4" y1="54" x2="72" y2="54"/><line class="cls-4" y1="60" x2="72" y2="60"/><line class="cls-4" y1="66" x2="72" y2="66"/><line class="cls-4" y1="72" x2="72" y2="72"/><line class="cls-4" x2="72"/></pattern><pattern id="Whitelines-35" data-name="Whitelines" width="72" height="72" patternTransform="matrix(0.34, -0.34, 0.27, 0.27, 28.03, 587.43)" patternUnits="userSpaceOnUse" viewBox="0 0 72 72"><rect class="cls-1" width="72" height="72"/><line class="cls-2" y1="72" x2="72" y2="72"/><line class="cls-2" x2="72"/><line class="cls-2" y1="6" x2="72" y2="6"/><line class="cls-2" y1="12" x2="72" y2="12"/><line class="cls-2" y1="18" x2="72" y2="18"/><line class="cls-2" y1="24" x2="72" y2="24"/><line class="cls-2" y1="30" x2="72" y2="30"/><line class="cls-2" y1="36" x2="72" y2="36"/><line class="cls-2" y1="42" x2="72" y2="42"/><line class="cls-2" y1="48" x2="72" y2="48"/><line class="cls-2" y1="54" x2="72" y2="54"/><line class="cls-2" y1="60" x2="72" y2="60"/><line class="cls-2" y1="66" x2="72" y2="66"/><line class="cls-2" y1="72" x2="72" y2="72"/><line class="cls-2" x2="72"/></pattern><symbol id="New_Symbol" data-name="New Symbol" viewBox="0 0 16 14.08"><path class="cls-5" d="M8,13.83c-4,0-6.55-.49-6.76-0.84a21.86,21.86,0,0,1-.9-6,21.27,21.27,0,0,1,.9-5.91C1.45,0.74,4,.25,8,0.25s6.55,0.49,6.76.84a26.35,26.35,0,0,1,.69,6A25.7,25.7,0,0,1,14.76,13C14.55,13.34,12,13.83,8,13.83Z"/><path class="cls-6" d="M8,0.5c3.9,0,6.1.45,6.53,0.72A25.66,25.66,0,0,1,15.2,7a25.66,25.66,0,0,1-.67,5.82c-0.42.27-2.62,0.72-6.53,0.72s-6.11-.45-6.53-0.72A21,21,0,0,1,.59,7a21,21,0,0,1,.88-5.82C1.89,1,4.09.5,8,.5M8,0C4.11,0,1,.47,1,1.05A21.34,21.34,0,0,0,.09,7,21.33,21.33,0,0,0,1,13c0,0.58,3.11,1.05,7,1.05s7-.47,7-1.05a25.7,25.7,0,0,0,.7-6,25.7,25.7,0,0,0-.7-6C15,0.47,11.89,0,8,0H8Z"/><rect class="cls-7" x="7" y="1" width="2" height="12"/></symbol></defs><title>SkylineBlueprint_finalIllustration5</title><rect class="cls-8" x="-159" width="2645" height="510"/><polygon class="cls-8" points="1318 374 1318 334 1425 334 1425 327 1434 327 1434 333 1438 333 1438 324.85 1448 325.35 1448 339 1473 339 1473 331 1500 331 1500 336 1536 336 1536 374 1318 374"/><polygon class="cls-9" points="2018 219.35 2018 468 2053 468 2053 228.85 2018 219.35"/><polygon class="cls-8" points="1884 106 1884 435.35 1866 416.96 1866 106 1884 106"/><rect class="cls-8" x="426" y="297" width="89" height="141"/><rect class="cls-10" x="379" y="339" width="45" height="58"/><polygon class="cls-11" points="1884 436.35 1933 462.85 1933 65.35 1884 75.63 1884 436.35"/><polygon class="cls-8" points="1751 372.56 1707 365.46 1707 282 1751 282 1751 372.56"/><path class="cls-8" d="M1971.67,468c0.82-1-.25-165.85-0.25-165.85L1983,287.92V468h-11.33Z"/><rect class="cls-12" x="2143" y="376" width="106" height="91"/><polygon class="cls-13" points="2142 379 2142 275 2079 275 2079 379.5 2079 400.07 2079 468 2260 468 2260 379 2142 379"/><rect class="cls-8" x="134" y="411" width="78" height="27"/><polygon class="cls-3" points="357.68 146.3 360.01 445.35 379 422.44 379 206.61 357.68 146.3"/><polygon class="cls-3" points="308 393 257 393 257 326.77 308 360.32 308 393"/><rect class="cls-14" x="80" y="336" width="48" height="90"/><polygon class="cls-8" points="1085 338.37 1085 273 1070 273 1070.5 181 1113 181 1113 121 1133 121 1133 108 1158 108 1158 97 1202 97 1202 111 1209 111 1209 93 1252 93 1252 108 1288 108 1288 127.5 1307.07 113 1344.5 113 1344 155 1363 155 1363 172 1386 172 1385.96 193 1395.5 193 1395 202 1422 202 1422 225.77 1422 245 1379 245 1379 270 1339 270 1339 339 1316 339 1316 375 1085 375 1085 338.37"/><polyline class="cls-15" points="882 269.5 1013.5 269.5 1013.5 178.5 1007.5 178.5 1007.5 159.97 1007.5 150.97 1000.5 158.21 1000.5 135.97 1000.5 120.5 1037.5 120.5 1037.5 139.5 1047.5 139.5 1047.5 148.5 1065.5 148.5 1065.5 165.5 1077.5 165.5 1077.5 320.97 1077.5 389.97 1030.73 363.87"/><polyline class="cls-15" points="776.24 89.61 825.5 98.24 824.67 346.5"/><polygon class="cls-16" points="776.12 88.72 824.16 98.73 825.67 373 776 373 776.12 88.72"/><polygon class="cls-8" points="1420 222 1601 222 1601 151.35 1652 141.58 1652 268 1549 268 1549 275 1510 275 1508 275 1508 262 1484 262 1484 248 1420 248 1420 222"/><polygon class="cls-8" points="1579 93.35 1579 226 1652 226 1652 142.35 1641 143.81 1641 102.35 1579 93.35"/><polyline class="cls-17" points="637 437.5 544.5 437.5 544.5 299.5 623.5 299.5 623.5 285.5 637.5 285.5 637.5 367"/><polyline class="cls-2" points="1640.5 144 1640.5 102.1 1578.87 93.78 1498.5 102.1 1498.5 222"/><polygon class="cls-18" points="1578 222 1578 93.36 1499 102.1 1499 222 1578 222"/><polyline class="cls-19" points="1021 269.5 1021 269.5 1021 269.5"/><polyline class="cls-19" points="1712.5 280 1712.5 150.57 1651.45 141.85 1600.5 151.57 1600.5 221.5 1493.44 221.5 1421.5 221.5 1421.5 198.5 1394.5 198.5 1394.5 188.5 1384.5 188.5 1384.5 169.5 1362.5 169.5 1362.5 152.5 1343.5 152.5 1343.5 111.5 1306.07 111.5 1286.5 126.59 1286.5 107.5 1251.5 107.5 1251.5 93.5 1208.5 93.5 1208.5 110.5 1201.5 110.5 1201.5 97.5 1157.5 97.5 1157.5 107.5 1132.5 107.5 1132.5 120.5 1112.5 120.5 1112.5 178.5 1068.5 178.5 1068.5 269.5 1021 269.5 1021 269.5"/><polyline class="cls-19" points="824.56 377.63 824.84 263.15 830.5 244.5"/><polygon class="cls-2" points="735.5 377.5 676.5 377.5 676.5 235.11 710.61 226.5 735.5 226.5 735.5 377.5"/><polygon class="cls-20" points="710.5 227.15 676.5 235.11 676.5 378.29 710.5 377.85 710.5 227.15"/><line class="cls-2" x1="776.5" y1="90" x2="776.5" y2="356"/><path class="cls-21" d="M544.76,299.17L527.5,303V437.5H545C545,436.5,544.76,299.17,544.76,299.17Z"/><path class="cls-22" d="M544.76,299.17L527.5,303V437.5H545C545,436.5,544.76,299.17,544.76,299.17Z"/><g class="cls-23"><polyline class="cls-24" points="924 371 924 227 932 227 932 183 940 183 940 171 947 171 947 162 952.32 162 951.94 142.81 999 135.73 999 155 1013 155 1013 177.8 1020 177.24 1020 363"/><polyline class="cls-25" points="924 371 924 227 932 227 932 183 940 183 940 171 947 171 947 162 952.32 162 951.94 142.81 999 135.73 999 155 1013 155 1013 177.8 1020 177.24 1020 363"/><polyline class="cls-2" points="924.5 371 924.5 227.5 931.5 227.5 931.5 183.5 940.5 183.5 940.5 170.5 946.5 170.5 946.5 162.5 952.32 162.5 952.19 143.06 999.5 135.73 999.5 154.5 1012.5 154.5 1012.5 177.8 1020.5 177.24 1020.5 363"/></g><g class="cls-26"><polyline class="cls-27" points="924 371 924 227 932 227 932 183 940 183 940 171 947 171 947 162 952.32 162 951.94 142.81 999 135.73 999 155 1013 155 1013 177.8 1020 177.24 1020 363"/><polyline class="cls-25" points="924 371 924 227 932 227 932 183 940 183 940 171 947 171 947 162 952.32 162 951.94 142.81 999 135.73 999 155 1013 155 1013 177.8 1020 177.24 1020 363"/></g><polyline class="cls-8" points="1531 376 1531 336 1495 336 1495 330 1475.7 330 1468 330 1468 339 1443 339 1443 324 1433 324 1433 332 1429 332 1429 326 1420 326 1420 333 1313 333 1313 373"/><polyline class="cls-18" points="1602 151 1602 267 1652 267 1652 141"/><line class="cls-28" x1="1211.03" y1="422.51" x2="1212.32" y2="427.65"/><polygon class="cls-29" points="735.5 99.11 776.5 89.11 776.5 380.39 735.5 380.47 735.5 99.11"/><polygon class="cls-30" points="999.51 120.74 984.5 123.84 984.5 137.35 999.56 134.88 999.51 120.74"/><polyline class="cls-31" points="999.01 120.57 984 123.84 984 137"/><polygon class="cls-32" points="549.31 381.6 542 381.85 542 377.61 547.43 376.57 549.31 381.6"/><rect class="cls-11" x="308" y="145" width="45" height="300"/><rect class="cls-8" x="-12" y="432" width="506" height="13"/><polyline class="cls-33" points="-11 469 1709.37 469 2334 469 2334 431 2297 431 2297 336 2249 336 2249 375 2144 375 2144 273 2078 273 2078 313 2054 313 2054 226.85 2019.55 217.36 1984 226.85 1984 286.92 1973 297.81 1973 77 1955 77 1955 60 1933.94 60 1885 69.81 1885 105 1865 105 1865 252 1793 252 1793 312 1753 312 1753 281 1706 281 1706 318 1531 318 1531 274.35 1508.41 273.85 1508.71 261.35 1485 261.85 1485 248 1421 248 1421 239 1379.8 239 1380.3 262.42 1341.79 262.96 1339.79 369 1289 369 1289 266 1182 266 1182 339 1057 339 1057 358.85 882 370.18 882 244 831 244 831 346 689 346 689 266 642 266 642 358 517 358 517 295 425 295 425 337 381 337 381 203.81 358.69 145 309 145 309 327 258 327 258 273 212 273 212 409 135 409 135 327 74 327 74 427 -11 427"/><polyline class="cls-34" points="2334 426.5 2297.5 426.5 2297.5 335.5 2249.5 335.5 2249.5 374.5 2144.5 374.5 2144.5 272.5 2078.5 272.5 2078.5 312.5 2054.5 312.5 2054.5 226.85 2020.05 217.36 1984.5 226.85 1984.5 286.92 1973.5 297.81 1973.5 76.5 1955.5 76.5 1955.5 59.5 1933.94 59.5 1885.5 69.81 1885.5 104.5 1865.5 104.5 1865.5 251.5 1793.5 251.5 1793.5 311.5 1753.5 311.5 1753.5 280.5 1706.5 280.5 1706.5 317.5 1531.5 317.5 1531.5 274.35 1508.66 273.85 1509.08 261.35 1485.5 261.85 1485.5 247.5 1421.5 247.5 1421.5 238.5 1379.8 238.5 1380.3 262.17 1341.79 262.59 1339.79 368.5 1289.5 368.5 1289.5 265.5 1182.5 265.5 1182.5 338.5 1057.5 338.5 1057.5 358.85 882.5 370.18 882.5 243.5 831.5 243.5 831.5 345.5 689.5 345.5 689.5 265.5 642.5 265.5 642.5 357.5 517.5 357.5 517.5 294.5 425.5 294.5 425.5 336.5 381.5 336.5 381.5 203.81 358.69 144.5 309.5 144.5 309.5 326.5 258.5 326.5 258.5 272.5 212.5 272.5 212.5 408.5 135.5 408.5 135.5 326.5 74.5 326.5 74.5 426.5 -11 426.5"/><polygon class="cls-35" points="2297 427.02 2297 335.92 2249 335.92 2249 374.92 2144 374.92 2144 272.92 2078 272.92 2078 312.92 2054 312.92 2054 226.77 2019.55 217.28 1984 226.77 1984 286.84 1973 297.73 1973 76.92 1955 76.92 1955 59.92 1933.53 59.92 1885 69.73 1885 104.92 1865 104.92 1865 251.92 1793 251.92 1793 311.92 1753 311.92 1753 280.92 1706 280.92 1706 317.92 1531 317.92 1531 274.27 1508.25 273.77 1508.63 261.27 1485 261.77 1485 247.92 1421 247.92 1421 238.92 1379.5 238.92 1380 262.35 1341.5 262.88 1339.5 368.92 1289 368.92 1289 265.92 1182 265.92 1182 338.92 1057 338.92 1057 358.77 882 370.1 882 243.92 831 243.92 831 345.92 689 345.92 689 265.92 642 265.92 642 357.92 517 357.92 517 294.92 425 294.92 425 336.92 381 336.92 381 203.73 358.61 144.92 309 144.92 309 326.92 258 326.92 258 272.92 212 272.92 212 408.92 135 408.92 135 326.92 74 326.92 74 426.92 -11 426.92 -11 468.92 1709 468.92 2334 468.92 2334 426.98 2297 427.02"/><polyline class="cls-34" points="2334 426.49 2297.5 426.49 2297.5 335.5 2249.5 335.5 2249.5 374.5 2144.5 374.5 2144.5 272.5 2078.5 272.5 2078.5 312.5 2054.5 312.5 2054.5 226.85 2020.05 217.36 1984.5 226.85 1984.5 286.92 1973.5 297.81 1973.5 76.5 1955.5 76.5 1955.5 59.5 1933.53 59.5 1885.5 69.81 1885.5 104.5 1865.5 104.5 1865.5 251.5 1793.5 251.5 1793.5 311.5 1753.5 311.5 1753.5 280.5 1706.5 280.5 1706.5 317.5 1531.5 317.5 1531.5 274.35 1508.5 273.85 1509 261.35 1485.5 261.85 1485.5 247.5 1421.5 247.5 1421.5 238.5 1379.5 238.5 1380 262.17 1341.5 262.59 1339.5 368.5 1289.5 368.5 1289.5 265.5 1182.5 265.5 1182.5 338.5 1057.5 338.5 1057.5 358.85 882.5 370.18 882.5 243.5 831.5 243.5 831.5 345.5 689.5 345.5 689.5 265.5 642.5 265.5 642.5 357.5 517.5 357.5 517.5 294.5 425.5 294.5 425.5 336.5 381.5 336.5 381.5 203.81 358.61 144.5 309.5 144.5 309.5 326.5 258.5 326.5 258.5 272.5 212.5 272.5 212.5 408.5 135.5 408.5 135.5 326.5 74.5 326.5 74.5 426.5 -11 426.5"/><polygon class="cls-8" points="1318 373 1318 333 1425 333 1425 326 1434 326 1434 332 1438 332 1438 323.85 1448 324.35 1448 338 1473 338 1473 330 1500 330 1500 335 1536 335 1536 373 1318 373"/><polygon class="cls-36" points="2018 218.35 2018 467 2053 467 2053 227.85 2018 218.35"/><polygon class="cls-8" points="1884 105 1884 434.35 1866 415.96 1866 105 1884 105"/><rect class="cls-8" x="426" y="296" width="89" height="141"/><polygon class="cls-5" points="1550 266.35 1550 375 1600 375 1633.53 357.91 1653 359.92 1652 267.3 1550 266.35"/><polygon class="cls-37" points="1550 266.35 1550 375 1600 375 1633.53 357.91 1653 359.92 1652 267.3 1550 266.35"/><rect class="cls-38" x="379" y="338" width="45" height="58"/><polygon class="cls-8" points="786 447.35 786 407.35 1035 382.16 1035 412.35 786 447.35"/><rect class="cls-5" x="1795" y="254" width="71" height="212"/><polygon class="cls-39" points="1884 435.35 1933 461.85 1933 64.35 1884 74.63 1884 435.35"/><polygon class="cls-8" points="1751 371.56 1707 364.46 1707 281 1751 281 1751 371.56"/><path class="cls-8" d="M1971.67,467c0.82-1-.25-165.85-0.25-165.85L1983,286.92V467h-11.33Z"/><rect class="cls-36" x="2143" y="375" width="109" height="90"/><polygon class="cls-37" points="2141 378 2141 277 2081 277 2081 378.71 2081 398.73 2081 465 2252 465 2252 378 2141 378"/><rect class="cls-8" x="134" y="410" width="78" height="27"/><polygon class="cls-3" points="357.68 145.3 360.01 444.35 379 421.44 379 205.61 357.68 145.3"/><polygon class="cls-3" points="308 392 257 392 257 325.77 308 359.32 308 392"/><rect class="cls-40" x="80" y="335" width="48" height="90"/><polygon class="cls-8" points="1085 327.35 1085 265 1070 265 1070.5 176 1113 176 1113 119 1133 119 1133 106 1158 106 1158 96 1202 96 1202 109 1209 109 1209 92 1252 92 1252 106 1288 106 1288 125.09 1307.07 111 1344.5 111 1344 151 1363 151 1363 168 1386 168 1385.96 188 1395.5 188 1395 197 1422 197 1422 219.35 1422 238 1379 238 1379 262 1339 262 1339 328 1316 328 1316 362 1085 362 1085 327.35"/><path class="cls-41" d="M710.5,325V228.5h22v108h44L776.24,87.61l49.26,9.64V338.5h57v-70h131v-91h-6V150l-7,7.23V119.5h37v19h10v9h18v17h12V389L1031,362.87,748.27,378.64s-24.69-3.18-37.67-1.8Z"/><polygon class="cls-42" points="776.12 87.72 824.16 97.73 825.67 372 776 372 776.12 87.72"/><polygon class="cls-8" points="1420 221 1601 221 1601 150.35 1652 140.58 1652 267 1549 267 1549 274 1510 274 1508 274 1508 261 1484 261 1484 247 1420 247 1420 221"/><polygon class="cls-8" points="1579 92.35 1579 225 1652 225 1652 141.35 1641 142.81 1641 101.35 1579 92.35"/><path class="cls-43" d="M617,43.5H610.5V41.73a1.56,1.56,0,0,0-.43-1.23h-1.48l-1.45-27.19L605.68,40.5h-1.48s-1.69.34-1.69,1.23V43.5h-5.29s-1.71.92-1.71,2.08v1.88s11-.63,22,0V45.58A5.23,5.23,0,0,0,617,43.5Z"/><path class="cls-44" d="M608.55,60A215.76,215.76,0,0,1,644,62.86s-16.76-5.54-20.32-7c-4.63-1.88-5.64-4.3-5.64-4.3l4.57-3.85c-0.9-1.7-15.1-1.72-15.1-1.72h-1.45s-14.2,0-15.1,1.71l4.57,3.81s-0.82,2.44-5.64,4.32c-3.59,1.4-20.32,7-20.32,7A216.61,216.61,0,0,1,605,60h3.54Z"/><path class="cls-8" d="M643.91,63.1A200.59,200.59,0,0,0,608.55,60H605a200.59,200.59,0,0,0-35.36,3.1l-0.25-.85c0.17-.06,16.76-5.54,20.3-6.91s4.8-3,5.2-3.67l-4.57-3.75,0.19-.2c0.82-1.56,8.74-1.72,15.24-1.72h2c6.5,0,14.42.17,15.24,1.73L623.24,48l-4.56,3.71c0.45,0.68,1.81,2.32,5.19,3.7s20.12,6.79,20.29,6.84Z"/><path class="cls-6" d="M607.8,46c2,0,14,.16,14.8,1.71L618,51.52s1,2.44,5.64,4.32c3.57,1.45,20.32,7,20.32,7A216.61,216.61,0,0,0,608.55,60H605a215.76,215.76,0,0,0-35.45,2.86s16.74-5.59,20.32-7c4.82-1.88,5.64-4.3,5.64-4.3L591,47.72c0.82-1.55,12.75-1.72,14.8-1.72H608m-0.2-1h-2c-14.55,0-15.37,1.66-15.68,2.25l-0.38.77,0.63,0.54,3.91,3.23a10.48,10.48,0,0,1-4.71,3.14c-3.52,1.37-20.11,6.91-20.28,7l0.5,1.94A217,217,0,0,1,605,61h3.54a216.68,216.68,0,0,1,35.27,2.84l0.5-1.94c-0.17-.06-16.76-5.54-20.26-7a11.3,11.3,0,0,1-4.69-3.17l3.88-3.19,0.63-.52-0.38-.81c-0.31-.59-1.13-2.25-15.68-2.25h0Z"/><path class="cls-45" d="M610.09,58.94c8.1,0.13,15.34.7,20.9,1.3-4-1.37-8-2.74-9.53-3.37-4.9-2-6.1-4.59-6.23-4.88l-0.31-.74,3.88-3.19a76.91,76.91,0,0,0-12.67-.79Z"/><path class="cls-46" d="M561.64,70.14A354.43,354.43,0,0,1,602.31,68c19.15,0,36.67,1.32,50.17,3.51,0,0-2.88-1.48-4-2.11s-5.13-2-5.13-2l0.67-4a240.62,240.62,0,0,0-74.37,0l0.61,3.47S564.71,68.29,561.64,70.14Z"/><path class="cls-47" d="M638.57,80.84c-18.58-2-19.46-3.15-31.81-3.24-12.66-.1-13.25,1.14-31.2,2l-2.3-7c4.64-.27,18.94-1.26,33.5-1.15,13.3,0.1,26.84,1.1,33.45,1.58Z"/><path class="cls-48" d="M626.37,85.22a129,129,0,0,0-20.29-1.47,138.8,138.8,0,0,0-16.57.94"/><path class="cls-49" d="M587.39,61.18l0.47,4.37,4.92-.2-0.35-4.5Q589.94,61,587.39,61.18Z"/><path class="cls-49" d="M597.47,60.64l0.22,4.56,4.91-.1-0.11-4.58Q600,60.56,597.47,60.64Z"/><path class="cls-49" d="M592.43,60.86l0.35,4.5,4.92-.15-0.22-4.56Q595,60.72,592.43,60.86Z"/><path class="cls-49" d="M577.31,62.16L578,66.11l4.92-.3-0.6-4.19Q579.84,61.86,577.31,62.16Z"/><path class="cls-49" d="M582.34,61.61l0.6,4.19,4.92-.25-0.47-4.37Q584.88,61.37,582.34,61.61Z"/><path class="cls-49" d="M569.66,63.23l0.61,3.47,2.83-.24-0.81-3.63Z"/><path class="cls-49" d="M572.3,62.83l0.81,3.63c1.27-.1,2.93-0.22,4.91-0.35l-0.71-3.94Q574.82,62.46,572.3,62.83Z"/><path class="cls-50" d="M602.5,60.53l0.11,4.58c1.61,0,2.9,0,4.9,0V60.51C605.5,60.5,604.2,60.5,602.5,60.53Z"/><path class="cls-50" d="M607.5,60.51v4.56c2,0,4.09,0,6.17,0l0.1-4.49C611.75,60.55,609.5,60.52,607.5,60.51Z"/><path class="cls-49" d="M644,63.18s-1.83-.31-5.09-0.71l-0.72,4c1.74,0.19,3.46.41,5.14,0.65Z"/><path class="cls-49" d="M628.88,61.44l-0.45,4.2q2.47,0.16,4.91.36l0.58-4.1C632.38,61.75,630.7,61.59,628.88,61.44Z"/><path class="cls-49" d="M633.91,61.9L633.33,66q2.47,0.21,4.89.48l0.72-4C637.52,62.29,635.84,62.1,633.91,61.9Z"/><path class="cls-49" d="M623.84,61.07l-0.33,4.31q2.47,0.11,4.92.26l0.45-4.2Q626.5,61.24,623.84,61.07Z"/><path class="cls-49" d="M613.78,60.61l-0.11,4.49q2.44,0,4.91.1l0.22-4.4Q616.37,60.68,613.78,60.61Z"/><path class="cls-49" d="M618.8,60.79l-0.22,4.4q2.46,0.07,4.92.18l0.33-4.31C622.23,61,620.55,60.88,618.8,60.79Z"/><path class="cls-51" d="M602.53,83.61a36.28,36.28,0,0,1-2.13-6q-2.13,0-4.23.1a28.07,28.07,0,0,0,3.57,5.93Z"/><path class="cls-51" d="M596.88,83.83c0.94-.06,1.9-0.1,2.87-0.14a28.07,28.07,0,0,1-3.57-5.93q-2.33.08-4.59,0.2A27.09,27.09,0,0,0,596.88,83.83Z"/><path class="cls-51" d="M605.38,83.58c-0.33-2-.6-4.74-0.71-5.95h-0.4q-2,0-3.87,0a36.28,36.28,0,0,0,2.13,6Z"/><path class="cls-51" d="M594.34,84a30.19,30.19,0,0,1-6.88-5.78q-2,.14-3.95.32a35.25,35.25,0,0,0,8.5,5.67Z"/><path class="cls-51" d="M592,84.21a35.25,35.25,0,0,1-8.5-5.67q-2.37.22-4.65,0.48a44.15,44.15,0,0,0,10.76,5.45Z"/><path class="cls-51" d="M594.34,84l2.54-.17a27.09,27.09,0,0,1-5.3-5.87q-2.09.11-4.13,0.26A30.19,30.19,0,0,0,594.34,84Z"/><path class="cls-51" d="M605.59,83.58l2.64,0c0.33-2,.59-4.69.71-5.93q-2.12,0-4.27,0c0.11,1.21.38,3.94,0.71,5.95h0.22Z"/><path class="cls-51" d="M623.41,84.71a47,47,0,0,0,11.17-5c-1.37-.2-2.78-0.38-4.21-0.56a35.7,35.7,0,0,1-9,5.35Z"/><path class="cls-51" d="M618.95,84.19l2.46,0.26a35.7,35.7,0,0,0,9-5.35q-2.24-.27-4.59-0.49A29.27,29.27,0,0,1,618.95,84.19Z"/><path class="cls-51" d="M611.05,83.68a35.43,35.43,0,0,0,2.13-5.88q-2.1-.08-4.24-0.12c-0.11,1.24-.38,3.94-0.71,5.93Z"/><path class="cls-51" d="M625.19,85a75.49,75.49,0,0,0,14.42-4.49q-2.43-.44-5-0.82a47,47,0,0,1-11.17,5Z"/><path class="cls-51" d="M570.21,80.26s3.89,2.67,16.84,4.27a53.22,53.22,0,0,1-12-5C573.43,79.74,571.79,80,570.21,80.26Z"/><path class="cls-51" d="M588.61,84.6l1-.12A44.15,44.15,0,0,1,578.87,79q-1.92.22-3.76,0.48a53.22,53.22,0,0,0,12,5q2,0.24,4.21.45-0.83-.23-1.64-0.5Z"/><path class="cls-51" d="M613.78,83.8A27.19,27.19,0,0,0,617.34,78q-2.05-.11-4.16-0.19a35.43,35.43,0,0,1-2.13,5.88Z"/><path class="cls-51" d="M616.53,84l2.42,0.21a29.27,29.27,0,0,0,6.82-5.58q-2-.19-4-0.34A26.33,26.33,0,0,1,616.53,84Z"/><path class="cls-51" d="M616.53,84a26.33,26.33,0,0,0,5.26-5.71q-2.19-.17-4.45-0.29a27.19,27.19,0,0,1-3.57,5.82Z"/><path class="cls-51" d="M594.34,84a15.83,15.83,0,0,0,3.06,1.4l2.37,0.11a11.17,11.17,0,0,1-2.89-1.68Z"/><path class="cls-51" d="M621.4,84.45a22.19,22.19,0,0,1-3.55,1.08l2.65-.11c1-.19,2-0.44,2.91-0.71Z"/><path class="cls-51" d="M618.95,84.19a14.58,14.58,0,0,1-3.44,1.42l2.35-.07a22.19,22.19,0,0,0,3.55-1.08Z"/><path class="cls-51" d="M616.53,84a10.31,10.31,0,0,1-3.09,1.67l2.06,0a14.58,14.58,0,0,0,3.44-1.42Z"/><path class="cls-51" d="M613.78,83.8a7.1,7.1,0,0,1-2.29,1.88l2,0A10.31,10.31,0,0,0,616.53,84Z"/><path class="cls-51" d="M642.84,81.11c-1-.22-2.12-0.42-3.22-0.62A75.49,75.49,0,0,1,625.19,85l0.59,0.1C640.51,83.82,642.84,81.11,642.84,81.11Z"/><path class="cls-51" d="M623.91,85.22l1.87-.15-0.59-.1Z"/><path class="cls-51" d="M589.63,84.47q0.81,0.27,1.64.5,1.66,0.15,3.48.27a21.78,21.78,0,0,1-2.74-1Z"/><path class="cls-51" d="M623.41,84.71c-0.94.27-1.92,0.52-2.91,0.71q1.8-.09,3.41-0.21l1.28-.24Z"/><path class="cls-51" d="M613.78,83.8l-2.72-.12a5.87,5.87,0,0,1-1.45,2h1.88A7.1,7.1,0,0,0,613.78,83.8Z"/><path class="cls-51" d="M599.75,83.69c-1,0-1.93.08-2.87,0.14a11.17,11.17,0,0,0,2.89,1.68L602,85.59A7.63,7.63,0,0,1,599.75,83.69Z"/><path class="cls-51" d="M592,84.21a21.78,21.78,0,0,0,2.74,1l2.65,0.16a15.83,15.83,0,0,1-3.06-1.4Z"/><path class="cls-51" d="M602.53,83.61l-2.78.08A7.63,7.63,0,0,0,602,85.59l2,0A6.24,6.24,0,0,1,602.53,83.61Z"/><path class="cls-51" d="M611.05,83.68l-2.82-.08a10.3,10.3,0,0,1-.5,2.08h1.86A5.87,5.87,0,0,0,611.05,83.68Z"/><path class="cls-51" d="M602.53,83.61a6.24,6.24,0,0,0,1.42,2l1.92,0a10.6,10.6,0,0,1-.49-2.09Z"/><path class="cls-51" d="M605.59,83.58h-0.22a10.6,10.6,0,0,0,.49,2.09l1.87,0a10.3,10.3,0,0,0,.5-2.08Z"/><path class="cls-51" d="M591.67,68.19l1.86,3.06c1.58,0,3.21-.08,4.86-0.11l-1.24-3.07Q594.38,68.11,591.67,68.19Z"/><path class="cls-51" d="M597.16,68.07l1.24,3.07c1.58,0,3.18,0,4.8,0L602.58,68Q599.84,68,597.16,68.07Z"/><path class="cls-51" d="M586.17,68.39l2.47,3,4.9-.17-1.86-3.06Q588.89,68.27,586.17,68.39Z"/><path class="cls-51" d="M570,69.46L574,72.17l4.87-.29L575.3,69Q572.63,69.23,570,69.46Z"/><path class="cls-51" d="M562.44,70.24s6.44,2.23,10.32,2l1.22-.07L570,69.46Q566.16,69.81,562.44,70.24Z"/><path class="cls-51" d="M580.7,68.67l3,3,4.91-.22-2.47-3Q583.4,68.51,580.7,68.67Z"/><path class="cls-43" d="M608.5,68.05v0c-2,0-3.4,0-5.14,0h-0.8l0.63,3.07h3.07c2.39,0,4.78.07,7.14,0.13l0.55-3.08C612.16,68.11,610.5,68.08,608.5,68.05Z"/><path class="cls-51" d="M575.3,69l3.54,2.85,4.89-.26-3-3Q578,68.83,575.3,69Z"/><path class="cls-51" d="M641.69,69.89l-3.26,2.69,3.45,0.25s0.65,0,1.74,0L647,70.5Q644.41,70.18,641.69,69.89Z"/><path class="cls-51" d="M636.23,69.37l-2.85,2.86,5.06,0.36,3.26-2.69Q639,69.62,636.23,69.37Z"/><path class="cls-51" d="M653.74,71.4c-2.17-.32-4.41-0.62-6.71-0.9l-3.4,2.38a47,47,0,0,0,8.93-.9Z"/><path class="cls-51" d="M630.67,68.94l-2.34,3,5.05,0.32,2.85-2.86Q633.49,69.14,630.67,68.94Z"/><path class="cls-51" d="M619.5,68.34l-1.19,3.07,5,0.23,1.78-3Q622.32,68.45,619.5,68.34Z"/><path class="cls-51" d="M625.07,68.6l-1.78,3,5,0.28,2.34-3Q627.91,68.75,625.07,68.6Z"/><path class="cls-51" d="M614,68.15l-0.59,3.08c1.66,0,3.3.11,4.91,0.17l1.19-3.07Q616.77,68.23,614,68.15Z"/><path class="cls-52" d="M620.25,249.13l-5.37-66.64s-1.68-20.29-1.68-30.47a299.39,299.39,0,0,1,2-31c0.78-5.81,5.48-35.24,5.48-35.24l-1.9.33-7.25,44.72c0-2.62.12-4.14,0.22-5.06C612.34,121,616.91,87,616.91,87h-1.6l-4.57,32.52s-0.88,4.67-3,4.67-2.56-9.25-2.56-9.25l-1.92-28.78-2-.14,2.29,36.27s0.16,22.77,0,31.42c-0.07,3.91.33,35.28,0.79,68.28h-9.84c1.41-12,5.79-50.55,5.79-56.75,0-7.39-.78-43.72-1.56-51.89s-2.53-27.17-2.53-27.17l-5.54-.38S598,131.3,598,136.55s1.07,19.38-1.07,42.32C596.23,186.56,580.71,304,580.71,304h4.47l8.94-78a0.18,0.18,0,0,1,0,0h10.32c0.55,39,1.16,79,1.16,79h2.16l-0.11-16h5.4l0.56,16h2.56l-0.52-16H620v-1.14L622,301h2.46Zm-8.5-76-5,18.28c0-3.77,0-13,1.36-15.39a25.55,25.55,0,0,1,1.6,9c0.08,5.45,1,36.11,1,36.11l0,0.93H607.1C606.93,209,606.73,193.49,606.73,191.38ZM607.14,226h3.74l0.47,13h-4C607.29,237,607.22,232,607.14,226Zm0.21,16h4.09l0.45,13h-4.46ZM606,286v-0.67L607.46,257H612l1,29h-7Zm7.5-64c-0.38-10-1.48-38.85-1.75-48.56l2.91,36.06,1,12.5H613.5Zm0.14,4h2.31L617,239h-3Zm1.95,60-0.93-29H617v-2h-2.42l-0.42-13h3.09l1.06,13,2.51,31h-5.23Z"/><path class="cls-8" d="M619.75,249.88l-5.37-66.76s-1.68-20.35-1.68-30.53a300.07,300.07,0,0,1,2-31c0.78-5.81,5.48-35.25,5.48-35.25l-1.9.33-7.25,44.71c0-2.62.12-3.9,0.22-4.81,0.56-4.81,5.13-38.53,5.13-38.53h-1.6l-4.57,32.27s-0.88,4.54-3,4.54-2.56-9.31-2.56-9.31L602.79,86.7l-2-.15,2.29,36.26s0.16,23,0,31.67c-0.07,3.91.33,35.53,0.79,68.53h-9.84c1.41-12,5.79-50.8,5.79-57,0-7.39-.78-43.85-1.56-52s-2.53-27.23-2.53-27.23l-5.54-.41s7.29,45.47,7.29,50.72,1.07,19.62-1.07,42.57C595.73,187.32,580.21,305,580.21,305h4.47l8.94-78a0.18,0.18,0,0,1,0,0h10.32c0.55,39,1.16,79,1.16,79h2.16l-0.11-16h5.4l0.56,16h2.56l-0.52-15.83,4.59-.08L621.54,302H624Zm-8.5-76.28-5,18.53c0-3.77,0-13.11,1.36-15.52a25,25,0,0,1,1.6,8.91c0.08,5.45,1,36.33,1,36.33l0,1.15H606.6C606.43,210,606.23,194.24,606.23,192.13ZM606.64,227h3.74l0.47,13h-4C606.79,238,606.72,233,606.64,227Zm0.21,16h4.09l0.45,13h-4.46Zm0.4,15.4,4.23-.06,1,29-5.57-.34ZM613,223c-0.38-10-1.48-39.1-1.75-48.81l2.91,36.18,1,12.63H613Zm0.14,4h2.31l1.09,13h-3Zm1.95,60-0.93-29H619v-2h-4.92l-0.42-13h3.09l1.06,13,2.51,31h-5.23Z"/><polyline class="cls-53" points="637 436.5 544.5 436.5 544.5 298.5 623.5 298.5 623.5 284.5 637.5 284.5 637.5 366"/><polyline class="cls-2" points="1640.5 143 1640.5 101.1 1578.87 92.78 1498.5 101.1 1498.5 221"/><polygon class="cls-54" points="1578 221 1578 92.36 1499 101.1 1499 221 1578 221"/><polyline class="cls-55" points="825.67 376.63 825.89 262.15 832.3 242.5 883.22 242.5 883.5 267.5 883.5 267.5 929.83 267.5 972.3 267.5 1069.5 267.5 1069.5 177.5 1113.5 177.5 1113.5 119.5 1133.5 119.5 1133.5 106.5 1158.5 106.5 1158.5 96.5 1202.5 96.5 1202.5 109.5 1209.5 109.5 1209.5 92.5 1252.5 92.5 1252.5 106.5 1287.5 106.5 1287.5 125.59 1307.07 110.5 1344.5 110.5 1344.5 151.5 1363.5 151.5 1363.5 168.5 1385.5 168.5 1385.5 187.5 1395.5 187.5 1395.5 197.5 1422.5 197.5 1422.5 220.5 1494.44 220.5 1601.5 220.5 1601.5 150.57 1652.45 140.85 1713.5 149.57 1713.5 279"/><polygon class="cls-2" points="735.5 376.5 676.5 376.5 676.5 234.11 710.61 225.5 735.5 225.5 735.5 376.5"/><polygon class="cls-56" points="710.5 226.15 676.5 234.11 676.5 377.29 710.5 376.85 710.5 226.15"/><line class="cls-2" x1="776.5" y1="89" x2="776.5" y2="355"/><path class="cls-21" d="M544.76,298.17L527.5,302V436.5H545C545,435.5,544.76,298.17,544.76,298.17Z"/><path class="cls-57" d="M544.76,298.17L527.5,302V436.5H545C545,435.5,544.76,298.17,544.76,298.17Z"/><polygon class="cls-2" points="552.5 436.5 515.5 436.5 515.5 385.97 536.74 381.5 552.5 381.5 552.5 436.5"/><polygon class="cls-56" points="536.5 381.42 515.5 385.97 515.5 436.5 536.5 436.5 536.5 381.42"/><polygon class="cls-58" points="511.5 392.15 494.5 395.82 494.5 436.5 511.5 436.5 511.5 392.15"/><polyline class="cls-2" points="637 436.5 541.5 436.5 541.5 376.15 566.07 370.5 636.5 370.5 636.5 376"/><polygon class="cls-2" points="657.5 376.5 657.5 376.61 658.12 376.5 656.5 376.5 656.5 376.71 615.5 380.04 615.5 380.62 615.5 389.46 593.5 391.07 593.5 391.65 593.5 400.58 580.5 401.73 580.5 402.3 580.5 435.85 637 437.85 705.33 428.99 705.5 428.42 705.5 376.5 657.5 376.5"/><polyline class="cls-2" points="657 376.5 705.5 376.5 705.5 427.88 637.07 437.85 610.5 437.06 610.5 401"/><polyline class="cls-59" points="637.53 378.95 658.15 377.29 658.15 387.05 616.92 389.99 616.92 380.62 637.53 378.95"/><polygon class="cls-60" points="636.91 388.56 636.91 397.71 593.69 401.32 593.5 391.07 636.91 388.56"/><polygon class="cls-60" points="610.68 399.9 610.68 437.25 581.95 437.25 581.95 402.3 610.68 399.9"/><polygon class="cls-43" points="1040.5 379.52 1040.5 415.83 780.5 450.99 780.5 403.52 1040.5 379.52"/><polygon class="cls-43" points="1040.5 372.82 1040.5 379.52 782.59 404.5 772.5 404.5 772.5 394.77 1040.5 372.82"/><path class="cls-43" d="M1032.81,365.85l10,7.33L774.31,395.5H761.2c0-7-8.84-14.1-15.63-14.14Z"/><rect class="cls-8" x="678" y="404" width="104" height="47"/><rect class="cls-25" x="678" y="404" width="104" height="47"/><rect class="cls-2" x="678.5" y="403.5" width="103" height="47"/><rect class="cls-8" x="686" y="395" width="88" height="9"/><rect class="cls-25" x="686" y="395" width="88" height="9"/><rect class="cls-2" x="685.5" y="394.5" width="89" height="9"/><path class="cls-8" d="M761.2,395H707.49c0-9,12-15.3,26.86-15.3S761.2,386,761.2,395Z"/><path class="cls-25" d="M761.2,395H707.49c0-9,12-15.3,26.86-15.3S761.2,386,761.2,395Z"/><path class="cls-2" d="M761.2,394.5H707.49c0-8,12-15.3,26.86-15.3S761.2,386.5,761.2,394.5Z"/><ellipse class="cls-43" cx="734.34" cy="387.41" rx="3.15" ry="4.28"/><polyline class="cls-61" points="924 370 924 226 932 226 932 182 940 182 940 170 947 170 947 161 952.32 161 951.94 141.81 999 134.73 999 154 1013 154 1013 176.8 1020 176.24 1020 362"/><polyline class="cls-25" points="924 370 924 226 932 226 932 182 940 182 940 170 947 170 947 161 952.32 161 951.94 141.81 999 134.73 999 154 1013 154 1013 176.8 1020 176.24 1020 362"/><polyline class="cls-2" points="924.5 370 924.5 226.5 931.5 226.5 931.5 182.5 940.5 182.5 940.5 169.5 946.5 169.5 946.5 161.5 952.32 161.5 952.19 142.06 999.5 134.73 999.5 153.5 1012.5 153.5 1012.5 176.8 1020.5 176.24 1020.5 362"/><g class="cls-62"><polyline class="cls-63" points="924 370 924 226 932 226 932 182 940 182 940 170 947 170 947 161 952.32 161 951.94 141.81 999 134.73 999 154 1013 154 1013 176.8 1020 176.24 1020 362"/><polyline class="cls-25" points="924 370 924 226 932 226 932 182 940 182 940 170 947 170 947 161 952.32 161 951.94 141.81 999 134.73 999 154 1013 154 1013 176.8 1020 176.24 1020 362"/></g><polyline class="cls-8" points="1536 374 1536 335 1500 335 1500 330 1480.7 330 1473 330 1473 338 1448 338 1448 324 1438 324 1438 332 1434 332 1434 326 1425 326 1425 333 1318 333 1318 371"/><polyline class="cls-54" points="1536 374 1536 335 1500 335 1500 330 1480.7 330 1473 330 1473 338 1448 338 1448 324 1438 324 1438 332 1434 332 1434 326 1425 326 1425 333 1318 333 1318 371"/><polyline class="cls-2" points="1536.5 390 1536.5 334.5 1500.5 334.5 1500.5 329.5 1480.7 329.5 1473.5 329.5 1473.5 337.5 1448.5 337.5 1448.5 323.5 1438.5 323.5 1438.5 331.5 1434.5 331.5 1434.5 325.5 1425.5 325.5 1425.5 332.5 1318.5 332.5 1318.5 371"/><polygon class="cls-2" points="1642.5 373.5 1305.51 373.5 1296.45 390.5 1642.5 390.5 1642.5 373.5"/><rect class="cls-2" x="1296.5" y="390.5" width="346" height="34"/><rect class="cls-2" x="1329.5" y="424.5" width="282" height="41"/><polyline class="cls-8" points="1667.68 371.43 1826.43 389.39 1826.44 399.35 1668.11 386.71 1668.07 374.07"/><polygon class="cls-6" points="1826.43 389.39 1667.43 372.41 1634.79 357.37 1813.54 377.91 1636.34 358.08 1667.68 371.43 1826.43 389.39"/><polygon class="cls-6" points="1826.49 399.35 1667 386.61 1667 371 1668 371 1668 385.45 1826.49 399.35"/><polygon class="cls-54" points="1837 465 1713 465 1713 409.85 1837 411.97 1837 465"/><polygon class="cls-64" points="1668.5 386.71 1827.44 399.35 1841.35 412 1719 410.35 1668.5 386.71"/><polygon class="cls-6" points="1816.5 412.21 1718.04 410.16 1719.29 409.01 1837 411.97 1816.5 412.21"/><polygon class="cls-2" points="1609.5 398.5 1335.06 398.5 1327.63 424.5 1609.5 424.5 1609.5 398.5"/><polyline class="cls-2" points="1652 266.5 1586.87 266.5 1549.5 266.5 1549.5 273.5 1541.9 273.5 1507.5 273.5 1507.5 261.5 1484.5 261.5 1484.5 247.5 1420.5 247.5 1420.5 238.5 1378.5 238.5 1378.5 262.5 1340.5 262.5 1340.5 333"/><line class="cls-2" x1="1652.5" y1="359" x2="1652.5" y2="267"/><use id="New_Symbol-3" data-name="New Symbol" width="16" height="14.08" transform="translate(1276.33 105.62) scale(0.78)" xlink:href="#New_Symbol"/><use id="New_Symbol-6" data-name="New Symbol" width="16" height="14.08" transform="translate(1233.86 80.64) scale(0.78)" xlink:href="#New_Symbol"/><use id="New_Symbol-9" data-name="New Symbol" width="16" height="14.08" transform="translate(1183.89 64.4) scale(0.78)" xlink:href="#New_Symbol"/><use id="New_Symbol-12" data-name="New Symbol" width="16" height="14.08" transform="translate(1311.3 144.34) scale(0.78)" xlink:href="#New_Symbol"/><use id="New_Symbol-15" data-name="New Symbol" width="16" height="14.08" transform="translate(1333.79 194.31) scale(0.78)" xlink:href="#New_Symbol"/><use id="New_Symbol-18" data-name="New Symbol" width="16" height="14.08" transform="translate(1340.03 244.27) scale(0.78)" xlink:href="#New_Symbol"/><use id="New_Symbol-21" data-name="New Symbol" width="16" height="14.08" transform="translate(1332.54 296.74) scale(0.78)" xlink:href="#New_Symbol"/><use id="New_Symbol-24" data-name="New Symbol" width="16" height="14.08" transform="translate(1315.05 339.21) scale(0.78)" xlink:href="#New_Symbol"/><use id="New_Symbol-27" data-name="New Symbol" width="16" height="14.08" transform="translate(1282.57 377.93) scale(0.78)" xlink:href="#New_Symbol"/><use id="New_Symbol-30" data-name="New Symbol" width="16" height="14.08" transform="matrix(-0.78, 0, 0, 0.78, 1058.47, 104.37)" xlink:href="#New_Symbol"/><use id="New_Symbol-33" data-name="New Symbol" width="16" height="14.08" transform="matrix(-0.78, 0, 0, 0.78, 1102.19, 80.64)" xlink:href="#New_Symbol"/><use id="New_Symbol-36" data-name="New Symbol" width="16" height="14.08" transform="matrix(-0.78, 0, 0, 0.78, 1150.91, 65.65)" xlink:href="#New_Symbol"/><use id="New_Symbol-39" data-name="New Symbol" width="16" height="14.08" transform="matrix(-0.78, 0, 0, 0.78, 1021, 148.09)" xlink:href="#New_Symbol"/><use id="New_Symbol-42" data-name="New Symbol" width="16" height="14.08" transform="matrix(-0.78, 0, 0, 0.78, 1001.01, 193.06)" xlink:href="#New_Symbol"/><use id="New_Symbol-45" data-name="New Symbol" width="16" height="14.08" transform="matrix(-0.78, 0, 0, 0.78, 992.27, 245.52)" xlink:href="#New_Symbol"/><use id="New_Symbol-48" data-name="New Symbol" width="16" height="14.08" transform="matrix(-0.78, 0, 0, 0.78, 1001.01, 296.74)" xlink:href="#New_Symbol"/><use id="New_Symbol-51" data-name="New Symbol" width="16" height="14.08" transform="matrix(-0.78, 0, 0, 0.78, 1021, 342.95)" xlink:href="#New_Symbol"/><use id="New_Symbol-54" data-name="New Symbol" width="16" height="14.08" transform="matrix(-0.78, 0, 0, 0.78, 1058.47, 384.18)" xlink:href="#New_Symbol"/><circle class="cls-65" cx="1166.54" cy="247.09" r="41.01"/><circle class="cls-65" cx="1166.54" cy="247.09" r="82.36"/><circle class="cls-65" cx="1166.54" cy="247.09" r="87.8"/><circle class="cls-65" cx="1166.54" cy="247.09" r="46.76"/><circle class="cls-65" cx="1166.54" cy="247.09" r="128.37"/><circle class="cls-65" cx="1166.54" cy="247.09" r="135.07"/><path class="cls-66" d="M1247.31,412.54a184.07,184.07,0,1,0-163.18-.82"/><path class="cls-67" d="M1121.91,425.71a185.46,185.46,0,0,0,92.93-1"/><line class="cls-68" x1="1163.5" y1="248" x2="1163.5" y2="63"/><line class="cls-68" x1="1168.5" y1="248" x2="1168.5" y2="63"/><line class="cls-69" x1="1163.53" y1="216.68" x2="1168.65" y2="222.28"/><line class="cls-69" x1="1168.65" y1="223.64" x2="1163.53" y2="228.75"/><line class="cls-69" x1="1163.53" y1="203.41" x2="1168.72" y2="209.3"/><line class="cls-69" x1="1168.5" y1="210.28" x2="1163.53" y2="215.48"/><line class="cls-69" x1="1163.53" y1="190.14" x2="1168.59" y2="196.03"/><line class="cls-69" x1="1168.72" y1="197.02" x2="1163.53" y2="202.21"/><line class="cls-69" x1="1163.53" y1="176.87" x2="1168.64" y2="182.59"/><line class="cls-69" x1="1168.5" y1="183.74" x2="1163.53" y2="188.94"/><line class="cls-69" x1="1163.53" y1="163.6" x2="1168.5" y2="169.11"/><line class="cls-69" x1="1168.64" y1="170.57" x2="1163.53" y2="175.67"/><line class="cls-69" x1="1163.53" y1="150.33" x2="1168.66" y2="155.72"/><line class="cls-69" x1="1168.66" y1="157.27" x2="1163.53" y2="162.4"/><line class="cls-69" x1="1163.53" y1="137.05" x2="1168.61" y2="142.7"/><line class="cls-69" x1="1168.61" y1="144.05" x2="1163.53" y2="149.13"/><line class="cls-69" x1="1163.53" y1="123.78" x2="1168.61" y2="128.86"/><line class="cls-69" x1="1168.61" y1="130.78" x2="1163.53" y2="135.86"/><line class="cls-69" x1="1163.53" y1="110.51" x2="1168.61" y2="115.72"/><line class="cls-69" x1="1168.61" y1="116.42" x2="1163.53" y2="122.59"/><line class="cls-69" x1="1163.53" y1="97.24" x2="1168.5" y2="103.42"/><line class="cls-69" x1="1168.5" y1="104.35" x2="1163.53" y2="109.31"/><line class="cls-69" x1="1163.53" y1="83.97" x2="1168.5" y2="88.94"/><line class="cls-69" x1="1168.5" y1="89.87" x2="1163.53" y2="96.04"/><line class="cls-69" x1="1163.53" y1="70.7" x2="1168.5" y2="76.87"/><line class="cls-69" x1="1168.5" y1="77.8" x2="1163.53" y2="82.77"/><circle class="cls-70" cx="1166.54" cy="247.09" r="15.8"/><circle class="cls-71" cx="1166.54" cy="247.09" r="9.97"/><path class="cls-61" d="M1248.43,412.35L1267.19,451h-49.07l-5.9-24.25s-8.32-14.51-45.68-14.51-43.89,10.58-43.89,10.58L1115.71,451h-49.07l99.89-203.14-40.7,161.65a257.49,257.49,0,0,1,40.7-3.49,219,219,0,0,1,41.6,3.82l-40.85-162.25,81.14,164.76"/><path class="cls-72" d="M1248.43,412.35L1267.19,451h-49.07l-5.9-24.25s-8.32-14.51-45.68-14.51-43.89,10.58-43.89,10.58L1115.71,451h-49.07l99.89-203.14-40.7,161.65a257.49,257.49,0,0,1,40.7-3.49,219,219,0,0,1,41.6,3.82l-40.85-162.25,81.14,164.76"/><path class="cls-73" d="M1248.43,412.1l18.75,38.4h-49.07l-5.9-24s-8.32-14.39-45.68-14.39-43.89,10.39-43.89,10.39l-6.94,28h-49.07l99.89-202.89-40.7,161.78a258,258,0,0,1,40.7-3.42,218.69,218.69,0,0,1,41.6,3.85l-40.85-162.36,81.14,164.65"/><path class="cls-74" d="M1246.12,408.6a180,180,0,1,0-159.18,0"/><path class="cls-70" d="M1122.72,421.73a181.41,181.41,0,0,0,88.94-.33"/><polyline class="cls-54" points="1602 150 1602 266 1652 266 1652 140"/><line class="cls-75" x1="1321.5" y1="472" x2="1321.5" y2="492"/><line class="cls-28" x1="1211.03" y1="421.51" x2="1212.32" y2="426.65"/><path class="cls-66" d="M1350.61,247.09A184.06,184.06,0,0,0,1166.54,63"/><polygon class="cls-43" points="735.5 98.11 776.5 88.11 776.5 379.39 735.5 379.47 735.5 98.11"/><polygon class="cls-76" points="1720.39 409.5 1683.56 392.84 1667.5 385.41 1667.5 371.67 1634.99 357.66 1598.12 375.5 1603.5 375.5 1603.5 385.17 1541.9 413.5 1550.5 413.5 1550.5 465.5 1713.5 465.5 1713.5 409.5 1720.39 409.5"/><polygon class="cls-77" points="999.51 119.74 984.5 122.84 984.5 136.35 999.56 133.88 999.51 119.74"/><polyline class="cls-78" points="999.01 119.57 984 122.84 984 136"/><polyline class="cls-79" points="1812.65 377.56 1826.5 389.39 1826.5 399.35 1842.23 412.5 1836.5 412.5 1836.5 466"/><rect class="cls-53" x="536.5" y="381.5" width="16" height="55"/><polygon class="cls-32" points="549.31 380.6 542 380.85 542 376.61 547.43 375.57 549.31 380.6"/><polygon class="cls-80" points="594.5 454.5 594.5 466.5 1032.81 466.5 1029.76 488.5 1321.5 488.5 1321.5 494.5 1713.5 494.5 1713.5 471.5 1321.5 471.5 1321.5 466.5 1032.26 466.5 1042.99 454.5 596.31 454.5 610.89 448.5 483.5 448.5 483.5 454.5 594.5 454.5"/><rect class="cls-80" x="263.5" y="448.5" width="347" height="19"/><rect class="cls-81" x="1712.5" y="471.5" width="860" height="19"/><rect class="cls-81" x="-396.5" y="471.5" width="621" height="19"/><polygon class="cls-82" points="678.29 403.7 782.5 403.85 782.5 451.35 677.76 450.99 678.29 403.7"/><rect class="cls-39" x="308" y="144" width="45" height="300"/><rect class="cls-8" x="-12" y="431" width="506" height="13"/><polygon class="cls-80" points="263.5 467.5 224.41 490.38 224.41 471.45 263.5 448.57 263.5 467.5"/></svg>