<svg id="bg" xmlns="http://www.w3.org/2000/svg" xmlns:xlink="http://www.w3.org/1999/xlink" viewBox="0 0 2323.5 510"><defs><style>.cls-1,.cls-16,.cls-2,.cls-32,.cls-4{fill:none;}.cls-12,.cls-14,.cls-16,.cls-17,.cls-2,.cls-26,.cls-27{stroke:#fff;}.cls-12,.cls-14,.cls-16,.cls-17,.cls-18,.cls-19,.cls-2,.cls-26,.cls-27,.cls-32,.cls-4{stroke-miterlimit:10;}.cls-3{fill:#014467;}.cls-4{stroke:#03324c;}.cls-12,.cls-26,.cls-5{fill:#03324c;}.cls-6,.cls-9{fill:#178fcf;}.cls-14,.cls-19,.cls-23,.cls-6{opacity:0.2;}.cls-13,.cls-15,.cls-17,.cls-27,.cls-28,.cls-7{opacity:0.4;}.cls-13,.cls-7{fill:url(#Whitelines);}.cls-8{opacity:0.18;fill:url(#Whitelines-3);}.cls-9{opacity:0.1;}.cls-10{fill:url(#dark_Blue_lines);}.cls-11{fill:url(#blue_windows);}.cls-12,.cls-13{fill-rule:evenodd;}.cls-12,.cls-16,.cls-26,.cls-31,.cls-32{opacity:0.5;}.cls-14,.cls-29{fill:#0b598a;}.cls-15,.cls-24{fill:url(#Whitelines-7);}.cls-16,.cls-25{stroke-linecap:round;}.cls-17,.cls-22,.cls-25{fill:#55a4db;}.cls-18{fill:#144372;}.cls-18,.cls-19,.cls-25{stroke:#0b598a;}.cls-19{fill:#3a91ce;}.cls-20{opacity:0.3;}.cls-21{fill:#223c49;}.cls-22{opacity:0.33;}.cls-25{fill-opacity:0.33;stroke-linejoin:round;stroke-width:1.25px;opacity:0.51;}.cls-27{fill:#126fa1;}.cls-28{fill:url(#Whitelines-13);}.cls-30{opacity:0.8;}.cls-31{fill:#1c272d;}.cls-32{stroke:#f6f6f6;}.cls-33{fill:#0c4260;}</style><pattern id="Whitelines" data-name="Whitelines" width="72" height="72" patternTransform="matrix(0.69, -0.75, 0.55, 0.6, -2.12, 837.77)" patternUnits="userSpaceOnUse" viewBox="0 0 72 72"><rect class="cls-1" width="72" height="72"/><line class="cls-2" y1="72" x2="72" y2="72"/><line class="cls-2" x2="72"/><line class="cls-2" y1="6" x2="72" y2="6"/><line class="cls-2" y1="12" x2="72" y2="12"/><line class="cls-2" y1="18" x2="72" y2="18"/><line class="cls-2" y1="24" x2="72" y2="24"/><line class="cls-2" y1="30" x2="72" y2="30"/><line class="cls-2" y1="36" x2="72" y2="36"/><line class="cls-2" y1="42" x2="72" y2="42"/><line class="cls-2" y1="48" x2="72" y2="48"/><line class="cls-2" y1="54" x2="72" y2="54"/><line class="cls-2" y1="60" x2="72" y2="60"/><line class="cls-2" y1="66" x2="72" y2="66"/><line class="cls-2" y1="72" x2="72" y2="72"/><line class="cls-2" x2="72"/></pattern><pattern id="Whitelines-3" data-name="Whitelines" width="72" height="72" patternTransform="matrix(0.82, -0.79, 0.65, 0.63, -53.32, 784.22)" patternUnits="userSpaceOnUse" viewBox="0 0 72 72"><rect class="cls-1" width="72" height="72"/><line class="cls-2" y1="72" x2="72" y2="72"/><line class="cls-2" x2="72"/><line class="cls-2" y1="6" x2="72" y2="6"/><line class="cls-2" y1="12" x2="72" y2="12"/><line class="cls-2" y1="18" x2="72" y2="18"/><line class="cls-2" y1="24" x2="72" y2="24"/><line class="cls-2" y1="30" x2="72" y2="30"/><line class="cls-2" y1="36" x2="72" y2="36"/><line class="cls-2" y1="42" x2="72" y2="42"/><line class="cls-2" y1="48" x2="72" y2="48"/><line class="cls-2" y1="54" x2="72" y2="54"/><line class="cls-2" y1="60" x2="72" y2="60"/><line class="cls-2" y1="66" x2="72" y2="66"/><line class="cls-2" y1="72" x2="72" y2="72"/><line class="cls-2" x2="72"/></pattern><pattern id="dark_Blue_lines" data-name="dark Blue lines" width="72" height="72" patternTransform="matrix(0.75, -0.73, 0.75, 0.73, -144.79, 778.98)" patternUnits="userSpaceOnUse" viewBox="0 0 72 72"><rect class="cls-1" width="72" height="72"/><line class="cls-4" y1="72" x2="72" y2="72"/><line class="cls-4" x2="72"/><line class="cls-4" y1="6" x2="72" y2="6"/><line class="cls-4" y1="12" x2="72" y2="12"/><line class="cls-4" y1="18" x2="72" y2="18"/><line class="cls-4" y1="24" x2="72" y2="24"/><line class="cls-4" y1="30" x2="72" y2="30"/><line class="cls-4" y1="36" x2="72" y2="36"/><line class="cls-4" y1="42" x2="72" y2="42"/><line class="cls-4" y1="48" x2="72" y2="48"/><line class="cls-4" y1="54" x2="72" y2="54"/><line class="cls-4" y1="60" x2="72" y2="60"/><line class="cls-4" y1="66" x2="72" y2="66"/><line class="cls-4" y1="72" x2="72" y2="72"/><line class="cls-4" x2="72"/></pattern><pattern id="blue_windows" data-name="blue windows" width="20" height="20" patternTransform="translate(16.7 67.57) scale(0.5)" patternUnits="userSpaceOnUse" viewBox="0 0 20 20"><rect class="cls-1" width="20" height="20"/><rect class="cls-3" x="17.28" y="4.11" width="5.44" height="11.79"/><rect class="cls-3" x="7.28" y="4.11" width="5.44" height="11.79"/><rect class="cls-3" x="-2.72" y="4.11" width="5.44" height="11.79"/></pattern><pattern id="Whitelines-7" data-name="Whitelines" width="72" height="72" patternTransform="matrix(0.71, -0.71, 0.57, 0.57, -15.52, 780.78)" patternUnits="userSpaceOnUse" viewBox="0 0 72 72"><rect class="cls-1" width="72" height="72"/><line class="cls-2" y1="72" x2="72" y2="72"/><line class="cls-2" x2="72"/><line class="cls-2" y1="6" x2="72" y2="6"/><line class="cls-2" y1="12" x2="72" y2="12"/><line class="cls-2" y1="18" x2="72" y2="18"/><line class="cls-2" y1="24" x2="72" y2="24"/><line class="cls-2" y1="30" x2="72" y2="30"/><line class="cls-2" y1="36" x2="72" y2="36"/><line class="cls-2" y1="42" x2="72" y2="42"/><line class="cls-2" y1="48" x2="72" y2="48"/><line class="cls-2" y1="54" x2="72" y2="54"/><line class="cls-2" y1="60" x2="72" y2="60"/><line class="cls-2" y1="66" x2="72" y2="66"/><line class="cls-2" y1="72" x2="72" y2="72"/><line class="cls-2" x2="72"/></pattern><pattern id="Whitelines-13" data-name="Whitelines" width="72" height="72" patternTransform="matrix(0.34, -0.34, 0.27, 0.27, 71.86, 698.34)" patternUnits="userSpaceOnUse" viewBox="0 0 72 72"><rect class="cls-1" width="72" height="72"/><line class="cls-2" y1="72" x2="72" y2="72"/><line class="cls-2" x2="72"/><line class="cls-2" y1="6" x2="72" y2="6"/><line class="cls-2" y1="12" x2="72" y2="12"/><line class="cls-2" y1="18" x2="72" y2="18"/><line class="cls-2" y1="24" x2="72" y2="24"/><line class="cls-2" y1="30" x2="72" y2="30"/><line class="cls-2" y1="36" x2="72" y2="36"/><line class="cls-2" y1="42" x2="72" y2="42"/><line class="cls-2" y1="48" x2="72" y2="48"/><line class="cls-2" y1="54" x2="72" y2="54"/><line class="cls-2" y1="60" x2="72" y2="60"/><line class="cls-2" y1="66" x2="72" y2="66"/><line class="cls-2" y1="72" x2="72" y2="72"/><line class="cls-2" x2="72"/></pattern></defs><title>SkylineBlueprint_finalIllustration5</title><rect class="cls-5" x="-159" width="2645" height="510"/><polygon class="cls-5" points="1318 374 1318 334 1425 334 1425 327 1434 327 1434 333 1438 333 1438 324.85 1448 325.35 1448 339 1473 339 1473 331 1500 331 1500 336 1536 336 1536 374 1318 374"/><polygon class="cls-6" points="2018 219.35 2018 468 2053 468 2053 228.85 2018 219.35"/><polygon class="cls-5" points="1884 106 1884 435.35 1866 416.96 1866 106 1884 106"/><rect class="cls-5" x="426" y="297" width="89" height="141"/><rect class="cls-7" x="379" y="339" width="45" height="58"/><polygon class="cls-8" points="1884 436.35 1933 462.85 1933 65.35 1884 75.63 1884 436.35"/><polygon class="cls-5" points="1751 372.56 1707 365.46 1707 282 1751 282 1751 372.56"/><path class="cls-5" d="M1971.67,468c0.82-1-.25-165.85-0.25-165.85L1983,287.92V468h-11.33Z"/><rect class="cls-9" x="2143" y="376" width="106" height="91"/><polygon class="cls-10" points="2142 379 2142 275 2079 275 2079 379.5 2079 400.07 2079 468 2260 468 2260 379 2142 379"/><rect class="cls-5" x="134" y="411" width="78" height="27"/><polygon class="cls-3" points="357.68 146.3 360.01 445.35 379 422.44 379 206.61 357.68 146.3"/><polygon class="cls-3" points="308 393 257 393 257 326.77 308 360.32 308 393"/><rect class="cls-11" x="80" y="336" width="48" height="90"/><polygon class="cls-5" points="1085 338.37 1085 273 1070 273 1070.5 181 1113 181 1113 121 1133 121 1133 108 1158 108 1158 97 1202 97 1202 111 1209 111 1209 93 1252 93 1252 108 1288 108 1288 127.5 1307.07 113 1344.5 113 1344 155 1363 155 1363 172 1386 172 1385.96 193 1395.5 193 1395 202 1422 202 1422 225.77 1422 245 1379 245 1379 270 1339 270 1339 339 1316 339 1316 375 1085 375 1085 338.37"/><polyline class="cls-12" points="882 269.5 1013.5 269.5 1013.5 178.5 1007.5 178.5 1007.5 159.97 1007.5 150.97 1000.5 158.21 1000.5 135.97 1000.5 120.5 1037.5 120.5 1037.5 139.5 1047.5 139.5 1047.5 148.5 1065.5 148.5 1065.5 165.5 1077.5 165.5 1077.5 320.97 1077.5 389.97 1030.73 363.87"/><polyline class="cls-12" points="776.24 89.61 825.5 98.24 824.67 346.5"/><polygon class="cls-13" points="776.12 88.72 824.16 98.73 825.67 373 776 373 776.12 88.72"/><polygon class="cls-5" points="1420 222 1601 222 1601 151.35 1652 141.58 1652 268 1549 268 1549 275 1510 275 1508 275 1508 262 1484 262 1484 248 1420 248 1420 222"/><polygon class="cls-5" points="1579 93.35 1579 226 1652 226 1652 142.35 1641 143.81 1641 102.35 1579 93.35"/><polyline class="cls-14" points="637 437.5 544.5 437.5 544.5 299.5 623.5 299.5 623.5 285.5 637.5 285.5 637.5 367"/><polyline class="cls-2" points="1640.5 144 1640.5 102.1 1578.87 93.78 1498.5 102.1 1498.5 222"/><polygon class="cls-15" points="1578 222 1578 93.36 1499 102.1 1499 222 1578 222"/><polyline class="cls-16" points="1021 269.5 1021 269.5 1021 269.5"/><polyline class="cls-16" points="1712.5 280 1712.5 150.57 1651.45 141.85 1600.5 151.57 1600.5 221.5 1493.44 221.5 1421.5 221.5 1421.5 198.5 1394.5 198.5 1394.5 188.5 1384.5 188.5 1384.5 169.5 1362.5 169.5 1362.5 152.5 1343.5 152.5 1343.5 111.5 1306.07 111.5 1286.5 126.59 1286.5 107.5 1251.5 107.5 1251.5 93.5 1208.5 93.5 1208.5 110.5 1201.5 110.5 1201.5 97.5 1157.5 97.5 1157.5 107.5 1132.5 107.5 1132.5 120.5 1112.5 120.5 1112.5 178.5 1068.5 178.5 1068.5 269.5 1021 269.5 1021 269.5"/><polyline class="cls-16" points="824.56 377.63 824.84 263.15 830.5 244.5"/><polygon class="cls-2" points="735.5 377.5 676.5 377.5 676.5 235.11 710.61 226.5 735.5 226.5 735.5 377.5"/><polygon class="cls-17" points="710.5 227.15 676.5 235.11 676.5 378.29 710.5 377.85 710.5 227.15"/><line class="cls-2" x1="776.5" y1="90" x2="776.5" y2="356"/><path class="cls-18" d="M544.76,299.17L527.5,303V437.5H545C545,436.5,544.76,299.17,544.76,299.17Z"/><path class="cls-19" d="M544.76,299.17L527.5,303V437.5H545C545,436.5,544.76,299.17,544.76,299.17Z"/><g class="cls-20"><polyline class="cls-21" points="924 371 924 227 932 227 932 183 940 183 940 171 947 171 947 162 952.32 162 951.94 142.81 999 135.73 999 155 1013 155 1013 177.8 1020 177.24 1020 363"/><polyline class="cls-22" points="924 371 924 227 932 227 932 183 940 183 940 171 947 171 947 162 952.32 162 951.94 142.81 999 135.73 999 155 1013 155 1013 177.8 1020 177.24 1020 363"/><polyline class="cls-2" points="924.5 371 924.5 227.5 931.5 227.5 931.5 183.5 940.5 183.5 940.5 170.5 946.5 170.5 946.5 162.5 952.32 162.5 952.19 143.06 999.5 135.73 999.5 154.5 1012.5 154.5 1012.5 177.8 1020.5 177.24 1020.5 363"/></g><g class="cls-23"><polyline class="cls-24" points="924 371 924 227 932 227 932 183 940 183 940 171 947 171 947 162 952.32 162 951.94 142.81 999 135.73 999 155 1013 155 1013 177.8 1020 177.24 1020 363"/><polyline class="cls-22" points="924 371 924 227 932 227 932 183 940 183 940 171 947 171 947 162 952.32 162 951.94 142.81 999 135.73 999 155 1013 155 1013 177.8 1020 177.24 1020 363"/></g><polyline class="cls-5" points="1531 376 1531 336 1495 336 1495 330 1475.7 330 1468 330 1468 339 1443 339 1443 324 1433 324 1433 332 1429 332 1429 326 1420 326 1420 333 1313 333 1313 373"/><polyline class="cls-15" points="1602 151 1602 267 1652 267 1652 141"/><line class="cls-25" x1="1211.03" y1="422.51" x2="1212.32" y2="427.65"/><polygon class="cls-26" points="735.5 99.11 776.5 89.11 776.5 380.39 735.5 380.47 735.5 99.11"/><polygon class="cls-27" points="999.51 120.74 984.5 123.84 984.5 137.35 999.56 134.88 999.51 120.74"/><polyline class="cls-28" points="999.01 120.57 984 123.84 984 137"/><polygon class="cls-29" points="549.31 381.6 542 381.85 542 377.61 547.43 376.57 549.31 381.6"/><rect class="cls-8" x="308" y="145" width="45" height="300"/><rect class="cls-5" x="-12" y="432" width="506" height="13"/><g class="cls-30"><polyline class="cls-31" points="-11 469 1709.37 469 2334 469 2334 431 2297 431 2297 336 2249 336 2249 375 2144 375 2144 273 2078 273 2078 313 2054 313 2054 226.85 2019.55 217.36 1984 226.85 1984 286.92 1973 297.81 1973 77 1955 77 1955 60 1933.94 60 1885 69.81 1885 105 1865 105 1865 252 1793 252 1793 312 1753 312 1753 281 1706 281 1706 318 1531 318 1531 274.35 1508.41 273.85 1508.71 261.35 1485 261.85 1485 248 1421 248 1421 239 1379.8 239 1380.3 262.42 1341.79 262.96 1339.79 369 1289 369 1289 266 1182 266 1182 339 1057 339 1057 358.85 882 370.18 882 244 831 244 831 346 689 346 689 266 642 266 642 358 517 358 517 295 425 295 425 337 381 337 381 203.81 358.69 145 309 145 309 327 258 327 258 273 212 273 212 409 135 409 135 327 74 327 74 427 -11 427"/><polyline class="cls-32" points="2334 426.5 2297.5 426.5 2297.5 335.5 2249.5 335.5 2249.5 374.5 2144.5 374.5 2144.5 272.5 2078.5 272.5 2078.5 312.5 2054.5 312.5 2054.5 226.85 2020.05 217.36 1984.5 226.85 1984.5 286.92 1973.5 297.81 1973.5 76.5 1955.5 76.5 1955.5 59.5 1933.94 59.5 1885.5 69.81 1885.5 104.5 1865.5 104.5 1865.5 251.5 1793.5 251.5 1793.5 311.5 1753.5 311.5 1753.5 280.5 1706.5 280.5 1706.5 317.5 1531.5 317.5 1531.5 274.35 1508.66 273.85 1509.08 261.35 1485.5 261.85 1485.5 247.5 1421.5 247.5 1421.5 238.5 1379.8 238.5 1380.3 262.17 1341.79 262.59 1339.79 368.5 1289.5 368.5 1289.5 265.5 1182.5 265.5 1182.5 338.5 1057.5 338.5 1057.5 358.85 882.5 370.18 882.5 243.5 831.5 243.5 831.5 345.5 689.5 345.5 689.5 265.5 642.5 265.5 642.5 357.5 517.5 357.5 517.5 294.5 425.5 294.5 425.5 336.5 381.5 336.5 381.5 203.81 358.69 144.5 309.5 144.5 309.5 326.5 258.5 326.5 258.5 272.5 212.5 272.5 212.5 408.5 135.5 408.5 135.5 326.5 74.5 326.5 74.5 426.5 -11 426.5"/><polygon class="cls-33" points="2297 427.02 2297 335.92 2249 335.92 2249 374.92 2144 374.92 2144 272.92 2078 272.92 2078 312.92 2054 312.92 2054 226.77 2019.55 217.28 1984 226.77 1984 286.84 1973 297.73 1973 76.92 1955 76.92 1955 59.92 1933.53 59.92 1885 69.73 1885 104.92 1865 104.92 1865 251.92 1793 251.92 1793 311.92 1753 311.92 1753 280.92 1706 280.92 1706 317.92 1531 317.92 1531 274.27 1508.25 273.77 1508.63 261.27 1485 261.77 1485 247.92 1421 247.92 1421 238.92 1379.5 238.92 1380 262.35 1341.5 262.88 1339.5 368.92 1289 368.92 1289 265.92 1182 265.92 1182 338.92 1057 338.92 1057 358.77 882 370.1 882 243.92 831 243.92 831 345.92 689 345.92 689 265.92 642 265.92 642 357.92 517 357.92 517 294.92 425 294.92 425 336.92 381 336.92 381 203.73 358.61 144.92 309 144.92 309 326.92 258 326.92 258 272.92 212 272.92 212 408.92 135 408.92 135 326.92 74 326.92 74 426.92 -11 426.92 -11 468.92 1709 468.92 2334 468.92 2334 426.98 2297 427.02"/><polyline class="cls-32" points="2334 426.49 2297.5 426.49 2297.5 335.5 2249.5 335.5 2249.5 374.5 2144.5 374.5 2144.5 272.5 2078.5 272.5 2078.5 312.5 2054.5 312.5 2054.5 226.85 2020.05 217.36 1984.5 226.85 1984.5 286.92 1973.5 297.81 1973.5 76.5 1955.5 76.5 1955.5 59.5 1933.53 59.5 1885.5 69.81 1885.5 104.5 1865.5 104.5 1865.5 251.5 1793.5 251.5 1793.5 311.5 1753.5 311.5 1753.5 280.5 1706.5 280.5 1706.5 317.5 1531.5 317.5 1531.5 274.35 1508.5 273.85 1509 261.35 1485.5 261.85 1485.5 247.5 1421.5 247.5 1421.5 238.5 1379.5 238.5 1380 262.17 1341.5 262.59 1339.5 368.5 1289.5 368.5 1289.5 265.5 1182.5 265.5 1182.5 338.5 1057.5 338.5 1057.5 358.85 882.5 370.18 882.5 243.5 831.5 243.5 831.5 345.5 689.5 345.5 689.5 265.5 642.5 265.5 642.5 357.5 517.5 357.5 517.5 294.5 425.5 294.5 425.5 336.5 381.5 336.5 381.5 203.81 358.61 144.5 309.5 144.5 309.5 326.5 258.5 326.5 258.5 272.5 212.5 272.5 212.5 408.5 135.5 408.5 135.5 326.5 74.5 326.5 74.5 426.5 -11 426.5"/></g></svg>