<?xml version="1.0" encoding="utf-8"?>
<!-- Generator: Adobe Illustrator 19.2.0, SVG Export Plug-In . SVG Version: 6.00 Build 0)  -->
<svg version="1.1" xmlns="http://www.w3.org/2000/svg" xmlns:xlink="http://www.w3.org/1999/xlink" x="0px" y="0px"
	 viewBox="0 0 92 92" style="enable-background:new 0 0 92 92;" xml:space="preserve">
<style type="text/css">
	.st0{fill:#FCFCFC;}
</style>
<g id="canvas">
</g>
<g id="outline">
</g>
<g id="iconBg">
</g>
<g id="iconFg">
</g>
<g id="colorAction">
</g>
<g id="colorImportance">
</g>
<g id="notificationBg">
</g>
<g id="notificationFg">
	<path class="st0" d="M80.1,69.1h-5.7V30.2l6.9-6.9l5.7-5.7l1.9-1.9c3.5-3.5,3.5-9.1,0-12.6c-3.4-3.4-9.3-3.4-12.6,0l-9.5,9.5
		c-1.2-0.4-2.5-0.7-3.8-0.7H11.4C5.1,11.9,0,17,0,23.3c0,6.3,5.1,11.4,11.4,11.4c2.1,0,4-0.6,5.7-1.6v47.4c0,6.3,5.1,11.4,11.4,11.4
		h51.5c6.3,0,11.4-5.1,11.4-11.4C91.6,74.2,86.4,69.1,80.1,69.1z M11.4,29.1c-3.2,0-5.7-2.6-5.7-5.7s2.6-5.7,5.7-5.7
		s5.7,2.6,5.7,5.7S14.6,29.1,11.4,29.1z M80.4,7.1c1.2-1.2,3.3-1.2,4.5,0c1.3,1.3,1.3,3.3,0,4.5L65,31.5c-1.3-1.7-2.8-3.2-4.5-4.5
		L80.4,7.1z M55.8,40.8c-1.1-1.9-2.6-3.5-4.5-4.5l0,0l5.1-5.1c1.8,1.2,3.3,2.8,4.5,4.5L55.8,40.8L55.8,40.8z M51.5,46.2
		c0,3.2-2.6,5.7-5.7,5.7h-7.3c1-1.7,1.5-3.6,1.5-5.7c0-3.2,2.6-5.7,5.7-5.7C48.9,40.5,51.5,43.1,51.5,46.2z M61.8,17.6L61.8,17.6
		L56,23.3L44.5,34.9c-5.7,0.7-10.1,5.4-10.1,11.3c0,3.2-2.6,5.8-5.7,5.8h0v5.6h11.4v0h5.7c5.9,0,10.7-4.4,11.3-10.1L68.7,36v33.2
		H28.6c-2.1,0-4,0.6-5.7,1.6V23.3c0-2.1-0.6-4-1.6-5.7H61.8z M28.6,86.3c-3.2,0-5.7-2.6-5.7-5.7s2.6-5.7,5.7-5.7s5.7,2.6,5.7,5.7
		S31.8,86.3,28.6,86.3z M80.1,86.3H38.5c1-1.7,1.6-3.6,1.6-5.7s-0.6-4-1.6-5.7h41.6c3.2,0,5.7,2.6,5.7,5.7S83.3,86.3,80.1,86.3z"/>
</g>
</svg>
