<?xml version="1.0" encoding="utf-8"?>
<!-- Generator: Adobe Illustrator 13.0.0, SVG Export Plug-In . SVG Version: 6.00 Build 14948)  -->
<!DOCTYPE svg PUBLIC "-//W3C//DTD SVG 1.1//EN" "http://www.w3.org/Graphics/SVG/1.1/DTD/svg11.dtd">
<svg version="1.1" id="Layer_2" xmlns="http://www.w3.org/2000/svg" xmlns:xlink="http://www.w3.org/1999/xlink" x="0px" y="0px"
	 width="1061.81px" height="460.391px" viewBox="0 0 1061.81 460.391" enable-background="new 0 0 1061.81 460.391"
	 xml:space="preserve">
<g>
	<path d="M244.777,0h41.695v343.374h-41.695v-33.848c-25.508,25.508-63.279,43.658-101.541,43.658
		C64.26,353.185,0,288.435,0,209.949C0,130.973,64.26,66.713,143.236,66.713c32.375,0,64.751,12.263,91.24,33.356l-21.583,36.3
		c-20.112-17.659-44.639-27.96-69.656-27.96c-56.902,0-101.05,44.148-101.05,101.541c0,57.393,44.148,101.541,101.05,101.541
		c57.393,0,101.541-44.147,101.541-101.541V0z"/>
	<path d="M447.779,66.713c78.976,0,143.236,64.26,143.236,143.236c0,78.486-64.26,143.236-143.236,143.236
		c-78.485,0-143.236-64.75-143.236-143.236C304.543,130.973,369.293,66.713,447.779,66.713z M447.779,311.489
		c57.393,0,101.541-44.147,101.541-101.541c0-57.393-44.148-101.541-101.541-101.541c-56.902,0-101.541,44.148-101.541,101.541
		C346.238,267.342,390.877,311.489,447.779,311.489z"/>
	<path d="M573.446,410.578c21.093-20.604,36.79-46.111,36.79-73.091V75.542h41.695v261.945c0,38.262-20.603,74.562-49.054,101.541
		L573.446,410.578z M610.236,3.924h41.695v52.487h-41.695V3.924z"/>
	<path d="M810.728,66.713c78.977,0,143.236,64.26,143.236,143.236c0,78.486-64.26,143.236-143.236,143.236
		c-78.485,0-143.235-64.75-143.235-143.236C667.493,130.973,732.243,66.713,810.728,66.713z M810.728,311.489
		c57.394,0,101.541-44.147,101.541-101.541c0-57.393-44.147-101.541-101.541-101.541c-56.901,0-101.54,44.148-101.54,101.541
		C709.188,267.342,753.827,311.489,810.728,311.489z"/>
	<path d="M511.515,19.954c0,4.418-3.582,8-8,8h-109c-4.418,0-8-3.582-8-8l0,0c0-4.418,3.582-8,8-8h109
		C507.934,11.954,511.515,15.536,511.515,19.954L511.515,19.954z"/>
	<path d="M873.515,20.954c0,4.418-3.582,8-8,8h-109c-4.418,0-8-3.582-8-8l0,0c0-4.418,3.582-8,8-8h109
		C869.933,12.954,873.515,16.536,873.515,20.954L873.515,20.954z"/>
</g>
<g>
	<path d="M755.118,383.333v15.461h14.472v11.38h-14.472v26.593c0,7.298,1.979,11.132,7.792,11.132c2.845,0,4.205-0.247,5.938-0.742
		l0.247,11.627c-2.227,0.865-6.185,1.607-11.008,1.607c-5.566,0-10.267-1.979-13.111-5.071c-3.216-3.463-4.7-8.905-4.7-16.821
		v-28.324h-8.658v-11.38h8.658v-11.132L755.118,383.333z"/>
	<path d="M836.62,428.355c0,22.141-15.585,32.035-30.922,32.035c-17.068,0-30.18-11.75-30.18-31.046
		c0-19.789,12.987-31.911,31.169-31.911C824.623,397.434,836.62,410.05,836.62,428.355z M791.226,428.975
		c0,11.626,5.689,20.408,14.967,20.408c8.658,0,14.719-8.534,14.719-20.656c0-9.4-4.205-20.161-14.596-20.161
		C795.555,408.565,791.226,418.955,791.226,428.975z"/>
	<path d="M904.383,428.355c0,22.141-15.585,32.035-30.922,32.035c-17.068,0-30.18-11.75-30.18-31.046
		c0-19.789,12.987-31.911,31.169-31.911C892.386,397.434,904.383,410.05,904.383,428.355z M858.99,428.975
		c0,11.626,5.689,20.408,14.967,20.408c8.658,0,14.719-8.534,14.719-20.656c0-9.4-4.205-20.161-14.596-20.161
		C863.319,408.565,858.99,418.955,858.99,428.975z"/>
	<path d="M912.879,371.212h15.338v87.818h-15.338V371.212z"/>
	<path d="M955.881,425.264h0.247c1.484-2.351,3.216-4.947,4.824-7.051l14.595-19.419h18.306l-22.264,24.614l25.48,35.622h-18.678
		l-17.315-26.593l-5.195,6.061v20.532h-15.214v-87.818h15.214V425.264z"/>
	<path d="M1018.436,381.973c0,4.576-3.339,8.163-8.658,8.163c-5.071,0-8.41-3.587-8.41-8.163c0-4.7,3.463-8.287,8.534-8.287
		C1015.097,373.686,1018.313,377.272,1018.436,381.973z M1002.233,459.03v-60.236h15.338v60.236H1002.233z"/>
	<path d="M1047.338,383.333v15.461h14.472v11.38h-14.472v26.593c0,7.298,1.979,11.132,7.792,11.132c2.845,0,4.205-0.247,5.938-0.742
		l0.247,11.627c-2.227,0.865-6.185,1.607-11.008,1.607c-5.566,0-10.267-1.979-13.111-5.071c-3.216-3.463-4.7-8.905-4.7-16.821
		v-28.324h-8.658v-11.38h8.658v-11.132L1047.338,383.333z"/>
</g>
</svg>
