<svg width="834" height="513" viewBox="0 0 834 513" fill="none" xmlns="http://www.w3.org/2000/svg">
<rect x="451" y="213" width="213" height="213" rx="20" fill="#3178C6"/>
<rect width="426.044" height="426.044" rx="50" fill="#3178C6"/>
<rect width="426.044" height="426.044" rx="50" fill="#3178C6"/>
<path fill-rule="evenodd" clip-rule="evenodd" d="M263.73 339.024V380.68C270.502 384.152 278.511 386.755 287.758 388.491C297.004 390.227 306.75 391.095 316.994 391.095C326.979 391.095 336.464 390.14 345.45 388.231C354.435 386.321 362.314 383.176 369.086 378.793C375.858 374.41 381.219 368.683 385.17 361.61C389.12 354.537 391.095 345.793 391.095 335.379C391.095 327.829 389.966 321.212 387.709 315.527C385.452 309.843 382.196 304.788 377.942 300.362C373.688 295.936 368.587 291.966 362.64 288.451C356.693 284.936 349.986 281.617 342.519 278.492C337.05 276.236 332.144 274.045 327.803 271.918C323.462 269.792 319.773 267.623 316.734 265.41C313.695 263.197 311.351 260.853 309.702 258.38C308.052 255.907 307.227 253.108 307.227 249.984C307.227 247.12 307.965 244.538 309.441 242.238C310.917 239.938 313.001 237.964 315.692 236.315C318.383 234.666 321.683 233.386 325.59 232.475C329.496 231.564 333.837 231.108 338.612 231.108C342.085 231.108 345.753 231.369 349.617 231.889C353.48 232.41 357.366 233.213 361.272 234.297C365.179 235.382 368.978 236.749 372.668 238.398C376.357 240.047 379.765 241.956 382.891 244.126V205.203C376.553 202.773 369.629 200.972 362.119 199.801C354.609 198.629 345.992 198.043 336.268 198.043C326.371 198.043 316.994 199.107 308.139 201.233C299.283 203.359 291.491 206.678 284.763 211.191C278.034 215.704 272.716 221.453 268.809 228.44C264.902 235.426 262.949 243.779 262.949 253.498C262.949 265.909 266.53 276.496 273.693 285.261C280.856 294.027 291.73 301.447 306.316 307.522C312.046 309.865 317.385 312.164 322.334 314.421C327.283 316.677 331.558 319.02 335.161 321.45C338.764 323.88 341.608 326.527 343.691 329.391C345.775 332.255 346.817 335.509 346.817 339.154C346.817 341.845 346.166 344.34 344.864 346.639C343.561 348.939 341.586 350.935 338.938 352.628C336.29 354.32 332.991 355.643 329.041 356.598C325.09 357.553 320.467 358.03 315.171 358.03C306.142 358.03 297.2 356.446 288.344 353.278C279.488 350.111 271.284 345.359 263.73 339.024ZM193.7 236.389H247.139V202.204H98.1899V236.389H151.367V388.598H193.7V236.389Z" fill="white"/>
<path fill-rule="evenodd" clip-rule="evenodd" d="M580.837 381.713V403.198C584.332 404.989 588.464 406.332 593.235 407.227C598.006 408.122 603.034 408.57 608.32 408.57C613.472 408.57 618.366 408.077 623.003 407.092C627.639 406.108 631.704 404.485 635.199 402.225C638.693 399.964 641.459 397.01 643.497 393.362C645.535 389.714 646.555 385.205 646.555 379.833C646.555 375.939 645.972 372.526 644.807 369.594C643.643 366.663 641.963 364.055 639.768 361.773C637.573 359.49 634.941 357.442 631.872 355.629C628.804 353.816 625.343 352.104 621.491 350.493C618.668 349.329 616.137 348.199 613.898 347.102C611.658 346.006 609.754 344.887 608.186 343.745C606.618 342.604 605.409 341.395 604.557 340.12C603.706 338.844 603.281 337.4 603.281 335.789C603.281 334.312 603.661 332.98 604.423 331.794C605.185 330.608 606.26 329.59 607.648 328.739C609.037 327.889 610.739 327.229 612.755 326.759C614.771 326.289 617.011 326.054 619.475 326.054C621.267 326.054 623.159 326.188 625.153 326.457C627.146 326.725 629.151 327.139 631.167 327.699C633.183 328.258 635.143 328.963 637.046 329.814C638.95 330.664 640.709 331.649 642.321 332.768V312.693C639.051 311.439 635.479 310.511 631.604 309.906C627.729 309.302 623.283 309 618.265 309C613.158 309 608.32 309.548 603.751 310.645C599.182 311.742 595.161 313.454 591.689 315.781C588.218 318.109 585.474 321.074 583.458 324.677C581.442 328.281 580.434 332.589 580.434 337.602C580.434 344.003 582.282 349.463 585.978 353.984C589.674 358.505 595.284 362.332 602.81 365.465C605.767 366.674 608.522 367.86 611.075 369.024C613.629 370.187 615.835 371.396 617.694 372.649C619.553 373.903 621.02 375.268 622.095 376.745C623.171 378.222 623.708 379.9 623.708 381.78C623.708 383.168 623.372 384.455 622.7 385.641C622.028 386.827 621.009 387.857 619.643 388.729C618.276 389.602 616.574 390.285 614.536 390.777C612.498 391.27 610.112 391.516 607.38 391.516C602.721 391.516 598.107 390.699 593.537 389.065C588.968 387.431 584.735 384.981 580.837 381.713ZM545.026 328.246H572.655V310.556H495.645V328.246H523.139V407.014H545.026V328.246Z" fill="white"/>
<rect x="691" y="316" width="107" height="107" rx="8" fill="#3178C6"/>
<path fill-rule="evenodd" clip-rule="evenodd" d="M752.429 396.114V408.075C754.374 409.072 756.675 409.82 759.331 410.318C761.987 410.817 764.787 411.066 767.73 411.066C770.598 411.066 773.322 410.792 775.904 410.243C778.485 409.695 780.748 408.792 782.693 407.533C784.639 406.275 786.179 404.63 787.314 402.599C788.448 400.569 789.016 398.058 789.016 395.068C789.016 392.9 788.691 391 788.043 389.367C787.395 387.735 786.459 386.284 785.237 385.013C784.015 383.742 782.55 382.602 780.842 381.592C779.133 380.583 777.207 379.63 775.062 378.733C773.491 378.085 772.082 377.456 770.835 376.845C769.588 376.235 768.528 375.612 767.655 374.976C766.782 374.341 766.109 373.668 765.635 372.958C765.161 372.248 764.924 371.444 764.924 370.547C764.924 369.725 765.136 368.983 765.56 368.323C765.984 367.663 766.582 367.096 767.356 366.622C768.129 366.149 769.076 365.781 770.199 365.52C771.321 365.258 772.568 365.127 773.94 365.127C774.937 365.127 775.991 365.202 777.101 365.351C778.211 365.501 779.327 365.731 780.449 366.043C781.571 366.354 782.662 366.747 783.722 367.22C784.782 367.694 785.761 368.242 786.659 368.865V357.689C784.838 356.991 782.849 356.474 780.692 356.137C778.535 355.801 776.06 355.633 773.266 355.633C770.423 355.633 767.73 355.938 765.186 356.549C762.642 357.159 760.404 358.112 758.471 359.408C756.538 360.704 755.01 362.355 753.888 364.361C752.766 366.367 752.205 368.765 752.205 371.556C752.205 375.12 753.233 378.16 755.291 380.677C757.349 383.194 760.472 385.324 764.662 387.069C766.308 387.741 767.842 388.402 769.263 389.05C770.685 389.697 771.913 390.37 772.948 391.068C773.983 391.766 774.8 392.526 775.399 393.348C775.997 394.171 776.296 395.105 776.296 396.152C776.296 396.924 776.109 397.641 775.735 398.301C775.361 398.961 774.794 399.534 774.033 400.02C773.272 400.506 772.325 400.886 771.19 401.16C770.055 401.434 768.727 401.572 767.206 401.572C764.612 401.572 762.043 401.117 759.5 400.207C756.956 399.298 754.599 397.933 752.429 396.114ZM732.492 366.348H747.874V356.499H705V366.348H720.307V410.2H732.492V366.348Z" fill="white"/>
<path d="M1.21094 471.742V470C1.94531 470.495 2.6901 470.742 3.44531 470.742C4.20573 470.742 4.81771 470.549 5.28125 470.164C5.74479 469.773 5.97656 469.255 5.97656 468.609C5.97656 467.974 5.73958 467.479 5.26562 467.125C4.79688 466.771 4.1224 466.594 3.24219 466.594C2.9401 466.594 2.32812 466.625 1.40625 466.688L1.80469 460.797H7.32031V462.344H3.3125L3.125 465.148C3.48438 465.128 3.8099 465.117 4.10156 465.117C5.28906 465.117 6.20573 465.422 6.85156 466.031C7.5026 466.641 7.82812 467.474 7.82812 468.531C7.82812 469.641 7.45573 470.531 6.71094 471.203C5.97135 471.87 4.95312 472.203 3.65625 472.203C2.5625 472.203 1.7474 472.049 1.21094 471.742ZM13.6953 460.547V472H11.8828V462.766C11.5547 463 11.2005 463.201 10.8203 463.367C10.4453 463.529 10.0156 463.672 9.53125 463.797V462.25C9.83333 462.151 10.125 462.047 10.4062 461.938C10.6875 461.828 10.9635 461.706 11.2344 461.57C11.5104 461.435 11.7865 461.284 12.0625 461.117C12.3438 460.951 12.6328 460.76 12.9297 460.547H13.6953ZM23.125 472H16.0938V471.133C16.0938 470.779 16.1432 470.448 16.2422 470.141C16.3411 469.828 16.474 469.536 16.6406 469.266C16.8073 468.99 17.0026 468.732 17.2266 468.492C17.4505 468.247 17.6901 468.013 17.9453 467.789C18.2005 467.56 18.4609 467.341 18.7266 467.133C18.9922 466.919 19.2526 466.706 19.5078 466.492C19.7474 466.289 19.9661 466.091 20.1641 465.898C20.362 465.701 20.5312 465.497 20.6719 465.289C20.8125 465.081 20.9219 464.862 21 464.633C21.0781 464.398 21.1172 464.146 21.1172 463.875C21.1172 463.578 21.0703 463.32 20.9766 463.102C20.888 462.878 20.7604 462.693 20.5938 462.547C20.4323 462.396 20.2396 462.284 20.0156 462.211C19.7917 462.133 19.5469 462.094 19.2812 462.094C18.8229 462.094 18.3568 462.201 17.8828 462.414C17.4089 462.628 16.9531 462.948 16.5156 463.375V461.633C16.7448 461.461 16.9766 461.312 17.2109 461.188C17.4453 461.057 17.6875 460.951 17.9375 460.867C18.1875 460.779 18.4505 460.714 18.7266 460.672C19.0026 460.63 19.2969 460.609 19.6094 460.609C20.1146 460.609 20.5729 460.677 20.9844 460.812C21.3958 460.943 21.7474 461.138 22.0391 461.398C22.3307 461.654 22.5547 461.974 22.7109 462.359C22.8724 462.745 22.9531 463.188 22.9531 463.688C22.9531 464.141 22.8958 464.549 22.7812 464.914C22.6719 465.273 22.513 465.609 22.3047 465.922C22.1016 466.234 21.8542 466.531 21.5625 466.812C21.2708 467.094 20.9453 467.383 20.5859 467.68C20.2839 467.924 19.9818 468.164 19.6797 468.398C19.3828 468.628 19.1146 468.854 18.875 469.078C18.6354 469.297 18.4401 469.518 18.2891 469.742C18.1432 469.961 18.0703 470.182 18.0703 470.406V470.445H23.125V472ZM32.0859 464L29.4219 468.047L32.0547 472H29.9531L28.5469 469.523C28.4583 469.372 28.3542 469.18 28.2344 468.945H28.2031C28.1823 468.992 28.0729 469.185 27.875 469.523L26.4453 472H24.3516L27.0703 468.078L24.4922 464H26.6016L27.9844 466.602C28.0885 466.794 28.1901 466.992 28.2891 467.195H28.3125L30.1016 464H32.0859ZM33.4453 471.742V470C34.1797 470.495 34.9245 470.742 35.6797 470.742C36.4401 470.742 37.0521 470.549 37.5156 470.164C37.9792 469.773 38.2109 469.255 38.2109 468.609C38.2109 467.974 37.974 467.479 37.5 467.125C37.0312 466.771 36.3568 466.594 35.4766 466.594C35.1745 466.594 34.5625 466.625 33.6406 466.688L34.0391 460.797H39.5547V462.344H35.5469L35.3594 465.148C35.7188 465.128 36.0443 465.117 36.3359 465.117C37.5234 465.117 38.4401 465.422 39.0859 466.031C39.737 466.641 40.0625 467.474 40.0625 468.531C40.0625 469.641 39.6901 470.531 38.9453 471.203C38.2057 471.87 37.1875 472.203 35.8906 472.203C34.7969 472.203 33.9818 472.049 33.4453 471.742ZM45.9297 460.547V472H44.1172V462.766C43.7891 463 43.4349 463.201 43.0547 463.367C42.6797 463.529 42.25 463.672 41.7656 463.797V462.25C42.0677 462.151 42.3594 462.047 42.6406 461.938C42.9219 461.828 43.1979 461.706 43.4688 461.57C43.7448 461.435 44.0208 461.284 44.2969 461.117C44.5781 460.951 44.8672 460.76 45.1641 460.547H45.9297ZM55.3594 472H48.3281V471.133C48.3281 470.779 48.3776 470.448 48.4766 470.141C48.5755 469.828 48.7083 469.536 48.875 469.266C49.0417 468.99 49.237 468.732 49.4609 468.492C49.6849 468.247 49.9245 468.013 50.1797 467.789C50.4349 467.56 50.6953 467.341 50.9609 467.133C51.2266 466.919 51.487 466.706 51.7422 466.492C51.9818 466.289 52.2005 466.091 52.3984 465.898C52.5964 465.701 52.7656 465.497 52.9062 465.289C53.0469 465.081 53.1562 464.862 53.2344 464.633C53.3125 464.398 53.3516 464.146 53.3516 463.875C53.3516 463.578 53.3047 463.32 53.2109 463.102C53.1224 462.878 52.9948 462.693 52.8281 462.547C52.6667 462.396 52.474 462.284 52.25 462.211C52.026 462.133 51.7812 462.094 51.5156 462.094C51.0573 462.094 50.5911 462.201 50.1172 462.414C49.6432 462.628 49.1875 462.948 48.75 463.375V461.633C48.9792 461.461 49.2109 461.312 49.4453 461.188C49.6797 461.057 49.9219 460.951 50.1719 460.867C50.4219 460.779 50.6849 460.714 50.9609 460.672C51.237 460.63 51.5312 460.609 51.8438 460.609C52.349 460.609 52.8073 460.677 53.2188 460.812C53.6302 460.943 53.9818 461.138 54.2734 461.398C54.5651 461.654 54.7891 461.974 54.9453 462.359C55.1068 462.745 55.1875 463.188 55.1875 463.688C55.1875 464.141 55.1302 464.549 55.0156 464.914C54.9062 465.273 54.7474 465.609 54.5391 465.922C54.3359 466.234 54.0885 466.531 53.7969 466.812C53.5052 467.094 53.1797 467.383 52.8203 467.68C52.5182 467.924 52.2161 468.164 51.9141 468.398C51.6172 468.628 51.349 468.854 51.1094 469.078C50.8698 469.297 50.6745 469.518 50.5234 469.742C50.3776 469.961 50.3047 470.182 50.3047 470.406V470.445H55.3594V472ZM59.4766 470.82H59.4453V475.68H57.6328V464H59.4453V465.406H59.4766C60.0964 464.344 61.0026 463.812 62.1953 463.812C63.2109 463.812 64.0026 464.169 64.5703 464.883C65.138 465.596 65.4219 466.555 65.4219 467.758C65.4219 469.091 65.1016 470.159 64.4609 470.961C63.8203 471.763 62.9453 472.164 61.8359 472.164C60.8151 472.164 60.0286 471.716 59.4766 470.82ZM59.4297 467.664V468.656C59.4297 469.24 59.6146 469.734 59.9844 470.141C60.3594 470.547 60.8333 470.75 61.4062 470.75C62.0781 470.75 62.6042 470.49 62.9844 469.969C63.3698 469.443 63.5625 468.711 63.5625 467.773C63.5625 466.987 63.3828 466.372 63.0234 465.93C62.6693 465.482 62.1875 465.258 61.5781 465.258C60.9323 465.258 60.4115 465.487 60.0156 465.945C59.625 466.404 59.4297 466.977 59.4297 467.664ZM73.7109 464L71.0469 468.047L73.6797 472H71.5781L70.1719 469.523C70.0833 469.372 69.9792 469.18 69.8594 468.945H69.8281C69.8073 468.992 69.6979 469.185 69.5 469.523L68.0703 472H65.9766L68.6953 468.078L66.1172 464H68.2266L69.6094 466.602C69.7135 466.794 69.8151 466.992 69.9141 467.195H69.9375L71.7266 464H73.7109ZM1.38281 503V491.797H4.9375C6.02083 491.797 6.8776 492.034 7.50781 492.508C8.14323 492.982 8.46094 493.599 8.46094 494.359C8.46094 494.995 8.28125 495.547 7.92188 496.016C7.5625 496.484 7.0651 496.818 6.42969 497.016V497.047C7.20052 497.135 7.8151 497.422 8.27344 497.906C8.73698 498.385 8.96875 499.01 8.96875 499.781C8.96875 500.74 8.59115 501.516 7.83594 502.109C7.08073 502.703 6.1276 503 4.97656 503H1.38281ZM3.23438 493.289V496.477H4.4375C5.08333 496.477 5.58854 496.326 5.95312 496.023C6.32292 495.716 6.50781 495.284 6.50781 494.727C6.50781 493.768 5.86719 493.289 4.58594 493.289H3.23438ZM3.23438 497.969V501.516H4.82031C5.51302 501.516 6.04688 501.357 6.42188 501.039C6.80208 500.716 6.99219 500.273 6.99219 499.711C6.99219 498.549 6.1875 497.969 4.57812 497.969H3.23438ZM14.3984 503.188C13.1641 503.188 12.1771 502.815 11.4375 502.07C10.7031 501.32 10.3359 500.328 10.3359 499.094C10.3359 497.75 10.7188 496.701 11.4844 495.945C12.2552 495.19 13.2917 494.812 14.5938 494.812C15.8438 494.812 16.8177 495.18 17.5156 495.914C18.2135 496.648 18.5625 497.667 18.5625 498.969C18.5625 500.245 18.1849 501.268 17.4297 502.039C16.6797 502.805 15.6693 503.188 14.3984 503.188ZM14.4844 496.258C13.776 496.258 13.2161 496.505 12.8047 497C12.3932 497.495 12.1875 498.177 12.1875 499.047C12.1875 499.885 12.3958 500.547 12.8125 501.031C13.2292 501.51 13.7865 501.75 14.4844 501.75C15.1979 501.75 15.7448 501.513 16.125 501.039C16.5104 500.565 16.7031 499.891 16.7031 499.016C16.7031 498.135 16.5104 497.456 16.125 496.977C15.7448 496.497 15.1979 496.258 14.4844 496.258ZM25.0547 496.727C24.8359 496.555 24.5208 496.469 24.1094 496.469C23.5729 496.469 23.125 496.711 22.7656 497.195C22.4062 497.68 22.2266 498.339 22.2266 499.172V503H20.4141V495H22.2266V496.648H22.2578C22.4349 496.086 22.7057 495.648 23.0703 495.336C23.4401 495.018 23.8516 494.859 24.3047 494.859C24.6328 494.859 24.8828 494.909 25.0547 495.008V496.727ZM33.4688 503H31.6562V501.641H31.625C31.0417 502.672 30.1432 503.188 28.9297 503.188C27.9453 503.188 27.1562 502.831 26.5625 502.117C25.974 501.398 25.6797 500.422 25.6797 499.188C25.6797 497.865 26.0052 496.805 26.6562 496.008C27.3125 495.211 28.1849 494.812 29.2734 494.812C30.3516 494.812 31.1354 495.245 31.625 496.109H31.6562V491.156H33.4688V503ZM31.6797 499.344V498.297C31.6797 497.729 31.4948 497.247 31.125 496.852C30.7552 496.456 30.2839 496.258 29.7109 496.258C29.0339 496.258 28.5 496.51 28.1094 497.016C27.724 497.521 27.5312 498.221 27.5312 499.117C27.5312 499.93 27.7161 500.573 28.0859 501.047C28.4609 501.516 28.9635 501.75 29.5938 501.75C30.2135 501.75 30.7161 501.523 31.1016 501.07C31.487 500.612 31.6797 500.036 31.6797 499.344ZM42.6094 499.492H37.1562C37.1771 500.232 37.4036 500.802 37.8359 501.203C38.2734 501.604 38.8724 501.805 39.6328 501.805C40.487 501.805 41.2708 501.549 41.9844 501.039V502.5C41.2552 502.958 40.2917 503.188 39.0938 503.188C37.9167 503.188 36.9922 502.826 36.3203 502.102C35.6536 501.372 35.3203 500.349 35.3203 499.031C35.3203 497.786 35.6875 496.773 36.4219 495.992C37.1615 495.206 38.0781 494.812 39.1719 494.812C40.2656 494.812 41.112 495.164 41.7109 495.867C42.3099 496.57 42.6094 497.547 42.6094 498.797V499.492ZM40.8594 498.211C40.8542 497.56 40.7005 497.055 40.3984 496.695C40.0964 496.331 39.6797 496.148 39.1484 496.148C38.6276 496.148 38.1849 496.339 37.8203 496.719C37.4609 497.099 37.2396 497.596 37.1562 498.211H40.8594ZM48.9766 496.727C48.7578 496.555 48.4427 496.469 48.0312 496.469C47.4948 496.469 47.0469 496.711 46.6875 497.195C46.3281 497.68 46.1484 498.339 46.1484 499.172V503H44.3359V495H46.1484V496.648H46.1797C46.3568 496.086 46.6276 495.648 46.9922 495.336C47.362 495.018 47.7734 494.859 48.2266 494.859C48.5547 494.859 48.8047 494.909 48.9766 495.008V496.727ZM63.5234 503H61.3516L59.5625 500C59.401 499.724 59.2422 499.49 59.0859 499.297C58.9349 499.099 58.7786 498.938 58.6172 498.812C58.4609 498.688 58.2891 498.596 58.1016 498.539C57.9141 498.482 57.7031 498.453 57.4688 498.453H56.7188V503H54.8672V491.797H58.5547C59.0807 491.797 59.5651 491.859 60.0078 491.984C60.4505 492.109 60.8359 492.299 61.1641 492.555C61.4922 492.805 61.7474 493.12 61.9297 493.5C62.1172 493.875 62.2109 494.315 62.2109 494.82C62.2109 495.216 62.151 495.581 62.0312 495.914C61.9167 496.242 61.75 496.536 61.5312 496.797C61.3177 497.052 61.0573 497.271 60.75 497.453C60.4479 497.635 60.1068 497.776 59.7266 497.875V497.906C59.9297 498.021 60.1068 498.148 60.2578 498.289C60.4089 498.424 60.5521 498.565 60.6875 498.711C60.8229 498.857 60.9557 499.023 61.0859 499.211C61.2214 499.393 61.3698 499.607 61.5312 499.852L63.5234 503ZM56.7188 493.305V496.945H58.2656C58.5521 496.945 58.8151 496.901 59.0547 496.812C59.2995 496.724 59.5104 496.596 59.6875 496.43C59.8646 496.263 60.0026 496.06 60.1016 495.82C60.2005 495.581 60.25 495.312 60.25 495.016C60.25 494.479 60.0807 494.06 59.7422 493.758C59.4036 493.456 58.9167 493.305 58.2812 493.305H56.7188ZM70.7734 503H69.0156V501.75H68.9844C68.4323 502.708 67.6224 503.188 66.5547 503.188C65.7682 503.188 65.151 502.974 64.7031 502.547C64.2604 502.12 64.0391 501.555 64.0391 500.852C64.0391 499.341 64.9089 498.461 66.6484 498.211L69.0234 497.875C69.0234 496.734 68.4818 496.164 67.3984 496.164C66.4453 496.164 65.5859 496.492 64.8203 497.148V495.562C65.6641 495.062 66.638 494.812 67.7422 494.812C69.763 494.812 70.7734 495.807 70.7734 497.797V503ZM69.0234 499.07L67.3438 499.305C66.8229 499.372 66.4297 499.5 66.1641 499.688C65.9036 499.87 65.7734 500.193 65.7734 500.656C65.7734 500.995 65.8932 501.273 66.1328 501.492C66.3776 501.706 66.7031 501.812 67.1094 501.812C67.6615 501.812 68.1172 501.62 68.4766 501.234C68.8411 500.844 69.0234 500.354 69.0234 499.766V499.07ZM80.2656 503H78.4531V501.641H78.4219C77.8385 502.672 76.9401 503.188 75.7266 503.188C74.7422 503.188 73.9531 502.831 73.3594 502.117C72.7708 501.398 72.4766 500.422 72.4766 499.188C72.4766 497.865 72.8021 496.805 73.4531 496.008C74.1094 495.211 74.9818 494.812 76.0703 494.812C77.1484 494.812 77.9323 495.245 78.4219 496.109H78.4531V491.156H80.2656V503ZM78.4766 499.344V498.297C78.4766 497.729 78.2917 497.247 77.9219 496.852C77.5521 496.456 77.0807 496.258 76.5078 496.258C75.8307 496.258 75.2969 496.51 74.9062 497.016C74.5208 497.521 74.3281 498.221 74.3281 499.117C74.3281 499.93 74.513 500.573 74.8828 501.047C75.2578 501.516 75.7604 501.75 76.3906 501.75C77.0104 501.75 77.513 501.523 77.8984 501.07C78.2839 500.612 78.4766 500.036 78.4766 499.344ZM83.5469 493.32C83.25 493.32 82.9948 493.224 82.7812 493.031C82.5729 492.839 82.4688 492.594 82.4688 492.297C82.4688 492 82.5729 491.753 82.7812 491.555C82.9948 491.357 83.25 491.258 83.5469 491.258C83.8542 491.258 84.1146 491.357 84.3281 491.555C84.5417 491.753 84.6484 492 84.6484 492.297C84.6484 492.578 84.5417 492.82 84.3281 493.023C84.1146 493.221 83.8542 493.32 83.5469 493.32ZM84.4453 503H82.6328V495H84.4453V503ZM93.7969 503H91.9844V501.734H91.9531C91.4271 502.703 90.6094 503.188 89.5 503.188C87.6094 503.188 86.6641 502.052 86.6641 499.781V495H88.4766V499.594C88.4766 501.031 89.0312 501.75 90.1406 501.75C90.6771 501.75 91.1172 501.552 91.4609 501.156C91.8099 500.76 91.9844 500.242 91.9844 499.602V495H93.7969V503ZM95.6641 502.75V501.07C96.3411 501.586 97.0885 501.844 97.9062 501.844C99 501.844 99.5469 501.521 99.5469 500.875C99.5469 500.693 99.5 500.539 99.4062 500.414C99.3125 500.284 99.1849 500.169 99.0234 500.07C98.8672 499.971 98.6797 499.883 98.4609 499.805C98.2474 499.727 98.0078 499.638 97.7422 499.539C97.4141 499.409 97.1172 499.271 96.8516 499.125C96.5911 498.979 96.3724 498.815 96.1953 498.633C96.0234 498.445 95.8932 498.234 95.8047 498C95.7161 497.766 95.6719 497.492 95.6719 497.18C95.6719 496.794 95.763 496.456 95.9453 496.164C96.1276 495.867 96.3724 495.62 96.6797 495.422C96.987 495.219 97.3359 495.068 97.7266 494.969C98.1172 494.865 98.5208 494.812 98.9375 494.812C99.6771 494.812 100.339 494.924 100.922 495.148V496.734C100.359 496.349 99.7135 496.156 98.9844 496.156C98.7552 496.156 98.5469 496.18 98.3594 496.227C98.1771 496.273 98.0208 496.339 97.8906 496.422C97.7604 496.505 97.6589 496.607 97.5859 496.727C97.513 496.841 97.4766 496.969 97.4766 497.109C97.4766 497.281 97.513 497.427 97.5859 497.547C97.6589 497.667 97.7656 497.773 97.9062 497.867C98.0521 497.956 98.224 498.039 98.4219 498.117C98.625 498.19 98.8568 498.271 99.1172 498.359C99.4609 498.5 99.7682 498.643 100.039 498.789C100.315 498.935 100.549 499.102 100.742 499.289C100.935 499.471 101.083 499.685 101.188 499.93C101.292 500.169 101.344 500.456 101.344 500.789C101.344 501.195 101.25 501.549 101.062 501.852C100.875 502.154 100.625 502.404 100.312 502.602C100 502.799 99.638 502.945 99.2266 503.039C98.8203 503.138 98.3906 503.188 97.9375 503.188C97.0625 503.188 96.3047 503.042 95.6641 502.75ZM107.508 502.742V501C108.242 501.495 108.987 501.742 109.742 501.742C110.503 501.742 111.115 501.549 111.578 501.164C112.042 500.773 112.273 500.255 112.273 499.609C112.273 498.974 112.036 498.479 111.562 498.125C111.094 497.771 110.419 497.594 109.539 497.594C109.237 497.594 108.625 497.625 107.703 497.688L108.102 491.797H113.617V493.344H109.609L109.422 496.148C109.781 496.128 110.107 496.117 110.398 496.117C111.586 496.117 112.503 496.422 113.148 497.031C113.799 497.641 114.125 498.474 114.125 499.531C114.125 500.641 113.753 501.531 113.008 502.203C112.268 502.87 111.25 503.203 109.953 503.203C108.859 503.203 108.044 503.049 107.508 502.742ZM119.508 503.188C118.341 503.188 117.43 502.711 116.773 501.758C116.122 500.805 115.797 499.427 115.797 497.625C115.797 495.646 116.138 494.148 116.82 493.133C117.503 492.117 118.487 491.609 119.773 491.609C122.237 491.609 123.469 493.523 123.469 497.352C123.469 499.247 123.12 500.695 122.422 501.695C121.729 502.69 120.758 503.188 119.508 503.188ZM119.688 493.055C118.328 493.055 117.648 494.552 117.648 497.547C117.648 500.349 118.315 501.75 119.648 501.75C120.961 501.75 121.617 500.326 121.617 497.477C121.617 494.529 120.974 493.055 119.688 493.055ZM127.102 501.82H127.07V506.68H125.258V495H127.07V496.406H127.102C127.721 495.344 128.628 494.812 129.82 494.812C130.836 494.812 131.628 495.169 132.195 495.883C132.763 496.596 133.047 497.555 133.047 498.758C133.047 500.091 132.727 501.159 132.086 501.961C131.445 502.763 130.57 503.164 129.461 503.164C128.44 503.164 127.654 502.716 127.102 501.82ZM127.055 498.664V499.656C127.055 500.24 127.24 500.734 127.609 501.141C127.984 501.547 128.458 501.75 129.031 501.75C129.703 501.75 130.229 501.49 130.609 500.969C130.995 500.443 131.188 499.711 131.188 498.773C131.188 497.987 131.008 497.372 130.648 496.93C130.294 496.482 129.812 496.258 129.203 496.258C128.557 496.258 128.036 496.487 127.641 496.945C127.25 497.404 127.055 497.977 127.055 498.664ZM141.336 495L138.672 499.047L141.305 503H139.203L137.797 500.523C137.708 500.372 137.604 500.18 137.484 499.945H137.453C137.432 499.992 137.323 500.185 137.125 500.523L135.695 503H133.602L136.32 499.078L133.742 495H135.852L137.234 497.602C137.339 497.794 137.44 497.992 137.539 498.195H137.562L139.352 495H141.336Z" fill="#3178C6"/>
<path d="M458.797 472H451.766V471.133C451.766 470.779 451.815 470.448 451.914 470.141C452.013 469.828 452.146 469.536 452.312 469.266C452.479 468.99 452.674 468.732 452.898 468.492C453.122 468.247 453.362 468.013 453.617 467.789C453.872 467.56 454.133 467.341 454.398 467.133C454.664 466.919 454.924 466.706 455.18 466.492C455.419 466.289 455.638 466.091 455.836 465.898C456.034 465.701 456.203 465.497 456.344 465.289C456.484 465.081 456.594 464.862 456.672 464.633C456.75 464.398 456.789 464.146 456.789 463.875C456.789 463.578 456.742 463.32 456.648 463.102C456.56 462.878 456.432 462.693 456.266 462.547C456.104 462.396 455.911 462.284 455.688 462.211C455.464 462.133 455.219 462.094 454.953 462.094C454.495 462.094 454.029 462.201 453.555 462.414C453.081 462.628 452.625 462.948 452.188 463.375V461.633C452.417 461.461 452.648 461.312 452.883 461.188C453.117 461.057 453.359 460.951 453.609 460.867C453.859 460.779 454.122 460.714 454.398 460.672C454.674 460.63 454.969 460.609 455.281 460.609C455.786 460.609 456.245 460.677 456.656 460.812C457.068 460.943 457.419 461.138 457.711 461.398C458.003 461.654 458.227 461.974 458.383 462.359C458.544 462.745 458.625 463.188 458.625 463.688C458.625 464.141 458.568 464.549 458.453 464.914C458.344 465.273 458.185 465.609 457.977 465.922C457.773 466.234 457.526 466.531 457.234 466.812C456.943 467.094 456.617 467.383 456.258 467.68C455.956 467.924 455.654 468.164 455.352 468.398C455.055 468.628 454.786 468.854 454.547 469.078C454.307 469.297 454.112 469.518 453.961 469.742C453.815 469.961 453.742 470.182 453.742 470.406V470.445H458.797V472ZM461.102 471.742V470C461.836 470.495 462.581 470.742 463.336 470.742C464.096 470.742 464.708 470.549 465.172 470.164C465.635 469.773 465.867 469.255 465.867 468.609C465.867 467.974 465.63 467.479 465.156 467.125C464.688 466.771 464.013 466.594 463.133 466.594C462.831 466.594 462.219 466.625 461.297 466.688L461.695 460.797H467.211V462.344H463.203L463.016 465.148C463.375 465.128 463.701 465.117 463.992 465.117C465.18 465.117 466.096 465.422 466.742 466.031C467.393 466.641 467.719 467.474 467.719 468.531C467.719 469.641 467.346 470.531 466.602 471.203C465.862 471.87 464.844 472.203 463.547 472.203C462.453 472.203 461.638 472.049 461.102 471.742ZM477.102 468.398C477.102 468.961 477.008 469.474 476.82 469.938C476.638 470.401 476.383 470.802 476.055 471.141C475.727 471.474 475.336 471.734 474.883 471.922C474.435 472.104 473.948 472.195 473.422 472.195C472.859 472.195 472.341 472.086 471.867 471.867C471.398 471.648 470.992 471.323 470.648 470.891C470.31 470.458 470.047 469.922 469.859 469.281C469.672 468.635 469.578 467.888 469.578 467.039C469.578 466.003 469.701 465.083 469.945 464.281C470.195 463.479 470.536 462.807 470.969 462.266C471.401 461.724 471.909 461.312 472.492 461.031C473.076 460.75 473.706 460.609 474.383 460.609C474.805 460.609 475.188 460.638 475.531 460.695C475.88 460.753 476.159 460.831 476.367 460.93V462.562C476.102 462.427 475.818 462.312 475.516 462.219C475.214 462.125 474.867 462.078 474.477 462.078C474.039 462.078 473.635 462.167 473.266 462.344C472.896 462.521 472.576 462.781 472.305 463.125C472.039 463.464 471.828 463.885 471.672 464.391C471.521 464.891 471.443 465.469 471.438 466.125H471.484C471.724 465.755 472.047 465.464 472.453 465.25C472.865 465.036 473.346 464.93 473.898 464.93C474.388 464.93 474.828 465.01 475.219 465.172C475.615 465.328 475.951 465.557 476.227 465.859C476.508 466.156 476.724 466.521 476.875 466.953C477.026 467.38 477.102 467.862 477.102 468.398ZM475.273 468.547C475.273 468.224 475.234 467.93 475.156 467.664C475.083 467.398 474.969 467.172 474.812 466.984C474.661 466.792 474.469 466.643 474.234 466.539C474.005 466.435 473.734 466.383 473.422 466.383C473.109 466.383 472.833 466.44 472.594 466.555C472.359 466.664 472.161 466.81 472 466.992C471.839 467.174 471.716 467.383 471.633 467.617C471.555 467.852 471.516 468.091 471.516 468.336C471.516 468.602 471.552 468.875 471.625 469.156C471.703 469.432 471.82 469.685 471.977 469.914C472.133 470.143 472.331 470.333 472.57 470.484C472.815 470.63 473.104 470.703 473.438 470.703C473.734 470.703 473.997 470.648 474.227 470.539C474.456 470.43 474.646 470.279 474.797 470.086C474.953 469.893 475.07 469.667 475.148 469.406C475.232 469.141 475.273 468.854 475.273 468.547ZM485.586 464L482.922 468.047L485.555 472H483.453L482.047 469.523C481.958 469.372 481.854 469.18 481.734 468.945H481.703C481.682 468.992 481.573 469.185 481.375 469.523L479.945 472H477.852L480.57 468.078L477.992 464H480.102L481.484 466.602C481.589 466.794 481.69 466.992 481.789 467.195H481.812L483.602 464H485.586ZM493.531 472H486.5V471.133C486.5 470.779 486.549 470.448 486.648 470.141C486.747 469.828 486.88 469.536 487.047 469.266C487.214 468.99 487.409 468.732 487.633 468.492C487.857 468.247 488.096 468.013 488.352 467.789C488.607 467.56 488.867 467.341 489.133 467.133C489.398 466.919 489.659 466.706 489.914 466.492C490.154 466.289 490.372 466.091 490.57 465.898C490.768 465.701 490.938 465.497 491.078 465.289C491.219 465.081 491.328 464.862 491.406 464.633C491.484 464.398 491.523 464.146 491.523 463.875C491.523 463.578 491.477 463.32 491.383 463.102C491.294 462.878 491.167 462.693 491 462.547C490.839 462.396 490.646 462.284 490.422 462.211C490.198 462.133 489.953 462.094 489.688 462.094C489.229 462.094 488.763 462.201 488.289 462.414C487.815 462.628 487.359 462.948 486.922 463.375V461.633C487.151 461.461 487.383 461.312 487.617 461.188C487.852 461.057 488.094 460.951 488.344 460.867C488.594 460.779 488.857 460.714 489.133 460.672C489.409 460.63 489.703 460.609 490.016 460.609C490.521 460.609 490.979 460.677 491.391 460.812C491.802 460.943 492.154 461.138 492.445 461.398C492.737 461.654 492.961 461.974 493.117 462.359C493.279 462.745 493.359 463.188 493.359 463.688C493.359 464.141 493.302 464.549 493.188 464.914C493.078 465.273 492.919 465.609 492.711 465.922C492.508 466.234 492.26 466.531 491.969 466.812C491.677 467.094 491.352 467.383 490.992 467.68C490.69 467.924 490.388 468.164 490.086 468.398C489.789 468.628 489.521 468.854 489.281 469.078C489.042 469.297 488.846 469.518 488.695 469.742C488.549 469.961 488.477 470.182 488.477 470.406V470.445H493.531V472ZM495.836 471.742V470C496.57 470.495 497.315 470.742 498.07 470.742C498.831 470.742 499.443 470.549 499.906 470.164C500.37 469.773 500.602 469.255 500.602 468.609C500.602 467.974 500.365 467.479 499.891 467.125C499.422 466.771 498.747 466.594 497.867 466.594C497.565 466.594 496.953 466.625 496.031 466.688L496.43 460.797H501.945V462.344H497.938L497.75 465.148C498.109 465.128 498.435 465.117 498.727 465.117C499.914 465.117 500.831 465.422 501.477 466.031C502.128 466.641 502.453 467.474 502.453 468.531C502.453 469.641 502.081 470.531 501.336 471.203C500.596 471.87 499.578 472.203 498.281 472.203C497.188 472.203 496.372 472.049 495.836 471.742ZM511.836 468.398C511.836 468.961 511.742 469.474 511.555 469.938C511.372 470.401 511.117 470.802 510.789 471.141C510.461 471.474 510.07 471.734 509.617 471.922C509.169 472.104 508.682 472.195 508.156 472.195C507.594 472.195 507.076 472.086 506.602 471.867C506.133 471.648 505.727 471.323 505.383 470.891C505.044 470.458 504.781 469.922 504.594 469.281C504.406 468.635 504.312 467.888 504.312 467.039C504.312 466.003 504.435 465.083 504.68 464.281C504.93 463.479 505.271 462.807 505.703 462.266C506.135 461.724 506.643 461.312 507.227 461.031C507.81 460.75 508.44 460.609 509.117 460.609C509.539 460.609 509.922 460.638 510.266 460.695C510.615 460.753 510.893 460.831 511.102 460.93V462.562C510.836 462.427 510.552 462.312 510.25 462.219C509.948 462.125 509.602 462.078 509.211 462.078C508.773 462.078 508.37 462.167 508 462.344C507.63 462.521 507.31 462.781 507.039 463.125C506.773 463.464 506.562 463.885 506.406 464.391C506.255 464.891 506.177 465.469 506.172 466.125H506.219C506.458 465.755 506.781 465.464 507.188 465.25C507.599 465.036 508.081 464.93 508.633 464.93C509.122 464.93 509.562 465.01 509.953 465.172C510.349 465.328 510.685 465.557 510.961 465.859C511.242 466.156 511.458 466.521 511.609 466.953C511.76 467.38 511.836 467.862 511.836 468.398ZM510.008 468.547C510.008 468.224 509.969 467.93 509.891 467.664C509.818 467.398 509.703 467.172 509.547 466.984C509.396 466.792 509.203 466.643 508.969 466.539C508.74 466.435 508.469 466.383 508.156 466.383C507.844 466.383 507.568 466.44 507.328 466.555C507.094 466.664 506.896 466.81 506.734 466.992C506.573 467.174 506.451 467.383 506.367 467.617C506.289 467.852 506.25 468.091 506.25 468.336C506.25 468.602 506.286 468.875 506.359 469.156C506.438 469.432 506.555 469.685 506.711 469.914C506.867 470.143 507.065 470.333 507.305 470.484C507.549 470.63 507.839 470.703 508.172 470.703C508.469 470.703 508.732 470.648 508.961 470.539C509.19 470.43 509.38 470.279 509.531 470.086C509.688 469.893 509.805 469.667 509.883 469.406C509.966 469.141 510.008 468.854 510.008 468.547ZM515.477 470.82H515.445V475.68H513.633V464H515.445V465.406H515.477C516.096 464.344 517.003 463.812 518.195 463.812C519.211 463.812 520.003 464.169 520.57 464.883C521.138 465.596 521.422 466.555 521.422 467.758C521.422 469.091 521.102 470.159 520.461 470.961C519.82 471.763 518.945 472.164 517.836 472.164C516.815 472.164 516.029 471.716 515.477 470.82ZM515.43 467.664V468.656C515.43 469.24 515.615 469.734 515.984 470.141C516.359 470.547 516.833 470.75 517.406 470.75C518.078 470.75 518.604 470.49 518.984 469.969C519.37 469.443 519.562 468.711 519.562 467.773C519.562 466.987 519.383 466.372 519.023 465.93C518.669 465.482 518.188 465.258 517.578 465.258C516.932 465.258 516.411 465.487 516.016 465.945C515.625 466.404 515.43 466.977 515.43 467.664ZM529.711 464L527.047 468.047L529.68 472H527.578L526.172 469.523C526.083 469.372 525.979 469.18 525.859 468.945H525.828C525.807 468.992 525.698 469.185 525.5 469.523L524.07 472H521.977L524.695 468.078L522.117 464H524.227L525.609 466.602C525.714 466.794 525.815 466.992 525.914 467.195H525.938L527.727 464H529.711ZM452.383 503V491.797H455.938C457.021 491.797 457.878 492.034 458.508 492.508C459.143 492.982 459.461 493.599 459.461 494.359C459.461 494.995 459.281 495.547 458.922 496.016C458.562 496.484 458.065 496.818 457.43 497.016V497.047C458.201 497.135 458.815 497.422 459.273 497.906C459.737 498.385 459.969 499.01 459.969 499.781C459.969 500.74 459.591 501.516 458.836 502.109C458.081 502.703 457.128 503 455.977 503H452.383ZM454.234 493.289V496.477H455.438C456.083 496.477 456.589 496.326 456.953 496.023C457.323 495.716 457.508 495.284 457.508 494.727C457.508 493.768 456.867 493.289 455.586 493.289H454.234ZM454.234 497.969V501.516H455.82C456.513 501.516 457.047 501.357 457.422 501.039C457.802 500.716 457.992 500.273 457.992 499.711C457.992 498.549 457.188 497.969 455.578 497.969H454.234ZM465.398 503.188C464.164 503.188 463.177 502.815 462.438 502.07C461.703 501.32 461.336 500.328 461.336 499.094C461.336 497.75 461.719 496.701 462.484 495.945C463.255 495.19 464.292 494.812 465.594 494.812C466.844 494.812 467.818 495.18 468.516 495.914C469.214 496.648 469.562 497.667 469.562 498.969C469.562 500.245 469.185 501.268 468.43 502.039C467.68 502.805 466.669 503.188 465.398 503.188ZM465.484 496.258C464.776 496.258 464.216 496.505 463.805 497C463.393 497.495 463.188 498.177 463.188 499.047C463.188 499.885 463.396 500.547 463.812 501.031C464.229 501.51 464.786 501.75 465.484 501.75C466.198 501.75 466.745 501.513 467.125 501.039C467.51 500.565 467.703 499.891 467.703 499.016C467.703 498.135 467.51 497.456 467.125 496.977C466.745 496.497 466.198 496.258 465.484 496.258ZM476.055 496.727C475.836 496.555 475.521 496.469 475.109 496.469C474.573 496.469 474.125 496.711 473.766 497.195C473.406 497.68 473.227 498.339 473.227 499.172V503H471.414V495H473.227V496.648H473.258C473.435 496.086 473.706 495.648 474.07 495.336C474.44 495.018 474.852 494.859 475.305 494.859C475.633 494.859 475.883 494.909 476.055 495.008V496.727ZM484.469 503H482.656V501.641H482.625C482.042 502.672 481.143 503.188 479.93 503.188C478.945 503.188 478.156 502.831 477.562 502.117C476.974 501.398 476.68 500.422 476.68 499.188C476.68 497.865 477.005 496.805 477.656 496.008C478.312 495.211 479.185 494.812 480.273 494.812C481.352 494.812 482.135 495.245 482.625 496.109H482.656V491.156H484.469V503ZM482.68 499.344V498.297C482.68 497.729 482.495 497.247 482.125 496.852C481.755 496.456 481.284 496.258 480.711 496.258C480.034 496.258 479.5 496.51 479.109 497.016C478.724 497.521 478.531 498.221 478.531 499.117C478.531 499.93 478.716 500.573 479.086 501.047C479.461 501.516 479.964 501.75 480.594 501.75C481.214 501.75 481.716 501.523 482.102 501.07C482.487 500.612 482.68 500.036 482.68 499.344ZM493.609 499.492H488.156C488.177 500.232 488.404 500.802 488.836 501.203C489.273 501.604 489.872 501.805 490.633 501.805C491.487 501.805 492.271 501.549 492.984 501.039V502.5C492.255 502.958 491.292 503.188 490.094 503.188C488.917 503.188 487.992 502.826 487.32 502.102C486.654 501.372 486.32 500.349 486.32 499.031C486.32 497.786 486.688 496.773 487.422 495.992C488.161 495.206 489.078 494.812 490.172 494.812C491.266 494.812 492.112 495.164 492.711 495.867C493.31 496.57 493.609 497.547 493.609 498.797V499.492ZM491.859 498.211C491.854 497.56 491.701 497.055 491.398 496.695C491.096 496.331 490.68 496.148 490.148 496.148C489.628 496.148 489.185 496.339 488.82 496.719C488.461 497.099 488.24 497.596 488.156 498.211H491.859ZM499.977 496.727C499.758 496.555 499.443 496.469 499.031 496.469C498.495 496.469 498.047 496.711 497.688 497.195C497.328 497.68 497.148 498.339 497.148 499.172V503H495.336V495H497.148V496.648H497.18C497.357 496.086 497.628 495.648 497.992 495.336C498.362 495.018 498.773 494.859 499.227 494.859C499.555 494.859 499.805 494.909 499.977 495.008V496.727ZM514.523 503H512.352L510.562 500C510.401 499.724 510.242 499.49 510.086 499.297C509.935 499.099 509.779 498.938 509.617 498.812C509.461 498.688 509.289 498.596 509.102 498.539C508.914 498.482 508.703 498.453 508.469 498.453H507.719V503H505.867V491.797H509.555C510.081 491.797 510.565 491.859 511.008 491.984C511.451 492.109 511.836 492.299 512.164 492.555C512.492 492.805 512.747 493.12 512.93 493.5C513.117 493.875 513.211 494.315 513.211 494.82C513.211 495.216 513.151 495.581 513.031 495.914C512.917 496.242 512.75 496.536 512.531 496.797C512.318 497.052 512.057 497.271 511.75 497.453C511.448 497.635 511.107 497.776 510.727 497.875V497.906C510.93 498.021 511.107 498.148 511.258 498.289C511.409 498.424 511.552 498.565 511.688 498.711C511.823 498.857 511.956 499.023 512.086 499.211C512.221 499.393 512.37 499.607 512.531 499.852L514.523 503ZM507.719 493.305V496.945H509.266C509.552 496.945 509.815 496.901 510.055 496.812C510.299 496.724 510.51 496.596 510.688 496.43C510.865 496.263 511.003 496.06 511.102 495.82C511.201 495.581 511.25 495.312 511.25 495.016C511.25 494.479 511.081 494.06 510.742 493.758C510.404 493.456 509.917 493.305 509.281 493.305H507.719ZM521.773 503H520.016V501.75H519.984C519.432 502.708 518.622 503.188 517.555 503.188C516.768 503.188 516.151 502.974 515.703 502.547C515.26 502.12 515.039 501.555 515.039 500.852C515.039 499.341 515.909 498.461 517.648 498.211L520.023 497.875C520.023 496.734 519.482 496.164 518.398 496.164C517.445 496.164 516.586 496.492 515.82 497.148V495.562C516.664 495.062 517.638 494.812 518.742 494.812C520.763 494.812 521.773 495.807 521.773 497.797V503ZM520.023 499.07L518.344 499.305C517.823 499.372 517.43 499.5 517.164 499.688C516.904 499.87 516.773 500.193 516.773 500.656C516.773 500.995 516.893 501.273 517.133 501.492C517.378 501.706 517.703 501.812 518.109 501.812C518.661 501.812 519.117 501.62 519.477 501.234C519.841 500.844 520.023 500.354 520.023 499.766V499.07ZM531.266 503H529.453V501.641H529.422C528.839 502.672 527.94 503.188 526.727 503.188C525.742 503.188 524.953 502.831 524.359 502.117C523.771 501.398 523.477 500.422 523.477 499.188C523.477 497.865 523.802 496.805 524.453 496.008C525.109 495.211 525.982 494.812 527.07 494.812C528.148 494.812 528.932 495.245 529.422 496.109H529.453V491.156H531.266V503ZM529.477 499.344V498.297C529.477 497.729 529.292 497.247 528.922 496.852C528.552 496.456 528.081 496.258 527.508 496.258C526.831 496.258 526.297 496.51 525.906 497.016C525.521 497.521 525.328 498.221 525.328 499.117C525.328 499.93 525.513 500.573 525.883 501.047C526.258 501.516 526.76 501.75 527.391 501.75C528.01 501.75 528.513 501.523 528.898 501.07C529.284 500.612 529.477 500.036 529.477 499.344ZM534.547 493.32C534.25 493.32 533.995 493.224 533.781 493.031C533.573 492.839 533.469 492.594 533.469 492.297C533.469 492 533.573 491.753 533.781 491.555C533.995 491.357 534.25 491.258 534.547 491.258C534.854 491.258 535.115 491.357 535.328 491.555C535.542 491.753 535.648 492 535.648 492.297C535.648 492.578 535.542 492.82 535.328 493.023C535.115 493.221 534.854 493.32 534.547 493.32ZM535.445 503H533.633V495H535.445V503ZM544.797 503H542.984V501.734H542.953C542.427 502.703 541.609 503.188 540.5 503.188C538.609 503.188 537.664 502.052 537.664 499.781V495H539.477V499.594C539.477 501.031 540.031 501.75 541.141 501.75C541.677 501.75 542.117 501.552 542.461 501.156C542.81 500.76 542.984 500.242 542.984 499.602V495H544.797V503ZM546.664 502.75V501.07C547.341 501.586 548.089 501.844 548.906 501.844C550 501.844 550.547 501.521 550.547 500.875C550.547 500.693 550.5 500.539 550.406 500.414C550.312 500.284 550.185 500.169 550.023 500.07C549.867 499.971 549.68 499.883 549.461 499.805C549.247 499.727 549.008 499.638 548.742 499.539C548.414 499.409 548.117 499.271 547.852 499.125C547.591 498.979 547.372 498.815 547.195 498.633C547.023 498.445 546.893 498.234 546.805 498C546.716 497.766 546.672 497.492 546.672 497.18C546.672 496.794 546.763 496.456 546.945 496.164C547.128 495.867 547.372 495.62 547.68 495.422C547.987 495.219 548.336 495.068 548.727 494.969C549.117 494.865 549.521 494.812 549.938 494.812C550.677 494.812 551.339 494.924 551.922 495.148V496.734C551.359 496.349 550.714 496.156 549.984 496.156C549.755 496.156 549.547 496.18 549.359 496.227C549.177 496.273 549.021 496.339 548.891 496.422C548.76 496.505 548.659 496.607 548.586 496.727C548.513 496.841 548.477 496.969 548.477 497.109C548.477 497.281 548.513 497.427 548.586 497.547C548.659 497.667 548.766 497.773 548.906 497.867C549.052 497.956 549.224 498.039 549.422 498.117C549.625 498.19 549.857 498.271 550.117 498.359C550.461 498.5 550.768 498.643 551.039 498.789C551.315 498.935 551.549 499.102 551.742 499.289C551.935 499.471 552.083 499.685 552.188 499.93C552.292 500.169 552.344 500.456 552.344 500.789C552.344 501.195 552.25 501.549 552.062 501.852C551.875 502.154 551.625 502.404 551.312 502.602C551 502.799 550.638 502.945 550.227 503.039C549.82 503.138 549.391 503.188 548.938 503.188C548.062 503.188 547.305 503.042 546.664 502.75ZM565.094 503H558.062V502.133C558.062 501.779 558.112 501.448 558.211 501.141C558.31 500.828 558.443 500.536 558.609 500.266C558.776 499.99 558.971 499.732 559.195 499.492C559.419 499.247 559.659 499.013 559.914 498.789C560.169 498.56 560.43 498.341 560.695 498.133C560.961 497.919 561.221 497.706 561.477 497.492C561.716 497.289 561.935 497.091 562.133 496.898C562.331 496.701 562.5 496.497 562.641 496.289C562.781 496.081 562.891 495.862 562.969 495.633C563.047 495.398 563.086 495.146 563.086 494.875C563.086 494.578 563.039 494.32 562.945 494.102C562.857 493.878 562.729 493.693 562.562 493.547C562.401 493.396 562.208 493.284 561.984 493.211C561.76 493.133 561.516 493.094 561.25 493.094C560.792 493.094 560.326 493.201 559.852 493.414C559.378 493.628 558.922 493.948 558.484 494.375V492.633C558.714 492.461 558.945 492.312 559.18 492.188C559.414 492.057 559.656 491.951 559.906 491.867C560.156 491.779 560.419 491.714 560.695 491.672C560.971 491.63 561.266 491.609 561.578 491.609C562.083 491.609 562.542 491.677 562.953 491.812C563.365 491.943 563.716 492.138 564.008 492.398C564.299 492.654 564.523 492.974 564.68 493.359C564.841 493.745 564.922 494.188 564.922 494.688C564.922 495.141 564.865 495.549 564.75 495.914C564.641 496.273 564.482 496.609 564.273 496.922C564.07 497.234 563.823 497.531 563.531 497.812C563.24 498.094 562.914 498.383 562.555 498.68C562.253 498.924 561.951 499.164 561.648 499.398C561.352 499.628 561.083 499.854 560.844 500.078C560.604 500.297 560.409 500.518 560.258 500.742C560.112 500.961 560.039 501.182 560.039 501.406V501.445H565.094V503ZM570.508 503.188C569.341 503.188 568.43 502.711 567.773 501.758C567.122 500.805 566.797 499.427 566.797 497.625C566.797 495.646 567.138 494.148 567.82 493.133C568.503 492.117 569.487 491.609 570.773 491.609C573.237 491.609 574.469 493.523 574.469 497.352C574.469 499.247 574.12 500.695 573.422 501.695C572.729 502.69 571.758 503.188 570.508 503.188ZM570.688 493.055C569.328 493.055 568.648 494.552 568.648 497.547C568.648 500.349 569.315 501.75 570.648 501.75C571.961 501.75 572.617 500.326 572.617 497.477C572.617 494.529 571.974 493.055 570.688 493.055ZM578.102 501.82H578.07V506.68H576.258V495H578.07V496.406H578.102C578.721 495.344 579.628 494.812 580.82 494.812C581.836 494.812 582.628 495.169 583.195 495.883C583.763 496.596 584.047 497.555 584.047 498.758C584.047 500.091 583.727 501.159 583.086 501.961C582.445 502.763 581.57 503.164 580.461 503.164C579.44 503.164 578.654 502.716 578.102 501.82ZM578.055 498.664V499.656C578.055 500.24 578.24 500.734 578.609 501.141C578.984 501.547 579.458 501.75 580.031 501.75C580.703 501.75 581.229 501.49 581.609 500.969C581.995 500.443 582.188 499.711 582.188 498.773C582.188 497.987 582.008 497.372 581.648 496.93C581.294 496.482 580.812 496.258 580.203 496.258C579.557 496.258 579.036 496.487 578.641 496.945C578.25 497.404 578.055 497.977 578.055 498.664ZM592.336 495L589.672 499.047L592.305 503H590.203L588.797 500.523C588.708 500.372 588.604 500.18 588.484 499.945H588.453C588.432 499.992 588.323 500.185 588.125 500.523L586.695 503H584.602L587.32 499.078L584.742 495H586.852L588.234 497.602C588.339 497.794 588.44 497.992 588.539 498.195H588.562L590.352 495H592.336Z" fill="#3178C6"/>
<path d="M695.805 459.547V471H693.992V461.766C693.664 462 693.31 462.201 692.93 462.367C692.555 462.529 692.125 462.672 691.641 462.797V461.25C691.943 461.151 692.234 461.047 692.516 460.938C692.797 460.828 693.073 460.706 693.344 460.57C693.62 460.435 693.896 460.284 694.172 460.117C694.453 459.951 694.742 459.76 695.039 459.547H695.805ZM705.234 471H698.203V470.133C698.203 469.779 698.253 469.448 698.352 469.141C698.451 468.828 698.583 468.536 698.75 468.266C698.917 467.99 699.112 467.732 699.336 467.492C699.56 467.247 699.799 467.013 700.055 466.789C700.31 466.56 700.57 466.341 700.836 466.133C701.102 465.919 701.362 465.706 701.617 465.492C701.857 465.289 702.076 465.091 702.273 464.898C702.471 464.701 702.641 464.497 702.781 464.289C702.922 464.081 703.031 463.862 703.109 463.633C703.188 463.398 703.227 463.146 703.227 462.875C703.227 462.578 703.18 462.32 703.086 462.102C702.997 461.878 702.87 461.693 702.703 461.547C702.542 461.396 702.349 461.284 702.125 461.211C701.901 461.133 701.656 461.094 701.391 461.094C700.932 461.094 700.466 461.201 699.992 461.414C699.518 461.628 699.062 461.948 698.625 462.375V460.633C698.854 460.461 699.086 460.312 699.32 460.188C699.555 460.057 699.797 459.951 700.047 459.867C700.297 459.779 700.56 459.714 700.836 459.672C701.112 459.63 701.406 459.609 701.719 459.609C702.224 459.609 702.682 459.677 703.094 459.812C703.505 459.943 703.857 460.138 704.148 460.398C704.44 460.654 704.664 460.974 704.82 461.359C704.982 461.745 705.062 462.188 705.062 462.688C705.062 463.141 705.005 463.549 704.891 463.914C704.781 464.273 704.622 464.609 704.414 464.922C704.211 465.234 703.964 465.531 703.672 465.812C703.38 466.094 703.055 466.383 702.695 466.68C702.393 466.924 702.091 467.164 701.789 467.398C701.492 467.628 701.224 467.854 700.984 468.078C700.745 468.297 700.549 468.518 700.398 468.742C700.253 468.961 700.18 469.182 700.18 469.406V469.445H705.234V471ZM707.039 467.875C707.039 467.552 707.078 467.24 707.156 466.938C707.24 466.635 707.362 466.357 707.523 466.102C707.685 465.846 707.888 465.617 708.133 465.414C708.378 465.211 708.664 465.047 708.992 464.922C708.508 464.651 708.122 464.305 707.836 463.883C707.549 463.456 707.406 462.984 707.406 462.469C707.406 462.057 707.49 461.677 707.656 461.328C707.828 460.979 708.062 460.677 708.359 460.422C708.661 460.167 709.016 459.969 709.422 459.828C709.828 459.682 710.271 459.609 710.75 459.609C711.234 459.609 711.68 459.682 712.086 459.828C712.497 459.974 712.852 460.174 713.148 460.43C713.451 460.685 713.685 460.987 713.852 461.336C714.018 461.685 714.102 462.062 714.102 462.469C714.102 462.984 713.958 463.456 713.672 463.883C713.385 464.305 713.005 464.651 712.531 464.922C712.854 465.047 713.138 465.211 713.383 465.414C713.633 465.612 713.841 465.839 714.008 466.094C714.174 466.349 714.299 466.628 714.383 466.93C714.466 467.232 714.508 467.547 714.508 467.875C714.508 468.365 714.417 468.812 714.234 469.219C714.052 469.625 713.797 469.974 713.469 470.266C713.141 470.552 712.747 470.776 712.289 470.938C711.831 471.099 711.326 471.18 710.773 471.18C710.227 471.18 709.724 471.099 709.266 470.938C708.812 470.776 708.419 470.552 708.086 470.266C707.758 469.974 707.5 469.625 707.312 469.219C707.13 468.812 707.039 468.365 707.039 467.875ZM708.805 467.719C708.805 468.036 708.852 468.323 708.945 468.578C709.039 468.833 709.172 469.049 709.344 469.227C709.516 469.404 709.721 469.539 709.961 469.633C710.206 469.727 710.477 469.773 710.773 469.773C711.06 469.773 711.323 469.727 711.562 469.633C711.802 469.534 712.008 469.396 712.18 469.219C712.357 469.036 712.495 468.82 712.594 468.57C712.693 468.315 712.742 468.031 712.742 467.719C712.742 467.432 712.695 467.164 712.602 466.914C712.508 466.659 712.375 466.438 712.203 466.25C712.031 466.062 711.823 465.914 711.578 465.805C711.339 465.695 711.07 465.641 710.773 465.641C710.492 465.641 710.229 465.693 709.984 465.797C709.745 465.896 709.536 466.039 709.359 466.227C709.188 466.409 709.052 466.628 708.953 466.883C708.854 467.138 708.805 467.417 708.805 467.719ZM709.188 462.656C709.188 462.891 709.229 463.109 709.312 463.312C709.396 463.51 709.508 463.685 709.648 463.836C709.789 463.982 709.953 464.096 710.141 464.18C710.333 464.263 710.539 464.305 710.758 464.305C710.977 464.305 711.18 464.263 711.367 464.18C711.56 464.091 711.727 463.974 711.867 463.828C712.013 463.677 712.128 463.503 712.211 463.305C712.294 463.102 712.336 462.885 712.336 462.656C712.336 462.422 712.294 462.203 712.211 462C712.133 461.797 712.023 461.622 711.883 461.477C711.742 461.331 711.576 461.216 711.383 461.133C711.19 461.049 710.982 461.008 710.758 461.008C710.523 461.008 710.31 461.052 710.117 461.141C709.924 461.224 709.758 461.341 709.617 461.492C709.482 461.643 709.375 461.82 709.297 462.023C709.224 462.221 709.188 462.432 709.188 462.656ZM723.086 463L720.422 467.047L723.055 471H720.953L719.547 468.523C719.458 468.372 719.354 468.18 719.234 467.945H719.203C719.182 467.992 719.073 468.185 718.875 468.523L717.445 471H715.352L718.07 467.078L715.492 463H717.602L718.984 465.602C719.089 465.794 719.19 465.992 719.289 466.195H719.312L721.102 463H723.086ZM728.039 459.547V471H726.227V461.766C725.898 462 725.544 462.201 725.164 462.367C724.789 462.529 724.359 462.672 723.875 462.797V461.25C724.177 461.151 724.469 461.047 724.75 460.938C725.031 460.828 725.307 460.706 725.578 460.57C725.854 460.435 726.13 460.284 726.406 460.117C726.688 459.951 726.977 459.76 727.273 459.547H728.039ZM737.469 471H730.438V470.133C730.438 469.779 730.487 469.448 730.586 469.141C730.685 468.828 730.818 468.536 730.984 468.266C731.151 467.99 731.346 467.732 731.57 467.492C731.794 467.247 732.034 467.013 732.289 466.789C732.544 466.56 732.805 466.341 733.07 466.133C733.336 465.919 733.596 465.706 733.852 465.492C734.091 465.289 734.31 465.091 734.508 464.898C734.706 464.701 734.875 464.497 735.016 464.289C735.156 464.081 735.266 463.862 735.344 463.633C735.422 463.398 735.461 463.146 735.461 462.875C735.461 462.578 735.414 462.32 735.32 462.102C735.232 461.878 735.104 461.693 734.938 461.547C734.776 461.396 734.583 461.284 734.359 461.211C734.135 461.133 733.891 461.094 733.625 461.094C733.167 461.094 732.701 461.201 732.227 461.414C731.753 461.628 731.297 461.948 730.859 462.375V460.633C731.089 460.461 731.32 460.312 731.555 460.188C731.789 460.057 732.031 459.951 732.281 459.867C732.531 459.779 732.794 459.714 733.07 459.672C733.346 459.63 733.641 459.609 733.953 459.609C734.458 459.609 734.917 459.677 735.328 459.812C735.74 459.943 736.091 460.138 736.383 460.398C736.674 460.654 736.898 460.974 737.055 461.359C737.216 461.745 737.297 462.188 737.297 462.688C737.297 463.141 737.24 463.549 737.125 463.914C737.016 464.273 736.857 464.609 736.648 464.922C736.445 465.234 736.198 465.531 735.906 465.812C735.615 466.094 735.289 466.383 734.93 466.68C734.628 466.924 734.326 467.164 734.023 467.398C733.727 467.628 733.458 467.854 733.219 468.078C732.979 468.297 732.784 468.518 732.633 468.742C732.487 468.961 732.414 469.182 732.414 469.406V469.445H737.469V471ZM739.273 467.875C739.273 467.552 739.312 467.24 739.391 466.938C739.474 466.635 739.596 466.357 739.758 466.102C739.919 465.846 740.122 465.617 740.367 465.414C740.612 465.211 740.898 465.047 741.227 464.922C740.742 464.651 740.357 464.305 740.07 463.883C739.784 463.456 739.641 462.984 739.641 462.469C739.641 462.057 739.724 461.677 739.891 461.328C740.062 460.979 740.297 460.677 740.594 460.422C740.896 460.167 741.25 459.969 741.656 459.828C742.062 459.682 742.505 459.609 742.984 459.609C743.469 459.609 743.914 459.682 744.32 459.828C744.732 459.974 745.086 460.174 745.383 460.43C745.685 460.685 745.919 460.987 746.086 461.336C746.253 461.685 746.336 462.062 746.336 462.469C746.336 462.984 746.193 463.456 745.906 463.883C745.62 464.305 745.24 464.651 744.766 464.922C745.089 465.047 745.372 465.211 745.617 465.414C745.867 465.612 746.076 465.839 746.242 466.094C746.409 466.349 746.534 466.628 746.617 466.93C746.701 467.232 746.742 467.547 746.742 467.875C746.742 468.365 746.651 468.812 746.469 469.219C746.286 469.625 746.031 469.974 745.703 470.266C745.375 470.552 744.982 470.776 744.523 470.938C744.065 471.099 743.56 471.18 743.008 471.18C742.461 471.18 741.958 471.099 741.5 470.938C741.047 470.776 740.654 470.552 740.32 470.266C739.992 469.974 739.734 469.625 739.547 469.219C739.365 468.812 739.273 468.365 739.273 467.875ZM741.039 467.719C741.039 468.036 741.086 468.323 741.18 468.578C741.273 468.833 741.406 469.049 741.578 469.227C741.75 469.404 741.956 469.539 742.195 469.633C742.44 469.727 742.711 469.773 743.008 469.773C743.294 469.773 743.557 469.727 743.797 469.633C744.036 469.534 744.242 469.396 744.414 469.219C744.591 469.036 744.729 468.82 744.828 468.57C744.927 468.315 744.977 468.031 744.977 467.719C744.977 467.432 744.93 467.164 744.836 466.914C744.742 466.659 744.609 466.438 744.438 466.25C744.266 466.062 744.057 465.914 743.812 465.805C743.573 465.695 743.305 465.641 743.008 465.641C742.727 465.641 742.464 465.693 742.219 465.797C741.979 465.896 741.771 466.039 741.594 466.227C741.422 466.409 741.286 466.628 741.188 466.883C741.089 467.138 741.039 467.417 741.039 467.719ZM741.422 462.656C741.422 462.891 741.464 463.109 741.547 463.312C741.63 463.51 741.742 463.685 741.883 463.836C742.023 463.982 742.188 464.096 742.375 464.18C742.568 464.263 742.773 464.305 742.992 464.305C743.211 464.305 743.414 464.263 743.602 464.18C743.794 464.091 743.961 463.974 744.102 463.828C744.247 463.677 744.362 463.503 744.445 463.305C744.529 463.102 744.57 462.885 744.57 462.656C744.57 462.422 744.529 462.203 744.445 462C744.367 461.797 744.258 461.622 744.117 461.477C743.977 461.331 743.81 461.216 743.617 461.133C743.424 461.049 743.216 461.008 742.992 461.008C742.758 461.008 742.544 461.052 742.352 461.141C742.159 461.224 741.992 461.341 741.852 461.492C741.716 461.643 741.609 461.82 741.531 462.023C741.458 462.221 741.422 462.432 741.422 462.656ZM750.477 469.82H750.445V474.68H748.633V463H750.445V464.406H750.477C751.096 463.344 752.003 462.812 753.195 462.812C754.211 462.812 755.003 463.169 755.57 463.883C756.138 464.596 756.422 465.555 756.422 466.758C756.422 468.091 756.102 469.159 755.461 469.961C754.82 470.763 753.945 471.164 752.836 471.164C751.815 471.164 751.029 470.716 750.477 469.82ZM750.43 466.664V467.656C750.43 468.24 750.615 468.734 750.984 469.141C751.359 469.547 751.833 469.75 752.406 469.75C753.078 469.75 753.604 469.49 753.984 468.969C754.37 468.443 754.562 467.711 754.562 466.773C754.562 465.987 754.383 465.372 754.023 464.93C753.669 464.482 753.188 464.258 752.578 464.258C751.932 464.258 751.411 464.487 751.016 464.945C750.625 465.404 750.43 465.977 750.43 466.664ZM764.711 463L762.047 467.047L764.68 471H762.578L761.172 468.523C761.083 468.372 760.979 468.18 760.859 467.945H760.828C760.807 467.992 760.698 468.185 760.5 468.523L759.07 471H756.977L759.695 467.078L757.117 463H759.227L760.609 465.602C760.714 465.794 760.815 465.992 760.914 466.195H760.938L762.727 463H764.711ZM692.383 502V490.797H695.938C697.021 490.797 697.878 491.034 698.508 491.508C699.143 491.982 699.461 492.599 699.461 493.359C699.461 493.995 699.281 494.547 698.922 495.016C698.562 495.484 698.065 495.818 697.43 496.016V496.047C698.201 496.135 698.815 496.422 699.273 496.906C699.737 497.385 699.969 498.01 699.969 498.781C699.969 499.74 699.591 500.516 698.836 501.109C698.081 501.703 697.128 502 695.977 502H692.383ZM694.234 492.289V495.477H695.438C696.083 495.477 696.589 495.326 696.953 495.023C697.323 494.716 697.508 494.284 697.508 493.727C697.508 492.768 696.867 492.289 695.586 492.289H694.234ZM694.234 496.969V500.516H695.82C696.513 500.516 697.047 500.357 697.422 500.039C697.802 499.716 697.992 499.273 697.992 498.711C697.992 497.549 697.188 496.969 695.578 496.969H694.234ZM705.398 502.188C704.164 502.188 703.177 501.815 702.438 501.07C701.703 500.32 701.336 499.328 701.336 498.094C701.336 496.75 701.719 495.701 702.484 494.945C703.255 494.19 704.292 493.812 705.594 493.812C706.844 493.812 707.818 494.18 708.516 494.914C709.214 495.648 709.562 496.667 709.562 497.969C709.562 499.245 709.185 500.268 708.43 501.039C707.68 501.805 706.669 502.188 705.398 502.188ZM705.484 495.258C704.776 495.258 704.216 495.505 703.805 496C703.393 496.495 703.188 497.177 703.188 498.047C703.188 498.885 703.396 499.547 703.812 500.031C704.229 500.51 704.786 500.75 705.484 500.75C706.198 500.75 706.745 500.513 707.125 500.039C707.51 499.565 707.703 498.891 707.703 498.016C707.703 497.135 707.51 496.456 707.125 495.977C706.745 495.497 706.198 495.258 705.484 495.258ZM716.055 495.727C715.836 495.555 715.521 495.469 715.109 495.469C714.573 495.469 714.125 495.711 713.766 496.195C713.406 496.68 713.227 497.339 713.227 498.172V502H711.414V494H713.227V495.648H713.258C713.435 495.086 713.706 494.648 714.07 494.336C714.44 494.018 714.852 493.859 715.305 493.859C715.633 493.859 715.883 493.909 716.055 494.008V495.727ZM724.469 502H722.656V500.641H722.625C722.042 501.672 721.143 502.188 719.93 502.188C718.945 502.188 718.156 501.831 717.562 501.117C716.974 500.398 716.68 499.422 716.68 498.188C716.68 496.865 717.005 495.805 717.656 495.008C718.312 494.211 719.185 493.812 720.273 493.812C721.352 493.812 722.135 494.245 722.625 495.109H722.656V490.156H724.469V502ZM722.68 498.344V497.297C722.68 496.729 722.495 496.247 722.125 495.852C721.755 495.456 721.284 495.258 720.711 495.258C720.034 495.258 719.5 495.51 719.109 496.016C718.724 496.521 718.531 497.221 718.531 498.117C718.531 498.93 718.716 499.573 719.086 500.047C719.461 500.516 719.964 500.75 720.594 500.75C721.214 500.75 721.716 500.523 722.102 500.07C722.487 499.612 722.68 499.036 722.68 498.344ZM733.609 498.492H728.156C728.177 499.232 728.404 499.802 728.836 500.203C729.273 500.604 729.872 500.805 730.633 500.805C731.487 500.805 732.271 500.549 732.984 500.039V501.5C732.255 501.958 731.292 502.188 730.094 502.188C728.917 502.188 727.992 501.826 727.32 501.102C726.654 500.372 726.32 499.349 726.32 498.031C726.32 496.786 726.688 495.773 727.422 494.992C728.161 494.206 729.078 493.812 730.172 493.812C731.266 493.812 732.112 494.164 732.711 494.867C733.31 495.57 733.609 496.547 733.609 497.797V498.492ZM731.859 497.211C731.854 496.56 731.701 496.055 731.398 495.695C731.096 495.331 730.68 495.148 730.148 495.148C729.628 495.148 729.185 495.339 728.82 495.719C728.461 496.099 728.24 496.596 728.156 497.211H731.859ZM739.977 495.727C739.758 495.555 739.443 495.469 739.031 495.469C738.495 495.469 738.047 495.711 737.688 496.195C737.328 496.68 737.148 497.339 737.148 498.172V502H735.336V494H737.148V495.648H737.18C737.357 495.086 737.628 494.648 737.992 494.336C738.362 494.018 738.773 493.859 739.227 493.859C739.555 493.859 739.805 493.909 739.977 494.008V495.727ZM754.523 502H752.352L750.562 499C750.401 498.724 750.242 498.49 750.086 498.297C749.935 498.099 749.779 497.938 749.617 497.812C749.461 497.688 749.289 497.596 749.102 497.539C748.914 497.482 748.703 497.453 748.469 497.453H747.719V502H745.867V490.797H749.555C750.081 490.797 750.565 490.859 751.008 490.984C751.451 491.109 751.836 491.299 752.164 491.555C752.492 491.805 752.747 492.12 752.93 492.5C753.117 492.875 753.211 493.315 753.211 493.82C753.211 494.216 753.151 494.581 753.031 494.914C752.917 495.242 752.75 495.536 752.531 495.797C752.318 496.052 752.057 496.271 751.75 496.453C751.448 496.635 751.107 496.776 750.727 496.875V496.906C750.93 497.021 751.107 497.148 751.258 497.289C751.409 497.424 751.552 497.565 751.688 497.711C751.823 497.857 751.956 498.023 752.086 498.211C752.221 498.393 752.37 498.607 752.531 498.852L754.523 502ZM747.719 492.305V495.945H749.266C749.552 495.945 749.815 495.901 750.055 495.812C750.299 495.724 750.51 495.596 750.688 495.43C750.865 495.263 751.003 495.06 751.102 494.82C751.201 494.581 751.25 494.312 751.25 494.016C751.25 493.479 751.081 493.06 750.742 492.758C750.404 492.456 749.917 492.305 749.281 492.305H747.719ZM761.773 502H760.016V500.75H759.984C759.432 501.708 758.622 502.188 757.555 502.188C756.768 502.188 756.151 501.974 755.703 501.547C755.26 501.12 755.039 500.555 755.039 499.852C755.039 498.341 755.909 497.461 757.648 497.211L760.023 496.875C760.023 495.734 759.482 495.164 758.398 495.164C757.445 495.164 756.586 495.492 755.82 496.148V494.562C756.664 494.062 757.638 493.812 758.742 493.812C760.763 493.812 761.773 494.807 761.773 496.797V502ZM760.023 498.07L758.344 498.305C757.823 498.372 757.43 498.5 757.164 498.688C756.904 498.87 756.773 499.193 756.773 499.656C756.773 499.995 756.893 500.273 757.133 500.492C757.378 500.706 757.703 500.812 758.109 500.812C758.661 500.812 759.117 500.62 759.477 500.234C759.841 499.844 760.023 499.354 760.023 498.766V498.07ZM771.266 502H769.453V500.641H769.422C768.839 501.672 767.94 502.188 766.727 502.188C765.742 502.188 764.953 501.831 764.359 501.117C763.771 500.398 763.477 499.422 763.477 498.188C763.477 496.865 763.802 495.805 764.453 495.008C765.109 494.211 765.982 493.812 767.07 493.812C768.148 493.812 768.932 494.245 769.422 495.109H769.453V490.156H771.266V502ZM769.477 498.344V497.297C769.477 496.729 769.292 496.247 768.922 495.852C768.552 495.456 768.081 495.258 767.508 495.258C766.831 495.258 766.297 495.51 765.906 496.016C765.521 496.521 765.328 497.221 765.328 498.117C765.328 498.93 765.513 499.573 765.883 500.047C766.258 500.516 766.76 500.75 767.391 500.75C768.01 500.75 768.513 500.523 768.898 500.07C769.284 499.612 769.477 499.036 769.477 498.344ZM774.547 492.32C774.25 492.32 773.995 492.224 773.781 492.031C773.573 491.839 773.469 491.594 773.469 491.297C773.469 491 773.573 490.753 773.781 490.555C773.995 490.357 774.25 490.258 774.547 490.258C774.854 490.258 775.115 490.357 775.328 490.555C775.542 490.753 775.648 491 775.648 491.297C775.648 491.578 775.542 491.82 775.328 492.023C775.115 492.221 774.854 492.32 774.547 492.32ZM775.445 502H773.633V494H775.445V502ZM784.797 502H782.984V500.734H782.953C782.427 501.703 781.609 502.188 780.5 502.188C778.609 502.188 777.664 501.052 777.664 498.781V494H779.477V498.594C779.477 500.031 780.031 500.75 781.141 500.75C781.677 500.75 782.117 500.552 782.461 500.156C782.81 499.76 782.984 499.242 782.984 498.602V494H784.797V502ZM786.664 501.75V500.07C787.341 500.586 788.089 500.844 788.906 500.844C790 500.844 790.547 500.521 790.547 499.875C790.547 499.693 790.5 499.539 790.406 499.414C790.312 499.284 790.185 499.169 790.023 499.07C789.867 498.971 789.68 498.883 789.461 498.805C789.247 498.727 789.008 498.638 788.742 498.539C788.414 498.409 788.117 498.271 787.852 498.125C787.591 497.979 787.372 497.815 787.195 497.633C787.023 497.445 786.893 497.234 786.805 497C786.716 496.766 786.672 496.492 786.672 496.18C786.672 495.794 786.763 495.456 786.945 495.164C787.128 494.867 787.372 494.62 787.68 494.422C787.987 494.219 788.336 494.068 788.727 493.969C789.117 493.865 789.521 493.812 789.938 493.812C790.677 493.812 791.339 493.924 791.922 494.148V495.734C791.359 495.349 790.714 495.156 789.984 495.156C789.755 495.156 789.547 495.18 789.359 495.227C789.177 495.273 789.021 495.339 788.891 495.422C788.76 495.505 788.659 495.607 788.586 495.727C788.513 495.841 788.477 495.969 788.477 496.109C788.477 496.281 788.513 496.427 788.586 496.547C788.659 496.667 788.766 496.773 788.906 496.867C789.052 496.956 789.224 497.039 789.422 497.117C789.625 497.19 789.857 497.271 790.117 497.359C790.461 497.5 790.768 497.643 791.039 497.789C791.315 497.935 791.549 498.102 791.742 498.289C791.935 498.471 792.083 498.685 792.188 498.93C792.292 499.169 792.344 499.456 792.344 499.789C792.344 500.195 792.25 500.549 792.062 500.852C791.875 501.154 791.625 501.404 791.312 501.602C791 501.799 790.638 501.945 790.227 502.039C789.82 502.138 789.391 502.188 788.938 502.188C788.062 502.188 787.305 502.042 786.664 501.75ZM805.617 498.398C805.617 498.961 805.523 499.474 805.336 499.938C805.154 500.401 804.898 500.802 804.57 501.141C804.242 501.474 803.852 501.734 803.398 501.922C802.951 502.104 802.464 502.195 801.938 502.195C801.375 502.195 800.857 502.086 800.383 501.867C799.914 501.648 799.508 501.323 799.164 500.891C798.826 500.458 798.562 499.922 798.375 499.281C798.188 498.635 798.094 497.888 798.094 497.039C798.094 496.003 798.216 495.083 798.461 494.281C798.711 493.479 799.052 492.807 799.484 492.266C799.917 491.724 800.424 491.312 801.008 491.031C801.591 490.75 802.221 490.609 802.898 490.609C803.32 490.609 803.703 490.638 804.047 490.695C804.396 490.753 804.674 490.831 804.883 490.93V492.562C804.617 492.427 804.333 492.312 804.031 492.219C803.729 492.125 803.383 492.078 802.992 492.078C802.555 492.078 802.151 492.167 801.781 492.344C801.411 492.521 801.091 492.781 800.82 493.125C800.555 493.464 800.344 493.885 800.188 494.391C800.036 494.891 799.958 495.469 799.953 496.125H800C800.24 495.755 800.562 495.464 800.969 495.25C801.38 495.036 801.862 494.93 802.414 494.93C802.904 494.93 803.344 495.01 803.734 495.172C804.13 495.328 804.466 495.557 804.742 495.859C805.023 496.156 805.24 496.521 805.391 496.953C805.542 497.38 805.617 497.862 805.617 498.398ZM803.789 498.547C803.789 498.224 803.75 497.93 803.672 497.664C803.599 497.398 803.484 497.172 803.328 496.984C803.177 496.792 802.984 496.643 802.75 496.539C802.521 496.435 802.25 496.383 801.938 496.383C801.625 496.383 801.349 496.44 801.109 496.555C800.875 496.664 800.677 496.81 800.516 496.992C800.354 497.174 800.232 497.383 800.148 497.617C800.07 497.852 800.031 498.091 800.031 498.336C800.031 498.602 800.068 498.875 800.141 499.156C800.219 499.432 800.336 499.685 800.492 499.914C800.648 500.143 800.846 500.333 801.086 500.484C801.331 500.63 801.62 500.703 801.953 500.703C802.25 500.703 802.513 500.648 802.742 500.539C802.971 500.43 803.161 500.279 803.312 500.086C803.469 499.893 803.586 499.667 803.664 499.406C803.747 499.141 803.789 498.854 803.789 498.547ZM809.258 500.82H809.227V505.68H807.414V494H809.227V495.406H809.258C809.878 494.344 810.784 493.812 811.977 493.812C812.992 493.812 813.784 494.169 814.352 494.883C814.919 495.596 815.203 496.555 815.203 497.758C815.203 499.091 814.883 500.159 814.242 500.961C813.602 501.763 812.727 502.164 811.617 502.164C810.596 502.164 809.81 501.716 809.258 500.82ZM809.211 497.664V498.656C809.211 499.24 809.396 499.734 809.766 500.141C810.141 500.547 810.615 500.75 811.188 500.75C811.859 500.75 812.385 500.49 812.766 499.969C813.151 499.443 813.344 498.711 813.344 497.773C813.344 496.987 813.164 496.372 812.805 495.93C812.451 495.482 811.969 495.258 811.359 495.258C810.714 495.258 810.193 495.487 809.797 495.945C809.406 496.404 809.211 496.977 809.211 497.664ZM823.492 494L820.828 498.047L823.461 502H821.359L819.953 499.523C819.865 499.372 819.76 499.18 819.641 498.945H819.609C819.589 498.992 819.479 499.185 819.281 499.523L817.852 502H815.758L818.477 498.078L815.898 494H818.008L819.391 496.602C819.495 496.794 819.596 496.992 819.695 497.195H819.719L821.508 494H823.492Z" fill="#3178C6"/>
</svg>
