<svg width="890" height="400" viewBox="0 0 890 400" fill="none" xmlns="http://www.w3.org/2000/svg">
<rect y="1" width="326" height="326" rx="7" fill="#3178C6"/>
<rect x="645" y="114" width="244" height="101" rx="7" fill="#C6BF31"/>
<rect x="361" y="1" width="122" height="101" rx="7" fill="#358EF1"/>
<rect x="361" y="226" width="122" height="101" rx="7" fill="#00273F"/>
<rect x="645" width="122" height="102" rx="7" fill="#F1DD35"/>
<rect x="361" y="113" width="244" height="102" rx="7" fill="#235A97"/>
<path d="M74.6699 156.682L73.5273 161.955H68.1074L66.4961 169.221H72.5605L71.2422 174.494H65.4121L63.127 184.631H57.2676L59.4062 174.494H52.6973L50.5293 184.631H44.6699L46.75 174.494H41.3008L42.3848 169.221H47.8926L49.4453 161.955H43.5273L44.5234 156.682H50.5293L52.6973 146.252H58.7031L56.5352 156.682H63.2441L65.4707 146.252H71.418L69.25 156.682H74.6699ZM62.1895 161.955H55.3926L53.7812 169.221H60.5488L62.1895 161.955ZM79.2109 186.623V178.566C82.0234 180.617 85.3047 181.643 89.0547 181.643C91.418 181.643 93.2539 181.135 94.5625 180.119C95.8906 179.104 96.5547 177.688 96.5547 175.871C96.5547 173.996 95.7344 172.551 94.0938 171.535C92.4727 170.52 90.2363 170.012 87.3848 170.012H83.4883V162.922H87.0918C92.5605 162.922 95.2949 161.105 95.2949 157.473C95.2949 154.055 93.1953 152.346 88.9961 152.346C86.1836 152.346 83.4492 153.254 80.793 155.07V147.512C83.7422 146.027 87.1797 145.285 91.1055 145.285C95.4023 145.285 98.7422 146.252 101.125 148.186C103.527 150.119 104.729 152.629 104.729 155.715C104.729 161.203 101.945 164.641 96.3789 166.027V166.174C99.3477 166.545 101.691 167.629 103.41 169.426C105.129 171.203 105.988 173.391 105.988 175.988C105.988 179.914 104.553 183.02 101.682 185.305C98.8105 187.59 94.8457 188.732 89.7871 188.732C85.4512 188.732 81.9258 188.029 79.2109 186.623ZM134.67 145.051V188H125.441V155.48C124.934 155.93 124.328 156.359 123.625 156.77C122.941 157.16 122.209 157.521 121.428 157.854C120.646 158.166 119.836 158.439 118.996 158.674C118.156 158.889 117.326 159.045 116.506 159.143V151.35C118.908 150.646 121.174 149.748 123.303 148.654C125.432 147.561 127.355 146.359 129.074 145.051H134.67ZM176.857 151.32C174.982 154.699 173.303 157.873 171.818 160.842C170.334 163.791 169.025 166.711 167.893 169.602C166.76 172.473 165.793 175.402 164.992 178.391C164.191 181.359 163.537 184.562 163.029 188H153.361C153.908 184.738 154.631 181.594 155.529 178.566C156.428 175.539 157.463 172.609 158.635 169.777C159.826 166.926 161.135 164.152 162.561 161.457C164.006 158.762 165.529 156.125 167.131 153.547H147.619V145.988H176.857V151.32ZM181.662 176.691C181.662 175.52 181.828 174.396 182.16 173.322C182.512 172.229 183.029 171.223 183.713 170.305C184.396 169.367 185.246 168.537 186.262 167.814C187.297 167.072 188.508 166.467 189.895 165.998C187.766 164.943 186.115 163.596 184.943 161.955C183.771 160.295 183.186 158.459 183.186 156.447C183.186 154.846 183.518 153.361 184.182 151.994C184.865 150.627 185.803 149.445 186.994 148.449C188.186 147.453 189.602 146.682 191.242 146.135C192.902 145.568 194.709 145.285 196.662 145.285C198.654 145.285 200.48 145.568 202.141 146.135C203.801 146.682 205.227 147.453 206.418 148.449C207.629 149.426 208.566 150.588 209.23 151.936C209.895 153.283 210.227 154.748 210.227 156.33C210.227 158.322 209.602 160.139 208.352 161.779C207.102 163.4 205.373 164.738 203.166 165.793C204.533 166.262 205.734 166.867 206.77 167.609C207.805 168.332 208.674 169.162 209.377 170.1C210.08 171.037 210.607 172.062 210.959 173.176C211.311 174.27 211.486 175.412 211.486 176.604C211.486 178.4 211.125 180.041 210.402 181.525C209.68 182.99 208.654 184.26 207.326 185.334C206.018 186.389 204.445 187.209 202.609 187.795C200.793 188.381 198.781 188.674 196.574 188.674C194.406 188.674 192.404 188.391 190.568 187.824C188.752 187.238 187.18 186.418 185.852 185.363C184.543 184.309 183.518 183.049 182.775 181.584C182.033 180.1 181.662 178.469 181.662 176.691ZM190.422 175.9C190.422 176.857 190.568 177.717 190.861 178.479C191.154 179.24 191.574 179.885 192.121 180.412C192.668 180.939 193.312 181.35 194.055 181.643C194.816 181.916 195.666 182.053 196.604 182.053C197.502 182.053 198.322 181.906 199.064 181.613C199.826 181.32 200.48 180.91 201.027 180.383C201.574 179.855 202.004 179.211 202.316 178.449C202.629 177.688 202.785 176.838 202.785 175.9C202.785 175.061 202.639 174.26 202.346 173.498C202.053 172.736 201.633 172.082 201.086 171.535C200.539 170.969 199.885 170.52 199.123 170.188C198.381 169.855 197.541 169.689 196.604 169.689C195.725 169.689 194.904 169.846 194.143 170.158C193.381 170.451 192.727 170.881 192.18 171.447C191.633 171.994 191.203 172.648 190.891 173.41C190.578 174.172 190.422 175.002 190.422 175.9ZM191.711 157.297C191.711 158.039 191.838 158.742 192.092 159.406C192.365 160.051 192.727 160.617 193.176 161.105C193.625 161.574 194.152 161.945 194.758 162.219C195.383 162.492 196.037 162.629 196.721 162.629C197.424 162.629 198.078 162.492 198.684 162.219C199.289 161.945 199.816 161.564 200.266 161.076C200.734 160.588 201.096 160.021 201.35 159.377C201.623 158.732 201.76 158.039 201.76 157.297C201.76 156.535 201.633 155.832 201.379 155.188C201.125 154.523 200.764 153.957 200.295 153.488C199.846 153 199.309 152.619 198.684 152.346C198.078 152.072 197.424 151.936 196.721 151.936C195.979 151.936 195.295 152.082 194.67 152.375C194.064 152.648 193.537 153.029 193.088 153.518C192.658 153.986 192.316 154.553 192.062 155.217C191.828 155.861 191.711 156.555 191.711 157.297ZM248.752 186.506C245.686 187.99 241.682 188.732 236.74 188.732C230.295 188.732 225.227 186.838 221.535 183.049C217.844 179.26 215.998 174.211 215.998 167.902C215.998 161.184 218.068 155.734 222.209 151.555C226.369 147.375 231.76 145.285 238.381 145.285C242.482 145.285 245.939 145.803 248.752 146.838V155.949C245.939 154.27 242.736 153.43 239.143 153.43C235.197 153.43 232.014 154.67 229.592 157.15C227.17 159.631 225.959 162.99 225.959 167.229C225.959 171.291 227.102 174.533 229.387 176.955C231.672 179.357 234.748 180.559 238.615 180.559C242.307 180.559 245.686 179.66 248.752 177.863V186.506ZM283.791 174.025C283.791 176.096 283.43 178.029 282.707 179.826C281.984 181.623 280.979 183.186 279.689 184.514C278.4 185.822 276.867 186.857 275.09 187.619C273.312 188.361 271.369 188.732 269.26 188.732C266.896 188.732 264.777 188.293 262.902 187.414C261.047 186.535 259.475 185.266 258.186 183.605C256.896 181.926 255.91 179.875 255.227 177.453C254.543 175.031 254.201 172.287 254.201 169.221C254.201 165.607 254.641 162.336 255.52 159.406C256.418 156.457 257.688 153.938 259.328 151.848C260.988 149.758 262.99 148.146 265.334 147.014C267.678 145.861 270.314 145.285 273.244 145.285C276.486 145.285 279.006 145.666 280.803 146.428V154.162C278.674 152.951 276.35 152.346 273.83 152.346C272.268 152.346 270.852 152.648 269.582 153.254C268.312 153.859 267.219 154.719 266.301 155.832C265.402 156.945 264.689 158.293 264.162 159.875C263.654 161.438 263.381 163.186 263.342 165.119H263.518C265.51 162.365 268.449 160.988 272.336 160.988C274.074 160.988 275.646 161.301 277.053 161.926C278.459 162.551 279.66 163.439 280.656 164.592C281.652 165.725 282.424 167.092 282.971 168.693C283.518 170.295 283.791 172.072 283.791 174.025ZM274.738 174.611C274.738 170.1 272.893 167.844 269.201 167.844C268.361 167.844 267.6 168 266.916 168.312C266.232 168.625 265.646 169.064 265.158 169.631C264.67 170.197 264.289 170.871 264.016 171.652C263.762 172.414 263.635 173.264 263.635 174.201C263.635 175.236 263.771 176.203 264.045 177.102C264.318 178 264.699 178.791 265.188 179.475C265.695 180.139 266.291 180.666 266.975 181.057C267.658 181.447 268.42 181.643 269.26 181.643C270.1 181.643 270.852 181.477 271.516 181.145C272.199 180.793 272.775 180.314 273.244 179.709C273.732 179.084 274.104 178.342 274.357 177.482C274.611 176.604 274.738 175.646 274.738 174.611Z" fill="white"/>
<path d="M435.648 158.341L435.077 160.978H432.367L431.562 164.61H434.594L433.935 167.247H431.02L429.877 172.315H426.947L428.017 167.247H424.662L423.578 172.315H420.648L421.688 167.247H418.964L419.506 164.61H422.26L423.036 160.978H420.077L420.575 158.341H423.578L424.662 153.126H427.665L426.581 158.341H429.936L431.049 153.126H434.022L432.938 158.341H435.648ZM429.408 160.978H426.01L425.204 164.61H428.588L429.408 160.978ZM442.489 170.162H451.396V174H437.421V172.418C437.421 171.344 437.602 170.382 437.963 169.532C438.324 168.673 438.778 167.906 439.325 167.232C439.872 166.549 440.468 165.948 441.112 165.431C441.767 164.903 442.387 164.43 442.973 164.01C443.588 163.57 444.125 163.15 444.584 162.75C445.053 162.35 445.443 161.954 445.756 161.563C446.078 161.163 446.317 160.763 446.474 160.362C446.63 159.952 446.708 159.518 446.708 159.059C446.708 158.16 446.454 157.481 445.946 157.022C445.438 156.563 444.662 156.334 443.617 156.334C441.811 156.334 440.082 157.052 438.432 158.487V154.415C440.258 153.233 442.318 152.643 444.613 152.643C445.678 152.643 446.63 152.784 447.47 153.067C448.319 153.341 449.037 153.736 449.623 154.254C450.209 154.771 450.653 155.401 450.956 156.144C451.269 156.876 451.425 157.696 451.425 158.604C451.425 159.571 451.273 160.431 450.971 161.183C450.678 161.935 450.282 162.618 449.784 163.233C449.296 163.849 448.729 164.415 448.085 164.933C447.44 165.44 446.771 165.934 446.078 166.412C445.609 166.744 445.155 167.076 444.716 167.408C444.286 167.73 443.905 168.053 443.573 168.375C443.241 168.688 442.978 168.995 442.782 169.298C442.587 169.601 442.489 169.889 442.489 170.162ZM455.175 173.312V169.283C456.581 170.309 458.222 170.821 460.097 170.821C461.278 170.821 462.196 170.567 462.851 170.06C463.515 169.552 463.847 168.844 463.847 167.936C463.847 166.998 463.437 166.275 462.616 165.768C461.806 165.26 460.688 165.006 459.262 165.006H457.313V161.461H459.115C461.85 161.461 463.217 160.553 463.217 158.736C463.217 157.027 462.167 156.173 460.067 156.173C458.661 156.173 457.294 156.627 455.966 157.535V153.756C457.44 153.014 459.159 152.643 461.122 152.643C463.271 152.643 464.94 153.126 466.132 154.093C467.333 155.06 467.934 156.314 467.934 157.857C467.934 160.602 466.542 162.32 463.759 163.014V163.087C465.243 163.272 466.415 163.814 467.274 164.713C468.134 165.602 468.563 166.695 468.563 167.994C468.563 169.957 467.846 171.51 466.41 172.652C464.975 173.795 462.992 174.366 460.463 174.366C458.295 174.366 456.532 174.015 455.175 173.312ZM472.797 173.458V169.503C474.232 170.382 475.761 170.821 477.382 170.821C478.603 170.821 479.555 170.533 480.238 169.957C480.932 169.371 481.278 168.58 481.278 167.584C481.278 165.504 479.809 164.464 476.869 164.464C475.785 164.464 474.535 164.547 473.119 164.713L473.91 152.994H485.028V156.773H477.44L477.147 160.978C477.899 160.919 478.549 160.89 479.096 160.89C481.254 160.89 482.943 161.456 484.164 162.589C485.385 163.722 485.995 165.245 485.995 167.159C485.995 169.278 485.268 171.012 483.812 172.359C482.357 173.697 480.385 174.366 477.895 174.366C475.873 174.366 474.174 174.063 472.797 173.458ZM508.847 174H503.69L502.196 169.327H494.726L493.246 174H488.119L495.766 152.994H501.376L508.847 174ZM501.112 165.694L498.856 158.634C498.69 158.106 498.573 157.477 498.505 156.744H498.388C498.339 157.359 498.217 157.97 498.021 158.575L495.736 165.694H501.112ZM524.989 162.486C524.989 164.352 524.784 166.021 524.374 167.496C523.964 168.961 523.363 170.201 522.572 171.217C521.791 172.232 520.834 173.014 519.701 173.561C518.568 174.098 517.284 174.366 515.849 174.366C514.13 174.366 512.65 174.093 511.41 173.546V169.737C512.514 170.46 513.842 170.821 515.395 170.821C516.986 170.821 518.231 170.279 519.13 169.195C520.028 168.111 520.482 166.544 520.492 164.493L520.404 164.464C519.477 165.841 518.065 166.529 516.171 166.529C515.312 166.529 514.516 166.368 513.783 166.046C513.061 165.724 512.431 165.279 511.894 164.713C511.366 164.137 510.951 163.453 510.648 162.662C510.355 161.871 510.209 161.002 510.209 160.055C510.209 158.951 510.39 157.945 510.751 157.037C511.112 156.129 511.615 155.348 512.26 154.693C512.914 154.039 513.695 153.536 514.604 153.185C515.512 152.823 516.518 152.643 517.621 152.643C518.764 152.643 519.789 152.867 520.697 153.316C521.605 153.756 522.377 154.396 523.012 155.235C523.656 156.075 524.145 157.105 524.477 158.326C524.818 159.547 524.989 160.934 524.989 162.486ZM520.316 160.025C520.316 159.488 520.248 158.985 520.111 158.517C519.975 158.038 519.784 157.628 519.54 157.286C519.296 156.944 518.998 156.676 518.646 156.48C518.295 156.275 517.909 156.173 517.489 156.173C517.089 156.173 516.718 156.261 516.376 156.437C516.044 156.612 515.756 156.856 515.512 157.169C515.268 157.472 515.077 157.838 514.94 158.268C514.804 158.697 514.735 159.161 514.735 159.659C514.735 160.206 514.804 160.694 514.94 161.124C515.077 161.544 515.268 161.9 515.512 162.193C515.766 162.486 516.068 162.711 516.42 162.867C516.771 163.014 517.162 163.087 517.592 163.087C518.002 163.087 518.373 163.009 518.705 162.853C519.037 162.687 519.32 162.467 519.555 162.193C519.799 161.92 519.984 161.598 520.111 161.227C520.248 160.855 520.316 160.455 520.316 160.025ZM542.348 155.66C541.41 157.35 540.57 158.937 539.828 160.421C539.086 161.896 538.432 163.355 537.865 164.801C537.299 166.236 536.815 167.701 536.415 169.195C536.015 170.68 535.688 172.281 535.434 174H530.6C530.873 172.369 531.234 170.797 531.684 169.283C532.133 167.77 532.65 166.305 533.236 164.889C533.832 163.463 534.486 162.076 535.199 160.729C535.922 159.381 536.684 158.062 537.484 156.773H527.729V152.994H542.348V155.66Z" fill="white"/>
<path d="M394.021 47.5605L393.641 49.3184H391.834L391.297 51.7402H393.318L392.879 53.498H390.936L390.174 56.877H388.221L388.934 53.498H386.697L385.975 56.877H384.021L384.715 53.498H382.898L383.26 51.7402H385.096L385.613 49.3184H383.641L383.973 47.5605H385.975L386.697 44.084H388.699L387.977 47.5605H390.213L390.955 44.084H392.938L392.215 47.5605H394.021ZM389.861 49.3184H387.596L387.059 51.7402H389.314L389.861 49.3184ZM395.535 57.541V54.8555C396.473 55.5391 397.566 55.8809 398.816 55.8809C399.604 55.8809 400.216 55.7116 400.652 55.373C401.095 55.0345 401.316 54.5625 401.316 53.957C401.316 53.332 401.043 52.8503 400.496 52.5117C399.956 52.1732 399.21 52.0039 398.26 52.0039H396.961V49.6406H398.162C399.985 49.6406 400.896 49.0352 400.896 47.8242C400.896 46.6849 400.197 46.1152 398.797 46.1152C397.859 46.1152 396.948 46.418 396.062 47.0234V44.5039C397.046 44.0091 398.191 43.7617 399.5 43.7617C400.932 43.7617 402.046 44.084 402.84 44.7285C403.641 45.373 404.041 46.2096 404.041 47.2383C404.041 49.0677 403.113 50.2135 401.258 50.6758V50.7246C402.247 50.8483 403.029 51.2096 403.602 51.8086C404.174 52.401 404.461 53.1302 404.461 53.9961C404.461 55.3047 403.982 56.3398 403.025 57.1016C402.068 57.8633 400.747 58.2441 399.061 58.2441C397.615 58.2441 396.44 58.0098 395.535 57.541ZM407.283 57.6387V55.002C408.24 55.5879 409.259 55.8809 410.34 55.8809C411.154 55.8809 411.788 55.6888 412.244 55.3047C412.706 54.9141 412.938 54.3867 412.938 53.7227C412.938 52.3359 411.958 51.6426 409.998 51.6426C409.275 51.6426 408.442 51.6979 407.498 51.8086L408.025 43.9961H415.438V46.5156H410.379L410.184 49.3184C410.685 49.2793 411.118 49.2598 411.482 49.2598C412.921 49.2598 414.048 49.6374 414.861 50.3926C415.675 51.1478 416.082 52.1634 416.082 53.4395C416.082 54.8522 415.597 56.0078 414.627 56.9062C413.657 57.7982 412.342 58.2441 410.682 58.2441C409.334 58.2441 408.201 58.0423 407.283 57.6387ZM418.182 54.2305C418.182 53.8398 418.237 53.4655 418.348 53.1074C418.465 52.7428 418.637 52.4076 418.865 52.1016C419.093 51.7891 419.376 51.5124 419.715 51.2715C420.06 51.0241 420.464 50.8223 420.926 50.666C420.216 50.3145 419.666 49.8652 419.275 49.3184C418.885 48.765 418.689 48.153 418.689 47.4824C418.689 46.9486 418.8 46.4538 419.021 45.998C419.249 45.5423 419.562 45.1484 419.959 44.8164C420.356 44.4844 420.828 44.2272 421.375 44.0449C421.928 43.8561 422.531 43.7617 423.182 43.7617C423.846 43.7617 424.454 43.8561 425.008 44.0449C425.561 44.2272 426.036 44.4844 426.434 44.8164C426.837 45.1419 427.15 45.5293 427.371 45.9785C427.592 46.4277 427.703 46.916 427.703 47.4434C427.703 48.1074 427.495 48.7129 427.078 49.2598C426.661 49.8001 426.085 50.2461 425.35 50.5977C425.805 50.7539 426.206 50.9557 426.551 51.2031C426.896 51.444 427.186 51.7207 427.42 52.0332C427.654 52.3457 427.83 52.6875 427.947 53.0586C428.064 53.4232 428.123 53.804 428.123 54.2012C428.123 54.8001 428.003 55.347 427.762 55.8418C427.521 56.3301 427.179 56.7533 426.736 57.1113C426.3 57.4629 425.776 57.7363 425.164 57.9316C424.559 58.127 423.888 58.2246 423.152 58.2246C422.43 58.2246 421.762 58.1302 421.15 57.9414C420.545 57.7461 420.021 57.4727 419.578 57.1211C419.142 56.7695 418.8 56.3496 418.553 55.8613C418.305 55.3665 418.182 54.8229 418.182 54.2305ZM421.102 53.9668C421.102 54.2858 421.15 54.5723 421.248 54.8262C421.346 55.0801 421.486 55.2949 421.668 55.4707C421.85 55.6465 422.065 55.7832 422.312 55.8809C422.566 55.972 422.85 56.0176 423.162 56.0176C423.462 56.0176 423.735 55.9688 423.982 55.8711C424.236 55.7734 424.454 55.6367 424.637 55.4609C424.819 55.2852 424.962 55.0703 425.066 54.8164C425.171 54.5625 425.223 54.2793 425.223 53.9668C425.223 53.6868 425.174 53.4199 425.076 53.166C424.979 52.9121 424.839 52.694 424.656 52.5117C424.474 52.3229 424.256 52.1732 424.002 52.0625C423.755 51.9518 423.475 51.8965 423.162 51.8965C422.869 51.8965 422.596 51.9486 422.342 52.0527C422.088 52.1504 421.87 52.2936 421.688 52.4824C421.505 52.6647 421.362 52.8828 421.258 53.1367C421.154 53.3906 421.102 53.6673 421.102 53.9668ZM421.531 47.7656C421.531 48.013 421.574 48.2474 421.658 48.4688C421.749 48.6836 421.87 48.8724 422.02 49.0352C422.169 49.1914 422.345 49.3151 422.547 49.4062C422.755 49.4974 422.973 49.543 423.201 49.543C423.436 49.543 423.654 49.4974 423.855 49.4062C424.057 49.3151 424.233 49.1882 424.383 49.0254C424.539 48.8626 424.66 48.6738 424.744 48.459C424.835 48.2441 424.881 48.013 424.881 47.7656C424.881 47.5117 424.839 47.2773 424.754 47.0625C424.669 46.8411 424.549 46.6523 424.393 46.4961C424.243 46.3333 424.064 46.2064 423.855 46.1152C423.654 46.0241 423.436 45.9785 423.201 45.9785C422.954 45.9785 422.726 46.0273 422.518 46.125C422.316 46.2161 422.14 46.3431 421.99 46.5059C421.847 46.6621 421.733 46.8509 421.648 47.0723C421.57 47.2871 421.531 47.5182 421.531 47.7656ZM438.904 58H430.506V43.9961H438.582V46.5645H433.66V49.6797H438.24V52.2383H433.66V55.4414H438.904V58ZM449.246 46.5645H444.305V50.002H448.846V52.5605H444.305V58H441.15V43.9961H449.246V46.5645ZM458.084 43.6836V58H455.008V47.1602C454.839 47.3099 454.637 47.4531 454.402 47.5898C454.174 47.7201 453.93 47.8405 453.67 47.9512C453.41 48.0553 453.139 48.1465 452.859 48.2246C452.579 48.2962 452.303 48.3483 452.029 48.3809V45.7832C452.83 45.5488 453.585 45.2493 454.295 44.8848C455.005 44.5202 455.646 44.1198 456.219 43.6836H458.084Z" fill="white"/>
<path d="M393.592 272.561L393.211 274.318H391.404L390.867 276.74H392.889L392.449 278.498H390.506L389.744 281.877H387.791L388.504 278.498H386.268L385.545 281.877H383.592L384.285 278.498H382.469L382.83 276.74H384.666L385.184 274.318H383.211L383.543 272.561H385.545L386.268 269.084H388.27L387.547 272.561H389.783L390.525 269.084H392.508L391.785 272.561H393.592ZM389.432 274.318H387.166L386.629 276.74H388.885L389.432 274.318ZM399.637 283.244C396.303 283.244 394.637 280.904 394.637 276.223C394.637 273.794 395.086 271.945 395.984 270.676C396.889 269.4 398.198 268.762 399.91 268.762C403.165 268.762 404.793 271.141 404.793 275.9C404.793 278.27 404.347 280.087 403.455 281.35C402.57 282.613 401.297 283.244 399.637 283.244ZM399.773 271.115C398.439 271.115 397.771 272.792 397.771 276.145C397.771 279.302 398.426 280.881 399.734 280.881C401.01 280.881 401.648 279.253 401.648 275.998C401.648 272.743 401.023 271.115 399.773 271.115ZM411.141 283.244C407.807 283.244 406.141 280.904 406.141 276.223C406.141 273.794 406.59 271.945 407.488 270.676C408.393 269.4 409.702 268.762 411.414 268.762C414.669 268.762 416.297 271.141 416.297 275.9C416.297 278.27 415.851 280.087 414.959 281.35C414.074 282.613 412.801 283.244 411.141 283.244ZM411.277 271.115C409.943 271.115 409.275 272.792 409.275 276.145C409.275 279.302 409.93 280.881 411.238 280.881C412.514 280.881 413.152 279.253 413.152 275.998C413.152 272.743 412.527 271.115 411.277 271.115ZM421.16 280.441H427.098V283H417.781V281.945C417.781 281.229 417.902 280.588 418.143 280.021C418.383 279.449 418.686 278.938 419.051 278.488C419.415 278.033 419.812 277.632 420.242 277.287C420.678 276.936 421.092 276.62 421.482 276.34C421.893 276.047 422.251 275.767 422.557 275.5C422.869 275.233 423.13 274.969 423.338 274.709C423.553 274.442 423.712 274.175 423.816 273.908C423.921 273.635 423.973 273.345 423.973 273.039C423.973 272.44 423.803 271.988 423.465 271.682C423.126 271.376 422.609 271.223 421.912 271.223C420.708 271.223 419.555 271.701 418.455 272.658V269.943C419.673 269.156 421.046 268.762 422.576 268.762C423.286 268.762 423.921 268.856 424.48 269.045C425.047 269.227 425.525 269.491 425.916 269.836C426.307 270.181 426.603 270.601 426.805 271.096C427.013 271.584 427.117 272.131 427.117 272.736C427.117 273.381 427.016 273.954 426.814 274.455C426.619 274.956 426.355 275.412 426.023 275.822C425.698 276.232 425.32 276.61 424.891 276.955C424.461 277.294 424.015 277.622 423.553 277.941C423.24 278.163 422.938 278.384 422.645 278.605C422.358 278.82 422.104 279.035 421.883 279.25C421.661 279.458 421.486 279.663 421.355 279.865C421.225 280.067 421.16 280.259 421.16 280.441ZM439.158 270.773C438.533 271.9 437.973 272.958 437.479 273.947C436.984 274.93 436.548 275.904 436.17 276.867C435.792 277.824 435.47 278.801 435.203 279.797C434.936 280.786 434.718 281.854 434.549 283H431.326C431.508 281.913 431.749 280.865 432.049 279.855C432.348 278.846 432.693 277.87 433.084 276.926C433.481 275.975 433.917 275.051 434.393 274.152C434.874 273.254 435.382 272.375 435.916 271.516H429.412V268.996H439.158V270.773ZM441.121 282.541V279.855C442.059 280.539 443.152 280.881 444.402 280.881C445.19 280.881 445.802 280.712 446.238 280.373C446.681 280.035 446.902 279.562 446.902 278.957C446.902 278.332 446.629 277.85 446.082 277.512C445.542 277.173 444.796 277.004 443.846 277.004H442.547V274.641H443.748C445.571 274.641 446.482 274.035 446.482 272.824C446.482 271.685 445.783 271.115 444.383 271.115C443.445 271.115 442.534 271.418 441.648 272.023V269.504C442.632 269.009 443.777 268.762 445.086 268.762C446.518 268.762 447.632 269.084 448.426 269.729C449.227 270.373 449.627 271.21 449.627 272.238C449.627 274.068 448.699 275.214 446.844 275.676V275.725C447.833 275.848 448.615 276.21 449.188 276.809C449.76 277.401 450.047 278.13 450.047 278.996C450.047 280.305 449.568 281.34 448.611 282.102C447.654 282.863 446.333 283.244 444.646 283.244C443.201 283.244 442.026 283.01 441.121 282.541ZM461.18 271.564H456.238V275.002H460.779V277.561H456.238V283H453.084V268.996H461.18V271.564Z" fill="white"/>
<path d="M674.35 47.5605L673.969 49.3184H672.162L671.625 51.7402H673.646L673.207 53.498H671.264L670.502 56.877H668.549L669.262 53.498H667.025L666.303 56.877H664.35L665.043 53.498H663.227L663.588 51.7402H665.424L665.941 49.3184H663.969L664.301 47.5605H666.303L667.025 44.084H669.027L668.305 47.5605H670.541L671.283 44.084H673.266L672.543 47.5605H674.35ZM670.189 49.3184H667.924L667.387 51.7402H669.643L670.189 49.3184ZM684.418 46.5645H679.477V50.002H684.018V52.5605H679.477V58H676.322V43.9961H684.418V46.5645ZM693.256 43.6836V58H690.18V47.1602C690.01 47.3099 689.809 47.4531 689.574 47.5898C689.346 47.7201 689.102 47.8405 688.842 47.9512C688.581 48.0553 688.311 48.1465 688.031 48.2246C687.751 48.2962 687.475 48.3483 687.201 48.3809V45.7832C688.002 45.5488 688.757 45.2493 689.467 44.8848C690.176 44.5202 690.818 44.1198 691.391 43.6836H693.256ZM698.236 58V43.9961H703.197C708.171 43.9961 710.658 46.2715 710.658 50.8223C710.658 53.0033 709.978 54.7448 708.617 56.0469C707.263 57.349 705.456 58 703.197 58H698.236ZM701.391 46.5645V55.4414H702.953C704.32 55.4414 705.391 55.0312 706.166 54.2109C706.947 53.3906 707.338 52.2741 707.338 50.8613C707.338 49.5267 706.951 48.4785 706.176 47.7168C705.408 46.9486 704.327 46.5645 702.934 46.5645H701.391ZM712.982 58V43.9961H717.943C722.917 43.9961 725.404 46.2715 725.404 50.8223C725.404 53.0033 724.724 54.7448 723.363 56.0469C722.009 57.349 720.202 58 717.943 58H712.982ZM716.137 46.5645V55.4414H717.699C719.066 55.4414 720.137 55.0312 720.912 54.2109C721.693 53.3906 722.084 52.2741 722.084 50.8613C722.084 49.5267 721.697 48.4785 720.922 47.7168C720.154 46.9486 719.073 46.5645 717.68 46.5645H716.137ZM727.27 57.541V54.8555C728.207 55.5391 729.301 55.8809 730.551 55.8809C731.339 55.8809 731.951 55.7116 732.387 55.373C732.829 55.0345 733.051 54.5625 733.051 53.957C733.051 53.332 732.777 52.8503 732.23 52.5117C731.69 52.1732 730.945 52.0039 729.994 52.0039H728.695V49.6406H729.896C731.719 49.6406 732.631 49.0352 732.631 47.8242C732.631 46.6849 731.931 46.1152 730.531 46.1152C729.594 46.1152 728.682 46.418 727.797 47.0234V44.5039C728.78 44.0091 729.926 43.7617 731.234 43.7617C732.667 43.7617 733.78 44.084 734.574 44.7285C735.375 45.373 735.775 46.2096 735.775 47.2383C735.775 49.0677 734.848 50.2135 732.992 50.6758V50.7246C733.982 50.8483 734.763 51.2096 735.336 51.8086C735.909 52.401 736.195 53.1302 736.195 53.9961C736.195 55.3047 735.717 56.3398 734.76 57.1016C733.803 57.8633 732.481 58.2441 730.795 58.2441C729.35 58.2441 728.174 58.0098 727.27 57.541ZM739.018 57.6387V55.002C739.975 55.5879 740.993 55.8809 742.074 55.8809C742.888 55.8809 743.523 55.6888 743.979 55.3047C744.441 54.9141 744.672 54.3867 744.672 53.7227C744.672 52.3359 743.692 51.6426 741.732 51.6426C741.01 51.6426 740.176 51.6979 739.232 51.8086L739.76 43.9961H747.172V46.5156H742.113L741.918 49.3184C742.419 49.2793 742.852 49.2598 743.217 49.2598C744.656 49.2598 745.782 49.6374 746.596 50.3926C747.41 51.1478 747.816 52.1634 747.816 53.4395C747.816 54.8522 747.331 56.0078 746.361 56.9062C745.391 57.7982 744.076 58.2441 742.416 58.2441C741.068 58.2441 739.936 58.0423 739.018 57.6387Z" fill="black"/>
<path d="M723.659 159.341L723.088 161.978H720.378L719.572 165.61H722.604L721.945 168.247H719.03L717.888 173.315H714.958L716.027 168.247H712.673L711.589 173.315H708.659L709.699 168.247H706.975L707.517 165.61H710.271L711.047 161.978H708.088L708.586 159.341H711.589L712.673 154.126H715.676L714.592 159.341H717.946L719.06 154.126H722.033L720.949 159.341H723.659ZM717.419 161.978H714.021L713.215 165.61H716.599L717.419 161.978ZM741.677 174.253C740.144 174.995 738.142 175.366 735.671 175.366C732.448 175.366 729.914 174.419 728.068 172.524C726.223 170.63 725.3 168.105 725.3 164.951C725.3 161.592 726.335 158.867 728.405 156.777C730.485 154.688 733.181 153.643 736.491 153.643C738.542 153.643 740.271 153.901 741.677 154.419V158.975C740.271 158.135 738.669 157.715 736.872 157.715C734.899 157.715 733.308 158.335 732.097 159.575C730.886 160.815 730.28 162.495 730.28 164.614C730.28 166.646 730.852 168.267 731.994 169.478C733.137 170.679 734.675 171.279 736.608 171.279C738.454 171.279 740.144 170.83 741.677 169.932V174.253ZM759.196 168.013C759.196 169.048 759.016 170.015 758.654 170.913C758.293 171.812 757.79 172.593 757.146 173.257C756.501 173.911 755.734 174.429 754.846 174.81C753.957 175.181 752.985 175.366 751.931 175.366C750.749 175.366 749.689 175.146 748.752 174.707C747.824 174.268 747.038 173.633 746.394 172.803C745.749 171.963 745.256 170.938 744.914 169.727C744.572 168.516 744.401 167.144 744.401 165.61C744.401 163.804 744.621 162.168 745.061 160.703C745.51 159.229 746.145 157.969 746.965 156.924C747.795 155.879 748.796 155.073 749.968 154.507C751.14 153.931 752.458 153.643 753.923 153.643C755.544 153.643 756.804 153.833 757.702 154.214V158.081C756.638 157.476 755.476 157.173 754.216 157.173C753.435 157.173 752.727 157.324 752.092 157.627C751.457 157.93 750.91 158.359 750.451 158.916C750.002 159.473 749.646 160.146 749.382 160.938C749.128 161.719 748.991 162.593 748.972 163.56H749.06C750.056 162.183 751.525 161.494 753.469 161.494C754.338 161.494 755.124 161.65 755.827 161.963C756.53 162.275 757.131 162.72 757.629 163.296C758.127 163.862 758.513 164.546 758.786 165.347C759.06 166.147 759.196 167.036 759.196 168.013ZM754.67 168.306C754.67 166.05 753.747 164.922 751.901 164.922C751.481 164.922 751.101 165 750.759 165.156C750.417 165.312 750.124 165.532 749.88 165.815C749.636 166.099 749.445 166.436 749.309 166.826C749.182 167.207 749.118 167.632 749.118 168.101C749.118 168.618 749.187 169.102 749.323 169.551C749.46 170 749.65 170.396 749.895 170.737C750.148 171.069 750.446 171.333 750.788 171.528C751.13 171.724 751.511 171.821 751.931 171.821C752.351 171.821 752.727 171.738 753.059 171.572C753.4 171.396 753.688 171.157 753.923 170.854C754.167 170.542 754.353 170.171 754.479 169.741C754.606 169.302 754.67 168.823 754.67 168.306ZM762.595 175V153.994H770.241C772.585 153.994 774.387 154.424 775.646 155.283C776.906 156.143 777.536 157.354 777.536 158.916C777.536 160.049 777.15 161.04 776.379 161.89C775.617 162.739 774.641 163.33 773.449 163.662V163.721C774.943 163.906 776.135 164.458 777.023 165.376C777.922 166.294 778.371 167.412 778.371 168.73C778.371 170.654 777.683 172.183 776.306 173.315C774.929 174.438 773.049 175 770.666 175H762.595ZM767.326 157.48V162.461H769.406C770.383 162.461 771.149 162.227 771.706 161.758C772.272 161.279 772.556 160.625 772.556 159.795C772.556 158.252 771.403 157.48 769.099 157.48H767.326ZM767.326 165.977V171.514H769.89C770.983 171.514 771.838 171.26 772.453 170.752C773.078 170.244 773.391 169.551 773.391 168.672C773.391 167.832 773.083 167.173 772.468 166.694C771.862 166.216 771.013 165.977 769.919 165.977H767.326ZM793.986 157.847H786.574V163.003H793.386V166.841H786.574V175H781.843V153.994H793.986V157.847ZM796.77 174.312V170.283C798.176 171.309 799.816 171.821 801.691 171.821C802.873 171.821 803.791 171.567 804.445 171.06C805.109 170.552 805.441 169.844 805.441 168.936C805.441 167.998 805.031 167.275 804.211 166.768C803.4 166.26 802.282 166.006 800.856 166.006H798.908V162.461H800.71C803.444 162.461 804.812 161.553 804.812 159.736C804.812 158.027 803.762 157.173 801.662 157.173C800.256 157.173 798.889 157.627 797.561 158.535V154.756C799.035 154.014 800.754 153.643 802.717 153.643C804.865 153.643 806.535 154.126 807.727 155.093C808.928 156.06 809.528 157.314 809.528 158.857C809.528 161.602 808.137 163.32 805.354 164.014V164.087C806.838 164.272 808.01 164.814 808.869 165.713C809.729 166.602 810.158 167.695 810.158 168.994C810.158 170.957 809.44 172.51 808.005 173.652C806.569 174.795 804.587 175.366 802.058 175.366C799.89 175.366 798.127 175.015 796.77 174.312ZM824.499 153.525V175H819.885V158.74C819.631 158.965 819.328 159.18 818.977 159.385C818.635 159.58 818.269 159.761 817.878 159.927C817.487 160.083 817.082 160.22 816.662 160.337C816.242 160.444 815.827 160.522 815.417 160.571V156.675C816.618 156.323 817.751 155.874 818.815 155.327C819.88 154.78 820.842 154.18 821.701 153.525H824.499Z" fill="black"/>
<path d="M15.5337 362.555H9.69971V380H6.32959V362.555H0.509766V359.694H15.5337V362.555ZM29.2266 365.5L22.6846 382.322C21.3252 385.324 19.4183 386.825 16.9639 386.825C16.2747 386.825 15.6989 386.764 15.2363 386.641V383.908C15.7555 384.078 16.2275 384.163 16.6523 384.163C17.8796 384.163 18.7952 383.559 19.3994 382.351L20.3765 379.972L14.6133 365.5H18.2524L21.7075 376.035C21.7453 376.167 21.8302 376.517 21.9624 377.083H22.0332C22.0804 376.866 22.1654 376.526 22.2881 376.063L25.9131 365.5H29.2266ZM34.7632 377.862H34.7065V386.669H31.4214V365.5H34.7065V368.049H34.7632C35.8866 366.123 37.5291 365.16 39.6909 365.16C41.5317 365.16 42.9666 365.807 43.9956 367.1C45.0246 368.393 45.5391 370.13 45.5391 372.311C45.5391 374.728 44.9585 376.663 43.7974 378.117C42.6362 379.57 41.0503 380.297 39.0396 380.297C37.1893 380.297 35.7638 379.486 34.7632 377.862ZM34.6782 372.141V373.939C34.6782 374.997 35.0133 375.894 35.6836 376.63C36.3633 377.366 37.2223 377.734 38.2607 377.734C39.4785 377.734 40.432 377.262 41.1211 376.318C41.8197 375.365 42.1689 374.039 42.1689 372.339C42.1689 370.914 41.8433 369.8 41.1919 368.998C40.55 368.186 39.6768 367.78 38.5723 367.78C37.4017 367.78 36.4577 368.195 35.7402 369.026C35.0322 369.857 34.6782 370.895 34.6782 372.141ZM61.1719 373.642H51.2881C51.3258 374.983 51.7365 376.016 52.52 376.743C53.313 377.47 54.3986 377.833 55.7769 377.833C57.325 377.833 58.7458 377.371 60.0391 376.446V379.094C58.7174 379.924 56.971 380.34 54.7998 380.34C52.6663 380.34 50.9907 379.684 49.7729 378.372C48.5646 377.05 47.9604 375.195 47.9604 372.807C47.9604 370.55 48.626 368.714 49.957 367.298C51.2975 365.873 52.959 365.16 54.9414 365.16C56.9238 365.16 58.4578 365.797 59.5435 367.072C60.6291 368.346 61.1719 370.116 61.1719 372.382V373.642ZM58 371.32C57.9906 370.14 57.7121 369.224 57.1646 368.573C56.617 367.912 55.8618 367.582 54.8989 367.582C53.9549 367.582 53.1525 367.926 52.4917 368.615C51.8403 369.304 51.4391 370.206 51.2881 371.32H58ZM63.7349 379.193V375.724C64.0464 376.007 64.4146 376.262 64.8394 376.488C65.2736 376.715 65.7314 376.908 66.2129 377.069C66.6943 377.22 67.1758 377.338 67.6572 377.423C68.1387 377.508 68.5824 377.55 68.9883 377.55C70.4043 377.55 71.4569 377.314 72.146 376.842C72.8446 376.37 73.1938 375.686 73.1938 374.789C73.1938 374.308 73.0758 373.892 72.8398 373.543C72.6133 373.184 72.2923 372.859 71.877 372.566C71.4616 372.273 70.9707 371.995 70.4043 371.73C69.8473 371.457 69.2479 371.174 68.606 370.881C67.9168 370.513 67.2749 370.14 66.6802 369.762C66.0854 369.385 65.5662 368.969 65.1226 368.516C64.6883 368.054 64.3438 367.534 64.0889 366.958C63.8434 366.383 63.7207 365.708 63.7207 364.934C63.7207 363.98 63.9331 363.154 64.3579 362.456C64.7922 361.748 65.3586 361.167 66.0571 360.714C66.7651 360.251 67.5675 359.911 68.4644 359.694C69.3612 359.468 70.2769 359.354 71.2114 359.354C73.3354 359.354 74.8836 359.595 75.856 360.077V363.404C74.7043 362.574 73.2222 362.158 71.4097 362.158C70.9093 362.158 70.409 362.205 69.9087 362.3C69.4178 362.394 68.9741 362.55 68.5776 362.767C68.1906 362.984 67.8743 363.263 67.6289 363.603C67.3835 363.942 67.2607 364.353 67.2607 364.834C67.2607 365.288 67.3551 365.679 67.5439 366.01C67.7327 366.34 68.0065 366.642 68.3652 366.916C68.7334 367.19 69.1771 367.459 69.6963 367.723C70.2249 367.978 70.8338 368.257 71.5229 368.559C72.231 368.927 72.8965 369.314 73.5195 369.72C74.152 370.126 74.7043 370.574 75.1763 371.065C75.6577 371.556 76.0353 372.103 76.3091 372.708C76.5923 373.302 76.7339 373.982 76.7339 374.747C76.7339 375.776 76.5262 376.644 76.1108 377.352C75.6955 378.06 75.1338 378.636 74.4258 379.08C73.7272 379.523 72.9201 379.844 72.0044 380.042C71.0887 380.241 70.1211 380.34 69.1016 380.34C68.7617 380.34 68.3416 380.312 67.8413 380.255C67.3504 380.208 66.8454 380.132 66.3262 380.028C65.807 379.934 65.3161 379.816 64.8535 379.674C64.391 379.533 64.0181 379.372 63.7349 379.193ZM90.4834 379.334C89.3223 380.005 87.9487 380.34 86.3628 380.34C84.2104 380.34 82.4735 379.67 81.1519 378.329C79.8302 376.979 79.1694 375.233 79.1694 373.09C79.1694 370.701 79.8774 368.785 81.2935 367.341C82.7189 365.887 84.6211 365.16 87 365.16C88.3216 365.16 89.4875 365.391 90.4976 365.854V368.913C89.4875 368.157 88.4113 367.78 87.269 367.78C85.8813 367.78 84.7438 368.252 83.8564 369.196C82.9691 370.13 82.5254 371.358 82.5254 372.877C82.5254 374.378 82.9408 375.563 83.7715 376.432C84.6117 377.3 85.735 377.734 87.1416 377.734C88.3216 377.734 89.4355 377.314 90.4834 376.474V379.334ZM102.166 368.629C101.769 368.318 101.198 368.162 100.452 368.162C99.4798 368.162 98.668 368.601 98.0166 369.479C97.3652 370.357 97.0396 371.551 97.0396 373.062V380H93.7544V365.5H97.0396V368.488H97.0962C97.4172 367.468 97.908 366.675 98.5688 366.109C99.2391 365.533 99.9849 365.245 100.806 365.245C101.401 365.245 101.854 365.335 102.166 365.514V368.629ZM106.145 362.456C105.606 362.456 105.144 362.281 104.757 361.932C104.379 361.582 104.19 361.139 104.19 360.601C104.19 360.062 104.379 359.614 104.757 359.255C105.144 358.897 105.606 358.717 106.145 358.717C106.701 358.717 107.174 358.897 107.561 359.255C107.948 359.614 108.141 360.062 108.141 360.601C108.141 361.11 107.948 361.549 107.561 361.917C107.174 362.276 106.701 362.456 106.145 362.456ZM107.773 380H104.488V365.5H107.773V380ZM115.419 377.862H115.363V386.669H112.078V365.5H115.363V368.049H115.419C116.543 366.123 118.185 365.16 120.347 365.16C122.188 365.16 123.623 365.807 124.652 367.1C125.681 368.393 126.195 370.13 126.195 372.311C126.195 374.728 125.615 376.663 124.454 378.117C123.292 379.57 121.707 380.297 119.696 380.297C117.846 380.297 116.42 379.486 115.419 377.862ZM115.334 372.141V373.939C115.334 374.997 115.67 375.894 116.34 376.63C117.02 377.366 117.879 377.734 118.917 377.734C120.135 377.734 121.088 377.262 121.777 376.318C122.476 375.365 122.825 374.039 122.825 372.339C122.825 370.914 122.5 369.8 121.848 368.998C121.206 368.186 120.333 367.78 119.229 367.78C118.058 367.78 117.114 368.195 116.396 369.026C115.688 369.857 115.334 370.895 115.334 372.141ZM137.198 379.844C136.556 380.165 135.711 380.326 134.663 380.326C131.85 380.326 130.443 378.976 130.443 376.276V368.077H128.022V365.5H130.443V362.144L133.729 361.209V365.5H137.198V368.077H133.729V375.327C133.729 376.186 133.884 376.8 134.196 377.168C134.507 377.536 135.027 377.72 135.753 377.72C136.31 377.72 136.792 377.56 137.198 377.239V379.844ZM148.384 380V359.694H154.827C156.791 359.694 158.344 360.124 159.486 360.983C160.638 361.842 161.213 362.961 161.213 364.339C161.213 365.491 160.888 366.491 160.236 367.341C159.585 368.19 158.683 368.795 157.532 369.153V369.21C158.929 369.37 160.043 369.89 160.874 370.768C161.714 371.636 162.134 372.769 162.134 374.166C162.134 375.903 161.449 377.31 160.081 378.386C158.712 379.462 156.984 380 154.898 380H148.384ZM151.74 362.399V368.176H153.921C155.091 368.176 156.007 367.903 156.668 367.355C157.338 366.798 157.673 366.014 157.673 365.004C157.673 363.267 156.512 362.399 154.19 362.399H151.74ZM151.74 370.881V377.31H154.615C155.87 377.31 156.838 377.022 157.518 376.446C158.207 375.861 158.551 375.058 158.551 374.039C158.551 371.933 157.093 370.881 154.176 370.881H151.74ZM168.846 380H165.546V358.533H168.846V380ZM185.781 380H182.496V377.706H182.439C181.486 379.462 180.004 380.34 177.993 380.34C174.566 380.34 172.853 378.282 172.853 374.166V365.5H176.138V373.826C176.138 376.432 177.144 377.734 179.154 377.734C180.127 377.734 180.924 377.376 181.547 376.658C182.18 375.941 182.496 375.001 182.496 373.84V365.5H185.781V380ZM202.349 373.642H192.465C192.503 374.983 192.913 376.016 193.697 376.743C194.49 377.47 195.575 377.833 196.954 377.833C198.502 377.833 199.923 377.371 201.216 376.446V379.094C199.894 379.924 198.148 380.34 195.977 380.34C193.843 380.34 192.167 379.684 190.95 378.372C189.741 377.05 189.137 375.195 189.137 372.807C189.137 370.55 189.803 368.714 191.134 367.298C192.474 365.873 194.136 365.16 196.118 365.16C198.101 365.16 199.635 365.797 200.72 367.072C201.806 368.346 202.349 370.116 202.349 372.382V373.642ZM199.177 371.32C199.167 370.14 198.889 369.224 198.341 368.573C197.794 367.912 197.039 367.582 196.076 367.582C195.132 367.582 194.329 367.926 193.668 368.615C193.017 369.304 192.616 370.206 192.465 371.32H199.177Z" fill="#3178C6"/>
<path d="M361.084 380.443V378.051C361.299 378.246 361.553 378.422 361.846 378.578C362.145 378.734 362.461 378.868 362.793 378.979C363.125 379.083 363.457 379.164 363.789 379.223C364.121 379.281 364.427 379.311 364.707 379.311C365.684 379.311 366.41 379.148 366.885 378.822C367.367 378.497 367.607 378.025 367.607 377.406C367.607 377.074 367.526 376.788 367.363 376.547C367.207 376.299 366.986 376.075 366.699 375.873C366.413 375.671 366.074 375.479 365.684 375.297C365.299 375.108 364.886 374.913 364.443 374.711C363.968 374.457 363.525 374.2 363.115 373.939C362.705 373.679 362.347 373.393 362.041 373.08C361.742 372.761 361.504 372.403 361.328 372.006C361.159 371.609 361.074 371.143 361.074 370.609C361.074 369.952 361.221 369.382 361.514 368.9C361.813 368.412 362.204 368.012 362.686 367.699C363.174 367.38 363.727 367.146 364.346 366.996C364.964 366.84 365.596 366.762 366.24 366.762C367.705 366.762 368.773 366.928 369.443 367.26V369.555C368.649 368.982 367.627 368.695 366.377 368.695C366.032 368.695 365.687 368.728 365.342 368.793C365.003 368.858 364.697 368.965 364.424 369.115C364.157 369.265 363.939 369.457 363.77 369.691C363.6 369.926 363.516 370.209 363.516 370.541C363.516 370.854 363.581 371.124 363.711 371.352C363.841 371.579 364.03 371.788 364.277 371.977C364.531 372.165 364.837 372.351 365.195 372.533C365.56 372.709 365.98 372.901 366.455 373.109C366.943 373.363 367.402 373.63 367.832 373.91C368.268 374.19 368.649 374.499 368.975 374.838C369.307 375.176 369.567 375.554 369.756 375.971C369.951 376.381 370.049 376.85 370.049 377.377C370.049 378.087 369.906 378.686 369.619 379.174C369.333 379.662 368.945 380.059 368.457 380.365C367.975 380.671 367.419 380.893 366.787 381.029C366.156 381.166 365.488 381.234 364.785 381.234C364.551 381.234 364.261 381.215 363.916 381.176C363.577 381.143 363.229 381.091 362.871 381.02C362.513 380.954 362.174 380.873 361.855 380.775C361.536 380.678 361.279 380.567 361.084 380.443ZM380.84 376.615H374.023C374.049 377.54 374.333 378.253 374.873 378.754C375.42 379.255 376.169 379.506 377.119 379.506C378.187 379.506 379.167 379.187 380.059 378.549V380.375C379.147 380.948 377.943 381.234 376.445 381.234C374.974 381.234 373.818 380.782 372.979 379.877C372.145 378.965 371.729 377.686 371.729 376.039C371.729 374.483 372.188 373.217 373.105 372.24C374.03 371.257 375.176 370.766 376.543 370.766C377.91 370.766 378.968 371.205 379.717 372.084C380.465 372.963 380.84 374.184 380.84 375.746V376.615ZM378.652 375.014C378.646 374.2 378.454 373.568 378.076 373.119C377.699 372.663 377.178 372.436 376.514 372.436C375.863 372.436 375.309 372.673 374.854 373.148C374.404 373.624 374.128 374.245 374.023 375.014H378.652ZM390.156 380.541C389.355 381.003 388.408 381.234 387.314 381.234C385.83 381.234 384.632 380.772 383.721 379.848C382.809 378.917 382.354 377.712 382.354 376.234C382.354 374.587 382.842 373.266 383.818 372.27C384.801 371.267 386.113 370.766 387.754 370.766C388.665 370.766 389.469 370.925 390.166 371.244V373.354C389.469 372.833 388.727 372.572 387.939 372.572C386.982 372.572 386.198 372.898 385.586 373.549C384.974 374.193 384.668 375.04 384.668 376.088C384.668 377.123 384.954 377.94 385.527 378.539C386.107 379.138 386.882 379.438 387.852 379.438C388.665 379.438 389.434 379.148 390.156 378.568V380.541ZM396.846 381.234C395.303 381.234 394.069 380.769 393.145 379.838C392.227 378.9 391.768 377.66 391.768 376.117C391.768 374.438 392.246 373.126 393.203 372.182C394.167 371.238 395.462 370.766 397.09 370.766C398.652 370.766 399.87 371.225 400.742 372.143C401.615 373.061 402.051 374.333 402.051 375.961C402.051 377.556 401.579 378.835 400.635 379.799C399.697 380.756 398.434 381.234 396.846 381.234ZM396.953 372.572C396.068 372.572 395.368 372.882 394.854 373.5C394.339 374.118 394.082 374.971 394.082 376.059C394.082 377.107 394.342 377.934 394.863 378.539C395.384 379.138 396.081 379.438 396.953 379.438C397.845 379.438 398.529 379.141 399.004 378.549C399.486 377.956 399.727 377.113 399.727 376.02C399.727 374.919 399.486 374.07 399.004 373.471C398.529 372.872 397.845 372.572 396.953 372.572ZM413.271 381H411.006V375.365C411.006 373.497 410.345 372.562 409.023 372.562C408.333 372.562 407.764 372.823 407.314 373.344C406.865 373.858 406.641 374.509 406.641 375.297V381H404.365V371H406.641V372.66H406.68C407.428 371.397 408.509 370.766 409.922 370.766C411.009 370.766 411.839 371.12 412.412 371.83C412.985 372.533 413.271 373.552 413.271 374.887V381ZM425.137 381H422.871V379.301H422.832C422.103 380.59 420.98 381.234 419.463 381.234C418.232 381.234 417.246 380.788 416.504 379.896C415.768 378.998 415.4 377.777 415.4 376.234C415.4 374.581 415.807 373.256 416.621 372.26C417.441 371.264 418.532 370.766 419.893 370.766C421.24 370.766 422.22 371.306 422.832 372.387H422.871V366.195H425.137V381ZM422.9 376.43V375.121C422.9 374.411 422.669 373.809 422.207 373.314C421.745 372.82 421.156 372.572 420.439 372.572C419.593 372.572 418.926 372.888 418.438 373.52C417.956 374.151 417.715 375.027 417.715 376.146C417.715 377.162 417.946 377.966 418.408 378.559C418.877 379.145 419.505 379.438 420.293 379.438C421.068 379.438 421.696 379.154 422.178 378.588C422.66 378.015 422.9 377.296 422.9 376.43ZM435.771 381H433.574V379.438H433.535C432.845 380.635 431.833 381.234 430.498 381.234C429.515 381.234 428.743 380.967 428.184 380.434C427.63 379.9 427.354 379.193 427.354 378.314C427.354 376.426 428.441 375.326 430.615 375.014L433.584 374.594C433.584 373.168 432.907 372.455 431.553 372.455C430.361 372.455 429.287 372.865 428.33 373.686V371.703C429.385 371.078 430.602 370.766 431.982 370.766C434.508 370.766 435.771 372.009 435.771 374.496V381ZM433.584 376.088L431.484 376.381C430.833 376.465 430.342 376.625 430.01 376.859C429.684 377.087 429.521 377.491 429.521 378.07C429.521 378.493 429.671 378.842 429.971 379.115C430.277 379.382 430.684 379.516 431.191 379.516C431.882 379.516 432.451 379.275 432.9 378.793C433.356 378.305 433.584 377.693 433.584 376.957V376.088ZM444.346 373.158C444.072 372.943 443.678 372.836 443.164 372.836C442.493 372.836 441.934 373.139 441.484 373.744C441.035 374.35 440.811 375.173 440.811 376.215V381H438.545V371H440.811V373.061H440.85C441.071 372.357 441.41 371.811 441.865 371.42C442.327 371.023 442.842 370.824 443.408 370.824C443.818 370.824 444.131 370.886 444.346 371.01V373.158ZM455.41 371L450.898 382.602C449.961 384.672 448.646 385.707 446.953 385.707C446.478 385.707 446.081 385.665 445.762 385.58V383.695C446.12 383.812 446.445 383.871 446.738 383.871C447.585 383.871 448.216 383.454 448.633 382.621L449.307 380.98L445.332 371H447.842L450.225 378.266C450.251 378.357 450.309 378.598 450.4 378.988H450.449C450.482 378.839 450.54 378.604 450.625 378.285L453.125 371H455.41ZM470.244 379.555H470.205V381H467.939V366.195H470.205V372.758H470.244C471.019 371.43 472.152 370.766 473.643 370.766C474.906 370.766 475.892 371.215 476.602 372.113C477.318 373.005 477.676 374.203 477.676 375.707C477.676 377.38 477.275 378.721 476.475 379.73C475.674 380.733 474.58 381.234 473.193 381.234C471.891 381.234 470.908 380.674 470.244 379.555ZM470.186 375.58V376.82C470.186 377.549 470.417 378.168 470.879 378.676C471.348 379.184 471.94 379.438 472.656 379.438C473.496 379.438 474.154 379.112 474.629 378.461C475.111 377.803 475.352 376.889 475.352 375.717C475.352 374.734 475.127 373.965 474.678 373.412C474.235 372.852 473.633 372.572 472.871 372.572C472.064 372.572 471.413 372.859 470.918 373.432C470.43 374.005 470.186 374.721 470.186 375.58ZM482.266 381H479.99V366.195H482.266V381ZM493.945 381H491.68V379.418H491.641C490.983 380.629 489.961 381.234 488.574 381.234C486.211 381.234 485.029 379.815 485.029 376.977V371H487.295V376.742C487.295 378.539 487.988 379.438 489.375 379.438C490.046 379.438 490.596 379.19 491.025 378.695C491.462 378.201 491.68 377.553 491.68 376.752V371H493.945V381ZM505.371 376.615H498.555C498.581 377.54 498.864 378.253 499.404 378.754C499.951 379.255 500.7 379.506 501.65 379.506C502.718 379.506 503.698 379.187 504.59 378.549V380.375C503.678 380.948 502.474 381.234 500.977 381.234C499.505 381.234 498.35 380.782 497.51 379.877C496.676 378.965 496.26 377.686 496.26 376.039C496.26 374.483 496.719 373.217 497.637 372.24C498.561 371.257 499.707 370.766 501.074 370.766C502.441 370.766 503.499 371.205 504.248 372.084C504.997 372.963 505.371 374.184 505.371 375.746V376.615ZM503.184 375.014C503.177 374.2 502.985 373.568 502.607 373.119C502.23 372.663 501.709 372.436 501.045 372.436C500.394 372.436 499.84 372.673 499.385 373.148C498.936 373.624 498.659 374.245 498.555 375.014H503.184ZM506.904 380.688V378.588C507.751 379.232 508.685 379.555 509.707 379.555C511.074 379.555 511.758 379.151 511.758 378.344C511.758 378.116 511.699 377.924 511.582 377.768C511.465 377.605 511.305 377.462 511.104 377.338C510.908 377.214 510.674 377.104 510.4 377.006C510.133 376.908 509.834 376.798 509.502 376.674C509.092 376.511 508.721 376.339 508.389 376.156C508.063 375.974 507.79 375.769 507.568 375.541C507.354 375.307 507.191 375.043 507.08 374.75C506.969 374.457 506.914 374.115 506.914 373.725C506.914 373.243 507.028 372.82 507.256 372.455C507.484 372.084 507.79 371.775 508.174 371.527C508.558 371.273 508.994 371.085 509.482 370.961C509.971 370.831 510.475 370.766 510.996 370.766C511.921 370.766 512.747 370.906 513.477 371.186V373.168C512.773 372.686 511.966 372.445 511.055 372.445C510.768 372.445 510.508 372.475 510.273 372.533C510.046 372.592 509.85 372.673 509.688 372.777C509.525 372.882 509.398 373.008 509.307 373.158C509.215 373.301 509.17 373.461 509.17 373.637C509.17 373.852 509.215 374.034 509.307 374.184C509.398 374.333 509.531 374.467 509.707 374.584C509.889 374.695 510.104 374.799 510.352 374.896C510.605 374.988 510.895 375.089 511.221 375.199C511.65 375.375 512.035 375.554 512.373 375.736C512.718 375.919 513.011 376.127 513.252 376.361C513.493 376.589 513.678 376.856 513.809 377.162C513.939 377.462 514.004 377.82 514.004 378.236C514.004 378.744 513.887 379.187 513.652 379.564C513.418 379.942 513.105 380.255 512.715 380.502C512.324 380.749 511.872 380.932 511.357 381.049C510.85 381.173 510.312 381.234 509.746 381.234C508.652 381.234 507.705 381.052 506.904 380.688Z" fill="#3178C6"/>
<path d="M658.979 380H656.645V373.926H650.053V380H647.729V365.996H650.053V371.885H656.645V365.996H658.979V380ZM663.324 367.9C662.953 367.9 662.634 367.78 662.367 367.539C662.107 367.298 661.977 366.992 661.977 366.621C661.977 366.25 662.107 365.941 662.367 365.693C662.634 365.446 662.953 365.322 663.324 365.322C663.708 365.322 664.034 365.446 664.301 365.693C664.568 365.941 664.701 366.25 664.701 366.621C664.701 366.973 664.568 367.275 664.301 367.529C664.034 367.777 663.708 367.9 663.324 367.9ZM664.447 380H662.182V370H664.447V380ZM676.518 379.199C676.518 382.871 674.672 384.707 670.98 384.707C669.678 384.707 668.542 384.489 667.572 384.053V381.982C668.666 382.607 669.704 382.92 670.688 382.92C673.064 382.92 674.252 381.751 674.252 379.414V378.32H674.213C673.464 379.596 672.338 380.234 670.834 380.234C669.617 380.234 668.633 379.792 667.885 378.906C667.143 378.014 666.771 376.82 666.771 375.322C666.771 373.623 667.172 372.272 667.973 371.27C668.773 370.267 669.874 369.766 671.273 369.766C672.595 369.766 673.575 370.306 674.213 371.387H674.252V370H676.518V379.199ZM674.271 375.42V374.121C674.271 373.418 674.037 372.819 673.568 372.324C673.106 371.823 672.527 371.572 671.83 371.572C670.971 371.572 670.297 371.891 669.809 372.529C669.327 373.161 669.086 374.046 669.086 375.186C669.086 376.169 669.317 376.956 669.779 377.549C670.248 378.135 670.867 378.428 671.635 378.428C672.416 378.428 673.051 378.148 673.539 377.588C674.027 377.021 674.271 376.299 674.271 375.42ZM688.354 380H686.088V374.531C686.088 372.552 685.427 371.562 684.105 371.562C683.441 371.562 682.882 371.849 682.426 372.422C681.97 372.995 681.742 373.727 681.742 374.619V380H679.467V365.195H681.742V371.66H681.781C682.536 370.397 683.617 369.766 685.023 369.766C687.243 369.766 688.354 371.123 688.354 373.838V380ZM693.383 380H691.107V365.195H693.383V380ZM697.484 367.9C697.113 367.9 696.794 367.78 696.527 367.539C696.267 367.298 696.137 366.992 696.137 366.621C696.137 366.25 696.267 365.941 696.527 365.693C696.794 365.446 697.113 365.322 697.484 365.322C697.868 365.322 698.194 365.446 698.461 365.693C698.728 365.941 698.861 366.25 698.861 366.621C698.861 366.973 698.728 367.275 698.461 367.529C698.194 367.777 697.868 367.9 697.484 367.9ZM698.607 380H696.342V370H698.607V380ZM710.678 379.199C710.678 382.871 708.832 384.707 705.141 384.707C703.839 384.707 702.702 384.489 701.732 384.053V381.982C702.826 382.607 703.865 382.92 704.848 382.92C707.224 382.92 708.412 381.751 708.412 379.414V378.32H708.373C707.624 379.596 706.498 380.234 704.994 380.234C703.777 380.234 702.794 379.792 702.045 378.906C701.303 378.014 700.932 376.82 700.932 375.322C700.932 373.623 701.332 372.272 702.133 371.27C702.934 370.267 704.034 369.766 705.434 369.766C706.755 369.766 707.735 370.306 708.373 371.387H708.412V370H710.678V379.199ZM708.432 375.42V374.121C708.432 373.418 708.197 372.819 707.729 372.324C707.266 371.823 706.687 371.572 705.99 371.572C705.131 371.572 704.457 371.891 703.969 372.529C703.487 373.161 703.246 374.046 703.246 375.186C703.246 376.169 703.477 376.956 703.939 377.549C704.408 378.135 705.027 378.428 705.795 378.428C706.576 378.428 707.211 378.148 707.699 377.588C708.188 377.021 708.432 376.299 708.432 375.42ZM722.514 380H720.248V374.531C720.248 372.552 719.587 371.562 718.266 371.562C717.602 371.562 717.042 371.849 716.586 372.422C716.13 372.995 715.902 373.727 715.902 374.619V380H713.627V365.195H715.902V371.66H715.941C716.697 370.397 717.777 369.766 719.184 369.766C721.404 369.766 722.514 371.123 722.514 373.838V380ZM730.541 379.893C730.098 380.114 729.516 380.225 728.793 380.225C726.853 380.225 725.883 379.294 725.883 377.432V371.777H724.213V370H725.883V367.686L728.148 367.041V370H730.541V371.777H728.148V376.777C728.148 377.37 728.256 377.793 728.471 378.047C728.686 378.301 729.044 378.428 729.545 378.428C729.929 378.428 730.261 378.317 730.541 378.096V379.893ZM731.869 379.688V377.588C732.715 378.232 733.65 378.555 734.672 378.555C736.039 378.555 736.723 378.151 736.723 377.344C736.723 377.116 736.664 376.924 736.547 376.768C736.43 376.605 736.27 376.462 736.068 376.338C735.873 376.214 735.639 376.104 735.365 376.006C735.098 375.908 734.799 375.798 734.467 375.674C734.057 375.511 733.686 375.339 733.354 375.156C733.028 374.974 732.755 374.769 732.533 374.541C732.318 374.307 732.156 374.043 732.045 373.75C731.934 373.457 731.879 373.115 731.879 372.725C731.879 372.243 731.993 371.82 732.221 371.455C732.449 371.084 732.755 370.775 733.139 370.527C733.523 370.273 733.959 370.085 734.447 369.961C734.936 369.831 735.44 369.766 735.961 369.766C736.885 369.766 737.712 369.906 738.441 370.186V372.168C737.738 371.686 736.931 371.445 736.02 371.445C735.733 371.445 735.473 371.475 735.238 371.533C735.01 371.592 734.815 371.673 734.652 371.777C734.49 371.882 734.363 372.008 734.271 372.158C734.18 372.301 734.135 372.461 734.135 372.637C734.135 372.852 734.18 373.034 734.271 373.184C734.363 373.333 734.496 373.467 734.672 373.584C734.854 373.695 735.069 373.799 735.316 373.896C735.57 373.988 735.86 374.089 736.186 374.199C736.615 374.375 736.999 374.554 737.338 374.736C737.683 374.919 737.976 375.127 738.217 375.361C738.458 375.589 738.643 375.856 738.773 376.162C738.904 376.462 738.969 376.82 738.969 377.236C738.969 377.744 738.852 378.187 738.617 378.564C738.383 378.942 738.07 379.255 737.68 379.502C737.289 379.749 736.837 379.932 736.322 380.049C735.814 380.173 735.277 380.234 734.711 380.234C733.617 380.234 732.67 380.052 731.869 379.688Z" fill="#3178C6"/>
</svg>
