<svg width="562" height="260" viewBox="0 0 562 260" fill="none" xmlns="http://www.w3.org/2000/svg">
<rect y="122" width="122" height="101" rx="7" fill="#560072"/>
<rect width="562" height="101" rx="7" fill="#FAF9F8"/>
<rect x="146" y="122" width="123" height="101" rx="7" fill="#790000"/>
<rect x="293" y="122" width="122" height="101" rx="7" fill="#007055"/>
<rect x="440" y="122" width="122" height="101" rx="7" fill="#004F70"/>
<path d="M446.332 51.8628L445.78 54.4116H443.16L442.381 57.9233H445.312L444.675 60.4722H441.857L440.753 65.3716H437.921L438.955 60.4722H435.712L434.664 65.3716H431.832L432.837 60.4722H430.204L430.728 57.9233H433.39L434.14 54.4116H431.28L431.761 51.8628H434.664L435.712 46.8218H438.615L437.567 51.8628H440.81L441.886 46.8218H444.76L443.712 51.8628H446.332ZM440.3 54.4116H437.015L436.236 57.9233H439.507L440.3 54.4116ZM460.931 50.4185H453.766V55.4028H460.351V59.1128H453.766V67H449.192V46.6943H460.931V50.4185ZM480.557 67H475.573L474.128 62.4829H466.907L465.477 67H460.521L467.912 46.6943H473.335L480.557 67ZM473.081 58.9712L470.9 52.146C470.739 51.6362 470.626 51.0273 470.56 50.3193H470.447C470.4 50.9141 470.282 51.5041 470.093 52.0894L467.884 58.9712H473.081ZM494.831 50.4185H487.666V55.4028H494.25V59.1128H487.666V67H483.092V46.6943H494.831V50.4185ZM511.256 55.8701C511.256 57.6732 511.058 59.2874 510.662 60.7129C510.265 62.1289 509.685 63.3278 508.92 64.3096C508.165 65.2913 507.24 66.0465 506.145 66.5752C505.049 67.0944 503.808 67.354 502.42 67.354C500.759 67.354 499.329 67.0897 498.13 66.561V62.8794C499.197 63.578 500.48 63.9272 501.981 63.9272C503.52 63.9272 504.724 63.4033 505.592 62.3555C506.461 61.3076 506.9 59.7925 506.909 57.8101L506.824 57.7817C505.927 59.1128 504.563 59.7783 502.732 59.7783C501.901 59.7783 501.132 59.6226 500.424 59.311C499.725 58.9995 499.116 58.57 498.597 58.0225C498.087 57.4655 497.686 56.8047 497.394 56.04C497.11 55.2754 496.969 54.4352 496.969 53.5195C496.969 52.4528 497.143 51.4805 497.493 50.6025C497.842 49.7246 498.328 48.9694 498.951 48.3369C499.584 47.7044 500.339 47.2183 501.217 46.8784C502.095 46.5291 503.067 46.3545 504.134 46.3545C505.238 46.3545 506.229 46.5716 507.107 47.0059C507.985 47.4307 508.731 48.049 509.345 48.8608C509.968 49.6727 510.44 50.6686 510.761 51.8486C511.091 53.0286 511.256 54.3691 511.256 55.8701ZM506.739 53.4912C506.739 52.972 506.673 52.4858 506.541 52.0327C506.409 51.5701 506.225 51.1737 505.989 50.8433C505.753 50.5129 505.465 50.2533 505.125 50.0645C504.785 49.8662 504.412 49.7671 504.006 49.7671C503.619 49.7671 503.261 49.8521 502.93 50.022C502.609 50.1919 502.331 50.4279 502.095 50.73C501.859 51.0226 501.675 51.3766 501.542 51.792C501.41 52.2074 501.344 52.6558 501.344 53.1372C501.344 53.6659 501.41 54.1379 501.542 54.5532C501.675 54.9591 501.859 55.3037 502.095 55.5869C502.34 55.8701 502.633 56.0872 502.973 56.2383C503.312 56.3799 503.69 56.4507 504.105 56.4507C504.502 56.4507 504.861 56.3752 505.182 56.2241C505.503 56.0636 505.776 55.8512 506.003 55.5869C506.239 55.3226 506.418 55.0111 506.541 54.6523C506.673 54.2936 506.739 53.9066 506.739 53.4912ZM526.606 50.4185H519.441V55.4028H526.025V59.1128H519.441V67H514.867V46.6943H526.606V50.4185ZM528.772 61.5342C528.772 60.9678 528.853 60.425 529.013 59.9058C529.183 59.3771 529.433 58.891 529.764 58.4473C530.094 57.9941 530.505 57.5929 530.996 57.2437C531.496 56.8849 532.081 56.5923 532.751 56.3657C531.722 55.856 530.925 55.2046 530.358 54.4116C529.792 53.6092 529.509 52.7218 529.509 51.7495C529.509 50.9754 529.669 50.258 529.99 49.5972C530.321 48.9364 530.774 48.3652 531.35 47.8838C531.925 47.4023 532.61 47.0295 533.403 46.7651C534.205 46.4914 535.078 46.3545 536.022 46.3545C536.985 46.3545 537.868 46.4914 538.67 46.7651C539.473 47.0295 540.162 47.4023 540.738 47.8838C541.323 48.3558 541.776 48.9175 542.097 49.5688C542.418 50.2202 542.579 50.9282 542.579 51.6929C542.579 52.6558 542.277 53.5337 541.672 54.3267C541.068 55.1102 540.233 55.7568 539.166 56.2666C539.827 56.4932 540.407 56.7858 540.908 57.1445C541.408 57.4938 541.828 57.895 542.168 58.3481C542.508 58.8013 542.763 59.2969 542.933 59.835C543.103 60.3636 543.188 60.9159 543.188 61.4917C543.188 62.3602 543.013 63.1532 542.664 63.8706C542.314 64.5786 541.819 65.1922 541.177 65.7114C540.544 66.2212 539.784 66.6177 538.897 66.9009C538.019 67.1841 537.047 67.3257 535.98 67.3257C534.932 67.3257 533.965 67.1888 533.077 66.915C532.199 66.6318 531.439 66.2354 530.797 65.7256C530.165 65.2158 529.669 64.6069 529.311 63.8989C528.952 63.1815 528.772 62.3932 528.772 61.5342ZM533.006 61.1519C533.006 61.6144 533.077 62.0298 533.219 62.3979C533.36 62.7661 533.563 63.0776 533.828 63.3325C534.092 63.5874 534.403 63.7856 534.762 63.9272C535.13 64.0594 535.541 64.1255 535.994 64.1255C536.428 64.1255 536.825 64.0547 537.184 63.9131C537.552 63.7715 537.868 63.5732 538.132 63.3184C538.397 63.0635 538.604 62.752 538.755 62.3838C538.906 62.0156 538.982 61.605 538.982 61.1519C538.982 60.7459 538.911 60.3589 538.77 59.9907C538.628 59.6226 538.425 59.3063 538.161 59.042C537.896 58.7682 537.58 58.5511 537.212 58.3906C536.853 58.2301 536.447 58.1499 535.994 58.1499C535.569 58.1499 535.173 58.2254 534.805 58.3765C534.437 58.5181 534.12 58.7257 533.856 58.9995C533.592 59.2638 533.384 59.5801 533.233 59.9482C533.082 60.3164 533.006 60.7176 533.006 61.1519ZM533.629 52.1602C533.629 52.5189 533.691 52.8587 533.813 53.1797C533.946 53.4912 534.12 53.765 534.337 54.001C534.555 54.2275 534.809 54.4069 535.102 54.5391C535.404 54.6712 535.72 54.7373 536.051 54.7373C536.391 54.7373 536.707 54.6712 537 54.5391C537.292 54.4069 537.547 54.2228 537.764 53.9868C537.991 53.7508 538.165 53.4771 538.288 53.1655C538.42 52.854 538.486 52.5189 538.486 52.1602C538.486 51.792 538.425 51.4521 538.302 51.1406C538.18 50.8197 538.005 50.5459 537.778 50.3193C537.561 50.0833 537.302 49.8993 537 49.7671C536.707 49.6349 536.391 49.5688 536.051 49.5688C535.692 49.5688 535.362 49.6396 535.06 49.7812C534.767 49.9134 534.512 50.0975 534.295 50.3335C534.087 50.5601 533.922 50.8338 533.799 51.1548C533.686 51.4663 533.629 51.8014 533.629 52.1602Z" fill="black"/>
<path d="M32.8623 57.6367V65H29.5063V44.6943H35.666C37.9977 44.6943 39.8055 45.2371 41.0894 46.3228C42.3732 47.4084 43.0151 48.9377 43.0151 50.9106C43.0151 52.8836 42.3449 54.4979 41.0044 55.7534C39.6639 57.009 37.8514 57.6367 35.5669 57.6367H32.8623ZM32.8623 47.4697V54.8896H35.043C36.4873 54.8896 37.5871 54.5545 38.3423 53.8843C39.0975 53.214 39.4751 52.27 39.4751 51.0522C39.4751 48.6639 38.0874 47.4697 35.312 47.4697H32.8623ZM54.5132 53.6294C54.1167 53.3179 53.5456 53.1621 52.7998 53.1621C51.8275 53.1621 51.0156 53.6011 50.3643 54.479C49.7129 55.3569 49.3872 56.5511 49.3872 58.0615V65H46.1021V50.5H49.3872V53.4878H49.4438C49.7648 52.4683 50.2557 51.6753 50.9165 51.1089C51.5868 50.533 52.3325 50.2451 53.1538 50.2451C53.7485 50.2451 54.2017 50.3348 54.5132 50.5142V53.6294ZM58.4922 47.4556C57.9541 47.4556 57.4915 47.2809 57.1045 46.9316C56.7269 46.5824 56.5381 46.1387 56.5381 45.6006C56.5381 45.0625 56.7269 44.6141 57.1045 44.2554C57.4915 43.8966 57.9541 43.7173 58.4922 43.7173C59.0492 43.7173 59.5212 43.8966 59.9082 44.2554C60.2952 44.6141 60.4888 45.0625 60.4888 45.6006C60.4888 46.1104 60.2952 46.5493 59.9082 46.9175C59.5212 47.2762 59.0492 47.4556 58.4922 47.4556ZM60.1206 65H56.8354V50.5H60.1206V65ZM86.1045 65H82.8193V57.0986C82.8193 55.5788 82.6022 54.479 82.168 53.7993C81.7432 53.1196 81.021 52.7798 80.0015 52.7798C79.1424 52.7798 78.4108 53.2093 77.8066 54.0684C77.2119 54.9274 76.9146 55.9564 76.9146 57.1553V65H73.6152V56.8296C73.6152 54.1297 72.6618 52.7798 70.7549 52.7798C69.8675 52.7798 69.1359 53.1857 68.5601 53.9976C67.9937 54.8094 67.7104 55.862 67.7104 57.1553V65H64.4253V50.5H67.7104V52.7939H67.7671C68.8149 51.0381 70.3395 50.1602 72.3408 50.1602C73.3415 50.1602 74.2147 50.4386 74.9604 50.9956C75.7157 51.5431 76.2301 52.2653 76.5039 53.1621C77.5801 51.1608 79.1849 50.1602 81.3184 50.1602C84.5091 50.1602 86.1045 52.1284 86.1045 56.0649V65ZM101.242 65H98.0557V62.7344H97.999C96.9984 64.4714 95.5304 65.3398 93.5952 65.3398C92.1698 65.3398 91.0511 64.9528 90.2393 64.1787C89.4368 63.4046 89.0356 62.3804 89.0356 61.106C89.0356 58.3683 90.6121 56.7729 93.7651 56.3198L98.0698 55.7109C98.0698 53.6436 97.0881 52.6099 95.1245 52.6099C93.397 52.6099 91.8394 53.2046 90.4517 54.394V51.5195C91.981 50.6133 93.7463 50.1602 95.7476 50.1602C99.4103 50.1602 101.242 51.9632 101.242 55.5693V65ZM98.0698 57.8774L95.0254 58.3022C94.0814 58.425 93.3687 58.6562 92.8872 58.9961C92.4152 59.3265 92.1792 59.9118 92.1792 60.752C92.1792 61.3656 92.3963 61.8706 92.8306 62.2671C93.2743 62.6541 93.8643 62.8477 94.6006 62.8477C95.6012 62.8477 96.4272 62.4984 97.0786 61.7998C97.7394 61.0918 98.0698 60.2044 98.0698 59.1377V57.8774ZM113.674 53.6294C113.278 53.3179 112.707 53.1621 111.961 53.1621C110.989 53.1621 110.177 53.6011 109.525 54.479C108.874 55.3569 108.548 56.5511 108.548 58.0615V65H105.263V50.5H108.548V53.4878H108.605C108.926 52.4683 109.417 51.6753 110.078 51.1089C110.748 50.533 111.494 50.2451 112.315 50.2451C112.91 50.2451 113.363 50.3348 113.674 50.5142V53.6294ZM129.718 50.5L123.176 67.3223C121.816 70.3242 119.91 71.8252 117.455 71.8252C116.766 71.8252 116.19 71.7638 115.728 71.6411V68.9082C116.247 69.0781 116.719 69.1631 117.144 69.1631C118.371 69.1631 119.286 68.5589 119.891 67.3506L120.868 64.9717L115.104 50.5H118.744L122.199 61.0352C122.236 61.1673 122.321 61.5166 122.454 62.083H122.524C122.572 61.8659 122.657 61.526 122.779 61.0635L126.404 50.5H129.718ZM140.267 65V44.6943H146.71C148.674 44.6943 150.226 45.1239 151.369 45.9829C152.52 46.842 153.096 47.9606 153.096 49.3389C153.096 50.4906 152.771 51.4912 152.119 52.3408C151.468 53.1904 150.566 53.7946 149.415 54.1533V54.21C150.812 54.3704 151.926 54.8896 152.756 55.7676C153.597 56.6361 154.017 57.7689 154.017 59.166C154.017 60.903 153.332 62.3096 151.963 63.3857C150.595 64.4619 148.867 65 146.781 65H140.267ZM143.623 47.3989V53.1763H145.804C146.974 53.1763 147.89 52.9025 148.551 52.355C149.221 51.798 149.556 51.0145 149.556 50.0044C149.556 48.2674 148.395 47.3989 146.073 47.3989H143.623ZM143.623 55.8809V62.3096H146.498C147.753 62.3096 148.721 62.0216 149.4 61.4458C150.09 60.8605 150.434 60.0581 150.434 59.0386C150.434 56.9334 148.976 55.8809 146.059 55.8809H143.623ZM168.559 65H165.373V62.7344H165.316C164.316 64.4714 162.848 65.3398 160.913 65.3398C159.487 65.3398 158.368 64.9528 157.557 64.1787C156.754 63.4046 156.353 62.3804 156.353 61.106C156.353 58.3683 157.93 56.7729 161.083 56.3198L165.387 55.7109C165.387 53.6436 164.405 52.6099 162.442 52.6099C160.714 52.6099 159.157 53.2046 157.769 54.394V51.5195C159.298 50.6133 161.064 50.1602 163.065 50.1602C166.728 50.1602 168.559 51.9632 168.559 55.5693V65ZM165.387 57.8774L162.343 58.3022C161.399 58.425 160.686 58.6562 160.205 58.9961C159.733 59.3265 159.497 59.9118 159.497 60.752C159.497 61.3656 159.714 61.8706 160.148 62.2671C160.592 62.6541 161.182 62.8477 161.918 62.8477C162.919 62.8477 163.745 62.4984 164.396 61.7998C165.057 61.0918 165.387 60.2044 165.387 59.1377V57.8774ZM182.96 64.3345C181.799 65.0047 180.425 65.3398 178.839 65.3398C176.687 65.3398 174.95 64.6696 173.628 63.3291C172.307 61.9792 171.646 60.2327 171.646 58.0898C171.646 55.7015 172.354 53.7852 173.77 52.3408C175.195 50.887 177.098 50.1602 179.477 50.1602C180.798 50.1602 181.964 50.3914 182.974 50.854V53.9126C181.964 53.1574 180.888 52.7798 179.746 52.7798C178.358 52.7798 177.22 53.2518 176.333 54.1958C175.446 55.1304 175.002 56.3576 175.002 57.8774C175.002 59.3784 175.417 60.5632 176.248 61.4316C177.088 62.3001 178.212 62.7344 179.618 62.7344C180.798 62.7344 181.912 62.3143 182.96 61.4741V64.3345ZM199.386 65H195.223L189.587 58.0332H189.53V65H186.231V43.5332H189.53V57.1411H189.587L194.911 50.5H198.862L192.872 57.4951L199.386 65ZM214.155 63.8389C214.155 69.1631 211.479 71.8252 206.126 71.8252C204.238 71.8252 202.591 71.509 201.184 70.8765V67.8745C202.77 68.7808 204.276 69.2339 205.701 69.2339C209.147 69.2339 210.87 67.5394 210.87 64.1504V62.5645H210.813C209.727 64.4147 208.094 65.3398 205.914 65.3398C204.148 65.3398 202.723 64.6979 201.637 63.4141C200.561 62.1208 200.023 60.3885 200.023 58.2173C200.023 55.7534 200.604 53.7946 201.765 52.3408C202.926 50.887 204.521 50.1602 206.551 50.1602C208.467 50.1602 209.888 50.9437 210.813 52.5107H210.87V50.5H214.155V63.8389ZM210.898 58.3589V56.4756C210.898 55.4561 210.558 54.5876 209.878 53.8701C209.208 53.1432 208.368 52.7798 207.358 52.7798C206.112 52.7798 205.135 53.2424 204.427 54.1675C203.728 55.0832 203.379 56.367 203.379 58.019C203.379 59.4445 203.714 60.5868 204.384 61.4458C205.064 62.2954 205.961 62.7202 207.075 62.7202C208.208 62.7202 209.128 62.3143 209.836 61.5024C210.544 60.6812 210.898 59.6333 210.898 58.3589ZM226.842 53.6294C226.446 53.3179 225.875 53.1621 225.129 53.1621C224.157 53.1621 223.345 53.6011 222.693 54.479C222.042 55.3569 221.716 56.5511 221.716 58.0615V65H218.431V50.5H221.716V53.4878H221.773C222.094 52.4683 222.585 51.6753 223.246 51.1089C223.916 50.533 224.662 50.2451 225.483 50.2451C226.078 50.2451 226.531 50.3348 226.842 50.5142V53.6294ZM235.338 65.3398C233.101 65.3398 231.312 64.6649 229.972 63.3149C228.641 61.9556 227.975 60.1572 227.975 57.9199C227.975 55.4844 228.669 53.5822 230.057 52.2134C231.454 50.8446 233.332 50.1602 235.692 50.1602C237.958 50.1602 239.723 50.8257 240.988 52.1567C242.253 53.4878 242.886 55.3333 242.886 57.6934C242.886 60.0062 242.201 61.8612 240.833 63.2583C239.473 64.646 237.642 65.3398 235.338 65.3398ZM235.494 52.7798C234.21 52.7798 233.195 53.2282 232.45 54.125C231.704 55.0218 231.331 56.2585 231.331 57.835C231.331 59.3548 231.709 60.5537 232.464 61.4316C233.219 62.3001 234.229 62.7344 235.494 62.7344C236.787 62.7344 237.779 62.3049 238.468 61.4458C239.166 60.5868 239.516 59.3643 239.516 57.7783C239.516 56.1829 239.166 54.951 238.468 54.0825C237.779 53.214 236.787 52.7798 235.494 52.7798ZM258.887 65H255.602V62.7061H255.545C254.591 64.4619 253.109 65.3398 251.099 65.3398C247.672 65.3398 245.958 63.2819 245.958 59.166V50.5H249.244V58.8262C249.244 61.4316 250.249 62.7344 252.26 62.7344C253.232 62.7344 254.03 62.3757 254.653 61.6582C255.285 60.9408 255.602 60.0015 255.602 58.8403V50.5H258.887V65ZM276.091 65H272.806V56.8296C272.806 54.1203 271.848 52.7656 269.932 52.7656C268.931 52.7656 268.105 53.1432 267.454 53.8984C266.802 54.6442 266.477 55.5882 266.477 56.7305V65H263.177V50.5H266.477V52.9072H266.533C267.619 51.0758 269.186 50.1602 271.234 50.1602C272.811 50.1602 274.014 50.6746 274.845 51.7036C275.676 52.7231 276.091 54.2005 276.091 56.1357V65ZM293.296 65H290.011V62.5361H289.954C288.897 64.4053 287.268 65.3398 285.069 65.3398C283.285 65.3398 281.854 64.6932 280.778 63.3999C279.712 62.0972 279.178 60.3271 279.178 58.0898C279.178 55.6921 279.768 53.771 280.948 52.3267C282.138 50.8823 283.719 50.1602 285.692 50.1602C287.646 50.1602 289.067 50.9437 289.954 52.5107H290.011V43.5332H293.296V65ZM290.053 58.373V56.4756C290.053 55.4466 289.718 54.5734 289.048 53.856C288.378 53.1385 287.523 52.7798 286.485 52.7798C285.258 52.7798 284.29 53.2376 283.582 54.1533C282.883 55.069 282.534 56.3387 282.534 57.9624C282.534 59.4351 282.869 60.6009 283.54 61.46C284.219 62.3096 285.13 62.7344 286.272 62.7344C287.396 62.7344 288.307 62.3237 289.005 61.5024C289.704 60.6717 290.053 59.6286 290.053 58.373Z" fill="black"/>
<path d="M1.08398 249.443V247.051C1.29883 247.246 1.55273 247.422 1.8457 247.578C2.14518 247.734 2.46094 247.868 2.79297 247.979C3.125 248.083 3.45703 248.164 3.78906 248.223C4.12109 248.281 4.42708 248.311 4.70703 248.311C5.68359 248.311 6.40951 248.148 6.88477 247.822C7.36654 247.497 7.60742 247.025 7.60742 246.406C7.60742 246.074 7.52604 245.788 7.36328 245.547C7.20703 245.299 6.98568 245.075 6.69922 244.873C6.41276 244.671 6.07422 244.479 5.68359 244.297C5.29948 244.108 4.88607 243.913 4.44336 243.711C3.9681 243.457 3.52539 243.2 3.11523 242.939C2.70508 242.679 2.34701 242.393 2.04102 242.08C1.74154 241.761 1.50391 241.403 1.32812 241.006C1.15885 240.609 1.07422 240.143 1.07422 239.609C1.07422 238.952 1.2207 238.382 1.51367 237.9C1.81315 237.412 2.20378 237.012 2.68555 236.699C3.17383 236.38 3.72721 236.146 4.3457 235.996C4.96419 235.84 5.5957 235.762 6.24023 235.762C7.70508 235.762 8.77279 235.928 9.44336 236.26V238.555C8.64909 237.982 7.62695 237.695 6.37695 237.695C6.0319 237.695 5.68685 237.728 5.3418 237.793C5.00326 237.858 4.69727 237.965 4.42383 238.115C4.1569 238.265 3.9388 238.457 3.76953 238.691C3.60026 238.926 3.51562 239.209 3.51562 239.541C3.51562 239.854 3.58073 240.124 3.71094 240.352C3.84115 240.579 4.02995 240.788 4.27734 240.977C4.53125 241.165 4.83724 241.351 5.19531 241.533C5.5599 241.709 5.97982 241.901 6.45508 242.109C6.94336 242.363 7.40234 242.63 7.83203 242.91C8.26823 243.19 8.64909 243.499 8.97461 243.838C9.30664 244.176 9.56706 244.554 9.75586 244.971C9.95117 245.381 10.0488 245.85 10.0488 246.377C10.0488 247.087 9.9056 247.686 9.61914 248.174C9.33268 248.662 8.94531 249.059 8.45703 249.365C7.97526 249.671 7.41862 249.893 6.78711 250.029C6.1556 250.166 5.48828 250.234 4.78516 250.234C4.55078 250.234 4.26107 250.215 3.91602 250.176C3.57747 250.143 3.22917 250.091 2.87109 250.02C2.51302 249.954 2.17448 249.873 1.85547 249.775C1.53646 249.678 1.2793 249.567 1.08398 249.443ZM20.8398 245.615H14.0234C14.0495 246.54 14.3327 247.253 14.873 247.754C15.4199 248.255 16.1686 248.506 17.1191 248.506C18.1868 248.506 19.1667 248.187 20.0586 247.549V249.375C19.1471 249.948 17.9427 250.234 16.4453 250.234C14.974 250.234 13.8184 249.782 12.9785 248.877C12.1452 247.965 11.7285 246.686 11.7285 245.039C11.7285 243.483 12.1875 242.217 13.1055 241.24C14.0299 240.257 15.1758 239.766 16.543 239.766C17.9102 239.766 18.9681 240.205 19.7168 241.084C20.4655 241.963 20.8398 243.184 20.8398 244.746V245.615ZM18.6523 244.014C18.6458 243.2 18.4538 242.568 18.0762 242.119C17.6986 241.663 17.1777 241.436 16.5137 241.436C15.8626 241.436 15.3092 241.673 14.8535 242.148C14.4043 242.624 14.1276 243.245 14.0234 244.014H18.6523ZM30.1562 249.541C29.3555 250.003 28.4082 250.234 27.3145 250.234C25.8301 250.234 24.6322 249.772 23.7207 248.848C22.8092 247.917 22.3535 246.712 22.3535 245.234C22.3535 243.587 22.8418 242.266 23.8184 241.27C24.8014 240.267 26.1133 239.766 27.7539 239.766C28.6654 239.766 29.4694 239.925 30.166 240.244V242.354C29.4694 241.833 28.7272 241.572 27.9395 241.572C26.9824 241.572 26.1979 241.898 25.5859 242.549C24.974 243.193 24.668 244.04 24.668 245.088C24.668 246.123 24.9544 246.94 25.5273 247.539C26.1068 248.138 26.8815 248.438 27.8516 248.438C28.6654 248.438 29.4336 248.148 30.1562 247.568V249.541ZM36.8457 250.234C35.3027 250.234 34.069 249.769 33.1445 248.838C32.2266 247.9 31.7676 246.66 31.7676 245.117C31.7676 243.438 32.2461 242.126 33.2031 241.182C34.1667 240.238 35.4622 239.766 37.0898 239.766C38.6523 239.766 39.8698 240.225 40.7422 241.143C41.6146 242.061 42.0508 243.333 42.0508 244.961C42.0508 246.556 41.5788 247.835 40.6348 248.799C39.6973 249.756 38.4342 250.234 36.8457 250.234ZM36.9531 241.572C36.0677 241.572 35.3678 241.882 34.8535 242.5C34.3392 243.118 34.082 243.971 34.082 245.059C34.082 246.107 34.3424 246.934 34.8633 247.539C35.3841 248.138 36.0807 248.438 36.9531 248.438C37.8451 248.438 38.5286 248.141 39.0039 247.549C39.4857 246.956 39.7266 246.113 39.7266 245.02C39.7266 243.919 39.4857 243.07 39.0039 242.471C38.5286 241.872 37.8451 241.572 36.9531 241.572ZM53.2715 250H51.0059V244.365C51.0059 242.497 50.3451 241.562 49.0234 241.562C48.3333 241.562 47.7637 241.823 47.3145 242.344C46.8652 242.858 46.6406 243.509 46.6406 244.297V250H44.3652V240H46.6406V241.66H46.6797C47.4284 240.397 48.5091 239.766 49.9219 239.766C51.0091 239.766 51.8392 240.12 52.4121 240.83C52.985 241.533 53.2715 242.552 53.2715 243.887V250ZM65.1367 250H62.8711V248.301H62.832C62.1029 249.59 60.9798 250.234 59.4629 250.234C58.2324 250.234 57.2461 249.788 56.5039 248.896C55.7682 247.998 55.4004 246.777 55.4004 245.234C55.4004 243.581 55.8073 242.256 56.6211 241.26C57.4414 240.264 58.5319 239.766 59.8926 239.766C61.2402 239.766 62.2201 240.306 62.832 241.387H62.8711V235.195H65.1367V250ZM62.9004 245.43V244.121C62.9004 243.411 62.6693 242.809 62.207 242.314C61.7448 241.82 61.1556 241.572 60.4395 241.572C59.5931 241.572 58.9258 241.888 58.4375 242.52C57.9557 243.151 57.7148 244.027 57.7148 245.146C57.7148 246.162 57.946 246.966 58.4082 247.559C58.877 248.145 59.5052 248.438 60.293 248.438C61.0677 248.438 61.696 248.154 62.1777 247.588C62.6595 247.015 62.9004 246.296 62.9004 245.43ZM75.7715 250H73.5742V248.438H73.5352C72.8451 249.635 71.8327 250.234 70.498 250.234C69.515 250.234 68.7435 249.967 68.1836 249.434C67.6302 248.9 67.3535 248.193 67.3535 247.314C67.3535 245.426 68.4408 244.326 70.6152 244.014L73.584 243.594C73.584 242.168 72.9069 241.455 71.5527 241.455C70.3613 241.455 69.2871 241.865 68.3301 242.686V240.703C69.3848 240.078 70.6022 239.766 71.9824 239.766C74.5085 239.766 75.7715 241.009 75.7715 243.496V250ZM73.584 245.088L71.4844 245.381C70.8333 245.465 70.3418 245.625 70.0098 245.859C69.6842 246.087 69.5215 246.491 69.5215 247.07C69.5215 247.493 69.6712 247.842 69.9707 248.115C70.2767 248.382 70.6836 248.516 71.1914 248.516C71.8815 248.516 72.4512 248.275 72.9004 247.793C73.3561 247.305 73.584 246.693 73.584 245.957V245.088ZM84.3457 242.158C84.0723 241.943 83.6784 241.836 83.1641 241.836C82.4935 241.836 81.9336 242.139 81.4844 242.744C81.0352 243.35 80.8105 244.173 80.8105 245.215V250H78.5449V240H80.8105V242.061H80.8496C81.071 241.357 81.4095 240.811 81.8652 240.42C82.3275 240.023 82.8418 239.824 83.4082 239.824C83.8184 239.824 84.1309 239.886 84.3457 240.01V242.158ZM95.4102 240L90.8984 251.602C89.9609 253.672 88.6458 254.707 86.9531 254.707C86.4779 254.707 86.0807 254.665 85.7617 254.58V252.695C86.1198 252.812 86.4453 252.871 86.7383 252.871C87.5846 252.871 88.2161 252.454 88.6328 251.621L89.3066 249.98L85.332 240H87.8418L90.2246 247.266C90.2507 247.357 90.3092 247.598 90.4004 247.988H90.4492C90.4818 247.839 90.5404 247.604 90.625 247.285L93.125 240H95.4102ZM102.686 250V235.996H107.129C108.483 235.996 109.554 236.292 110.342 236.885C111.136 237.477 111.533 238.249 111.533 239.199C111.533 239.993 111.309 240.684 110.859 241.27C110.41 241.855 109.788 242.272 108.994 242.52V242.559C109.958 242.669 110.726 243.027 111.299 243.633C111.878 244.232 112.168 245.013 112.168 245.977C112.168 247.174 111.696 248.145 110.752 248.887C109.808 249.629 108.617 250 107.178 250H102.686ZM105 237.861V241.846H106.504C107.311 241.846 107.943 241.657 108.398 241.279C108.861 240.895 109.092 240.355 109.092 239.658C109.092 238.46 108.291 237.861 106.689 237.861H105ZM105 243.711V248.145H106.982C107.848 248.145 108.516 247.946 108.984 247.549C109.46 247.145 109.697 246.592 109.697 245.889C109.697 244.437 108.691 243.711 106.68 243.711H105ZM122.197 250H120V248.438H119.961C119.271 249.635 118.258 250.234 116.924 250.234C115.941 250.234 115.169 249.967 114.609 249.434C114.056 248.9 113.779 248.193 113.779 247.314C113.779 245.426 114.867 244.326 117.041 244.014L120.01 243.594C120.01 242.168 119.333 241.455 117.979 241.455C116.787 241.455 115.713 241.865 114.756 242.686V240.703C115.811 240.078 117.028 239.766 118.408 239.766C120.934 239.766 122.197 241.009 122.197 243.496V250ZM120.01 245.088L117.91 245.381C117.259 245.465 116.768 245.625 116.436 245.859C116.11 246.087 115.947 246.491 115.947 247.07C115.947 247.493 116.097 247.842 116.396 248.115C116.702 248.382 117.109 248.516 117.617 248.516C118.307 248.516 118.877 248.275 119.326 247.793C119.782 247.305 120.01 246.693 120.01 245.957V245.088ZM132.129 249.541C131.328 250.003 130.381 250.234 129.287 250.234C127.803 250.234 126.605 249.772 125.693 248.848C124.782 247.917 124.326 246.712 124.326 245.234C124.326 243.587 124.814 242.266 125.791 241.27C126.774 240.267 128.086 239.766 129.727 239.766C130.638 239.766 131.442 239.925 132.139 240.244V242.354C131.442 241.833 130.7 241.572 129.912 241.572C128.955 241.572 128.171 241.898 127.559 242.549C126.947 243.193 126.641 244.04 126.641 245.088C126.641 246.123 126.927 246.94 127.5 247.539C128.079 248.138 128.854 248.438 129.824 248.438C130.638 248.438 131.406 248.148 132.129 247.568V249.541ZM143.457 250H140.586L136.699 245.195H136.66V250H134.385V235.195H136.66V244.58H136.699L140.371 240H143.096L138.965 244.824L143.457 250ZM153.643 249.199C153.643 252.871 151.797 254.707 148.105 254.707C146.803 254.707 145.667 254.489 144.697 254.053V251.982C145.791 252.607 146.829 252.92 147.812 252.92C150.189 252.92 151.377 251.751 151.377 249.414V248.32H151.338C150.589 249.596 149.463 250.234 147.959 250.234C146.742 250.234 145.758 249.792 145.01 248.906C144.268 248.014 143.896 246.82 143.896 245.322C143.896 243.623 144.297 242.272 145.098 241.27C145.898 240.267 146.999 239.766 148.398 239.766C149.72 239.766 150.7 240.306 151.338 241.387H151.377V240H153.643V249.199ZM151.396 245.42V244.121C151.396 243.418 151.162 242.819 150.693 242.324C150.231 241.823 149.652 241.572 148.955 241.572C148.096 241.572 147.422 241.891 146.934 242.529C146.452 243.161 146.211 244.046 146.211 245.186C146.211 246.169 146.442 246.956 146.904 247.549C147.373 248.135 147.992 248.428 148.76 248.428C149.541 248.428 150.176 248.148 150.664 247.588C151.152 247.021 151.396 246.299 151.396 245.42ZM162.393 242.158C162.119 241.943 161.725 241.836 161.211 241.836C160.54 241.836 159.98 242.139 159.531 242.744C159.082 243.35 158.857 244.173 158.857 245.215V250H156.592V240H158.857V242.061H158.896C159.118 241.357 159.456 240.811 159.912 240.42C160.374 240.023 160.889 239.824 161.455 239.824C161.865 239.824 162.178 239.886 162.393 240.01V242.158ZM168.252 250.234C166.709 250.234 165.475 249.769 164.551 248.838C163.633 247.9 163.174 246.66 163.174 245.117C163.174 243.438 163.652 242.126 164.609 241.182C165.573 240.238 166.868 239.766 168.496 239.766C170.059 239.766 171.276 240.225 172.148 241.143C173.021 242.061 173.457 243.333 173.457 244.961C173.457 246.556 172.985 247.835 172.041 248.799C171.104 249.756 169.84 250.234 168.252 250.234ZM168.359 241.572C167.474 241.572 166.774 241.882 166.26 242.5C165.745 243.118 165.488 243.971 165.488 245.059C165.488 246.107 165.749 246.934 166.27 247.539C166.79 248.138 167.487 248.438 168.359 248.438C169.251 248.438 169.935 248.141 170.41 247.549C170.892 246.956 171.133 246.113 171.133 245.02C171.133 243.919 170.892 243.07 170.41 242.471C169.935 241.872 169.251 241.572 168.359 241.572ZM184.492 250H182.227V248.418H182.188C181.53 249.629 180.508 250.234 179.121 250.234C176.758 250.234 175.576 248.815 175.576 245.977V240H177.842V245.742C177.842 247.539 178.535 248.438 179.922 248.438C180.592 248.438 181.143 248.19 181.572 247.695C182.008 247.201 182.227 246.553 182.227 245.752V240H184.492V250ZM196.357 250H194.092V244.365C194.092 242.497 193.431 241.562 192.109 241.562C191.419 241.562 190.85 241.823 190.4 242.344C189.951 242.858 189.727 243.509 189.727 244.297V250H187.451V240H189.727V241.66H189.766C190.514 240.397 191.595 239.766 193.008 239.766C194.095 239.766 194.925 240.12 195.498 240.83C196.071 241.533 196.357 242.552 196.357 243.887V250ZM208.223 250H205.957V248.301H205.918C205.189 249.59 204.066 250.234 202.549 250.234C201.318 250.234 200.332 249.788 199.59 248.896C198.854 247.998 198.486 246.777 198.486 245.234C198.486 243.581 198.893 242.256 199.707 241.26C200.527 240.264 201.618 239.766 202.979 239.766C204.326 239.766 205.306 240.306 205.918 241.387H205.957V235.195H208.223V250ZM205.986 245.43V244.121C205.986 243.411 205.755 242.809 205.293 242.314C204.831 241.82 204.242 241.572 203.525 241.572C202.679 241.572 202.012 241.888 201.523 242.52C201.042 243.151 200.801 244.027 200.801 245.146C200.801 246.162 201.032 246.966 201.494 247.559C201.963 248.145 202.591 248.438 203.379 248.438C204.154 248.438 204.782 248.154 205.264 247.588C205.745 247.015 205.986 246.296 205.986 245.43ZM210.557 249.688V247.588C211.403 248.232 212.337 248.555 213.359 248.555C214.727 248.555 215.41 248.151 215.41 247.344C215.41 247.116 215.352 246.924 215.234 246.768C215.117 246.605 214.958 246.462 214.756 246.338C214.561 246.214 214.326 246.104 214.053 246.006C213.786 245.908 213.486 245.798 213.154 245.674C212.744 245.511 212.373 245.339 212.041 245.156C211.715 244.974 211.442 244.769 211.221 244.541C211.006 244.307 210.843 244.043 210.732 243.75C210.622 243.457 210.566 243.115 210.566 242.725C210.566 242.243 210.68 241.82 210.908 241.455C211.136 241.084 211.442 240.775 211.826 240.527C212.21 240.273 212.646 240.085 213.135 239.961C213.623 239.831 214.128 239.766 214.648 239.766C215.573 239.766 216.4 239.906 217.129 240.186V242.168C216.426 241.686 215.618 241.445 214.707 241.445C214.421 241.445 214.16 241.475 213.926 241.533C213.698 241.592 213.503 241.673 213.34 241.777C213.177 241.882 213.05 242.008 212.959 242.158C212.868 242.301 212.822 242.461 212.822 242.637C212.822 242.852 212.868 243.034 212.959 243.184C213.05 243.333 213.184 243.467 213.359 243.584C213.542 243.695 213.757 243.799 214.004 243.896C214.258 243.988 214.548 244.089 214.873 244.199C215.303 244.375 215.687 244.554 216.025 244.736C216.37 244.919 216.663 245.127 216.904 245.361C217.145 245.589 217.331 245.856 217.461 246.162C217.591 246.462 217.656 246.82 217.656 247.236C217.656 247.744 217.539 248.187 217.305 248.564C217.07 248.942 216.758 249.255 216.367 249.502C215.977 249.749 215.524 249.932 215.01 250.049C214.502 250.173 213.965 250.234 213.398 250.234C212.305 250.234 211.357 250.052 210.557 249.688ZM220.752 250.215C220.361 250.215 220.029 250.088 219.756 249.834C219.482 249.574 219.346 249.264 219.346 248.906C219.346 248.542 219.482 248.229 219.756 247.969C220.029 247.708 220.361 247.578 220.752 247.578C221.149 247.578 221.484 247.708 221.758 247.969C222.038 248.229 222.178 248.542 222.178 248.906C222.178 249.264 222.038 249.574 221.758 249.834C221.484 250.088 221.149 250.215 220.752 250.215ZM220.752 242.49C220.361 242.49 220.029 242.363 219.756 242.109C219.482 241.849 219.346 241.54 219.346 241.182C219.346 240.817 219.482 240.505 219.756 240.244C220.029 239.984 220.361 239.854 220.752 239.854C221.149 239.854 221.484 239.984 221.758 240.244C222.038 240.505 222.178 240.817 222.178 241.182C222.178 241.54 222.038 241.849 221.758 242.109C221.484 242.363 221.149 242.49 220.752 242.49ZM241.65 250H239.316V243.926H232.725V250H230.4V235.996H232.725V241.885H239.316V235.996H241.65V250ZM244.463 249.443V247.051C244.678 247.246 244.932 247.422 245.225 247.578C245.524 247.734 245.84 247.868 246.172 247.979C246.504 248.083 246.836 248.164 247.168 248.223C247.5 248.281 247.806 248.311 248.086 248.311C249.062 248.311 249.788 248.148 250.264 247.822C250.745 247.497 250.986 247.025 250.986 246.406C250.986 246.074 250.905 245.788 250.742 245.547C250.586 245.299 250.365 245.075 250.078 244.873C249.792 244.671 249.453 244.479 249.062 244.297C248.678 244.108 248.265 243.913 247.822 243.711C247.347 243.457 246.904 243.2 246.494 242.939C246.084 242.679 245.726 242.393 245.42 242.08C245.12 241.761 244.883 241.403 244.707 241.006C244.538 240.609 244.453 240.143 244.453 239.609C244.453 238.952 244.6 238.382 244.893 237.9C245.192 237.412 245.583 237.012 246.064 236.699C246.553 236.38 247.106 236.146 247.725 235.996C248.343 235.84 248.975 235.762 249.619 235.762C251.084 235.762 252.152 235.928 252.822 236.26V238.555C252.028 237.982 251.006 237.695 249.756 237.695C249.411 237.695 249.066 237.728 248.721 237.793C248.382 237.858 248.076 237.965 247.803 238.115C247.536 238.265 247.318 238.457 247.148 238.691C246.979 238.926 246.895 239.209 246.895 239.541C246.895 239.854 246.96 240.124 247.09 240.352C247.22 240.579 247.409 240.788 247.656 240.977C247.91 241.165 248.216 241.351 248.574 241.533C248.939 241.709 249.359 241.901 249.834 242.109C250.322 242.363 250.781 242.63 251.211 242.91C251.647 243.19 252.028 243.499 252.354 243.838C252.686 244.176 252.946 244.554 253.135 244.971C253.33 245.381 253.428 245.85 253.428 246.377C253.428 247.087 253.285 247.686 252.998 248.174C252.712 248.662 252.324 249.059 251.836 249.365C251.354 249.671 250.798 249.893 250.166 250.029C249.535 250.166 248.867 250.234 248.164 250.234C247.93 250.234 247.64 250.215 247.295 250.176C246.956 250.143 246.608 250.091 246.25 250.02C245.892 249.954 245.553 249.873 245.234 249.775C244.915 249.678 244.658 249.567 244.463 249.443ZM263.76 250H256.006V235.996H258.33V248.037H263.76V250ZM281.523 253.184H279.609C277.552 250.879 276.523 248.037 276.523 244.658C276.523 241.266 277.552 238.379 279.609 235.996H281.533C279.515 238.47 278.506 241.351 278.506 244.639C278.506 247.9 279.512 250.749 281.523 253.184ZM288.252 245.049L290.518 250H287.92L286.846 247.139L286.533 246.191H286.484C286.348 246.4 286.217 246.592 286.094 246.768C285.977 246.937 285.13 248.014 283.555 250H280.791L285.264 244.98L283.076 240H285.674L286.689 242.91C286.807 243.242 286.901 243.574 286.973 243.906H287.012C287.103 243.77 287.21 243.613 287.334 243.438C287.458 243.262 288.35 242.116 290.01 240H292.676L288.252 245.049ZM295.352 247.666L293.838 252.539H292.139L293.213 247.666H295.352ZM308.096 235.684V250H305.83V238.457C305.42 238.75 304.977 239.001 304.502 239.209C304.033 239.411 303.496 239.59 302.891 239.746V237.812C303.268 237.689 303.633 237.559 303.984 237.422C304.336 237.285 304.681 237.132 305.02 236.963C305.365 236.794 305.71 236.605 306.055 236.396C306.406 236.188 306.768 235.951 307.139 235.684H308.096ZM315.537 250.234C314.079 250.234 312.939 249.639 312.119 248.447C311.305 247.256 310.898 245.534 310.898 243.281C310.898 240.807 311.325 238.936 312.178 237.666C313.031 236.396 314.261 235.762 315.869 235.762C318.949 235.762 320.488 238.154 320.488 242.939C320.488 245.309 320.052 247.119 319.18 248.369C318.314 249.613 317.1 250.234 315.537 250.234ZM315.762 237.568C314.062 237.568 313.213 239.44 313.213 243.184C313.213 246.686 314.046 248.438 315.713 248.438C317.354 248.438 318.174 246.657 318.174 243.096C318.174 239.411 317.37 237.568 315.762 237.568ZM326.65 250.234C325.192 250.234 324.053 249.639 323.232 248.447C322.419 247.256 322.012 245.534 322.012 243.281C322.012 240.807 322.438 238.936 323.291 237.666C324.144 236.396 325.374 235.762 326.982 235.762C330.062 235.762 331.602 238.154 331.602 242.939C331.602 245.309 331.165 247.119 330.293 248.369C329.427 249.613 328.213 250.234 326.65 250.234ZM326.875 237.568C325.176 237.568 324.326 239.44 324.326 243.184C324.326 246.686 325.16 248.438 326.826 248.438C328.467 248.438 329.287 246.657 329.287 243.096C329.287 239.411 328.483 237.568 326.875 237.568ZM335.957 247.666L334.443 252.539H332.744L333.818 247.666H335.957ZM352.441 250H343.652V248.916C343.652 248.473 343.714 248.06 343.838 247.676C343.962 247.285 344.128 246.921 344.336 246.582C344.544 246.237 344.788 245.915 345.068 245.615C345.348 245.309 345.648 245.016 345.967 244.736C346.286 244.45 346.611 244.176 346.943 243.916C347.275 243.649 347.601 243.382 347.92 243.115C348.219 242.861 348.493 242.614 348.74 242.373C348.988 242.126 349.199 241.872 349.375 241.611C349.551 241.351 349.688 241.077 349.785 240.791C349.883 240.498 349.932 240.182 349.932 239.844C349.932 239.473 349.873 239.15 349.756 238.877C349.645 238.597 349.486 238.366 349.277 238.184C349.076 237.995 348.835 237.855 348.555 237.764C348.275 237.666 347.969 237.617 347.637 237.617C347.064 237.617 346.481 237.751 345.889 238.018C345.296 238.285 344.727 238.685 344.18 239.219V237.041C344.466 236.826 344.756 236.641 345.049 236.484C345.342 236.322 345.645 236.188 345.957 236.084C346.27 235.973 346.598 235.892 346.943 235.84C347.288 235.788 347.656 235.762 348.047 235.762C348.678 235.762 349.251 235.846 349.766 236.016C350.28 236.178 350.719 236.423 351.084 236.748C351.449 237.067 351.729 237.467 351.924 237.949C352.126 238.431 352.227 238.984 352.227 239.609C352.227 240.176 352.155 240.687 352.012 241.143C351.875 241.592 351.676 242.012 351.416 242.402C351.162 242.793 350.853 243.164 350.488 243.516C350.124 243.867 349.717 244.229 349.268 244.6C348.89 244.906 348.512 245.205 348.135 245.498C347.764 245.785 347.428 246.068 347.129 246.348C346.829 246.621 346.585 246.898 346.396 247.178C346.214 247.451 346.123 247.728 346.123 248.008V248.057H352.441V250ZM363.555 250H354.766V248.916C354.766 248.473 354.827 248.06 354.951 247.676C355.075 247.285 355.241 246.921 355.449 246.582C355.658 246.237 355.902 245.915 356.182 245.615C356.462 245.309 356.761 245.016 357.08 244.736C357.399 244.45 357.725 244.176 358.057 243.916C358.389 243.649 358.714 243.382 359.033 243.115C359.333 242.861 359.606 242.614 359.854 242.373C360.101 242.126 360.312 241.872 360.488 241.611C360.664 241.351 360.801 241.077 360.898 240.791C360.996 240.498 361.045 240.182 361.045 239.844C361.045 239.473 360.986 239.15 360.869 238.877C360.758 238.597 360.599 238.366 360.391 238.184C360.189 237.995 359.948 237.855 359.668 237.764C359.388 237.666 359.082 237.617 358.75 237.617C358.177 237.617 357.594 237.751 357.002 238.018C356.41 238.285 355.84 238.685 355.293 239.219V237.041C355.579 236.826 355.869 236.641 356.162 236.484C356.455 236.322 356.758 236.188 357.07 236.084C357.383 235.973 357.712 235.892 358.057 235.84C358.402 235.788 358.77 235.762 359.16 235.762C359.792 235.762 360.365 235.846 360.879 236.016C361.393 236.178 361.833 236.423 362.197 236.748C362.562 237.067 362.842 237.467 363.037 237.949C363.239 238.431 363.34 238.984 363.34 239.609C363.34 240.176 363.268 240.687 363.125 241.143C362.988 241.592 362.79 242.012 362.529 242.402C362.275 242.793 361.966 243.164 361.602 243.516C361.237 243.867 360.83 244.229 360.381 244.6C360.003 244.906 359.626 245.205 359.248 245.498C358.877 245.785 358.542 246.068 358.242 246.348C357.943 246.621 357.699 246.898 357.51 247.178C357.327 247.451 357.236 247.728 357.236 248.008V248.057H363.555V250ZM367.041 253.184H365.127C367.145 250.749 368.154 247.9 368.154 244.639C368.154 241.351 367.142 238.47 365.117 235.996H367.051C369.115 238.379 370.146 241.266 370.146 244.658C370.146 248.037 369.111 250.879 367.041 253.184Z" fill="#3178C6"/>
</svg>
