<svg width="384" height="215" viewBox="0 0 384 215" fill="none" xmlns="http://www.w3.org/2000/svg">
<path fill-rule="evenodd" clip-rule="evenodd" d="M234.233 73.3936V69.8277C237.488 71.8894 240.786 72.9203 244.126 72.9203C247.677 72.9203 250.372 72.1892 252.211 70.7271C254.05 69.265 254.969 67.219 254.969 64.5893C254.969 62.2751 254.351 60.4291 253.114 59.0511C251.922 57.7223 249.388 55.9289 245.513 53.671L245.077 53.4182C240.469 50.7463 237.552 48.5111 236.326 46.7123C235.1 44.9136 234.487 42.8361 234.487 40.4799C234.487 37.2821 235.734 34.5682 238.228 32.3382C240.722 30.1082 244.052 28.9932 248.216 28.9932C250.921 28.9932 253.627 29.4455 256.333 30.3501V33.632C253.669 32.4329 250.826 31.8333 247.803 31.8333C244.717 31.8333 242.271 32.6117 240.463 34.1685C238.656 35.7253 237.753 37.7028 237.753 40.1012C237.753 42.4154 238.371 44.2562 239.607 45.6236C240.844 46.9911 243.513 48.8529 247.613 51.2092C251.862 53.6075 254.689 55.7376 256.095 57.5994C257.5 59.4613 258.203 61.6019 258.203 64.0213C258.203 67.4925 256.993 70.3221 254.573 72.5101C252.153 74.698 248.734 75.792 244.316 75.792C242.752 75.792 240.95 75.55 238.91 75.0662C236.87 74.5823 235.311 74.0248 234.233 73.3936ZM121.546 36.1322H134.548V29.7543H101.066V36.1322H114.036V75.0312H121.546V36.1322ZM146.533 80.2074L161.181 42.6902H153.762L145.645 66.249C145.453 66.9711 145.302 67.5591 145.192 68.0131L145.074 68.5228H144.916C144.747 67.8009 144.612 67.2372 144.512 66.8316L144.345 66.1858L136.609 42.6902H128.46L141.365 74.9651L139.177 80.2706C137.824 82.9655 135.774 84.3129 133.026 84.3129C132.075 84.3129 131.018 84.1234 129.855 83.7444V89.8394C130.891 90.1131 132.18 90.2499 133.723 90.2499C139.219 90.2499 143.489 86.9025 146.533 80.2074ZM173.222 70.2391H173.096V89.8697H165.747V42.6869H173.096V48.3678H173.222C175.735 44.0756 179.409 41.9295 184.245 41.9295C188.363 41.9295 191.572 43.3707 193.874 46.2532C196.176 49.1358 197.327 53.0071 197.327 57.8675C197.327 63.2538 196.028 67.567 193.431 70.8072C190.833 74.0474 187.286 75.6675 182.788 75.6675C178.649 75.6675 175.461 73.8581 173.222 70.2391ZM172.976 61.6723V57.6856C172.976 54.9232 173.772 52.6213 175.365 50.7797C176.958 48.9381 179.063 48.0173 181.679 48.0173C184.147 48.0173 186.104 48.9119 187.549 50.7012C188.994 52.4905 189.717 54.9651 189.717 58.1251C189.717 61.892 188.942 64.827 187.391 66.9302C185.84 69.0334 183.704 70.085 180.983 70.085C178.662 70.085 176.747 69.2688 175.239 67.6365C173.73 66.0042 172.976 64.0161 172.976 61.6723ZM230.428 60.8508H208.511C208.594 63.8412 209.51 66.1471 211.258 67.7686C213.006 69.3901 215.408 70.2009 218.465 70.2009C221.898 70.2009 225.048 69.169 227.916 67.1053V73.0123C224.985 74.8654 221.113 75.792 216.298 75.792C211.567 75.792 207.856 74.3232 205.166 71.3855C202.476 68.4477 201.131 64.315 201.131 58.9871C201.131 53.954 202.612 49.8529 205.575 46.6835C208.537 43.5141 212.216 41.9295 216.612 41.9295C221.008 41.9295 224.41 43.3509 226.817 46.1939C229.225 49.0368 230.428 52.9853 230.428 58.0394V60.8508ZM221.733 49.4597C222.943 50.9288 223.559 52.9844 223.58 55.6266H208.741C209.075 53.1324 209.967 51.1138 211.418 49.5707C212.868 48.0276 214.637 47.2561 216.724 47.2561C218.853 47.2561 220.522 47.9907 221.733 49.4597ZM276.811 75.792C280.164 75.792 283.051 75.0563 285.47 73.585V70.5581C283.051 72.2818 280.207 73.1435 276.938 73.1435C273.373 73.1435 270.503 71.8719 268.327 69.3285C266.152 66.7851 265.064 63.422 265.064 59.2391C265.064 54.909 266.253 51.383 268.63 48.661C271.007 45.9389 274.105 44.5779 277.925 44.5779C280.706 44.5779 283.263 45.2926 285.598 46.7219V43.4429C283.263 42.4339 280.854 41.9295 278.371 41.9295C273.575 41.9295 269.648 43.5637 266.592 46.8323C263.536 50.1008 262.008 54.2995 262.008 59.4283C262.008 64.3048 263.366 68.2512 266.083 71.2676C268.799 74.2839 272.375 75.792 276.811 75.792ZM304.621 45.6074C303.655 44.9099 302.521 44.5611 301.218 44.5611C298.677 44.5611 296.545 45.8822 294.822 48.5244C293.099 51.1666 292.238 54.9185 292.238 59.7802V75.0311H289.402V42.5636H292.238V49.761H292.364C293.099 47.2879 294.265 45.3643 295.862 43.9904C297.458 42.6164 299.307 41.9295 301.407 41.9295C302.605 41.9295 303.676 42.1197 304.621 42.5002V45.6074ZM309.165 33.9846C309.657 34.4619 310.225 34.7005 310.867 34.7005C311.552 34.7005 312.141 34.451 312.634 33.9521C313.126 33.4531 313.372 32.8565 313.372 32.1623C313.372 31.4247 313.121 30.839 312.618 30.4051C312.114 29.9712 311.531 29.7543 310.867 29.7543C310.246 29.7543 309.684 29.9767 309.181 30.4214C308.678 30.8661 308.426 31.4464 308.426 32.1623C308.426 32.8999 308.672 33.5073 309.165 33.9846ZM309.187 75.0308V42.6902H312.231V75.0308H309.187ZM321.98 69.2743H322.106C324.418 73.6268 327.992 75.803 332.826 75.803C337.156 75.803 340.64 74.1367 343.278 70.804C345.916 67.4713 347.235 63.1031 347.235 57.6993C347.235 52.8422 346.084 48.9996 343.783 46.1715C341.481 43.3435 338.281 41.9295 334.182 41.9295C331.597 41.9295 329.227 42.576 327.072 43.8692C324.918 45.1623 323.262 46.9968 322.106 49.3728H321.98V42.718H319.08V89.8697H321.98V69.2743ZM322.123 57.2544V61.3175C322.123 64.5511 323.153 67.328 325.212 69.6483C327.271 71.9685 329.978 73.1287 333.332 73.1287C336.664 73.1287 339.371 71.7166 341.451 68.8924C343.532 66.0682 344.572 62.3569 344.572 57.7583C344.572 53.7268 343.616 50.5247 341.706 48.1519C339.795 45.7792 337.248 44.5928 334.064 44.5928C330.264 44.5928 327.324 45.8526 325.244 48.3724C323.164 50.8921 322.123 53.8528 322.123 57.2544ZM361.265 75.7918C362.582 75.7918 363.993 75.4348 365.498 74.721V72.0125C364.118 72.7894 362.832 73.1778 361.641 73.1778C359.968 73.1778 358.782 72.6791 358.082 71.6818C357.381 70.6845 357.031 69.0731 357.031 66.8475V45.5578H365.498V42.9123H357.031V33.5587C356.571 33.7267 356.091 33.8841 355.589 34.0311C355.087 34.1991 354.606 34.367 354.146 34.535V42.9123H348.376V45.5578H354.146V67.2255C354.146 72.9364 356.519 75.7918 361.265 75.7918Z" fill="#3178C6"/>
<rect x="1" y="1" width="382" height="95" rx="10" stroke="#3178C6" stroke-width="2"/>
<rect x="1" y="120" width="382" height="95" rx="10" fill="#3178C6"/>
<path fill-rule="evenodd" clip-rule="evenodd" d="M234.233 191.723V188.157C237.488 190.219 240.786 191.249 244.126 191.249C247.677 191.249 250.372 190.518 252.211 189.056C254.05 187.594 254.969 185.548 254.969 182.918C254.969 180.604 254.351 178.758 253.114 177.38C251.922 176.051 249.388 174.258 245.513 172L245.077 171.747C240.469 169.075 237.552 166.84 236.326 165.041C235.1 163.243 234.487 161.165 234.487 158.809C234.487 155.611 235.734 152.897 238.228 150.667C240.722 148.437 244.052 147.322 248.216 147.322C250.921 147.322 253.627 147.775 256.333 148.679V151.961C253.669 150.762 250.826 150.162 247.803 150.162C244.717 150.162 242.271 150.941 240.463 152.498C238.656 154.054 237.753 156.032 237.753 158.43C237.753 160.744 238.371 162.585 239.607 163.953C240.844 165.32 243.513 167.182 247.613 169.538C251.862 171.937 254.689 174.067 256.095 175.929C257.5 177.79 258.203 179.931 258.203 182.35C258.203 185.822 256.993 188.651 254.573 190.839C252.153 193.027 248.734 194.121 244.316 194.121C242.752 194.121 240.95 193.879 238.91 193.395C236.87 192.911 235.311 192.354 234.233 191.723ZM121.546 154.461H134.548V148.083H101.066V154.461H114.036V193.36H121.546V154.461ZM146.533 198.537L161.181 161.019H153.762L145.645 184.578C145.453 185.3 145.302 185.888 145.192 186.342L145.074 186.852H144.916C144.747 186.13 144.612 185.566 144.512 185.161L144.345 184.515L136.609 161.019H128.46L141.365 193.294L139.177 198.6C137.824 201.295 135.774 202.642 133.026 202.642C132.075 202.642 131.018 202.452 129.855 202.074V208.168C130.891 208.442 132.18 208.579 133.723 208.579C139.219 208.579 143.489 205.232 146.533 198.537ZM173.222 188.568H173.096V208.199H165.747V161.016H173.096V166.697H173.222C175.735 162.405 179.409 160.259 184.245 160.259C188.363 160.259 191.572 161.7 193.874 164.582C196.176 167.465 197.327 171.336 197.327 176.197C197.327 181.583 196.028 185.896 193.431 189.136C190.833 192.377 187.286 193.997 182.788 193.997C178.649 193.997 175.461 192.187 173.222 188.568ZM172.976 180.001V176.015C172.976 173.252 173.772 170.95 175.365 169.109C176.958 167.267 179.063 166.346 181.679 166.346C184.147 166.346 186.104 167.241 187.549 169.03C188.994 170.82 189.717 173.294 189.717 176.454C189.717 180.221 188.942 183.156 187.391 185.259C185.84 187.363 183.704 188.414 180.983 188.414C178.662 188.414 176.747 187.598 175.239 185.966C173.73 184.333 172.976 182.345 172.976 180.001ZM230.428 179.18H208.511C208.594 182.17 209.51 184.476 211.258 186.098C213.006 187.719 215.408 188.53 218.465 188.53C221.898 188.53 225.048 187.498 227.916 185.434V191.341C224.985 193.195 221.113 194.121 216.298 194.121C211.567 194.121 207.856 192.652 205.166 189.715C202.476 186.777 201.131 182.644 201.131 177.316C201.131 172.283 202.612 168.182 205.575 165.013C208.537 161.843 212.216 160.259 216.612 160.259C221.008 160.259 224.41 161.68 226.817 164.523C229.225 167.366 230.428 171.314 230.428 176.369V179.18ZM221.733 167.789C222.943 169.258 223.559 171.314 223.58 173.956H208.741C209.075 171.461 209.967 169.443 211.418 167.9C212.868 166.357 214.637 165.585 216.724 165.585C218.853 165.585 220.522 166.32 221.733 167.789ZM276.811 194.121C280.164 194.121 283.051 193.385 285.47 191.914V188.887C283.051 190.611 280.207 191.473 276.938 191.473C273.373 191.473 270.503 190.201 268.327 187.658C266.152 185.114 265.064 181.751 265.064 177.568C265.064 173.238 266.253 169.712 268.63 166.99C271.007 164.268 274.105 162.907 277.925 162.907C280.706 162.907 283.263 163.622 285.598 165.051V161.772C283.263 160.763 280.854 160.259 278.371 160.259C273.575 160.259 269.648 161.893 266.592 165.161C263.536 168.43 262.008 172.629 262.008 177.757C262.008 182.634 263.366 186.58 266.083 189.597C268.799 192.613 272.375 194.121 276.811 194.121ZM304.621 163.937C303.655 163.239 302.521 162.89 301.218 162.89C298.677 162.89 296.545 164.211 294.822 166.854C293.099 169.496 292.238 173.248 292.238 178.109V193.36H289.402V160.893H292.238V168.09H292.364C293.099 165.617 294.265 163.693 295.862 162.319C297.458 160.946 299.307 160.259 301.407 160.259C302.605 160.259 303.676 160.449 304.621 160.829V163.937ZM309.165 152.314C309.657 152.791 310.225 153.03 310.867 153.03C311.552 153.03 312.141 152.78 312.634 152.281C313.126 151.782 313.372 151.186 313.372 150.491C313.372 149.754 313.121 149.168 312.618 148.734C312.114 148.3 311.531 148.083 310.867 148.083C310.246 148.083 309.684 148.306 309.181 148.75C308.678 149.195 308.426 149.776 308.426 150.491C308.426 151.229 308.672 151.836 309.165 152.314ZM309.187 193.36V161.019H312.231V193.36H309.187ZM321.98 187.603H322.106C324.418 191.956 327.992 194.132 332.826 194.132C337.156 194.132 340.64 192.466 343.278 189.133C345.916 185.8 347.235 181.432 347.235 176.028C347.235 171.171 346.084 167.329 343.783 164.501C341.481 161.673 338.281 160.259 334.182 160.259C331.597 160.259 329.227 160.905 327.072 162.198C324.918 163.491 323.262 165.326 322.106 167.702H321.98V161.047H319.08V208.199H321.98V187.603ZM322.123 175.584V179.647C322.123 182.88 323.153 185.657 325.212 187.977C327.271 190.298 329.978 191.458 333.332 191.458C336.664 191.458 339.371 190.046 341.451 187.221C343.532 184.397 344.572 180.686 344.572 176.087C344.572 172.056 343.616 168.854 341.706 166.481C339.795 164.108 337.248 162.922 334.064 162.922C330.264 162.922 327.324 164.182 325.244 166.701C323.164 169.221 322.123 172.182 322.123 175.584ZM361.265 194.121C362.582 194.121 363.993 193.764 365.498 193.05V190.342C364.118 191.118 362.832 191.507 361.641 191.507C359.968 191.507 358.782 191.008 358.082 190.011C357.381 189.014 357.031 187.402 357.031 185.177V163.887H365.498V161.241H357.031V151.888C356.571 152.056 356.091 152.213 355.589 152.36C355.087 152.528 354.606 152.696 354.146 152.864V161.241H348.376V163.887H354.146V185.555C354.146 191.265 356.519 194.121 361.265 194.121Z" fill="white"/>
</svg>
