<svg width="336" height="158" viewBox="0 0 336 158" fill="none" xmlns="http://www.w3.org/2000/svg">
<rect width="168" height="158" fill="#3178C6"/>
<rect x="168" width="168" height="158" fill="white"/>
<path fill-rule="evenodd" clip-rule="evenodd" d="M26 15C22.6863 15 20 17.6863 20 21V137C20 140.314 22.6863 143 26 143H142C145.314 143 148 140.314 148 137V21C148 17.6863 145.314 15 142 15H26ZM94.2622 128.494V114.468C96.7968 116.601 99.5498 118.201 102.521 119.267C105.493 120.334 108.494 120.867 111.523 120.867C113.3 120.867 114.852 120.706 116.177 120.385C117.503 120.064 118.61 119.618 119.498 119.048C120.387 118.478 121.05 117.806 121.487 117.032C121.924 116.258 122.142 115.418 122.142 114.512C122.142 113.285 121.793 112.189 121.093 111.225C120.394 110.26 119.44 109.369 118.231 108.551C117.022 107.733 115.587 106.944 113.927 106.184C112.266 105.424 110.475 104.65 108.552 103.861C103.657 101.816 100.009 99.3174 97.6052 96.3661C95.2017 93.4149 94 89.8501 94 85.6716C94 82.3989 94.6555 79.5865 95.9665 77.2343C97.2775 74.8821 99.0618 72.9463 101.32 71.4268C103.577 69.9074 106.192 68.7897 109.164 68.0738C112.135 67.3579 115.281 67 118.603 67C121.866 67 124.757 67.1972 127.277 67.5917C129.797 67.9862 132.12 68.5925 134.247 69.4107V82.5158C133.198 81.7853 132.055 81.1425 130.817 80.5873C129.578 80.0321 128.304 79.5719 126.993 79.2067C125.682 78.8414 124.378 78.5711 123.082 78.3958C121.785 78.2205 120.555 78.1328 119.389 78.1328C117.787 78.1328 116.33 78.2862 115.019 78.5931C113.708 78.8999 112.601 79.3309 111.698 79.886C110.795 80.4412 110.096 81.106 109.601 81.8803C109.105 82.6546 108.858 83.5239 108.858 84.4882C108.858 85.5401 109.134 86.4825 109.688 87.3152C110.242 88.148 111.028 88.937 112.048 89.6821C113.067 90.4272 114.306 91.1577 115.762 91.8736C117.219 92.5895 118.865 93.3273 120.7 94.087C123.206 95.1389 125.456 96.2566 127.452 97.44C129.447 98.6234 131.159 99.9602 132.586 101.45C134.014 102.941 135.106 104.643 135.864 106.557C136.621 108.471 137 110.699 137 113.241C137 116.747 136.337 119.691 135.012 122.072C133.686 124.454 131.887 126.382 129.615 127.858C127.342 129.334 124.699 130.393 121.683 131.036C118.668 131.679 115.485 132 112.135 132C108.697 132 105.427 131.708 102.325 131.123C99.222 130.539 96.5346 129.662 94.2622 128.494ZM89 79.5544H70.7026V131H56.2079V79.5544H38V68H89V79.5544Z" fill="white"/>
<path fill-rule="evenodd" clip-rule="evenodd" d="M194 15C190.686 15 188 17.6863 188 21V137C188 140.314 190.686 143 194 143H310C313.314 143 316 140.314 316 137V21C316 17.6863 313.314 15 310 15H194ZM262.262 128.494V114.468C264.797 116.601 267.55 118.201 270.521 119.267C273.493 120.334 276.494 120.867 279.523 120.867C281.3 120.867 282.852 120.706 284.177 120.385C285.503 120.064 286.61 119.618 287.498 119.048C288.387 118.478 289.05 117.806 289.487 117.032C289.924 116.258 290.142 115.418 290.142 114.512C290.142 113.285 289.793 112.189 289.093 111.225C288.394 110.26 287.44 109.369 286.231 108.551C285.022 107.733 283.587 106.944 281.927 106.184C280.266 105.424 278.475 104.65 276.552 103.861C271.657 101.816 268.009 99.3174 265.605 96.3661C263.202 93.4149 262 89.8501 262 85.6716C262 82.3989 262.655 79.5865 263.966 77.2343C265.277 74.8821 267.062 72.9463 269.32 71.4268C271.577 69.9074 274.192 68.7897 277.164 68.0738C280.135 67.3579 283.281 67 286.603 67C289.866 67 292.757 67.1972 295.277 67.5917C297.797 67.9862 300.12 68.5925 302.247 69.4107V82.5158C301.198 81.7853 300.055 81.1425 298.817 80.5873C297.578 80.0321 296.304 79.5719 294.993 79.2067C293.682 78.8414 292.378 78.5711 291.082 78.3958C289.785 78.2205 288.555 78.1328 287.389 78.1328C285.787 78.1328 284.33 78.2862 283.019 78.5931C281.708 78.8999 280.601 79.3309 279.698 79.886C278.795 80.4412 278.096 81.106 277.601 81.8803C277.105 82.6546 276.858 83.5239 276.858 84.4882C276.858 85.5401 277.134 86.4825 277.688 87.3152C278.242 88.148 279.028 88.937 280.048 89.6821C281.067 90.4272 282.306 91.1577 283.762 91.8736C285.219 92.5895 286.865 93.3273 288.7 94.087C291.206 95.1389 293.456 96.2566 295.452 97.44C297.447 98.6234 299.159 99.9602 300.586 101.45C302.014 102.941 303.106 104.643 303.864 106.557C304.621 108.471 305 110.699 305 113.241C305 116.747 304.337 119.691 303.012 122.072C301.686 124.454 299.887 126.382 297.615 127.858C295.342 129.334 292.699 130.393 289.683 131.036C286.668 131.679 283.485 132 280.135 132C276.697 132 273.427 131.708 270.325 131.123C267.222 130.539 264.535 129.662 262.262 128.494ZM257 79.5544H238.703V131H224.208V79.5544H206V68H257V79.5544Z" fill="black"/>
</svg>
