<?xml version="1.0" encoding="utf-8"?>
<!-- Generator: Adobe Illustrator 16.0.0, SVG Export Plug-In . SVG Version: 6.00 Build 0)  -->
<!DOCTYPE svg PUBLIC "-//W3C//DTD SVG 1.1//EN" "http://www.w3.org/Graphics/SVG/1.1/DTD/svg11.dtd">
<svg version="1.1" id="Layer_1" xmlns="http://www.w3.org/2000/svg" xmlns:xlink="http://www.w3.org/1999/xlink" x="0px" y="0px"
	 width="320.681px" height="65.555px" viewBox="0 0 320.681 65.555" enable-background="new 0 0 320.681 65.555"
	 xml:space="preserve">
<g>
	<g>
		<g>
			<g>
				<path fill="#FEBC11" d="M84.138,0.009l-2.744,2.913l27.989,29.891L81.264,62.619l2.711,2.93l30.881-32.736L84.138,0.009z
					 M57.411,0.009l-2.734,2.904l27.981,29.905L54.54,62.619l2.711,2.936l30.881-32.736L57.411,0.009z M70.786,0.009l-2.753,2.916
					l27.988,29.894L67.898,62.622l2.708,2.933l30.887-32.736L70.786,0.009z M43.392,0L22.215,22.536
					c1.083,0.28,2.101,0.762,3.002,1.423L43.174,5.068l26.12,27.75L43.005,60.376L25.024,41.029c-0.97,0.663-2.065,1.14-3.229,1.368
					l21.436,23.151l30.887-32.736L43.392,0z"/>
				<g>
					<path fill="#004B85" d="M42.535,24.572c4.125,0,7.46,3.521,7.46,7.862c0,4.333-3.345,7.839-7.46,7.839
						c-4.125,0-7.466-3.506-7.458-7.839C35.069,28.093,38.41,24.572,42.535,24.572z"/>
					<path fill="#004B85" d="M20.12,26.693c2.875,0.006,5.211,2.565,5.211,5.741c0,3.154-2.336,5.717-5.211,5.717
						c-2.883,0-5.22-2.56-5.22-5.724C14.9,29.259,17.236,26.699,20.12,26.693z"/>
					<g>
						<path fill="#004B85" d="M3.595,28.643C1.615,28.64,0,30.334,0,32.428c0,2.084,1.615,3.774,3.595,3.771
							c1.985,0,3.595-1.682,3.589-3.771C7.19,30.34,5.58,28.643,3.595,28.643z"/>
					</g>
				</g>
			</g>
		</g>
	</g>
	<g>
		<g>
			<g>
				<path fill="#004B85" d="M127.634,42.979h7.427c4.822,0,6.812,1.675,6.812,4.915c0,1.783-0.888,4.664-6.262,4.664h-4.548v5.721
					h-3.429V42.979z M131.062,50.059h3.999c1.819,0,3.258-0.533,3.258-2.184c0-2.076-1.905-2.395-3.872-2.395h-3.385V50.059z"/>
				<path fill="#004B85" d="M148.432,42.979h3.427v9.347c0,2.543,1.63,3.98,4.254,3.98c2.539,0,4.23-1.245,4.23-4.064v-9.263h3.428
					v9.196c0,3.498-1.46,6.508-8.187,6.508c-3.704,0-7.153-1.887-7.153-5.895V42.979z"/>
				<path fill="#004B85" d="M171.474,42.979h8.991c3.006,0,5.672,0.741,5.672,3.897c0,1.932-1.778,3.139-3.767,3.266v0.146
					c1.988,0.171,4.55,0.977,4.55,3.877c0,1.678-1.187,4.113-6.115,4.113h-9.331V42.979z M174.902,49.21h4.887
					c1.672,0,2.666-0.509,2.666-1.862c0-1.655-1.543-1.994-3.321-1.994h-4.231V49.21z M174.902,55.904h4.738
					c2.095,0,3.598-0.57,3.598-2.137c0-1.762-1.84-2.187-3.364-2.187h-4.971V55.904z"/>
				<path fill="#004B85" d="M194.345,42.979h3.429v12.8h8.398v2.5h-11.827V42.979z"/>
				<path fill="#004B85" d="M212.309,42.979h3.426v15.3h-3.426V42.979z"/>
				<path fill="#004B85" d="M225.912,53.49c0.19,1.826,1.522,2.924,4.229,2.924c2.837,0,3.875-1.229,3.875-2.332
					c0-1.1-0.784-1.609-2.477-1.84l-3.152-0.425c-4.04-0.552-5.373-2.269-5.373-4.282c0-3.537,3.301-4.959,6.854-4.959
					c4.464,0,6.879,1.885,6.983,4.979h-3.425c-0.133-1.99-1.506-2.707-3.874-2.707c-1.42,0-2.986,0.697-2.986,2.094
					c0,1.188,0.868,1.674,2.226,1.867l4.379,0.613c3.639,0.509,4.398,2.65,4.398,4.238c0,3.156-2.708,5.023-7.889,5.023
					c-4.424,0-7.196-1.906-7.196-5.193H225.912z"/>
				<path fill="#004B85" d="M245.209,42.979h3.43v6.23h8.314v-6.23h3.426v15.3h-3.426v-6.566h-8.314v6.566h-3.43V42.979z"/>
				<path fill="#004B85" d="M268.72,42.979h3.426v15.3h-3.426V42.979z"/>
				<path fill="#004B85" d="M280.12,42.979h4.822l8.654,11.742h0.045V42.979h3.088v15.3h-4.613l-8.863-11.951h-0.045v11.951h-3.088
					V42.979z"/>
				<path fill="#004B85" d="M317.124,47.918c-0.105-2.141-2.303-2.966-4-2.966c-3.215,0-6.197,1.631-6.197,5.612
					c0,2.841,1.523,5.619,6.219,5.619c1.336,0,2.498-0.17,4.191-0.699v-2.926h-4.889v-2.374h8.232v7.141
					c-2.18,0.934-5.523,1.358-7.746,1.358c-5.691,0-9.561-2.547-9.561-8.098c0-4.576,3.236-8.01,9.244-8.01
					c4.611,0,8.062,1.762,8.062,5.342H317.124z"/>
			</g>
		</g>
		<g>
			<path fill="#004B85" d="M147.072,16.54c-0.363-3.671-4.1-4.689-8.347-4.689c-3.738,0-6.895,1.853-6.895,4.764
				c0,1.416,0.871,2.871,4.1,3.412l9.764,1.675c4.245,0.728,6.205,3.162,6.205,6.396c0,5.233-4.681,8.395-12.447,8.395
				c-7.44,0-11.759-2.76-12.23-8.542h3.993c0.109,3.527,3.483,5.564,8.454,5.564c5.445,0,8.457-2.144,8.457-5.015
				c0-7.271-20.068-0.692-20.068-11.67c0-5.051,4.281-7.958,11.431-7.958c5.445,0,11.214,1.634,11.578,7.668H147.072z"/>
			<path fill="#004B85" d="M164.055,9.56h3.775v26.241h-3.775V9.56z"/>
			<path fill="#004B85" d="M181.22,9.56h3.775v23.263h15.098v2.978H181.22V9.56z"/>
			<path fill="#004B85" d="M208.584,9.56h3.775v26.241h-3.775V9.56z"/>
			<path fill="#004B85" d="M248.247,28.5c-0.832,5.776-6.279,7.994-12.7,7.994c-9.362,0-13.681-6.579-13.681-13.809
				c0-6.253,3.737-13.813,14.73-13.813c6.207,0,10.964,3.126,11.291,7.596h-4.209c-0.656-3.416-3.74-4.617-7.369-4.617
				c-5.99,0-10.451,3.452-10.451,10.834c0,7.375,4.461,10.83,10.451,10.83c3.59,0,7.074-1.602,7.728-5.015H248.247z"/>
			<path fill="#004B85" d="M270.749,8.872c10.996,0,14.732,7.56,14.732,13.813c0,6.251-3.736,13.809-14.732,13.809
				s-14.735-7.557-14.735-13.809C256.014,16.432,259.753,8.872,270.749,8.872z M270.749,33.515c6.35,0,10.742-4.363,10.742-10.83
				c0-6.472-4.393-10.834-10.742-10.834s-10.742,4.362-10.742,10.834C260.007,29.152,264.399,33.515,270.749,33.515z"/>
			<path fill="#004B85" d="M315.675,9.56h3.773v26.241h-5.154l-16.037-22.384h-0.074v22.384h-3.775V9.56h5.154l16.041,22.391h0.072
				V9.56z"/>
		</g>
	</g>
</g>
</svg>
