<?xml version="1.0" encoding="UTF-8" standalone="no"?>
<svg
   xmlns:dc="http://purl.org/dc/elements/1.1/"
   xmlns:cc="http://creativecommons.org/ns#"
   xmlns:rdf="http://www.w3.org/1999/02/22-rdf-syntax-ns#"
   xmlns:svg="http://www.w3.org/2000/svg"
   xmlns="http://www.w3.org/2000/svg"
   version="1.1"
   width="131"
   height="120">
  <path
     d="M 103.96875,29.43727 C 106.08143,18.684552 104.89996,10.523975 99.90625,7.2810201 98.241679,6.2000351 96.24602,5.7270015 94,5.8122701 81.871494,6.2727205 62.301679,22.972344 46.3125,47.59352 27.362362,76.774173 20.627996,106.01897 31.28125,112.93727 c 5.056946,3.28402 13.115147,0.95604 22.21875,-5.53125"
     style="fill:none;stroke:#66595c;stroke-width:5;stroke-linecap:round" />
  <path
     d="m 113.6875,77.15602 c 8.99437,-3.489189 14.52504,-8.265012 14.8125,-13.75 0.6648,-12.685141 -26.94124,-24.429026 -61.6875,-26.25 -3.257461,-0.170716 -6.460588,-0.260544 -9.59375,-0.25 -30.287234,0.101927 -53.9287749,8.410341 -54.53125,19.90625 -0.286892,5.474225 4.7004836,10.782383 13.25,15.1875"
     style="fill:none;stroke:#66595c;stroke-width:5;stroke-linecap:round" />
  <path
     d="M 57,10.53102 C 50.846125,5.4251295 45.074552,2.683237 40.4375,3.0310201 39.20289,3.123617 38.061068,3.4278792 37,3.9685201 25.681946,9.7353567 29.297632,39.560643 45.09375,70.56227 c 15.796118,31.00163 37.775696,51.45434 49.09375,45.6875 10.8844,-5.54588 7.94666,-33.337754 -6.34375,-63.03125"
     style="fill:none;stroke:#66595c;stroke-width:5;stroke-linecap:round" />
  <path
     d="m 73.5,61 a 7.5,7.5 0 0 1 -15,0 7.5,7.5 0 1 1 15,0 z"
     style="fill:#66595c" />
</svg>