<?xml version="1.0" encoding="utf-8"?>
<!-- Generator: Adobe Illustrator 19.1.1, SVG Export Plug-In . SVG Version: 6.00 Build 0)  -->
<svg version="1.1" id="Layer_1" xmlns="http://www.w3.org/2000/svg" xmlns:xlink="http://www.w3.org/1999/xlink" x="0px" y="0px"
	 viewBox="71.1 327.7 109.2 102.2" style="enable-background:new 71.1 327.7 109.2 102.2;" xml:space="preserve">
<style type="text/css">
	.st0{fill:#2C2255;}
	.st1{fill:#F7941E;}
	.st2{fill:url(#SVGID_1_);}
	.st3{fill:url(#SVGID_2_);}
	.st4{fill:url(#SVGID_3_);}
	.st5{fill:#FFFFFF;}
</style>
<path class="st0" d="M101.1,392.9H84.4c2.2,7.6,6.3,14.4,12.4,20.4c9.6,9.6,21.1,14.4,34.7,14.4c2.7,0,5.3-0.2,7.9-0.6
	c10.2-1.5,19.1-6.1,26.7-13.8c6.1-6,10.2-12.8,12.4-20.4h-6.8h-9.9H101.1z"/>
<g>
	<path class="st0" d="M91.9,370.2h-8.7c-0.3,1.9-0.5,3.9-0.6,5.9h10.4h5.2h75.3h6.9c-0.1-2-0.3-4-0.6-5.9"/>
	<path class="st0" d="M82.5,381.6c0.1,2,0.3,4,0.6,5.9h9.1h6.9h73.6h6.8c0.3-1.9,0.5-3.9,0.6-5.9"/>
</g>
<path class="st0" d="M178.4,364.7c-2.2-7.6-6.4-14.5-12.4-20.5c-7.6-7.6-16.5-12.2-26.6-13.7c-2.6-0.4-5.2-0.6-7.9-0.6
	c-13.5,0-25,4.8-34.7,14.3c-6,6.1-10.1,12.9-12.4,20.5"/>
<g>
	<path class="st1" d="M79.6,378.8c0-25.8,19.4-47.3,44.6-51.1c-0.6,0-1.3,0-1.9,0c-28.3,0-51.3,22.9-51.3,51.1
		c0,28.2,23,51.1,51.3,51.1c0.6,0,1.3,0,1.9,0C99,426.1,79.6,404.7,79.6,378.8z"/>
</g>
<g>
	
		<linearGradient id="SVGID_1_" gradientUnits="userSpaceOnUse" x1="131.3855" y1="433.4238" x2="131.3855" y2="359.7889" gradientTransform="matrix(1 0 0 1 0 1)">
		<stop  offset="0.3033" style="stop-color:#473788"/>
		<stop  offset="0.872" style="stop-color:#2C2255"/>
	</linearGradient>
	<path class="st2" d="M164.7,376.1c-0.2-2-0.5-4-1-5.9H99.1c-0.5,1.9-0.8,3.9-1,5.9H164.7z"/>
	
		<linearGradient id="SVGID_2_" gradientUnits="userSpaceOnUse" x1="131.386" y1="433.4248" x2="131.386" y2="359.7899" gradientTransform="matrix(1 0 0 1 0 1)">
		<stop  offset="0.3033" style="stop-color:#473788"/>
		<stop  offset="0.872" style="stop-color:#2C2255"/>
	</linearGradient>
	<path class="st3" d="M164.7,381.6H98.1c0.2,2,0.5,4,1,5.9h64.5C164.1,385.6,164.5,383.6,164.7,381.6z"/>
	
		<linearGradient id="SVGID_3_" gradientUnits="userSpaceOnUse" x1="131.386" y1="433.4229" x2="131.386" y2="359.7916" gradientTransform="matrix(1 0 0 1 0 1)">
		<stop  offset="0.3033" style="stop-color:#473788"/>
		<stop  offset="0.8631" style="stop-color:#2C2255"/>
	</linearGradient>
	<path class="st4" d="M131.4,412.2c13.4,0,24.9-7.9,30.3-19.3h-60.5C106.4,404.3,118,412.2,131.4,412.2z"/>
</g>
<g>
	<path class="st5" d="M93.2,381.6h4.9h66.7h8.8h6.7c0-0.9,0.1-1.7,0.1-2.6c0-1,0-1.9-0.1-2.8h-6.6h-8.8H98.1h-5.2H82.5
		c-0.1,0.9-0.1,1.9-0.1,2.8c0,0.9,0,1.8,0.1,2.6H93.2z"/>
	<path class="st5" d="M100.9,364.7H84.4c-0.5,1.8-0.9,3.6-1.2,5.5h8.5h7.3h64.7h9.2h6.5c-0.3-1.9-0.8-3.7-1.3-5.5"/>
	<path class="st5" d="M173,387.5h-9.2H99.2h-6.9h-9.1c0.3,1.9,0.7,3.7,1.2,5.5h16.8h60.7h10h6.5c0.5-1.8,1-3.6,1.3-5.5H173z"/>
</g>
</svg>
