<svg id="Layer_1" data-name="Layer 1" xmlns="http://www.w3.org/2000/svg" xmlns:xlink="http://www.w3.org/1999/xlink" viewBox="0 0 128 128">
  <defs>
    <linearGradient id="linear-gradient" x1="45.79" y1="-651.52" x2="78.92" y2="-770.77" gradientTransform="matrix(1, 0, 0, -1, 0, -648.86)" gradientUnits="userSpaceOnUse">
      <stop offset="0.28" stop-color="#00cdd7"/>
      <stop offset="0.94" stop-color="#2086d7"/>
    </linearGradient>
    <linearGradient id="linear-gradient-2" x1="56.07" y1="-666.71" x2="112.11" y2="-748.88" gradientTransform="matrix(1, 0, 0, -1, 0, -648.86)" gradientUnits="userSpaceOnUse">
      <stop offset="0.14" stop-color="#fff045"/>
      <stop offset="0.37" stop-color="#00cdd7"/>
    </linearGradient>
    <linearGradient id="linear-gradient-3" x1="111.71" y1="-676.79" x2="119.07" y2="-702.86" xlink:href="#linear-gradient"/>
  </defs>
  <title>icon_WebStorm</title>
  <g>
    <polygon points="17.2 115.6 0 13.4 32 0.2 52.2 12.2 71 2.2 109.8 17.2 88 128 17.2 115.6" fill="url(#linear-gradient)"/>
    <polygon points="128 43.4 111.4 2.6 81.6 0 35.2 44.4 47.6 101.8 71 118 128 84.2 114 58 128 43.4" fill="url(#linear-gradient-2)"/>
    <polygon points="102.4 37.2 114 58 128 43.4 117.8 18 102.4 37.2" fill="url(#linear-gradient-3)"/>
  </g>
  <g>
    <g>
      <rect x="24" y="24" width="80" height="80"/>
      <rect x="31.6" y="89" width="30" height="5" fill="#fff"/>
      <path d="M70.8,62.8L75,57.6c3,2.4,6,4,9.8,4,3,0,4.8-1.2,4.8-3.2h0c0-1.8-1.2-2.8-6.6-4.2C76.4,52.4,72.2,50.6,72.2,44V43.8c0-6,4.8-10,11.4-10A19.58,19.58,0,0,1,95.8,38L92,43.6a15.24,15.24,0,0,0-8.4-3.2c-2.6,0-4.2,1.2-4.2,3h0c0,2.2,1.4,3,7,4.4,6.6,1.8,10.4,4.2,10.4,10h0c0,6.6-5,10.4-12,10.4a23.06,23.06,0,0,1-14-5.4" fill="#fff"/>
    </g>
    <polygon points="64.4 34.4 59.4 53.6 53.8 34.4 48.2 34.4 42.6 53.6 37.6 34.4 29.8 34.4 39.4 67.6 45.6 67.6 51 48.4 56.4 67.6 62.6 67.6 72.2 34.4 64.4 34.4" fill="#fff"/>
  </g>
</svg>
