<svg id="Layer_1" xmlns="http://www.w3.org/2000/svg" viewBox="228 -228 576 576"><path d="M671.5-194.2l4.2-6.9c11.8.3 22.4 6.7 30.7 14.6 2.3 2.4 5 5 5.2 8.5-.9 3.6-2.9 6.7-4.5 10 1.7-4.8-1.8-8.9-5.1-11.9-8.3-7.9-18.9-13.8-30.5-14.3zm10 62.1c1.8-2 3.6-4.1 5.4-6.1 6 2.8 11.3 6.8 15.9 11.5 1.9 2.2 4.2 4.6 4.2 7.7-.8 2.9-2.4 5.6-3.6 8.3-.6-2.4-1.1-5-2.8-6.9-5.1-6.2-12-10.7-19.1-14.5zm84.3 30.5c1.8-2.5 3-5.8 6.1-7 2.2 6.9 2 14.3 2 21.5-.9 20.7-7.4 40.8-16.1 59.4.9-5.7 3.6-10.8 5.2-16.3 5.8-18.1 9-37.6 5.3-56.5-.5-.2-1.8-.8-2.5-1.1zm-217.4 49c2.6-1.3 5 1.1 5.9 3.3 2.8 6.3 3.2 13.4 3.9 20.2 3.1 45-4.1 89.8-11 134.2-4.2 25.4-10.1 50.9-21.3 74.2.6-3.2 1.6-6.4 2.9-9.4 10.8-28.9 14.8-59.6 19.3-89.9 4.9-34.4 8.7-69.2 5.9-104-.7-6.2-1.2-12.6-3.8-18.4-.9-1.9-2.7-4.2-5.1-3.4-3.2 1-5.8 3.4-8.3 5.6-6.6 6.1-12.6 12.9-18 20-1.2 1.5-2.6 2.8-4 4 6.5-9.9 14.2-19.1 22.5-27.6 3.4-3.2 6.7-6.8 11.1-8.8zm109.5 19.5c4.9-6.5 12-11.7 20.1-13 5.5-.9 11.7-.7 16.2 2.9 6.3 5.5 9 14.1 9.3 22.2.4 11.5-1.9 23.3-7.6 33.4 1.2-6.5 3.3-12.8 3.5-19.5.7-9.7-.8-20.3-7.7-27.6-3.9-4.4-10.2-5.2-15.7-4.6-7.9.7-15.2 5.1-20.3 11-3.5 3.7-5.9 8.3-10.1 11.3 3.7-5.7 8.1-10.8 12.3-16.1zm-244.3 3.3c2.1 3.2.8 7.3.7 10.8-4.7 50.6-7.2 101.4-11.6 152-1.2 12.1-2 24.4-4.9 36.3 17-18 37.2-34.3 61.4-41.4-.2 2-.4 3.9-.6 5.9-25.4 6.9-46.8 23.4-64.5 42.3 2-9.3 3-18.7 3.9-28.1 4.3-46.3 6.6-92.8 10.5-139.1.9-10.9 2.2-21.8 2.2-32.8.8-2 1.8-4 2.9-5.9zm279.5 47.5C707.9 14 721 4.9 731.5-5.9 730.7-4 730-2 728.6-.4c-4.7 5.7-10.4 10.5-16.5 14.6-7 4.6-14.4 8.8-22.7 10.5 1.4-2.9 2.9-5.7 4.6-8.4l-.9 1.4zm-52.7 3.9c-2.6-4.9-1.3-11.3 2.7-15.1-.2 3.4.1 7.2 2.5 9.8 2.6 2.9 6.7 3.6 10.4 3.9 4.6.3 9.3.7 13.9.1 4.9-.8 8.7-4.2 12-7.7-.4 3.4-2.9 5.9-5.2 8.2-3.2 3.2-7.2 6.2-11.9 6.6-5 .4-10 .1-15-.4-3.6-.3-7.5-2-9.4-5.4zM491.6 40.3c.3-.3 1-.9 1.4-1.3-11.6 27.3-17.9 56.6-20.7 86 7.8-.7 16-1.9 23.4 1.2 4.6 1.9 7.9 6.3 8.6 11.2 1.2 8.1-.3 16.6-4.4 23.6l-.8.8c1.3-6.4 2.6-13.2.7-19.7-1.3-4.5-5-8.1-9.5-9.5-7.1-2.4-14.7-1.1-22-.8 3.2-31.3 9.8-62.8 23.3-91.5zm119.1 25.4c3.5-5.8 7.8-10.9 12.5-15.7.1 1.4.3 3.1-1.1 4-4 3.8-7.2 8.2-11.4 11.7zm62.7 31.5c11.5.2 22 6.4 30.3 14.1 2.4 2.4 5.2 5.1 5.7 8.7-.5 3.1-2.4 5.8-3.6 8.6-.8-3.3-2.1-6.5-4.6-8.8-8.6-8.5-19.7-15.5-32.1-15.5 1.4-2.4 2.9-4.7 4.3-7.1zm-61.9 10.4c-1.1-3.2 2.2-5.4 3.6-7.8 4 11.9 6.7 24.6 5.8 37.2-1.2 18.7-7.2 36.7-13.7 54.2-2 5.1-3.9 10.3-6.4 15.2 1.2-7 4.6-13.3 6.6-20 6.4-19.3 12-40 8.5-60.4-.8-6.3-2.6-12.4-4.4-18.4zm-144.1 63.5l4.8 1.2c.2 1.5.4 3.1.6 4.6.5-.6 1.6-1.8 2.2-2.5-.2 3.9-3.6 6.4-6.2 9-.8-4-1.1-8.2-1.4-12.3zm-55 40.4c16.9-5.2 33.4-12.4 47.5-23.1.2 1.6.9 3.7-.9 4.6-14.9 12.1-32.8 19.9-51 25.6-17.8 5.5-36.2 10.3-55 10.1 2.4-2.4 4.9-4.7 7.4-7 17.7-.4 35.1-4.9 52-10.2zm58.8-16.4c1.4-1.7 3-3.3 4.8-4.7 2.8 8.8 7.1 17 11.2 25.2 1.6-1.9 3.3-3.7 4.9-5.7.9 1.8-1 3-1.8 4.4-2.3 2.8-4.5 5.6-7.2 8.1-4.6-8.9-9.1-17.8-11.9-27.3zm-121.6 26.6c7.2-7.9 13.8-16.2 20.6-24.4-.8 1.8-1.5 3.6-2.8 5.2-6.9 9-14.2 17.7-21.8 26.2-10.9.6-21.8.6-32.7 1.5-5.4.4-10.4 2.4-15.2 4.8 1.3-3.4 3.5-6.6 6.8-8.3 5.3-2.9 11.4-3.5 17.3-3.9 9.4-.4 18.6-.8 27.8-1.1zm207.5 6.4c9-6 17-13.4 24.1-21.6-.7 1.5-1.3 3.1-2.3 4.5-9.9 13.5-23.8 23.3-37.8 32.1-8.7 5.4-18.5 10-28.9 9.6-3.8-.8-6.7-3.9-10.1-5.7-3.8-3.8-7.1-8.2-10.7-12.3 1.5-2.1 3-4.2 4.3-6.4 5.5 5.6 10.4 11.8 17 16.1 2.9 2.1 6.6 1.3 9.9 1 12.9-2.1 23.9-10.1 34.5-17.3zm-138.5 38.4c21.1-10.9 40-25.5 58-41 0 1.4.5 3.2-.9 4.1-8.6 7.8-17.5 15.3-26.8 22.2-25.4 18.9-54.2 34.5-85.8 39.3-13.2 2.1-26.7 2-40 .8-7.6-.6-15.3-1.7-22.8.3.5-2.2 1.1-4.7 3.2-6 4.1-2.6 9.2-2.2 13.8-2.1 11.9.8 23.9 2.2 35.8 1.4 22.8-1 45.2-8.3 65.5-19z" id="_x23_c20042ff" fill="#c20042"/><g id="_x23_711033ff" fill="#711033"><path d="M640.9-144.3c10.2-16.6 20.4-33.3 30.6-49.9 11.6.5 22.2 6.5 30.5 14.3 3.3 3 6.8 7.1 5.1 11.9-6.1 10.3-13.1 20.2-21.6 28.6.3.3 1 .9 1.4 1.2-1.8 2-3.6 4.1-5.4 6.1 7.1 3.8 14 8.2 19.2 14.5 1.7 1.9 2.2 4.5 2.8 6.9-6.6 11.4-14.3 22.2-23.8 31.4-3 2.5-6.4 5.9-10.6 5.5-5.7-2.1-10.8-5.6-16.4-7.7-5.2-2.1-10.8-3.2-16.3-4 10.2-16.8 20.5-33.5 30.8-50.2-8.2-4.5-17.1-7.6-26.3-8.6zm104.2 84.2c5.5-14.5 13-28 20.7-41.5.6.3 2 .9 2.6 1.2 3.7 18.8.5 38.4-5.3 56.5-1.6 5.5-4.3 10.6-5.2 16.3-4.8 11.7-11.2 22.8-18.4 33.2-10.6 15.2-24.4 28.6-41.1 36.9-6.8 3.4-14.3 4.6-21.8 5-4.2 4.6-9.4 8-14.4 11.8-11.1 8.2-22.8 15.7-33.3 24.6-5.1 4.3-10 8.9-13.7 14.5v1.5c-1.5 2.4-4.8 4.6-3.6 7.8 1.8 6.1 3.6 12.1 4.5 18.4 3.5 20.5-2.1 41.1-8.5 60.4-2.1 6.7-5.4 13-6.6 20-5.2 12.4-12.3 24.1-20.7 34.7-9.4 11.5-21.1 22-35.6 26.3-6.9 1.9-14.8 3.2-21.2-.8-8.3-5-15.2-12.2-21.3-19.7 3.4 1.8 6.2 4.9 10.1 5.7 10.4.4 20.3-4.2 28.9-9.6 14-8.8 28-18.5 37.8-32.1.9-1.4 1.6-3 2.3-4.5 4.8-6.9 9.5-14.1 12-22.3 3.6-10.7 3.7-22.3 1.8-33.3-1.4-8.8-4.3-17.2-6-26-.5-2.4.2-4.8.8-7.1 2.7-9.9 6.2-19.5 9.7-29.2 2.9-8 6.2-16 11.2-22.9 4.2-3.5 7.4-8 11.4-11.7 1.4-.9 1.2-2.6 1.1-4 1.5-1.6 3-3.2 4.7-4.7-5.2-5.4-6-13.3-5-20.3 1.3-9.5 6.8-17.5 11.5-25.6 3.6-5.5 6.9-11.3 11.1-16.4 4.2-3 6.6-7.6 10.1-11.3 5.1-6 12.4-10.3 20.3-11 5.5-.6 11.8.3 15.7 4.6 6.9 7.3 8.4 18 7.7 27.6-.2 6.7-2.3 13-3.5 19.5-.5 1.4-1.4 2.5-2.1 3.8-1.7 2.7-3.2 5.5-4.6 8.4 8.3-1.6 15.7-5.9 22.7-10.5 6.2-4 11.8-8.9 16.5-14.6 1.4-1.6 2.1-3.6 2.9-5.5 3-4.6 6.7-8.8 8.7-13.9 6-12.7-.3-27.4 5.1-40.2M654.7-8.3c-5 3.8-9.6 8.7-11.5 14.8-4.1 3.7-5.3 10.2-2.7 15.1 1.8 3.5 5.8 5.1 9.6 5.4 5 .5 10 .8 15 .4 4.7-.4 8.7-3.4 11.9-6.6 2.2-2.4 4.8-4.8 5.2-8.2 1.7-1.9 3.5-4 4.1-6.6 1.2-6.2-2-12.6-7.3-15.8-7.5-4.9-17.5-3.4-24.3 1.5zM536.8-40.2c2.5-2.2 5.1-4.6 8.3-5.6 2.4-.7 4.2 1.5 5.1 3.4 2.6 5.7 3.2 12.2 3.8 18.4 2.7 34.7-1.1 69.5-5.9 103.9-4.6 30.3-8.5 61-19.3 89.9-1.3 3.1-2.3 6.2-2.9 9.4-7.6 17.3-18.8 32.8-30.3 47.8v1.2c-1.3 2.2-2.8 4.3-4.3 6.4-.3-.3-.9-1-1.2-1.3-33.5 44.6-85.2 75.6-140.7 81.9-11 1-23 2-32.9-3.8-7.3-4.3-15.8-9.9-16.5-19.3 7.5-2 15.2-.9 22.8-.3 13.3 1.2 26.8 1.3 40-.8 31.6-4.8 60.5-20.4 85.8-39.3 9.3-6.9 18.2-14.4 26.8-22.2 1.5-.9.9-2.7.9-4.1v-.2c1.6-1.5 3.2-2.9 4.8-4.4-5.2-8.2-10.1-16.5-13.6-25.5-19 19.2-41.5 35.1-66.2 46.2-17.4 7.8-36.5 12.1-55.7 11.3-11.7-.5-23.7-.8-34.7-5.2-5.5-2.8-12.2-6.2-13.5-12.9 4.8-2.4 9.8-4.4 15.2-4.8 10.9-.9 21.8-.8 32.7-1.5 7.6-8.4 14.8-17.2 21.8-26.2 1.2-1.6 2-3.4 2.8-5.2 4.9-7.4 10.7-14.4 14.9-22.2 1.5-3.2 1.7-6.8 2.3-10.2 1.6-11.6 3.1-23.3 3.7-35 1.8-33.6 2.6-67.2 4.8-100.8.5-5.7.5-11.6 2.4-17 4-12 7.8-24.1 12.4-36 0 11-1.3 21.9-2.2 32.8-3.9 46.3-6.2 92.8-10.5 139.1-.9 9.4-2 18.8-3.9 28.1 17.8-18.9 39.1-35.5 64.5-42.3.2-2 .4-3.9.6-5.9 1.1-.3 2.2-.7 3.3-1C466.7 88.7 478.1 51.4 495 17c5.8-11.4 12-22.9 19.7-33.2 1.4-1.2 2.9-2.5 4-4 5.5-7.1 11.5-13.9 18.1-20m-6.2 21.8C514-2.3 502.1 18 493 39c-.3.3-1 .9-1.4 1.3-13.5 28.7-20.1 60.2-23.4 91.6 7.3-.3 14.9-1.6 22 .8 4.4 1.4 8.2 5 9.5 9.5 1.9 6.5.7 13.3-.7 19.7l.8-.8c-2.3 4.4-5.7 8.1-9.2 11.6-5.2 5-10.4 10.1-15.5 15.3l.8 2.4c-1.7 1.4-3.3 3-4.8 4.7 2.8 9.5 7.3 18.4 11.9 27.2 2.6-2.4 4.9-5.3 7.2-8.1.8-1.3 2.6-2.6 1.8-4.4 7-8.6 13.2-18 17.6-28.2 4.1-9.8 8.4-19.6 11.1-29.9 3.7-14.3 4.8-29.1 5.9-43.7 2.1-28 4-56 4.5-84.1.1-5.4-.2-10.8.9-16.1 1.4-7.5 4-14.6 5.9-22 .3-2.4 1-5.9-1.3-7.6-2.4.1-4.3 2-6 3.4m-93.7 183.5c-18.1 4.7-33.7 15.7-47.8 27.7-11 9.3-21.7 19-32.2 28.9h3.4c-2.5 2.3-5 4.6-7.4 7 18.8.2 37.2-4.5 55-10.1 18.2-5.6 36.1-13.5 51-25.6 1.9-.9 1.2-3 .9-4.6 1.5-1.2 3-2.4 4.5-3.5-1.4-7.2-2.6-14.6-2.9-21.9-8.1-.6-16.5 0-24.5 2.1m34.5-1.1c.2 2.8.4 5.5.7 8.3l-4.8-1.2c.3 4.1.7 8.3 1.4 12.4 2.5-2.6 6-5.1 6.2-9 1.5-1.8 2.9-3.7 4.4-5.5-1.2-3.4-4.8-4.3-7.9-5z"/><path d="M638.6 153.9c10.1-16.6 20.3-33.1 30.4-49.7 12.4 0 23.6 7.1 32.1 15.5 2.5 2.3 3.9 5.5 4.6 8.8-4.7 8.4-10.3 16.3-16.5 23.7-3.7 4.3-7.5 8.6-12.3 11.7-1.9 1.1-4.4 2.4-6.6 1.3-5.9-2.5-11.4-6.1-17.5-8.1-4.5-1.5-9.3-2.4-14.2-3.2z"/></g></svg>