<?xml version="1.0" encoding="utf-8"?>
<!-- Generator: Adobe Illustrator 16.0.0, SVG Export Plug-In . SVG Version: 6.00 Build 0)  -->
<!DOCTYPE svg PUBLIC "-//W3C//DTD SVG 1.1//EN" "http://www.w3.org/Graphics/SVG/1.1/DTD/svg11.dtd">
<svg version="1.1" id="Layer_1" xmlns="http://www.w3.org/2000/svg" xmlns:xlink="http://www.w3.org/1999/xlink" x="0px" y="0px"
	 width="73px" height="73px" viewBox="0 0 73 73" enable-background="new 0 0 73 73" xml:space="preserve">
<g>
	<linearGradient id="SVGID_1_" gradientUnits="userSpaceOnUse" x1="16.1992" y1="14.8066" x2="8.4214" y2="25.7593">
		<stop  offset="0" style="stop-color:#676767"/>
		<stop  offset="1" style="stop-color:#343433"/>
	</linearGradient>
	<path opacity="0.9" fill="url(#SVGID_1_)" d="M24.601-0.022c0,0,15.349,0.148-2.998,16.77c0,0-8.461,7.406-12.344,14.248
		c0,0-8.545,14.754-9.111,7.911c0,0-0.359-1.599,0.101-5.213c0,0,0.116-1.289,0.936-3.488L13.422,6.964
		C13.422,6.964,16.67,0.935,24.601-0.022z"/>
	<linearGradient id="SVGID_2_" gradientUnits="userSpaceOnUse" x1="13.1475" y1="57.7148" x2="8.2089" y2="43.2235">
		<stop  offset="0" style="stop-color:#343433"/>
		<stop  offset="1" style="stop-color:#4E4E4E"/>
	</linearGradient>
	<path opacity="0.9" fill="url(#SVGID_2_)" d="M1.428,29.459c0,0,7.792-14.377,11.861,11.207c0,0,1.669,11.669,5.178,18.745
		c0,0,7.481,15.424,1.747,12.534c0,0-1.453-0.461-4.102-2.701c0,0-0.969-0.752-2.313-2.624L1.403,43.478
		C1.403,43.478-1.775,37.406,1.428,29.459z"/>
	
		<radialGradient id="SVGID_3_" cx="72.6338" cy="68.5742" r="57.2985" gradientTransform="matrix(0.902 0 0 0.9806 5.3555 0.3081)" gradientUnits="userSpaceOnUse">
		<stop  offset="0" style="stop-color:#3E4018"/>
		<stop  offset="0.176" style="stop-color:#3D411C"/>
		<stop  offset="0.3336" style="stop-color:#3A4426"/>
		<stop  offset="0.4842" style="stop-color:#344A39"/>
		<stop  offset="0.6304" style="stop-color:#2C5252"/>
		<stop  offset="0.7736" style="stop-color:#225C74"/>
		<stop  offset="0.9125" style="stop-color:#16699C"/>
		<stop  offset="1" style="stop-color:#0D72B9"/>
	</radialGradient>
	<path opacity="0.9" fill="url(#SVGID_3_)" d="M13.326,66.018c0,0-7.557-14.526,14.86-5.563c0,0,10.129,4.264,17.52,4.497
		c0,0,16.027,0.67,10.858,4.622c0,0-1.094,1.14-4.203,2.512c0,0-1.085,0.535-3.246,0.864l-24.633,0.1
		C24.482,73.05,18.056,73.006,13.326,66.018z"/>
	<linearGradient id="SVGID_4_" gradientUnits="userSpaceOnUse" x1="42.3867" y1="52.7236" x2="72.9854" y2="52.7236">
		<stop  offset="0" style="stop-color:#052329"/>
		<stop  offset="0.0192" style="stop-color:#092629"/>
		<stop  offset="0.2554" style="stop-color:#3A4B2D"/>
		<stop  offset="0.4791" style="stop-color:#616730"/>
		<stop  offset="0.6843" style="stop-color:#7C7C32"/>
		<stop  offset="0.8644" style="stop-color:#8D8934"/>
		<stop  offset="1" style="stop-color:#938D34"/>
	</linearGradient>
	<path opacity="0.9" fill="url(#SVGID_4_)" d="M48.399,73.094c0,0-15.349-0.148,2.999-16.77c0,0,8.461-7.407,12.343-14.247
		c0,0,8.545-14.756,9.11-7.912c0,0,0.359,1.598-0.1,5.211c0,0-0.116,1.289-0.937,3.49L59.579,66.108
		C59.579,66.108,56.332,72.137,48.399,73.094z"/>
	<linearGradient id="SVGID_5_" gradientUnits="userSpaceOnUse" x1="63.3555" y1="26.3018" x2="68.5332" y2="40.5416">
		<stop  offset="0" style="stop-color:#808080"/>
		<stop  offset="1" style="stop-color:#B3B2B3"/>
	</linearGradient>
	<path opacity="0.9" fill="url(#SVGID_5_)" d="M71.572,43.612c0,0-7.793,14.377-11.858-11.208c0,0-1.671-11.668-5.179-18.744
		c0,0-7.481-15.425-1.747-12.534c0,0,1.453,0.46,4.102,2.701c0,0,0.97,0.752,2.313,2.625l12.396,23.142
		C71.598,29.595,74.776,35.667,71.572,43.612z"/>
	<linearGradient id="SVGID_6_" gradientUnits="userSpaceOnUse" x1="15.3574" y1="-2.2153" x2="45.7026" y2="7.0694">
		<stop  offset="0" style="stop-color:#4E4E4E"/>
		<stop  offset="1" style="stop-color:#989897"/>
	</linearGradient>
	<path opacity="0.9" fill="url(#SVGID_6_)" d="M59.676,7.053c0,0,7.554,14.527-14.86,5.564c0,0-10.129-4.264-17.521-4.497
		c0,0-16.028-0.669-10.858-4.623c0,0,1.095-1.139,4.204-2.512c0,0,1.798-0.681,3.961-1.008l23.917,0.045
		C48.519,0.022,54.945,0.064,59.676,7.053z"/>
</g>
</svg>
