<?xml version="1.0" encoding="utf-8"?>
<!-- Generator: Adobe Illustrator 21.0.0, SVG Export Plug-In . SVG Version: 6.00 Build 0)  -->
<!DOCTYPE svg PUBLIC "-//W3C//DTD SVG 1.1//EN" "http://www.w3.org/Graphics/SVG/1.1/DTD/svg11.dtd">
<svg version="1.1" id="Layer_1" xmlns="http://www.w3.org/2000/svg" xmlns:xlink="http://www.w3.org/1999/xlink" x="0px" y="0px"
	 viewBox="0 0 90 90" style="enable-background:new 0 0 90 90;" xml:space="preserve">
<style type="text/css">
	.st0{fill:#EFB42E;}
	.st1{fill:#38BEB9;}
	.st2{fill:#ED6359;}
	.st3{fill:#6ECACD;}
	.st4{fill:#F8C741;}
	.st5{fill:#F47C66;}
	.st6{enable-background:new    ;}
</style>
<polygon class="st0" points="56.2,1.9 50.5,7.6 44.8,1.9 "/>
<polygon class="st1" points="81,49.6 75.3,43.9 81,38.2 "/>
<polygon class="st2" points="8.5,26.8 14.2,32.5 8.5,38.2 "/>
<g>
	<polygon class="st3" points="62.9,20 57.2,25.7 69.6,38.2 57.2,50.6 62.9,56.3 81,38.2 	"/>
	
		<rect x="47.3" y="31.9" transform="matrix(0.7071 -0.7071 0.7071 0.7071 -11.3133 49.0394)" class="st3" width="12.5" height="12.5"/>
</g>
<g>
	<polygon class="st4" points="44.8,13.3 57.2,25.7 62.9,20 44.8,1.9 26.6,20 32.3,25.7 	"/>
	
		<rect x="38.5" y="23.1" transform="matrix(0.7071 -0.7071 0.7071 0.7071 -7.6737 40.2677)" class="st4" width="12.5" height="12.5"/>
</g>
<g>
	
		<rect x="29.7" y="31.9" transform="matrix(0.7071 -0.7071 0.7071 0.7071 -16.4585 36.6334)" class="st5" width="12.5" height="12.5"/>
	<polygon class="st5" points="19.9,38.2 32.3,25.7 26.6,20 8.5,38.2 26.6,56.3 32.3,50.6 	"/>
</g>
<g class="st6">
	<path d="M14.3,63.3c0-0.2,0.1-0.3,0.3-0.3H15c0.2,0,0.3,0.1,0.3,0.3v7.8c0,0,1.2-1,3.1-1c2.8,0,4.8,2.2,4.8,5.2
		c0,2.9-2,5.2-4.5,5.2c-1.9,0-3.1-1.1-3.4-1.5L15.2,80c0,0.2-0.1,0.3-0.3,0.3h-0.2c-0.2,0-0.3-0.1-0.3-0.3V63.3z M18.6,79.6
		c2.1,0,3.6-1.9,3.6-4.2c0-2.3-1.6-4.1-3.9-4.1c-1.8,0-2.9,1-2.9,1v5.5C15.4,77.9,16.5,79.6,18.6,79.6z"/>
	<path d="M27.1,70.7c0-0.2,0.1-0.3,0.3-0.3h0.4c0.2,0,0.3,0.1,0.3,0.3v5.3c0,2.3,1.1,3.5,2.9,3.5c2,0,3.2-1.6,3.3-1.7v-7
		c0-0.2,0.1-0.3,0.3-0.3h0.4c0.2,0,0.3,0.1,0.3,0.3V80c0,0.2-0.1,0.3-0.3,0.3h-0.3c-0.2,0-0.3-0.1-0.3-0.3l-0.1-1
		c-0.3,0.3-1.5,1.5-3.4,1.5c-2.8,0-4-1.7-4-4.5V70.7z"/>
	<path d="M39.9,64.8c0-0.5,0.4-0.9,0.8-0.9s0.8,0.4,0.8,0.9c0,0.4-0.4,0.8-0.8,0.8S39.9,65.2,39.9,64.8z M40.2,70.7
		c0-0.2,0.1-0.3,0.3-0.3H41c0.2,0,0.3,0.1,0.3,0.3V80c0,0.2-0.1,0.3-0.3,0.3h-0.5c-0.2,0-0.3-0.1-0.3-0.3V70.7z"/>
	<path d="M46,63.3c0-0.2,0.1-0.3,0.3-0.3h0.4c0.2,0,0.3,0.1,0.3,0.3V80c0,0.2-0.1,0.3-0.3,0.3h-0.5c-0.2,0-0.3-0.1-0.3-0.3V63.3z"/>
	<path d="M56,70.2c1.9,0,3,1,3,1v-7.8c0-0.2,0.1-0.3,0.3-0.3h0.4c0.1,0,0.3,0.1,0.3,0.3V80c0,0.2-0.1,0.3-0.3,0.3h-0.2
		c-0.2,0-0.3-0.1-0.3-0.3l-0.1-0.9c-0.3,0.3-1.5,1.4-3.4,1.4c-2.6,0-4.6-2.3-4.6-5.2C51.2,72.5,53.2,70.2,56,70.2z M55.8,79.6
		c2.1,0,3.2-1.7,3.3-1.8v-5.5c0,0-1.1-1-2.9-1c-2.3,0-3.9,1.8-3.9,4.1C52.2,77.7,53.7,79.6,55.8,79.6z"/>
	<path d="M69.1,70.2c2.8,0,5,2.3,5,5.2c0,2.9-2.2,5.2-5,5.2c-2.8,0-5-2.3-5-5.2C64.1,72.5,66.3,70.2,69.1,70.2z M69.1,79.5
		c2.2,0,3.9-1.9,3.9-4.2c0-2.3-1.7-4.1-3.9-4.1c-2.2,0-3.9,1.9-3.9,4.1C65.2,77.7,66.9,79.5,69.1,79.5z"/>
</g>
</svg>
