<svg width="552" height="539" viewBox="0 0 552 539" fill="none" xmlns="http://www.w3.org/2000/svg">
<path d="M228.726 427.049V412.322H232.811V427.049H228.726ZM230.778 410.423C230.171 410.423 229.65 410.222 229.215 409.819C228.787 409.41 228.573 408.921 228.573 408.352C228.573 407.79 228.787 407.307 229.215 406.904C229.65 406.495 230.171 406.291 230.778 406.291C231.385 406.291 231.903 406.495 232.332 406.904C232.766 407.307 232.984 407.79 232.984 408.352C232.984 408.921 232.766 409.41 232.332 409.819C231.903 410.222 231.385 410.423 230.778 410.423ZM236.083 427.049V412.322H239.976V414.92H240.148C240.455 414.057 240.966 413.376 241.682 412.878C242.398 412.379 243.255 412.13 244.252 412.13C245.262 412.13 246.122 412.382 246.831 412.887C247.541 413.386 248.014 414.063 248.25 414.92H248.404C248.704 414.076 249.247 413.402 250.033 412.897C250.826 412.385 251.763 412.13 252.843 412.13C254.217 412.13 255.332 412.568 256.189 413.443C257.052 414.313 257.483 415.546 257.483 417.144V427.049H253.408V417.95C253.408 417.132 253.191 416.518 252.757 416.109C252.322 415.7 251.779 415.495 251.127 415.495C250.385 415.495 249.807 415.732 249.391 416.205C248.976 416.671 248.768 417.288 248.768 418.055V427.049H244.808V417.863C244.808 417.141 244.6 416.566 244.185 416.138C243.776 415.709 243.236 415.495 242.564 415.495C242.111 415.495 241.701 415.61 241.337 415.84C240.979 416.064 240.695 416.381 240.484 416.79C240.273 417.192 240.167 417.665 240.167 418.209V427.049H236.083ZM260.71 432.572V412.322H264.737V414.795H264.919C265.098 414.399 265.357 413.996 265.696 413.587C266.041 413.172 266.488 412.827 267.038 412.552C267.594 412.27 268.284 412.13 269.109 412.13C270.183 412.13 271.174 412.411 272.081 412.974C272.989 413.53 273.714 414.37 274.258 415.495C274.801 416.614 275.073 418.017 275.073 419.704C275.073 421.347 274.807 422.734 274.277 423.866C273.753 424.991 273.037 425.844 272.129 426.426C271.228 427.001 270.218 427.289 269.099 427.289C268.307 427.289 267.632 427.157 267.076 426.895C266.527 426.633 266.076 426.304 265.724 425.908C265.373 425.505 265.104 425.099 264.919 424.69H264.794V432.572H260.71ZM264.708 419.685C264.708 420.561 264.829 421.325 265.072 421.977C265.315 422.629 265.667 423.137 266.127 423.501C266.587 423.859 267.147 424.038 267.805 424.038C268.47 424.038 269.032 423.856 269.492 423.492C269.953 423.121 270.301 422.61 270.538 421.958C270.78 421.299 270.902 420.542 270.902 419.685C270.902 418.835 270.784 418.087 270.547 417.442C270.311 416.796 269.962 416.291 269.502 415.927C269.042 415.562 268.476 415.38 267.805 415.38C267.14 415.38 266.578 415.556 266.117 415.907C265.664 416.259 265.315 416.758 265.072 417.403C264.829 418.049 264.708 418.809 264.708 419.685ZM281.88 407.412V427.049H277.796V407.412H281.88ZM285.152 427.049V412.322H289.237V427.049H285.152ZM287.204 410.423C286.597 410.423 286.076 410.222 285.641 409.819C285.213 409.41 284.999 408.921 284.999 408.352C284.999 407.79 285.213 407.307 285.641 406.904C286.076 406.495 286.597 406.291 287.204 406.291C287.811 406.291 288.329 406.495 288.757 406.904C289.192 407.307 289.409 407.79 289.409 408.352C289.409 408.921 289.192 409.41 288.757 409.819C288.329 410.222 287.811 410.423 287.204 410.423ZM299.22 427.336C297.705 427.336 296.401 427.03 295.308 426.416C294.222 425.796 293.384 424.92 292.796 423.789C292.208 422.651 291.914 421.306 291.914 419.752C291.914 418.237 292.208 416.908 292.796 415.764C293.384 414.619 294.212 413.728 295.28 413.089C296.353 412.449 297.613 412.13 299.057 412.13C300.029 412.13 300.933 412.286 301.771 412.6C302.614 412.906 303.35 413.37 303.976 413.99C304.609 414.61 305.101 415.39 305.453 416.329C305.804 417.263 305.98 418.356 305.98 419.608V420.73H293.544V418.199H302.135C302.135 417.611 302.007 417.09 301.752 416.636C301.496 416.182 301.141 415.828 300.687 415.572C300.24 415.31 299.719 415.179 299.124 415.179C298.504 415.179 297.955 415.323 297.475 415.61C297.002 415.892 296.632 416.272 296.363 416.751C296.095 417.224 295.957 417.752 295.951 418.333V420.74C295.951 421.469 296.085 422.098 296.353 422.629C296.628 423.159 297.015 423.568 297.514 423.856C298.012 424.144 298.603 424.287 299.287 424.287C299.741 424.287 300.157 424.224 300.534 424.096C300.911 423.968 301.234 423.776 301.502 423.52C301.771 423.265 301.975 422.952 302.116 422.581L305.894 422.83C305.702 423.738 305.309 424.53 304.714 425.208C304.126 425.879 303.366 426.403 302.432 426.78C301.505 427.151 300.435 427.336 299.22 427.336ZM320.899 416.521L317.16 416.751C317.096 416.432 316.958 416.144 316.747 415.888C316.536 415.626 316.258 415.419 315.913 415.265C315.574 415.105 315.168 415.025 314.695 415.025C314.063 415.025 313.529 415.16 313.094 415.428C312.66 415.69 312.442 416.042 312.442 416.483C312.442 416.834 312.583 417.132 312.864 417.374C313.145 417.617 313.628 417.812 314.312 417.959L316.977 418.496C318.409 418.79 319.477 419.263 320.18 419.915C320.883 420.567 321.234 421.424 321.234 422.485C321.234 423.45 320.95 424.297 320.381 425.026C319.819 425.754 319.045 426.323 318.061 426.732C317.083 427.135 315.955 427.336 314.676 427.336C312.727 427.336 311.173 426.931 310.016 426.119C308.866 425.301 308.192 424.188 307.993 422.782L312.011 422.571C312.132 423.166 312.426 423.619 312.893 423.933C313.359 424.24 313.957 424.393 314.686 424.393C315.402 424.393 315.977 424.256 316.412 423.981C316.853 423.699 317.076 423.338 317.083 422.897C317.076 422.526 316.92 422.223 316.613 421.986C316.306 421.743 315.833 421.558 315.194 421.43L312.644 420.922C311.205 420.634 310.135 420.136 309.432 419.426C308.735 418.717 308.386 417.812 308.386 416.713C308.386 415.767 308.642 414.952 309.154 414.268C309.671 413.584 310.397 413.057 311.33 412.686C312.27 412.315 313.369 412.13 314.628 412.13C316.488 412.13 317.952 412.523 319.02 413.309C320.094 414.095 320.72 415.166 320.899 416.521Z" fill="black"/>
<path d="M176.703 340.016C176.042 341.161 175.316 342.053 174.527 342.69C173.747 343.324 172.95 343.728 172.135 343.899C171.319 344.071 170.535 344.035 169.782 343.793L171.232 340.268C171.544 340.315 171.873 340.295 172.219 340.207C172.565 340.119 172.907 339.936 173.245 339.658C173.591 339.378 173.913 338.981 174.21 338.466C174.655 337.697 174.832 336.954 174.744 336.239C174.664 335.521 174.186 334.91 173.312 334.405L170.978 333.059L170.892 333.208C171.156 333.568 171.357 333.993 171.494 334.486C171.63 334.978 171.657 335.525 171.575 336.127C171.493 336.729 171.257 337.367 170.867 338.043C170.314 339 169.589 339.744 168.692 340.275C167.793 340.796 166.749 341.024 165.562 340.959C164.372 340.885 163.071 340.441 161.659 339.626C160.214 338.792 159.143 337.86 158.446 336.831C157.749 335.801 157.385 334.757 157.354 333.699C157.326 332.635 157.583 331.636 158.123 330.7C158.535 329.986 159.003 329.459 159.524 329.118C160.041 328.774 160.563 328.559 161.093 328.473C161.62 328.378 162.101 328.35 162.537 328.388L162.614 328.255L160.471 327.018L162.5 323.507L175.381 330.939C176.466 331.565 177.22 332.355 177.644 333.308C178.068 334.261 178.191 335.313 178.013 336.465C177.843 337.614 177.407 338.798 176.703 340.016ZM168.857 335.388C169.186 334.818 169.323 334.255 169.268 333.699C169.21 333.135 168.977 332.594 168.567 332.077C168.154 331.551 167.574 331.073 166.827 330.641C166.08 330.21 165.371 329.942 164.701 329.836C164.026 329.727 163.421 329.783 162.887 330.006C162.352 330.229 161.92 330.625 161.591 331.196C161.255 331.777 161.13 332.358 161.215 332.938C161.295 333.516 161.552 334.066 161.988 334.591C162.423 335.115 163.003 335.586 163.729 336.005C164.465 336.43 165.161 336.695 165.816 336.8C166.469 336.896 167.056 336.832 167.576 336.609C168.094 336.376 168.521 335.97 168.857 335.388ZM180.488 322.385C179.731 323.696 178.813 324.672 177.734 325.312C176.654 325.943 175.476 326.23 174.202 326.174C172.923 326.115 171.61 325.697 170.265 324.921C168.953 324.163 167.948 323.244 167.251 322.163C166.554 321.082 166.196 319.92 166.176 318.676C166.16 317.427 166.513 316.177 167.236 314.926C167.722 314.084 168.31 313.38 169 312.811C169.688 312.234 170.457 311.829 171.307 311.596C172.161 311.358 173.082 311.322 174.072 311.487C175.056 311.649 176.091 312.043 177.176 312.669L178.148 313.23L171.927 323.998L169.735 322.733L174.032 315.294C173.523 315 173.007 314.85 172.486 314.845C171.966 314.84 171.481 314.97 171.032 315.235C170.581 315.491 170.207 315.877 169.91 316.391C169.6 316.928 169.449 317.476 169.459 318.035C169.466 318.585 169.61 319.096 169.891 319.568C170.166 320.037 170.554 320.42 171.055 320.716L173.139 321.919C173.77 322.283 174.383 322.482 174.977 322.514C175.574 322.541 176.122 322.411 176.62 322.123C177.119 321.835 177.539 321.395 177.881 320.803C178.108 320.41 178.261 320.018 178.338 319.628C178.416 319.237 178.412 318.862 178.325 318.502C178.237 318.141 178.068 317.808 177.818 317.501L179.923 314.354C180.614 314.974 181.103 315.71 181.393 316.564C181.68 317.408 181.754 318.329 181.613 319.325C181.471 320.313 181.096 321.333 180.488 322.385ZM179.622 306.288L186.997 310.543L184.954 314.08L172.198 306.719L174.145 303.349L176.396 304.647L176.482 304.498C175.903 303.787 175.59 302.976 175.541 302.062C175.488 301.146 175.734 300.214 176.281 299.268C176.793 298.382 177.432 297.722 178.2 297.287C178.969 296.852 179.818 296.659 180.749 296.709C181.674 296.756 182.632 297.065 183.623 297.637L191.745 302.324L189.702 305.86L182.211 301.538C181.434 301.082 180.71 300.93 180.039 301.082C179.362 301.23 178.82 301.659 178.41 302.367C178.135 302.843 177.995 303.323 177.989 303.806C177.986 304.284 178.122 304.739 178.396 305.171C178.669 305.594 179.077 305.966 179.622 306.288ZM196.962 293.868C196.204 295.18 195.286 296.156 194.208 296.796C193.127 297.427 191.95 297.714 190.676 297.658C189.396 297.598 188.084 297.181 186.738 296.404C185.426 295.647 184.422 294.728 183.725 293.647C183.028 292.566 182.67 291.404 182.65 290.16C182.633 288.91 182.986 287.66 183.709 286.409C184.195 285.568 184.783 284.863 185.473 284.295C186.161 283.717 186.93 283.313 187.781 283.08C188.634 282.842 189.556 282.805 190.546 282.971C191.53 283.133 192.564 283.527 193.65 284.153L194.621 284.714L188.401 295.482L186.208 294.217L190.505 286.778C189.996 286.484 189.481 286.334 188.96 286.329C188.439 286.323 187.954 286.453 187.506 286.718C187.055 286.975 186.681 287.36 186.384 287.875C186.073 288.412 185.923 288.96 185.932 289.519C185.939 290.069 186.083 290.58 186.364 291.052C186.64 291.521 187.028 291.904 187.528 292.2L189.613 293.403C190.244 293.767 190.856 293.965 191.45 293.998C192.047 294.025 192.595 293.895 193.094 293.607C193.592 293.319 194.012 292.879 194.355 292.286C194.582 291.893 194.734 291.502 194.812 291.111C194.89 290.721 194.885 290.345 194.798 289.985C194.711 289.625 194.542 289.291 194.291 288.984L196.397 285.838C197.087 286.457 197.577 287.194 197.866 288.047C198.154 288.892 198.227 289.813 198.087 290.809C197.944 291.797 197.569 292.817 196.962 293.868ZM201.427 285.563L188.671 278.203L190.652 274.774L192.878 276.058L192.954 275.926C192.297 275.236 191.925 274.501 191.837 273.72C191.744 272.935 191.903 272.186 192.316 271.472C192.418 271.295 192.54 271.111 192.68 270.919C192.82 270.727 192.955 270.564 193.083 270.432L196.222 272.243C196.077 272.38 195.9 272.584 195.691 272.855C195.483 273.126 195.309 273.384 195.168 273.627C194.867 274.148 194.712 274.678 194.703 275.218C194.691 275.75 194.815 276.25 195.077 276.718C195.341 277.181 195.733 277.562 196.254 277.862L203.47 282.027L201.427 285.563ZM209.084 272.865C208.614 273.679 208.054 274.322 207.404 274.796C206.748 275.266 206.034 275.525 205.26 275.574C204.485 275.613 203.676 275.39 202.835 274.904C202.126 274.495 201.606 274.022 201.274 273.484C200.943 272.946 200.76 272.368 200.726 271.75C200.691 271.133 200.764 270.496 200.944 269.839C201.127 269.177 201.37 268.513 201.674 267.847C202.025 267.061 202.298 266.422 202.494 265.929C202.684 265.434 202.769 265.044 202.749 264.759C202.729 264.475 202.583 264.254 202.312 264.098L202.262 264.069C201.736 263.765 201.233 263.697 200.754 263.863C200.277 264.023 199.864 264.405 199.516 265.008C199.148 265.645 198.997 266.233 199.062 266.772C199.121 267.308 199.326 267.758 199.677 268.123L197.521 271.241C196.842 270.627 196.361 269.914 196.077 269.101C195.788 268.285 195.714 267.405 195.854 266.46C195.991 265.506 196.354 264.52 196.943 263.501C197.352 262.793 197.827 262.163 198.367 261.611C198.91 261.054 199.502 260.624 200.142 260.321C200.785 260.014 201.465 259.871 202.182 259.894C202.894 259.914 203.63 260.142 204.388 260.58L212.992 265.544L211.054 268.899L209.285 267.878L209.228 267.978C209.508 268.412 209.701 268.889 209.808 269.408C209.908 269.924 209.906 270.472 209.799 271.052C209.687 271.63 209.449 272.234 209.084 272.865ZM207.228 270.443C207.528 269.923 207.691 269.404 207.717 268.888C207.736 268.368 207.635 267.892 207.411 267.461C207.188 267.029 206.852 266.684 206.404 266.426L205.05 265.644C205.058 265.797 205.037 265.987 204.986 266.216C204.932 266.436 204.862 266.68 204.774 266.946C204.681 267.21 204.585 267.472 204.486 267.732C204.382 267.989 204.288 268.223 204.204 268.433C204.025 268.883 203.912 269.301 203.866 269.688C203.82 270.075 203.861 270.419 203.989 270.722C204.111 271.021 204.338 271.267 204.67 271.458C205.152 271.736 205.621 271.774 206.077 271.573C206.531 271.362 206.914 270.986 207.228 270.443ZM205.739 248.657L208.397 250.191L203.961 257.87L201.303 256.337L205.739 248.657ZM199.254 252.83L201.297 249.293L213.19 256.155C213.516 256.344 213.8 256.441 214.04 256.447C214.275 256.449 214.479 256.383 214.653 256.247C214.831 256.106 214.988 255.916 215.126 255.678C215.222 255.512 215.304 255.338 215.372 255.156C215.435 254.971 215.484 254.829 215.518 254.731L218.472 255.694C218.425 255.903 218.345 256.189 218.231 256.551C218.123 256.917 217.945 257.335 217.696 257.804C217.237 258.675 216.692 259.357 216.061 259.849C215.433 260.335 214.743 260.597 213.99 260.635C213.237 260.673 212.444 260.448 211.612 259.96L199.254 252.83ZM223.354 248.183C222.596 249.495 221.678 250.47 220.6 251.11C219.519 251.741 218.342 252.029 217.068 251.972C215.788 251.913 214.475 251.495 213.13 250.719C211.818 249.962 210.813 249.043 210.117 247.961C209.42 246.88 209.061 245.718 209.042 244.474C209.025 243.225 209.378 241.975 210.101 240.724C210.587 239.883 211.175 239.178 211.865 238.609C212.553 238.032 213.322 237.627 214.172 237.394C215.026 237.156 215.948 237.12 216.937 237.285C217.922 237.447 218.956 237.841 220.041 238.467L221.013 239.028L214.792 249.796L212.6 248.531L216.897 241.092C216.388 240.798 215.873 240.649 215.352 240.643C214.831 240.638 214.346 240.768 213.898 241.033C213.447 241.289 213.073 241.675 212.775 242.19C212.465 242.727 212.315 243.274 212.324 243.833C212.331 244.383 212.475 244.895 212.756 245.367C213.031 245.835 213.419 246.218 213.92 246.514L216.005 247.717C216.636 248.081 217.248 248.28 217.842 248.312C218.439 248.34 218.987 248.209 219.485 247.921C219.984 247.633 220.404 247.193 220.746 246.601C220.973 246.208 221.126 245.816 221.204 245.426C221.282 245.035 221.277 244.66 221.19 244.3C221.103 243.939 220.934 243.606 220.683 243.299L222.789 240.152C223.479 240.772 223.969 241.508 224.258 242.362C224.545 243.206 224.619 244.127 224.479 245.124C224.336 246.111 223.961 247.131 223.354 248.183ZM224.83 224.006L223.159 227.359C222.85 227.254 222.532 227.23 222.205 227.285C221.873 227.336 221.554 227.473 221.248 227.695C220.94 227.909 220.668 228.22 220.431 228.63C220.115 229.178 219.964 229.707 219.979 230.218C219.989 230.725 220.185 231.089 220.567 231.309C220.871 231.485 221.199 231.512 221.55 231.39C221.901 231.268 222.311 230.947 222.781 230.428L224.579 228.389C225.55 227.296 226.494 226.608 227.41 226.325C228.327 226.042 229.244 226.166 230.163 226.696C230.999 227.178 231.591 227.848 231.937 228.705C232.287 229.556 232.393 230.51 232.255 231.567C232.114 232.615 231.725 233.693 231.085 234.799C230.11 236.488 228.981 237.63 227.699 238.226C226.415 238.813 225.115 238.841 223.797 238.31L225.624 234.726C226.2 234.918 226.74 234.89 227.245 234.643C227.744 234.392 228.176 233.951 228.54 233.32C228.898 232.7 229.067 232.133 229.046 231.62C229.024 231.097 228.823 230.723 228.444 230.497C228.119 230.317 227.778 230.301 227.42 230.449C227.056 230.593 226.659 230.91 226.228 231.399L224.512 233.354C223.544 234.455 222.576 235.133 221.61 235.387C220.647 235.636 219.689 235.486 218.737 234.936C217.918 234.464 217.34 233.835 217.003 233.05C216.67 232.26 216.576 231.368 216.722 230.375C216.871 229.376 217.26 228.331 217.89 227.241C218.82 225.63 219.893 224.559 221.108 224.028C222.326 223.491 223.567 223.484 224.83 224.006Z" fill="black"/>
<path d="M306.985 238.064C306.323 236.919 305.913 235.845 305.755 234.844C305.596 233.851 305.645 232.959 305.904 232.168C306.163 231.377 306.586 230.716 307.172 230.185L309.502 233.202C309.305 233.449 309.158 233.744 309.061 234.088C308.965 234.431 308.952 234.819 309.024 235.25C309.093 235.689 309.277 236.166 309.574 236.681C310.018 237.45 310.573 237.976 311.237 238.256C311.899 238.546 312.667 238.439 313.542 237.934L315.876 236.587L315.789 236.438C315.345 236.487 314.876 236.448 314.382 236.32C313.887 236.192 313.399 235.942 312.919 235.57C312.438 235.198 312.002 234.675 311.612 233.999C311.059 233.042 310.777 232.042 310.766 231.001C310.764 229.962 311.088 228.944 311.738 227.949C312.397 226.956 313.433 226.053 314.845 225.238C316.29 224.404 317.633 223.943 318.873 223.854C320.114 223.766 321.2 223.973 322.133 224.475C323.069 224.983 323.807 225.705 324.347 226.64C324.76 227.354 324.983 228.022 325.018 228.644C325.058 229.263 324.983 229.823 324.792 230.324C324.61 230.828 324.394 231.259 324.144 231.617L324.221 231.75L326.363 230.514L328.392 234.026L315.511 241.458C314.426 242.084 313.365 242.342 312.327 242.233C311.289 242.123 310.316 241.703 309.407 240.973C308.496 240.252 307.688 239.282 306.985 238.064ZM314.917 233.587C315.247 234.157 315.666 234.557 316.175 234.787C316.694 235.019 317.279 235.087 317.932 234.991C318.594 234.897 319.298 234.634 320.046 234.203C320.793 233.772 321.38 233.293 321.807 232.766C322.239 232.237 322.492 231.685 322.567 231.11C322.641 230.536 322.513 229.964 322.184 229.394C321.848 228.813 321.408 228.414 320.862 228.197C320.321 227.978 319.715 227.925 319.043 228.04C318.371 228.155 317.673 228.421 316.948 228.84C316.211 229.265 315.634 229.734 315.215 230.249C314.805 230.766 314.567 231.306 314.5 231.868C314.443 232.433 314.582 233.006 314.917 233.587ZM320.37 250.156C319.612 248.844 319.226 247.562 319.21 246.308C319.204 245.058 319.543 243.895 320.229 242.82C320.921 241.742 321.939 240.815 323.284 240.039C324.596 239.282 325.895 238.872 327.18 238.809C328.466 238.747 329.652 239.018 330.74 239.623C331.83 240.233 332.737 241.164 333.46 242.415C333.946 243.256 334.262 244.117 334.41 244.999C334.566 245.883 334.533 246.751 334.309 247.603C334.088 248.461 333.659 249.277 333.021 250.051C332.389 250.822 331.53 251.52 330.445 252.147L329.473 252.707L323.253 241.939L325.445 240.674L329.742 248.113C330.252 247.819 330.639 247.448 330.904 247C331.169 246.552 331.299 246.067 331.294 245.546C331.297 245.028 331.15 244.511 330.852 243.997C330.542 243.46 330.143 243.056 329.654 242.784C329.173 242.515 328.659 242.384 328.109 242.391C327.565 242.395 327.04 242.54 326.533 242.825L324.448 244.028C323.817 244.392 323.339 244.823 323.013 245.321C322.691 245.824 322.531 246.363 322.531 246.939C322.531 247.514 322.702 248.098 323.044 248.69C323.271 249.083 323.535 249.411 323.834 249.674C324.133 249.936 324.461 250.12 324.817 250.225C325.172 250.329 325.546 250.35 325.937 250.286L327.611 253.682C326.729 253.97 325.846 254.025 324.962 253.849C324.086 253.675 323.252 253.279 322.458 252.659C321.674 252.042 320.977 251.207 320.37 250.156ZM334.751 257.455L327.377 261.71L325.334 258.173L338.09 250.813L340.037 254.184L337.786 255.482L337.873 255.632C338.778 255.486 339.638 255.62 340.453 256.035C341.274 256.447 341.958 257.126 342.505 258.073C343.017 258.958 343.269 259.842 343.262 260.725C343.255 261.607 342.997 262.438 342.488 263.219C341.985 263.996 341.238 264.671 340.247 265.243L332.125 269.929L330.082 266.393L337.573 262.07C338.357 261.625 338.85 261.075 339.054 260.418C339.264 259.759 339.164 259.075 338.755 258.366C338.48 257.89 338.134 257.529 337.718 257.281C337.306 257.04 336.844 256.93 336.332 256.952C335.83 256.976 335.303 257.144 334.751 257.455ZM336.843 278.672C336.086 277.36 335.699 276.078 335.684 274.825C335.677 273.574 336.017 272.411 336.703 271.337C337.394 270.259 338.412 269.332 339.758 268.555C341.07 267.798 342.369 267.388 343.654 267.326C344.939 267.263 346.125 267.534 347.213 268.139C348.304 268.749 349.211 269.68 349.933 270.931C350.419 271.772 350.736 272.634 350.884 273.515C351.04 274.399 351.006 275.267 350.782 276.12C350.562 276.978 350.133 277.793 349.495 278.568C348.862 279.338 348.003 280.037 346.918 280.663L345.947 281.224L339.726 270.456L341.918 269.19L346.216 276.629C346.725 276.335 347.112 275.964 347.378 275.516C347.643 275.068 347.773 274.583 347.767 274.063C347.77 273.544 347.623 273.028 347.326 272.513C347.016 271.976 346.616 271.572 346.127 271.301C345.647 271.032 345.132 270.901 344.583 270.908C344.039 270.912 343.513 271.056 343.006 271.341L340.922 272.544C340.29 272.908 339.812 273.339 339.487 273.837C339.165 274.34 339.004 274.879 339.004 275.455C339.005 276.03 339.176 276.614 339.518 277.206C339.745 277.599 340.008 277.927 340.307 278.19C340.607 278.453 340.934 278.636 341.29 278.741C341.646 278.846 342.02 278.866 342.411 278.803L344.085 282.198C343.203 282.486 342.319 282.542 341.435 282.366C340.56 282.192 339.725 281.795 338.932 281.176C338.147 280.558 337.451 279.724 336.843 278.672ZM341.807 286.69L354.563 279.329L356.544 282.758L354.318 284.042L354.395 284.175C355.321 283.951 356.144 283.996 356.865 284.311C357.591 284.622 358.161 285.135 358.573 285.849C358.675 286.026 358.775 286.223 358.871 286.441C358.967 286.659 359.041 286.856 359.091 287.033L355.952 288.845C355.906 288.65 355.818 288.395 355.687 288.079C355.556 287.763 355.42 287.484 355.28 287.24C354.979 286.72 354.597 286.32 354.134 286.042C353.679 285.765 353.183 285.623 352.647 285.615C352.114 285.613 351.587 285.762 351.067 286.062L343.85 290.226L341.807 286.69ZM348.982 299.666C348.512 298.852 348.235 298.046 348.149 297.246C348.069 296.444 348.202 295.696 348.547 295.002C348.901 294.311 349.498 293.723 350.34 293.237C351.048 292.828 351.719 292.615 352.351 292.597C352.983 292.579 353.575 292.71 354.127 292.989C354.68 293.268 355.195 293.649 355.674 294.133C356.156 294.622 356.61 295.165 357.035 295.761C357.541 296.458 357.959 297.014 358.287 297.43C358.621 297.842 358.917 298.111 359.174 298.236C359.43 298.36 359.694 298.345 359.966 298.188L360.015 298.159C360.541 297.856 360.852 297.455 360.948 296.957C361.048 296.464 360.923 295.916 360.574 295.313C360.207 294.676 359.773 294.251 359.273 294.038C358.779 293.821 358.286 293.773 357.795 293.894L356.171 290.47C357.042 290.189 357.901 290.129 358.747 290.29C359.599 290.448 360.399 290.824 361.148 291.418C361.906 292.014 362.579 292.821 363.167 293.839C363.576 294.548 363.885 295.274 364.093 296.017C364.304 296.766 364.381 297.493 364.323 298.198C364.268 298.908 364.052 299.568 363.673 300.178C363.3 300.784 362.734 301.306 361.975 301.744L353.372 306.709L351.434 303.354L353.203 302.334L353.145 302.234C352.629 302.259 352.119 302.188 351.616 302.021C351.119 301.85 350.645 301.573 350.195 301.191C349.751 300.805 349.347 300.297 348.982 299.666ZM352.009 299.27C352.31 299.79 352.677 300.191 353.112 300.471C353.553 300.748 354.016 300.898 354.501 300.92C354.987 300.943 355.454 300.825 355.902 300.566L357.256 299.785C357.12 299.716 356.966 299.602 356.793 299.443C356.629 299.287 356.453 299.104 356.266 298.895C356.084 298.682 355.905 298.468 355.729 298.253C355.558 298.034 355.403 297.836 355.263 297.658C354.963 297.278 354.656 296.971 354.344 296.738C354.032 296.505 353.713 296.368 353.387 296.327C353.067 296.283 352.74 296.357 352.408 296.549C351.926 296.827 351.659 297.214 351.606 297.709C351.561 298.207 351.696 298.728 352.009 299.27ZM371.631 308.875L368.974 310.408L364.537 302.729L367.195 301.195L371.631 308.875ZM371.258 301.175L373.301 304.712L361.409 311.574C361.082 311.763 360.857 311.959 360.731 312.165C360.612 312.366 360.567 312.577 360.597 312.795C360.631 313.019 360.717 313.251 360.854 313.489C360.95 313.655 361.06 313.813 361.183 313.963C361.312 314.11 361.411 314.223 361.479 314.302L359.167 316.377C359.01 316.232 358.802 316.019 358.545 315.74C358.282 315.464 358.009 315.1 357.727 314.651C357.202 313.817 356.884 313.005 356.773 312.213C356.665 311.426 356.783 310.697 357.127 310.027C357.47 309.356 358.062 308.783 358.901 308.306L371.258 301.175ZM363.235 324.358C362.477 323.046 362.091 321.763 362.076 320.51C362.069 319.26 362.409 318.097 363.095 317.022C363.786 315.944 364.804 315.017 366.15 314.241C367.462 313.484 368.76 313.074 370.046 313.011C371.331 312.949 372.517 313.22 373.605 313.825C374.696 314.435 375.602 315.366 376.325 316.617C376.811 317.458 377.128 318.319 377.275 319.201C377.432 320.085 377.398 320.953 377.174 321.805C376.954 322.663 376.525 323.479 375.887 324.253C375.254 325.024 374.395 325.722 373.31 326.348L372.338 326.909L366.118 316.141L368.31 314.876L372.608 322.315C373.117 322.021 373.504 321.65 373.769 321.202C374.035 320.753 374.164 320.269 374.159 319.748C374.162 319.23 374.015 318.713 373.718 318.198C373.408 317.662 373.008 317.257 372.519 316.986C372.039 316.717 371.524 316.586 370.974 316.593C370.43 316.597 369.905 316.742 369.398 317.027L367.313 318.23C366.682 318.594 366.204 319.025 365.879 319.522C365.557 320.026 365.396 320.565 365.396 321.14C365.396 321.716 365.568 322.3 365.91 322.892C366.137 323.285 366.4 323.613 366.699 323.875C366.999 324.138 367.326 324.322 367.682 324.426C368.038 324.531 368.411 324.552 368.803 324.488L370.477 327.884C369.594 328.171 368.711 328.227 367.827 328.051C366.952 327.877 366.117 327.481 365.324 326.861C364.539 326.244 363.843 325.409 363.235 324.358ZM383.447 337.724L381.377 334.601C381.622 334.386 381.802 334.123 381.918 333.813C382.04 333.499 382.081 333.154 382.041 332.779C382.01 332.406 381.876 332.014 381.639 331.605C381.323 331.057 380.94 330.662 380.49 330.42C380.045 330.174 379.632 330.162 379.25 330.382C378.946 330.558 378.758 330.828 378.689 331.193C378.619 331.558 378.692 332.073 378.906 332.739L379.775 335.315C380.236 336.702 380.36 337.863 380.147 338.798C379.934 339.732 379.368 340.465 378.449 340.995C377.613 341.477 376.737 341.654 375.822 341.526C374.909 341.403 374.03 341.018 373.183 340.37C372.345 339.724 371.606 338.848 370.967 337.741C369.991 336.053 369.566 334.505 369.69 333.098C369.824 331.692 370.45 330.553 371.568 329.678L373.761 333.051C373.307 333.454 373.061 333.935 373.023 334.496C372.99 335.053 373.156 335.647 373.521 336.278C373.879 336.898 374.286 337.328 374.741 337.567C375.206 337.808 375.63 337.821 376.015 337.606C376.333 337.415 376.518 337.128 376.569 336.744C376.626 336.357 376.55 335.855 376.341 335.237L375.506 332.775C375.035 331.386 374.932 330.21 375.195 329.246C375.461 328.288 376.07 327.535 377.022 326.985C377.841 326.512 378.675 326.326 379.523 326.427C380.375 326.534 381.194 326.899 381.982 327.521C382.773 328.15 383.484 329.009 384.114 330.099C385.044 331.71 385.436 333.174 385.289 334.491C385.145 335.814 384.531 336.892 383.447 337.724Z" fill="black"/>
<path d="M194.188 385.842C193.602 386.428 193.602 387.377 194.188 387.963L203.734 397.509C204.32 398.095 205.269 398.095 205.855 397.509C206.441 396.923 206.441 395.974 205.855 395.388L197.37 386.902L205.855 378.417C206.441 377.831 206.441 376.882 205.855 376.296C205.269 375.71 204.32 375.71 203.734 376.296L194.188 385.842ZM354.487 385.402L195.249 385.402L195.249 388.402L354.487 388.402L354.487 385.402Z" fill="black"/>
<path d="M165.49 387.741C165.705 388.541 166.527 389.015 167.328 388.801L180.371 385.306C181.171 385.091 181.646 384.269 181.432 383.469C181.218 382.669 180.395 382.194 179.595 382.409L168.001 385.515L164.896 373.927C164.681 373.127 163.859 372.653 163.058 372.867C162.258 373.081 161.783 373.904 161.997 374.704L165.49 387.741ZM271.989 202.508L165.64 386.603L168.239 388.102L274.588 204.007L271.989 202.508Z" fill="black"/>
<path d="M379.508 388.543C380.309 388.758 381.131 388.283 381.345 387.483L384.839 374.446C385.053 373.646 384.578 372.824 383.778 372.61C382.977 372.395 382.155 372.87 381.94 373.67L378.835 385.258L367.241 382.151C366.441 381.937 365.618 382.412 365.404 383.212C365.189 384.012 365.664 384.834 366.465 385.048L379.508 388.543ZM272.248 203.75L378.597 387.844L381.195 386.345L274.847 202.25L272.248 203.75Z" fill="black"/>
<path d="M144 392.914V483H57V371H122.086L144 392.914Z" fill="white" stroke="black" stroke-width="2"/>
<path d="M57 482V483H58H143H144V482V394.5V393.5H143H121.5V372V371H120.5H58H57V372V482Z" fill="#F3E050" stroke="black" stroke-width="2"/>
<path d="M89.5719 437.231C88.9859 437.231 88.4829 437.024 88.0626 436.609C87.6483 436.189 87.4412 435.686 87.4412 435.1C87.4412 434.52 87.6483 434.023 88.0626 433.609C88.4829 433.194 88.9859 432.987 89.5719 432.987C90.14 432.987 90.6372 433.194 91.0633 433.609C91.4895 434.023 91.7025 434.52 91.7025 435.1C91.7025 435.491 91.6019 435.849 91.4007 436.174C91.2054 436.494 90.9479 436.751 90.6283 436.947C90.3087 437.136 89.9566 437.231 89.5719 437.231ZM94.8076 423.364H98.5895V437.675C98.5895 438.728 98.3824 439.58 97.9681 440.232C97.5538 440.883 96.959 441.359 96.1836 441.661C95.4142 441.963 94.4939 442.114 93.4226 442.114C93.2924 442.114 93.1681 442.111 93.0498 442.105C92.9255 442.105 92.7953 442.102 92.6591 442.096V439.14C92.7598 439.145 92.8485 439.148 92.9255 439.148C92.9965 439.154 93.0734 439.157 93.1563 439.157C93.7659 439.157 94.192 439.027 94.4347 438.767C94.6833 438.512 94.8076 438.127 94.8076 437.613V423.364ZM96.6897 421.606C96.1333 421.606 95.6539 421.419 95.2515 421.047C94.849 420.668 94.6478 420.215 94.6478 419.688C94.6478 419.167 94.849 418.721 95.2515 418.348C95.6539 417.969 96.1333 417.779 96.6897 417.779C97.2579 417.779 97.7402 417.969 98.1368 418.348C98.5392 418.721 98.7405 419.167 98.7405 419.688C98.7405 420.215 98.5392 420.668 98.1368 421.047C97.7402 421.419 97.2579 421.606 96.6897 421.606ZM112.965 427.252L109.503 427.465C109.443 427.169 109.316 426.903 109.121 426.666C108.926 426.424 108.668 426.231 108.348 426.089C108.035 425.941 107.659 425.867 107.221 425.867C106.635 425.867 106.141 425.991 105.738 426.24C105.336 426.483 105.135 426.808 105.135 427.217C105.135 427.542 105.265 427.817 105.525 428.042C105.786 428.267 106.233 428.448 106.866 428.584L109.334 429.081C110.66 429.353 111.648 429.791 112.299 430.395C112.95 430.999 113.276 431.792 113.276 432.774C113.276 433.668 113.012 434.452 112.486 435.127C111.965 435.801 111.249 436.328 110.337 436.707C109.432 437.08 108.387 437.266 107.203 437.266C105.398 437.266 103.96 436.891 102.889 436.139C101.823 435.381 101.199 434.351 101.015 433.049L104.735 432.854C104.848 433.404 105.12 433.825 105.552 434.115C105.984 434.399 106.537 434.541 107.212 434.541C107.875 434.541 108.408 434.414 108.81 434.159C109.219 433.899 109.426 433.564 109.432 433.156C109.426 432.813 109.281 432.531 108.997 432.312C108.712 432.088 108.275 431.916 107.683 431.798L105.321 431.327C103.989 431.061 102.998 430.599 102.347 429.942C101.702 429.285 101.379 428.448 101.379 427.43C101.379 426.554 101.616 425.799 102.09 425.166C102.569 424.533 103.241 424.044 104.105 423.701C104.975 423.358 105.993 423.186 107.159 423.186C108.881 423.186 110.237 423.55 111.225 424.278C112.219 425.006 112.799 425.997 112.965 427.252Z" fill="black"/>
<path d="M495 392.914V483H408V371H473.086L495 392.914Z" fill="white" stroke="black" stroke-width="2"/>
<path d="M408 482V483H409H494H495V482V394.5V393.5H494H472.5V372V371H471.5H409H408V372V482Z" fill="#EDEDED" stroke="black" stroke-width="2"/>
<path d="M427.535 437.231C426.949 437.231 426.446 437.024 426.026 436.609C425.611 436.189 425.404 435.686 425.404 435.1C425.404 434.52 425.611 434.023 426.026 433.609C426.446 433.194 426.949 432.987 427.535 432.987C428.103 432.987 428.6 433.194 429.026 433.609C429.452 434.023 429.665 434.52 429.665 435.1C429.665 435.491 429.565 435.849 429.364 436.174C429.168 436.494 428.911 436.751 428.591 436.947C428.272 437.136 427.919 437.231 427.535 437.231ZM437.795 437.222C436.76 437.222 435.821 436.956 434.981 436.423C434.147 435.884 433.484 435.094 432.992 434.053C432.507 433.005 432.264 431.721 432.264 430.2C432.264 428.637 432.516 427.338 433.019 426.302C433.522 425.261 434.191 424.482 435.025 423.967C435.866 423.446 436.786 423.186 437.786 423.186C438.55 423.186 439.186 423.316 439.695 423.577C440.21 423.831 440.624 424.151 440.938 424.536C441.258 424.914 441.5 425.287 441.666 425.654H441.781V418.818H445.555V437H441.826V434.816H441.666C441.489 435.195 441.237 435.571 440.911 435.944C440.592 436.31 440.175 436.615 439.66 436.858C439.151 437.101 438.529 437.222 437.795 437.222ZM438.994 434.212C439.603 434.212 440.118 434.047 440.539 433.715C440.965 433.378 441.29 432.907 441.515 432.304C441.746 431.7 441.861 430.993 441.861 430.182C441.861 429.371 441.749 428.667 441.524 428.069C441.299 427.471 440.974 427.009 440.547 426.684C440.121 426.358 439.603 426.196 438.994 426.196C438.372 426.196 437.849 426.364 437.422 426.702C436.996 427.039 436.674 427.507 436.455 428.104C436.236 428.702 436.126 429.395 436.126 430.182C436.126 430.975 436.236 431.676 436.455 432.286C436.68 432.89 437.002 433.363 437.422 433.706C437.849 434.044 438.372 434.212 438.994 434.212ZM450.875 437.231C450.289 437.231 449.786 437.024 449.365 436.609C448.951 436.189 448.744 435.686 448.744 435.1C448.744 434.52 448.951 434.023 449.365 433.609C449.786 433.194 450.289 432.987 450.875 432.987C451.443 432.987 451.94 433.194 452.366 433.609C452.792 434.023 453.005 434.52 453.005 435.1C453.005 435.491 452.905 435.849 452.703 436.174C452.508 436.494 452.251 436.751 451.931 436.947C451.611 437.136 451.259 437.231 450.875 437.231ZM463.364 423.364V426.205H455.152V423.364H463.364ZM457.016 420.097H460.798V432.81C460.798 433.159 460.851 433.431 460.958 433.626C461.064 433.816 461.212 433.949 461.402 434.026C461.597 434.103 461.822 434.141 462.076 434.141C462.254 434.141 462.431 434.127 462.609 434.097C462.786 434.061 462.923 434.035 463.017 434.017L463.612 436.831C463.423 436.891 463.156 436.959 462.813 437.036C462.47 437.118 462.053 437.169 461.561 437.186C460.65 437.222 459.851 437.101 459.164 436.822C458.484 436.544 457.954 436.112 457.575 435.526C457.196 434.94 457.01 434.201 457.016 433.307V420.097ZM477.002 427.252L473.54 427.465C473.481 427.169 473.353 426.903 473.158 426.666C472.963 426.424 472.705 426.231 472.386 426.089C472.072 425.941 471.696 425.867 471.258 425.867C470.672 425.867 470.178 425.991 469.776 426.24C469.373 426.483 469.172 426.808 469.172 427.217C469.172 427.542 469.302 427.817 469.562 428.042C469.823 428.267 470.27 428.448 470.903 428.584L473.371 429.081C474.697 429.353 475.685 429.791 476.336 430.395C476.987 430.999 477.313 431.792 477.313 432.774C477.313 433.668 477.049 434.452 476.523 435.127C476.002 435.801 475.286 436.328 474.374 436.707C473.469 437.08 472.424 437.266 471.24 437.266C469.435 437.266 467.997 436.891 466.926 436.139C465.86 435.381 465.236 434.351 465.053 433.049L468.772 432.854C468.885 433.404 469.157 433.825 469.589 434.115C470.021 434.399 470.575 434.541 471.249 434.541C471.912 434.541 472.445 434.414 472.847 434.159C473.256 433.899 473.463 433.564 473.469 433.156C473.463 432.813 473.318 432.531 473.034 432.312C472.75 432.088 472.312 431.916 471.72 431.798L469.358 431.327C468.027 431.061 467.035 430.599 466.384 429.942C465.739 429.285 465.417 428.448 465.417 427.43C465.417 426.554 465.653 425.799 466.127 425.166C466.606 424.533 467.278 424.044 468.142 423.701C469.012 423.358 470.03 423.186 471.196 423.186C472.918 423.186 474.274 423.55 475.262 424.278C476.256 425.006 476.836 425.997 477.002 427.252Z" fill="#3177C4"/>
<path d="M317 77.9142V168H230V56H295.086L317 77.9142Z" fill="white" stroke="black" stroke-width="2"/>
<path d="M230 167V168H231H316H317V167V79.5V78.5H316H294.5V57V56H293.5H231H230V57V167Z" fill="#3178C6" stroke="black" stroke-width="2"/>
<path d="M261.205 122.231C260.619 122.231 260.116 122.024 259.695 121.609C259.281 121.189 259.074 120.686 259.074 120.1C259.074 119.52 259.281 119.023 259.695 118.609C260.116 118.194 260.619 117.987 261.205 117.987C261.773 117.987 262.27 118.194 262.696 118.609C263.122 119.023 263.335 119.52 263.335 120.1C263.335 120.491 263.235 120.849 263.034 121.174C262.838 121.494 262.581 121.751 262.261 121.947C261.942 122.136 261.589 122.231 261.205 122.231ZM273.694 108.364V111.205H265.482V108.364H273.694ZM267.346 105.097H271.128V117.81C271.128 118.159 271.181 118.431 271.288 118.626C271.394 118.816 271.542 118.949 271.732 119.026C271.927 119.103 272.152 119.141 272.406 119.141C272.584 119.141 272.761 119.127 272.939 119.097C273.117 119.061 273.253 119.035 273.347 119.017L273.942 121.831C273.753 121.891 273.486 121.959 273.143 122.036C272.8 122.118 272.383 122.169 271.891 122.186C270.98 122.222 270.181 122.101 269.494 121.822C268.814 121.544 268.284 121.112 267.905 120.526C267.526 119.94 267.34 119.201 267.346 118.307V105.097ZM287.332 112.252L283.87 112.465C283.811 112.169 283.683 111.903 283.488 111.666C283.293 111.424 283.035 111.231 282.716 111.089C282.402 110.941 282.026 110.867 281.588 110.867C281.002 110.867 280.508 110.991 280.106 111.24C279.703 111.483 279.502 111.808 279.502 112.217C279.502 112.542 279.632 112.817 279.893 113.042C280.153 113.267 280.6 113.448 281.233 113.584L283.701 114.081C285.027 114.353 286.015 114.791 286.666 115.395C287.317 115.999 287.643 116.792 287.643 117.774C287.643 118.668 287.38 119.452 286.853 120.127C286.332 120.801 285.616 121.328 284.704 121.707C283.799 122.08 282.754 122.266 281.57 122.266C279.765 122.266 278.327 121.891 277.256 121.139C276.19 120.381 275.566 119.351 275.383 118.049L279.102 117.854C279.215 118.404 279.487 118.825 279.919 119.115C280.351 119.399 280.905 119.541 281.579 119.541C282.242 119.541 282.775 119.414 283.177 119.159C283.586 118.899 283.793 118.564 283.799 118.156C283.793 117.813 283.648 117.531 283.364 117.312C283.08 117.088 282.642 116.916 282.05 116.798L279.688 116.327C278.357 116.061 277.365 115.599 276.714 114.942C276.069 114.285 275.747 113.448 275.747 112.43C275.747 111.554 275.983 110.799 276.457 110.166C276.936 109.533 277.608 109.044 278.472 108.701C279.342 108.358 280.36 108.186 281.526 108.186C283.248 108.186 284.604 108.55 285.592 109.278C286.586 110.006 287.166 110.997 287.332 112.252Z" fill="white"/>
</svg>
