<?xml version="1.0" standalone="no"?>
<!DOCTYPE svg PUBLIC "-//W3C//DTD SVG 20010904//EN"
 "http://www.w3.org/TR/2001/REC-SVG-20010904/DTD/svg10.dtd">
<svg version="1.0" xmlns="http://www.w3.org/2000/svg"
 width="256.000000pt" height="256.000000pt" viewBox="0 0 256.000000 256.000000"
 preserveAspectRatio="xMidYMid meet">
<metadata>
Created by potrace 1.11, written by Peter Selinger 2001-2013
</metadata>
<g transform="translate(0.000000,256.000000) scale(0.100000,-0.100000)"
fill="#000000" stroke="none">
<path d="M0 1280 l0 -1280 1280 0 1280 0 0 1280 0 1280 -1280 0 -1280 0 0
-1280z m1570 45 l0 -115 -165 0 -165 0 0 -525 0 -525 -135 0 -135 0 0 525 0
525 -165 0 -165 0 0 115 0 115 465 0 465 0 0 -115z m650 101 c41 -8 87 -19
103 -25 l27 -11 0 -125 c0 -69 -2 -125 -4 -125 -2 0 -23 11 -47 24 -90 51
-234 70 -322 44 -21 -6 -52 -25 -68 -41 -24 -23 -29 -37 -29 -74 0 -40 5 -51
38 -82 21 -20 99 -66 175 -104 160 -79 241 -146 278 -229 33 -74 34 -230 2
-300 -30 -66 -96 -133 -161 -164 -138 -65 -363 -71 -539 -13 l-63 21 0 139 0
139 50 -36 c65 -47 149 -76 237 -82 88 -6 153 10 193 48 25 23 30 36 30 74 0
73 -42 111 -214 195 -152 75 -200 109 -245 175 -100 145 -70 367 64 468 114
87 303 119 495 84z"/>
</g>
</svg>
