<?xml version="1.0" encoding="UTF-8" standalone="no"?>
<svg xmlns:dc="http://purl.org/dc/elements/1.1/" xmlns:cc="http://creativecommons.org/ns#" xmlns:rdf="http://www.w3.org/1999/02/22-rdf-syntax-ns#" xmlns:svg="http://www.w3.org/2000/svg" xmlns="http://www.w3.org/2000/svg" viewBox="0 0 117.5 45" height="45" width="117.5" xml:space="preserve" version="1.1" id="svg2"><metadata id="metadata8"><rdf:RDF><cc:Work rdf:about=""><dc:format>image/svg+xml</dc:format><dc:type rdf:resource="http://purl.org/dc/dcmitype/StillImage"/></cc:Work></rdf:RDF></metadata><defs id="defs6"><clipPath id="clipPath16" clipPathUnits="userSpaceOnUse"><path id="path18" d="M 0,36 94,36 94,0 0,0 0,36 Z"/></clipPath></defs><g transform="matrix(1.25,0,0,-1.25,0,45)" id="g10"><g id="g12"><g clip-path="url(#clipPath16)" id="g14"><g transform="translate(7.2798,13.2842)" id="g20"><path id="path22" style="fill:#ff1f59;fill-opacity:1;fill-rule:nonzero;stroke:none" d="M 0,0 C -0.16,0 -0.322,0.037 -0.475,0.113 -1,0.376 -1.213,1.015 -0.951,1.539 L 1.175,5.792 C 1.438,6.317 2.077,6.53 2.602,6.267 3.127,6.004 3.34,5.366 3.077,4.84 L 0.951,0.588 C 0.765,0.217 0.39,0 0,0"/></g><g transform="translate(20.0347,13.2842)" id="g24"><path id="path26" style="fill:#ff1f59;fill-opacity:1;fill-rule:nonzero;stroke:none" d="M 0,0 C -0.16,0 -0.322,0.037 -0.475,0.113 -1,0.376 -1.212,1.015 -0.95,1.539 l 4.253,8.504 c 0.261,0.525 0.9,0.738 1.426,0.476 C 5.254,10.256 5.466,9.618 5.204,9.093 L 0.953,0.588 C 0.766,0.217 0.391,0 0,0"/></g><g transform="translate(17.9092,17.5366)" id="g28"><path id="path30" style="fill:#ff1f59;fill-opacity:1;fill-rule:nonzero;stroke:none" d="M 0,0 C -0.16,0 -0.322,0.036 -0.475,0.113 -1,0.375 -1.212,1.014 -0.951,1.539 L 1.176,5.791 C 1.438,6.316 2.078,6.529 2.602,6.267 3.127,6.004 3.34,5.365 3.078,4.84 L 0.952,0.588 C 0.765,0.215 0.39,0 0,0"/></g><g transform="translate(11.5312,13.2842)" id="g32"><path id="path34" style="fill:#ff1f59;fill-opacity:1;fill-rule:nonzero;stroke:none" d="M 0,0 C -0.159,0 -0.322,0.037 -0.475,0.113 -1,0.376 -1.212,1.015 -0.95,1.539 l 4.252,8.504 c 0.262,0.525 0.901,0.738 1.426,0.476 C 5.253,10.256 5.466,9.618 5.204,9.093 L 0.952,0.588 C 0.765,0.217 0.39,0 0,0"/></g><g transform="translate(41.1255,26.7969)" id="g36"><path id="path38" style="fill:#ff1f59;fill-opacity:1;fill-rule:nonzero;stroke:none" d="M 0,0 C 0,0.189 0.067,0.351 0.202,0.487 0.338,0.622 0.5,0.689 0.688,0.689 0.878,0.689 1.038,0.622 1.169,0.487 1.304,0.351 1.372,0.189 1.372,0 l 0,-5.095 c 0,-0.695 -0.245,-1.289 -0.735,-1.783 -0.495,-0.491 -1.089,-0.736 -1.784,-0.736 -0.189,0 -0.349,0.068 -0.48,0.203 -0.135,0.131 -0.203,0.291 -0.203,0.48 0,0.189 0.068,0.352 0.203,0.487 0.131,0.135 0.291,0.203 0.48,0.203 0.317,0 0.587,0.112 0.811,0.335 C -0.112,-5.682 0,-5.412 0,-5.095 L 0,0 Z"/></g><g transform="translate(48.502,22.3101)" id="g40"><path id="path42" style="fill:#ff1f59;fill-opacity:1;fill-rule:nonzero;stroke:none" d="M 0,0 -1.118,2.687 -2.229,0 0,0 Z m -4.238,-3.075 c -0.174,0.074 -0.298,0.197 -0.371,0.371 -0.07,0.173 -0.07,0.347 0,0.521 l 0.735,1.766 0,0.006 2.131,5.141 c 0.008,0.02 0.017,0.039 0.029,0.059 l 0.011,0.028 c 0.012,0.016 0.02,0.025 0.023,0.029 0,0.004 0.007,0.013 0.018,0.029 0.012,0.011 0.02,0.02 0.023,0.023 0,0.004 0.006,0.012 0.017,0.023 0.016,0.016 0.024,0.024 0.024,0.03 0.004,0.003 0.012,0.009 0.023,0.017 0.015,0.015 0.025,0.022 0.029,0.022 -0.004,0 0.004,0.007 0.023,0.018 0.015,0.012 0.025,0.019 0.029,0.023 l 0.023,0.017 c 0.019,0.013 0.031,0.018 0.035,0.018 0.008,0.004 0.021,0.01 0.04,0.017 0.02,0.012 0.026,0.016 0.018,0.012 -0.008,-0.004 0,0 0.023,0.011 0.02,0.005 0.032,0.008 0.041,0.012 0.003,0 0.017,0.004 0.039,0.012 l 0.024,0.005 c 0.008,0 0.021,0.002 0.041,0.006 l 0.028,0.006 0.035,0 0.029,0 0.035,0 0.035,0 0.035,-0.006 0.028,-0.006 c 0.008,0 0.022,-0.004 0.041,-0.011 0.023,-0.004 0.03,-0.006 0.023,-0.006 0.046,-0.012 0.089,-0.029 0.128,-0.052 -0.004,0.004 0.004,0 0.023,-0.011 0.019,-0.013 0.03,-0.02 0.035,-0.024 l 0.023,-0.017 c 0.015,-0.012 0.025,-0.02 0.029,-0.024 0.004,0 0.011,-0.005 0.023,-0.016 0.011,-0.012 0.021,-0.02 0.029,-0.023 0,-0.006 0.006,-0.013 0.017,-0.024 0.015,-0.016 0.023,-0.025 0.023,-0.029 L -0.573,4.875 C -0.558,4.859 -0.55,4.85 -0.55,4.846 c 0,-0.004 0.006,-0.013 0.017,-0.029 0.012,-0.016 0.017,-0.025 0.017,-0.028 0.012,-0.02 0.022,-0.039 0.03,-0.059 l 2.131,-5.141 0,-0.006 0.734,-1.766 c 0.07,-0.174 0.07,-0.348 0,-0.521 C 2.306,-2.878 2.183,-3.001 2.009,-3.075 1.924,-3.109 1.837,-3.127 1.748,-3.127 c -0.305,0 -0.515,0.141 -0.631,0.423 l -0.555,1.343 -3.353,0 -0.556,-1.343 c -0.116,-0.282 -0.326,-0.423 -0.631,-0.423 l -0.133,0 c 0,0 -0.043,0.018 -0.127,0.052"/></g><g transform="translate(59.9023,27.4858)" id="g44"><path id="path46" style="fill:#ff1f59;fill-opacity:1;fill-rule:nonzero;stroke:none" d="m 0,0 c 0.147,-0.042 0.267,-0.125 0.359,-0.249 0.093,-0.12 0.139,-0.257 0.139,-0.411 l 0,-6.96 c 0,-0.189 -0.066,-0.349 -0.197,-0.48 -0.135,-0.135 -0.297,-0.203 -0.486,-0.203 -0.189,0 -0.351,0.068 -0.487,0.203 -0.131,0.131 -0.196,0.291 -0.196,0.48 l 0,4.506 -2.16,-3.568 0,-0.005 -0.006,-0.006 -0.005,-0.006 -0.007,-0.006 C -3.058,-6.724 -3.065,-6.737 -3.069,-6.746 L -3.086,-6.769 C -3.102,-6.784 -3.11,-6.793 -3.115,-6.797 -3.119,-6.801 -3.127,-6.809 -3.138,-6.82 -3.149,-6.832 -3.157,-6.84 -3.161,-6.844 -3.169,-6.852 -3.181,-6.861 -3.196,-6.873 L -3.213,-6.89 c -0.012,-0.007 -0.025,-0.016 -0.041,-0.023 0,-0.004 -0.002,-0.005 -0.006,-0.005 l -0.006,-0.007 -0.005,0 c -0.008,-0.007 -0.022,-0.015 -0.041,-0.023 -0.015,-0.007 -0.022,-0.011 -0.016,-0.011 -0.006,0 -0.017,-0.004 -0.036,-0.012 -0.089,-0.039 -0.181,-0.055 -0.278,-0.052 l -0.011,0 c 0.007,0 0,0.002 -0.023,0.006 -0.052,0.003 -0.1,0.014 -0.151,0.029 -0.02,0.004 -0.027,0.006 -0.024,0.006 0.008,-0.004 0,-0.002 -0.023,0.005 -0.019,0.008 -0.032,0.014 -0.04,0.018 0.005,0 0,0.004 -0.012,0.011 -0.019,0.008 -0.034,0.016 -0.046,0.023 l -0.006,0 -0.005,0.007 -0.006,0.005 c -0.016,0.007 -0.029,0.017 -0.041,0.029 0,-0.004 -0.005,0 -0.018,0.011 -0.014,0.012 -0.026,0.021 -0.034,0.029 -0.004,0.004 -0.012,0.012 -0.022,0.024 -0.012,0.011 -0.02,0.019 -0.024,0.023 -0.004,0.007 -0.014,0.017 -0.029,0.028 -0.008,0.013 -0.012,0.02 -0.012,0.023 -0.007,0.009 -0.018,0.022 -0.028,0.041 l -0.006,0.006 c 0,0.004 -0.003,0.006 -0.007,0.006 l 0,0.006 c 0,0.004 -0.001,0.005 -0.005,0.005 l -2.154,3.568 0,-4.506 c 0,-0.189 -0.068,-0.349 -0.202,-0.48 -0.136,-0.135 -0.298,-0.203 -0.488,-0.203 -0.188,0 -0.348,0.068 -0.48,0.203 -0.135,0.131 -0.202,0.291 -0.202,0.48 l 0,6.96 c 0,0.154 0.046,0.291 0.139,0.411 0.092,0.124 0.214,0.207 0.365,0.249 0.146,0.039 0.291,0.031 0.434,-0.023 0.143,-0.058 0.254,-0.153 0.335,-0.284 l 2.85,-4.707 2.848,4.707 c 0.078,0.131 0.187,0.226 0.33,0.284 0.143,0.054 0.214,0.082 0.214,0.082 L 0,0 Z"/></g><g transform="translate(67.2148,20.5557)" id="g48"><path id="path50" style="fill:#ff1f59;fill-opacity:1;fill-rule:nonzero;stroke:none" d="M 0,0 C 0.189,0 0.35,-0.067 0.481,-0.203 0.615,-0.338 0.684,-0.5 0.684,-0.689 0.684,-0.878 0.615,-1.039 0.481,-1.17 0.35,-1.305 0.189,-1.373 0,-1.373 l -4.191,0 c -0.19,0 -0.35,0.068 -0.481,0.203 -0.135,0.131 -0.203,0.292 -0.203,0.481 l 0,6.942 c 0,0.193 0.068,0.355 0.203,0.486 0.131,0.136 0.291,0.203 0.481,0.203 l 0.005,0 L 0,6.93 C 0.189,6.93 0.352,6.863 0.487,6.728 0.618,6.592 0.684,6.431 0.684,6.241 0.684,6.052 0.615,5.892 0.481,5.761 0.35,5.625 0.189,5.558 0,5.558 l -0.006,0 -3.497,0.011 0,-2.101 2.525,0 c 0.189,0 0.351,-0.066 0.486,-0.197 0.136,-0.135 0.203,-0.297 0.203,-0.486 0,-0.189 -0.067,-0.352 -0.203,-0.486 C -0.627,2.167 -0.789,2.102 -0.978,2.102 l -2.525,0 L -3.503,0 0,0 Z"/></g><g transform="translate(74.7246,19.4438)" id="g52"><path id="path54" style="fill:#ff1f59;fill-opacity:1;fill-rule:nonzero;stroke:none" d="m 0,0 -0.005,0 0,0.005 -4.163,5.356 0,-4.939 c 0,-0.189 -0.068,-0.349 -0.202,-0.48 -0.132,-0.135 -0.293,-0.203 -0.482,-0.203 -0.189,0 -0.349,0.068 -0.48,0.203 -0.136,0.131 -0.202,0.291 -0.202,0.48 l 0,6.937 c 0,0.147 0.042,0.278 0.126,0.393 0.086,0.121 0.197,0.203 0.336,0.249 0.135,0.051 0.274,0.055 0.417,0.013 0.139,-0.043 0.254,-0.123 0.343,-0.238 l 4.163,-5.362 0,4.945 c 0,0.19 0.064,0.349 0.196,0.481 0.135,0.135 0.297,0.202 0.486,0.202 0.19,0 0.349,-0.067 0.481,-0.202 C 1.148,7.708 1.217,7.549 1.217,7.359 l 0,-6.948 C 1.217,0.403 1.215,0.392 1.211,0.376 l 0,-0.029 C 1.211,0.339 1.208,0.328 1.205,0.312 1.205,0.297 1.202,0.285 1.199,0.278 L 1.193,0.249 C 1.189,0.229 1.186,0.218 1.182,0.214 1.182,0.21 1.178,0.201 1.17,0.185 1.166,0.17 1.162,0.158 1.159,0.15 L 1.146,0.122 1.13,0.093 C 1.126,0.085 1.119,0.073 1.112,0.058 L 1.095,0.041 C 1.091,0.033 1.083,0.021 1.071,0.005 L 1.055,-0.017 C 1.051,-0.021 1.043,-0.029 1.031,-0.041 1.02,-0.056 1.012,-0.063 1.008,-0.063 1.008,-0.067 1,-0.075 0.984,-0.086 0.973,-0.098 0.963,-0.106 0.956,-0.11 0.967,-0.102 0.966,-0.104 0.95,-0.116 L 0.944,-0.122 C 0.913,-0.145 0.885,-0.164 0.857,-0.179 l -0.005,0 C 0.82,-0.195 0.79,-0.209 0.759,-0.22 0.743,-0.228 0.739,-0.23 0.747,-0.226 0.716,-0.237 0.684,-0.246 0.649,-0.249 L 0.632,-0.255 C 0.597,-0.258 0.564,-0.261 0.533,-0.261 c -0.023,0 -0.048,0.003 -0.076,0.006 0.009,-0.003 0.005,-0.003 -0.011,0 -0.023,0.004 -0.043,0.007 -0.057,0.012 0.003,-0.005 -0.005,-0.003 -0.024,0.006 -0.019,0.004 -0.035,0.007 -0.046,0.011 -0.004,0 -0.012,0.004 -0.024,0.012 -0.019,0.003 -0.034,0.009 -0.046,0.017 -0.007,0 -0.016,0.004 -0.022,0.012 -0.016,0.007 -0.03,0.014 -0.041,0.017 -0.012,0.008 -0.02,0.013 -0.024,0.018 -0.011,0.007 -0.025,0.016 -0.04,0.028 -0.011,0.008 -0.019,0.014 -0.023,0.018 -0.02,0.015 -0.037,0.03 -0.052,0.046 l -0.006,0.006 0,0.006 -0.023,0.023 c 0,0 -0.006,0.007 -0.018,0.023"/></g><g transform="translate(79.2471,20.561)" id="g56"><path id="path58" style="fill:#ff1f59;fill-opacity:1;fill-rule:nonzero;stroke:none" d="m 0,0 1.06,0.017 c 0.768,0 1.422,0.271 1.962,0.812 0.541,0.54 0.811,1.192 0.811,1.956 0,0.76 -0.27,1.411 -0.811,1.952 C 2.482,5.28 1.83,5.553 1.065,5.553 L 0,5.553 0,0 Z m -0.689,-1.378 c -0.185,0 -0.345,0.066 -0.481,0.197 -0.135,0.135 -0.202,0.297 -0.202,0.486 l 0,6.931 c 0,0.189 0.067,0.351 0.202,0.487 0.132,0.131 0.291,0.196 0.481,0.196 l 1.754,0 c 1.143,0 2.12,-0.403 2.93,-1.21 0.807,-0.811 1.21,-1.785 1.21,-2.924 0,-1.142 -0.403,-2.118 -1.21,-2.923 -0.81,-0.811 -1.787,-1.216 -2.93,-1.216 l -1.743,-0.024 -0.011,0 z"/></g><g transform="translate(89.8252,26.1313)" id="g60"><path id="path62" style="fill:#ff1f59;fill-opacity:1;fill-rule:nonzero;stroke:none" d="m 0,0 c -0.769,0 -1.425,-0.272 -1.968,-0.817 -0.549,-0.547 -0.823,-1.205 -0.823,-1.974 0,-0.768 0.274,-1.424 0.823,-1.968 0.543,-0.549 1.199,-0.823 1.968,-0.823 0.769,0 1.427,0.274 1.975,0.823 0.544,0.544 0.816,1.2 0.816,1.968 0,0.769 -0.272,1.427 -0.816,1.974 C 1.427,-0.272 0.769,0 0,0 m 0,-6.948 c -1.146,0 -2.125,0.407 -2.936,1.221 -0.814,0.811 -1.221,1.79 -1.221,2.936 0,1.146 0.407,2.127 1.221,2.941 0.811,0.811 1.79,1.216 2.936,1.216 1.146,0 2.127,-0.405 2.941,-1.216 0.811,-0.814 1.217,-1.795 1.217,-2.941 0,-1.146 -0.406,-2.125 -1.217,-2.936 C 2.127,-6.541 1.146,-6.948 0,-6.948"/></g><g transform="translate(47.0371,16.9453)" id="g64"><path id="path66" style="fill:#ff1f59;fill-opacity:1;fill-rule:nonzero;stroke:none" d="m 0,0 c 0.146,-0.042 0.266,-0.125 0.359,-0.249 0.093,-0.119 0.139,-0.256 0.139,-0.41 l 0,-6.96 c 0,-0.189 -0.066,-0.35 -0.197,-0.482 -0.135,-0.134 -0.298,-0.203 -0.487,-0.203 -0.189,0 -0.351,0.069 -0.486,0.203 -0.131,0.132 -0.197,0.293 -0.197,0.482 l 0,4.504 -2.16,-3.567 0,-0.005 -0.005,-0.006 -0.006,-0.005 -0.006,-0.007 C -3.058,-6.724 -3.065,-6.737 -3.069,-6.746 L -3.086,-6.769 C -3.103,-6.783 -3.112,-6.793 -3.116,-6.797 -3.119,-6.801 -3.127,-6.81 -3.139,-6.82 -3.15,-6.832 -3.158,-6.84 -3.162,-6.844 -3.169,-6.852 -3.181,-6.861 -3.196,-6.873 L -3.214,-6.89 c -0.012,-0.007 -0.025,-0.014 -0.04,-0.023 0,-0.004 -0.002,-0.005 -0.006,-0.005 l -0.006,-0.007 -0.006,0 c -0.007,-0.007 -0.02,-0.015 -0.041,-0.023 -0.015,-0.008 -0.02,-0.011 -0.017,-0.011 -0.003,0 -0.015,-0.005 -0.035,-0.013 -0.088,-0.038 -0.181,-0.055 -0.278,-0.051 l -0.011,0 c 0.008,0 0,0.002 -0.023,0.006 -0.05,0.003 -0.1,0.013 -0.151,0.029 -0.02,0.004 -0.027,0.006 -0.023,0.006 0.008,-0.004 0,-0.002 -0.023,0.005 -0.02,0.007 -0.033,0.013 -0.041,0.018 0.004,0 0,0.003 -0.011,0.011 -0.02,0.008 -0.035,0.016 -0.046,0.023 l -0.007,0 -0.005,0.007 -0.006,0.005 c -0.015,0.009 -0.029,0.017 -0.04,0.029 0,-0.004 -0.006,0 -0.017,0.011 -0.016,0.012 -0.028,0.021 -0.036,0.029 -0.003,0.004 -0.011,0.012 -0.023,0.024 -0.011,0.01 -0.019,0.019 -0.023,0.023 -0.003,0.008 -0.014,0.017 -0.028,0.028 -0.008,0.013 -0.012,0.019 -0.012,0.023 -0.008,0.009 -0.018,0.022 -0.029,0.041 l -0.006,0.007 c 0,0.003 -0.002,0.005 -0.005,0.005 l 0,0.006 c 0,0.004 -0.003,0.005 -0.007,0.005 l -2.154,3.567 0,-4.504 c 0,-0.189 -0.067,-0.35 -0.202,-0.482 -0.135,-0.134 -0.297,-0.203 -0.487,-0.203 -0.189,0 -0.349,0.069 -0.48,0.203 -0.136,0.132 -0.203,0.293 -0.203,0.482 l 0,6.96 c 0,0.154 0.046,0.291 0.139,0.41 0.093,0.124 0.214,0.207 0.365,0.249 0.146,0.039 0.292,0.031 0.434,-0.022 0.143,-0.058 0.255,-0.154 0.336,-0.285 l 2.849,-4.707 2.849,4.707 c 0.077,0.131 0.187,0.227 0.33,0.285 0.142,0.053 0.214,0.081 0.214,0.081 0,0 0.075,-0.02 0.226,-0.059"/></g><g transform="translate(54.5928,16.9453)" id="g68"><path id="path70" style="fill:#ff1f59;fill-opacity:1;fill-rule:nonzero;stroke:none" d="m 0,0 c 0.186,0 0.344,-0.065 0.475,-0.196 0.131,-0.132 0.197,-0.289 0.197,-0.476 l 0,-4.666 c 0,-0.818 -0.289,-1.517 -0.868,-2.097 -0.579,-0.579 -1.277,-0.869 -2.091,-0.869 -0.818,0 -1.517,0.29 -2.096,0.869 -0.579,0.58 -0.869,1.279 -0.869,2.097 l 0,4.666 c 0,0.187 0.066,0.344 0.197,0.476 0.131,0.131 0.29,0.196 0.475,0.196 0.185,0 0.344,-0.065 0.475,-0.196 0.13,-0.132 0.197,-0.289 0.197,-0.476 l 0,-4.666 c 0,-0.447 0.158,-0.83 0.474,-1.146 0.317,-0.317 0.7,-0.475 1.147,-0.475 0.443,0 0.824,0.158 1.141,0.475 0.316,0.316 0.474,0.699 0.474,1.146 l 0,4.666 c 0,0.187 0.067,0.344 0.197,0.476 C -0.343,-0.065 -0.185,0 0,0"/></g><g transform="translate(62.3516,11.1152)" id="g72"><path id="path74" style="fill:#ff1f59;fill-opacity:1;fill-rule:nonzero;stroke:none" d="m 0,0 c -0.031,-0.691 -0.307,-1.275 -0.828,-1.755 -0.526,-0.478 -1.151,-0.719 -1.876,-0.719 -0.63,0 -1.192,0.137 -1.691,0.407 -0.598,0.325 -0.979,0.795 -1.14,1.413 -0.047,0.181 -0.023,0.352 0.069,0.515 0.097,0.161 0.236,0.266 0.417,0.313 0.181,0.046 0.354,0.022 0.515,-0.07 0.162,-0.097 0.266,-0.236 0.313,-0.416 0.07,-0.259 0.259,-0.462 0.568,-0.609 0.278,-0.128 0.594,-0.191 0.949,-0.191 0.363,0 0.674,0.114 0.933,0.341 0.261,0.225 0.401,0.502 0.416,0.834 0.007,0.202 -0.064,0.38 -0.214,0.54 -0.24,0.253 -0.641,0.385 -1.204,0.393 l -0.006,0 -0.012,0 -0.012,0 c -0.945,0.015 -1.669,0.287 -2.171,0.816 -0.413,0.44 -0.606,0.952 -0.579,1.535 0.031,0.694 0.307,1.281 0.828,1.759 0.522,0.479 1.147,0.719 1.876,0.719 0.629,0 1.193,-0.136 1.691,-0.406 0.597,-0.323 0.977,-0.795 1.14,-1.412 C 0.028,3.825 0.004,3.653 -0.093,3.491 -0.186,3.329 -0.322,3.225 -0.504,3.179 -0.686,3.133 -0.856,3.155 -1.019,3.248 -1.182,3.345 -1.285,3.483 -1.332,3.665 -1.401,3.923 -1.593,4.126 -1.905,4.272 -2.179,4.4 -2.494,4.464 -2.849,4.464 -3.211,4.464 -3.523,4.351 -3.786,4.122 -4.045,3.895 -4.183,3.616 -4.198,3.288 c -0.007,-0.2 0.064,-0.382 0.215,-0.544 0.239,-0.251 0.64,-0.38 1.204,-0.388 l 0.028,0 C -1.805,2.341 -1.081,2.067 -0.579,1.534 -0.166,1.098 0.027,0.587 0,0"/></g><g transform="translate(64.5801,8.6416)" id="g76"><path id="path78" style="fill:#ff1f59;fill-opacity:1;fill-rule:nonzero;stroke:none" d="m 0,0 c -0.188,0 -0.349,0.068 -0.479,0.203 -0.136,0.132 -0.204,0.293 -0.204,0.482 l 0,6.907 c 0,0.189 0.068,0.348 0.204,0.48 0.13,0.136 0.291,0.203 0.479,0.203 0.189,0 0.351,-0.067 0.481,-0.203 C 0.616,7.94 0.685,7.781 0.685,7.592 l 0,-6.907 C 0.685,0.496 0.616,0.335 0.481,0.203 0.351,0.068 0.189,0 0,0"/></g><g transform="translate(70.7646,8.6416)" id="g80"><path id="path82" style="fill:#ff1f59;fill-opacity:1;fill-rule:nonzero;stroke:none" d="m 0,0 c -1.139,0 -2.113,0.404 -2.924,1.211 -0.806,0.81 -1.21,1.786 -1.21,2.925 0,1.141 0.404,2.116 1.21,2.924 C -2.113,7.869 -1.139,8.275 0,8.275 0.937,8.275 1.779,7.989 2.524,7.418 2.671,7.303 2.758,7.151 2.784,6.966 2.808,6.777 2.762,6.607 2.646,6.457 2.53,6.307 2.38,6.22 2.194,6.196 2.006,6.173 1.835,6.218 1.685,6.329 1.19,6.712 0.629,6.903 0,6.903 c -0.761,0 -1.411,-0.27 -1.951,-0.81 -0.541,-0.541 -0.811,-1.194 -0.811,-1.957 0,-0.761 0.27,-1.411 0.811,-1.952 0.54,-0.54 1.19,-0.811 1.951,-0.811 0.718,0 1.339,0.239 1.864,0.718 0.14,0.128 0.303,0.187 0.492,0.18 C 2.546,2.263 2.704,2.188 2.831,2.045 2.959,1.906 3.018,1.742 3.011,1.553 3.003,1.363 2.929,1.205 2.791,1.079 1.999,0.359 1.068,0 0,0"/></g><g transform="translate(29.186,10.917)" id="g84"><path id="path86" style="fill:#ff1f59;fill-opacity:1;fill-rule:nonzero;stroke:none" d="m 0,0 c 0,-0.405 -0.216,-0.779 -0.566,-0.981 l -12.269,-7.083 c -0.176,-0.102 -0.372,-0.153 -0.567,-0.153 -0.196,0 -0.391,0.051 -0.567,0.153 l -12.269,7.083 c -0.35,0.202 -0.566,0.576 -0.566,0.981 l 0,14.167 c 0,0.404 0.216,0.778 0.566,0.981 l 12.269,7.083 c 0.351,0.203 0.783,0.203 1.134,0 L -0.566,15.148 C -0.216,14.945 0,14.571 0,14.167 L 0,0 Z m 1.698,16.571 -14.433,8.333 c -0.413,0.239 -0.921,0.239 -1.333,0 l -14.434,-8.333 c -0.413,-0.238 -0.667,-0.678 -0.667,-1.154 l 0,-16.667 c 0,-0.476 0.254,-0.917 0.667,-1.154 l 14.434,-8.334 c 0.206,-0.119 0.436,-0.179 0.666,-0.179 0.23,0 0.461,0.06 0.667,0.179 l 14.433,8.334 c 0.412,0.237 0.667,0.678 0.667,1.154 l 0,16.667 c 0,0.476 -0.255,0.916 -0.667,1.154"/></g></g></g></g></svg>