<svg xmlns="http://www.w3.org/2000/svg" viewBox="0 0 64 64" enable-background="new 0 0 64 64"><path d="M7 44.2v-6.7c0-.8.3-1.4.9-1.6l8.6-4c-2.2-1.3-3.4-3.5-3.4-6.5 0-1.9.6-3.6 1.8-5.2 1.2-1.4 2.7-2.1 4.5-2.1 1 0 2.1.3 3.1 1-1.6 4.2-1.2 8.1 1.2 11.8-.4.4-.8.7-1.3 1l-5.7 2.7c-1.6.8-2.5 2.2-2.6 4.2v7.1H8.4c-.9 0-1.3-.6-1.4-1.7zm9.7 2.9v-8.4c0-.9.4-1.5 1.1-1.9l7.6-3.5 2.8-1.4c-1.2-.8-2.2-1.9-3-3.3-.7-1.4-1.1-3-1.1-4.7 0-2.5.8-4.7 2.3-6.5s3.4-2.7 5.5-2.7 4 .9 5.5 2.7c1.5 1.8 2.2 4 2.2 6.5 0 3.5-1.3 6.2-3.9 7.9l3 1.5 7.3 3.5c.8.3 1.2.9 1.2 1.9v8.4c-.1 1.2-.7 1.9-1.9 2.1h-27c-.5-.1-.8-.3-1.2-.7-.3-.4-.4-.8-.4-1.4zm23.6-16.5c2.3-3.5 2.6-7.4 1.1-11.5 1-.7 2.1-1 3.3-1.1 1.6 0 3.1.7 4.5 2.1 1.2 1.4 1.8 3.1 1.8 5.2 0 2.7-1.1 4.9-3.2 6.5l8.4 4c.6.3.9.8.9 1.6v6.7c0 1-.5 1.6-1.4 1.7h-5.9v-7.1c0-1.9-.8-3.3-2.5-4.2l-5.5-2.6c-.6-.3-1-.7-1.5-1.3z" fill="#fff"/></svg>