<svg xmlns="http://www.w3.org/2000/svg" viewBox="0 0 64 64" enable-background="new 0 0 64 64"><path d="M26.3 17.6c11.1 0 20.1 9 20.1 20.1h-4.3c0-4.2-1.6-8.2-4.6-11.2s-7-4.6-11.2-4.6v-4.3zm0-8.6C42.1 9 55 21.9 55 37.8h-4.3c0-3.3-.6-6.5-1.9-9.5-1.2-2.9-3-5.5-5.2-7.8-2.2-2.2-4.9-4-7.8-5.2-3-1.3-6.2-1.9-9.5-1.9V9zm8.5 20.2c2 2 2.9 4.5 2.9 7.1-2.9 4.3-2.9 10.1-2.9 10.1-11.5 0-20.1 8.6-20.1 8.6l-.6-.6-1-1 12.7-12.7h.4c1.6 0 2.9-1.3 2.9-2.9s-1.3-2.9-2.9-2.9-2.9 1.3-2.9 2.9v.4L10.7 50.9 9 49.3s8.6-8.6 8.6-20.1c0 0 5.7 0 10.1-2.9 2.6 0 5.1.9 7.1 2.9z" fill="#fff"/></svg>