<svg xmlns="http://www.w3.org/2000/svg" viewBox="0 0 64 64" enable-background="new 0 0 64 64"><path d="M56 17.4c-1.8.8-3.7 1.3-5.7 1.5 2-1.2 3.6-3.1 4.3-5.3-1.9 1.1-4 1.9-6.3 2.3-1.8-1.9-4.4-3.1-7.2-3.1-5.4 0-9.8 4.3-9.8 9.7 0 .8.1 1.5.3 2.2-8.2-.4-15.4-4.3-20.3-10.1-.8 1.4-1.3 3.1-1.3 4.9 0 3.4 1.7 6.3 4.4 8-1.6-.1-3.1-.5-4.5-1.2v.1c0 4.7 3.4 8.6 7.9 9.5-.8.2-1.7.3-2.6.3-.6 0-1.3-.1-1.9-.2 1.3 3.8 4.9 6.6 9.2 6.7-3.4 2.6-7.6 4.1-12.2 4.1-.8 0-1.6 0-2.3-.1 4.4 2.7 9.5 4.3 15.1 4.3 18.1 0 28-14.7 28-27.5v-1.3c1.9-1.2 3.6-2.9 4.9-4.8z" fill="#fff"/></svg>