<svg xmlns="http://www.w3.org/2000/svg" viewBox="0 0 64 64" enable-background="new 0 0 64 64"><path d="M41.9 9.3c1.6 0 2.9 1.3 2.9 2.9s-1.3 2.9-2.9 2.9l-.7-.1-2.7 3.4c1.9 1.3 3.5 3.2 4.7 5.5-3.2 1-7 1.6-11.2 1.6-4.2 0-8-.6-11.2-1.6 1.2-2.2 2.8-4.1 4.5-5.4L22.5 15H22c-1.6 0-2.9-1.3-2.9-2.9 0-1.6 1.3-2.9 2.9-2.9s2.9 1.3 2.9 2.9c0 .6-.2 1.1-.5 1.6l2.8 3.6c1.5-.7 3-1.1 4.7-1.1 1.6 0 3.1.3 4.5 1l2.9-3.7c-.2-.4-.3-.9-.3-1.4 0-1.5 1.3-2.8 2.9-2.8zm9.4 24.5c1 0 1.7.8 1.7 1.7 0 1-.8 1.7-1.7 1.7H46c-.1 1.3-.3 2.5-.5 3.7l6.2 2.9c.9.4 1.3 1.5.8 2.3-.5.9-1.5 1.3-2.4.9l-5.7-2.7C42.2 50 38 54.1 33.1 54.7V27.9c4.1-.1 7.9-.8 11-1.9l.2.6 6-2.3c.9-.3 1.9.1 2.3 1 .3.9-.1 1.9-1 2.3L45.4 30c.3 1.2.5 2.5.5 3.9l5.4-.1zm-38.6 0H18c.1-1.3.3-2.6.5-3.9l-6.2-2.4c-.9-.3-1.4-1.4-1-2.3.3-.9 1.4-1.4 2.3-1l6 2.3.2-.6c3.1 1.1 6.9 1.8 11 1.9v26.8c-4.9-.6-9.1-4.6-11.3-10.4L13.9 47c-.9.4-1.9 0-2.3-.8-.4-.9 0-1.9.8-2.3l6.2-2.9c-.3-1.2-.4-2.4-.5-3.7h-5.3c-1 0-1.7-.8-1.7-1.7-.1-1 .7-1.8 1.6-1.8z" fill="#fff"/></svg>