<?xml version="1.0" encoding="utf-8"?>
<!-- Generator: Adobe Illustrator 16.0.0, SVG Export Plug-In . SVG Version: 6.00 Build 0)  -->
<!DOCTYPE svg PUBLIC "-//W3C//DTD SVG 1.1//EN" "http://www.w3.org/Graphics/SVG/1.1/DTD/svg11.dtd">
<svg version="1.1" id="Layer_1" xmlns="http://www.w3.org/2000/svg" xmlns:xlink="http://www.w3.org/1999/xlink" x="0px" y="0px"
	 width="120.312px" height="104.229px" viewBox="0 0 120.312 104.229" enable-background="new 0 0 120.312 104.229"
	 xml:space="preserve">
<g>
	<polygon fill="#034F86" stroke="#FAC04A" stroke-width="2" stroke-miterlimit="10" points="1.184,52.079 30.714,1.025 
		89.677,1.063 119.129,52.168 89.613,103.204 30.637,103.165 	"/>
	<g>
		<path fill="#FAC04A" d="M36.249,45.848c0,0,0.241,12.536,10.539,22.834c1.48,1.48,2.934,2.674,4.342,3.646
			c-0.025-3.905,1.18-10.044,7.248-16.623C48.222,46.083,36.249,45.848,36.249,45.848z"/>
		<path fill="#FAC04A" d="M60.156,53.908l0.039-0.037c3.002-2.843,6.142-4.919,9.121-6.437c-0.324-14.067-8.679-22.757-8.679-22.757
			s-8.554,8.896-8.688,23.259c2.692,1.464,5.485,3.394,8.168,5.934L60.156,53.908z"/>
		<path fill="#FAC04A" d="M82.896,59.756c-1.665,3.475-4.078,7.21-7.583,10.714c-1.494,1.495-3.074,2.82-4.69,3.938
			c-0.56,0.387-1.126,0.745-1.694,1.082c1.204,0.144,2.498,0.224,3.888,0.224c14.563,0,23.599-8.695,23.599-8.695
			S91.427,62.224,82.896,59.756z"/>
		<path fill="#FAC04A" d="M44.999,70.47c-3.653-3.654-6.12-7.56-7.79-11.157c-8.402,2.485-13.31,7.199-13.31,7.199
			s9.034,8.695,23.598,8.695c1.107,0,2.146-0.057,3.137-0.148l-0.942-0.65C48.074,73.291,46.495,71.965,44.999,70.47z"/>
		<path fill="#FAC04A" d="M77.961,44.237c0.736-6.037-0.231-10.28-0.231-10.28s-3.251,0.881-7.427,3.459
			c0.77,2.646,1.33,5.61,1.497,8.865C74.055,45.323,76.156,44.675,77.961,44.237z"/>
		<path fill="#FAC04A" d="M49.455,46.695c0.135-3.348,0.691-6.394,1.467-9.11c-4.307-2.712-7.701-3.628-7.701-3.628
			s-0.987,4.32-0.212,10.445C44.917,44.901,47.116,45.629,49.455,46.695z"/>
		<path fill="#FAC04A" d="M73.525,68.682c10.298-10.298,10.539-22.834,10.539-22.834s-11.974,0.235-22.13,9.857
			c-0.235,0.224-0.473,0.446-0.706,0.68c-0.377,0.377-0.731,0.753-1.072,1.126c-6.45,7.05-6.753,13.388-6.406,16.409
			c2.38,1.247,4.56,1.872,6.406,2.146c1.848-0.274,4.026-0.899,6.406-2.146c0.851-0.446,1.727-0.973,2.621-1.592
			C70.592,71.356,72.045,70.163,73.525,68.682z"/>
	</g>
</g>
</svg>
